<?xml version="1.0" encoding="UTF-8"?>
<svg xmlns="http://www.w3.org/2000/svg" xmlns:xlink="http://www.w3.org/1999/xlink" viewBox="0 0 933.62 669.29">
  <defs>
    <style>
      .cls-1 {
        fill: #545;
      }

      .cls-1, .cls-2, .cls-3, .cls-4, .cls-5, .cls-6, .cls-7, .cls-8, .cls-9, .cls-10, .cls-11, .cls-12, .cls-13, .cls-14, .cls-15, .cls-16, .cls-17, .cls-18, .cls-19, .cls-20, .cls-21, .cls-22, .cls-23, .cls-24, .cls-25, .cls-26, .cls-27, .cls-28, .cls-29, .cls-30, .cls-31, .cls-32, .cls-33, .cls-34, .cls-35, .cls-36, .cls-37, .cls-38, .cls-39, .cls-40, .cls-41, .cls-42, .cls-43, .cls-44, .cls-45, .cls-46, .cls-47, .cls-48, .cls-49, .cls-50, .cls-51, .cls-52, .cls-53, .cls-54, .cls-55, .cls-56, .cls-57, .cls-58, .cls-59, .cls-60, .cls-61, .cls-62, .cls-63, .cls-64, .cls-65, .cls-66, .cls-67, .cls-68, .cls-69, .cls-70, .cls-71, .cls-72, .cls-73, .cls-74, .cls-75, .cls-76, .cls-77, .cls-78, .cls-79, .cls-80, .cls-81, .cls-82, .cls-83, .cls-84, .cls-85, .cls-86, .cls-87, .cls-88, .cls-89, .cls-90, .cls-91, .cls-92, .cls-93 {
        stroke-width: 0px;
      }

      .cls-2 {
        fill: #fbfdfe;
      }

      .cls-3 {
        fill: url(#_Безымянный_градиент_83-3);
      }

      .cls-4 {
        fill: url(#_Безымянный_градиент_81-14);
      }

      .cls-5 {
        fill: url(#_Безымянный_градиент_82-13);
      }

      .cls-6 {
        fill: url(#_Безымянный_градиент_82);
      }

      .cls-7 {
        fill: url(#_Безымянный_градиент_73);
      }

      .cls-8 {
        fill: url(#_Безымянный_градиент_81-18);
      }

      .cls-9 {
        fill: url(#_Безымянный_градиент_75-3);
      }

      .cls-10 {
        fill: url(#_Безымянный_градиент_81-8);
      }

      .cls-11 {
        fill: url(#_Безымянный_градиент_80-6);
      }

      .cls-12 {
        fill: url(#_Безымянный_градиент_77-3);
      }

      .cls-13 {
        fill: url(#_Безымянный_градиент_81-17);
      }

      .cls-14 {
        fill: url(#_Безымянный_градиент_81-11);
      }

      .cls-15 {
        fill: url(#_Безымянный_градиент_75-4);
      }

      .cls-16 {
        fill: url(#_Безымянный_градиент_75-8);
      }

      .cls-17 {
        fill: url(#_Безымянный_градиент_82-14);
      }

      .cls-18 {
        fill: url(#_Безымянный_градиент_82-7);
      }

      .cls-19 {
        fill: url(#_Безымянный_градиент_80-3);
      }

      .cls-20 {
        fill: url(#_Безымянный_градиент_80-4);
      }

      .cls-21 {
        fill: url(#_Безымянный_градиент_81-7);
      }

      .cls-22 {
        fill: url(#_Безымянный_градиент_82-15);
      }

      .cls-23 {
        fill: url(#_Безымянный_градиент_81-2);
      }

      .cls-94 {
        isolation: isolate;
      }

      .cls-24 {
        fill: url(#_Безымянный_градиент_80-7);
      }

      .cls-25 {
        fill: url(#_Безымянный_градиент_83);
      }

      .cls-26 {
        fill: url(#_Безымянный_градиент_83-5);
      }

      .cls-27 {
        fill: #28333a;
      }

      .cls-28 {
        fill: url(#_Безымянный_градиент_75-6);
      }

      .cls-29 {
        fill: url(#_Безымянный_градиент_82-9);
      }

      .cls-30 {
        fill: url(#_Безымянный_градиент_81-21);
      }

      .cls-31 {
        fill: url(#_Безымянный_градиент_83-4);
      }

      .cls-32, .cls-44 {
        fill: #cfd3d3;
      }

      .cls-32, .cls-74, .cls-95 {
        mix-blend-mode: multiply;
      }

      .cls-33 {
        fill: url(#_Безымянный_градиент_87);
      }

      .cls-34 {
        fill: none;
      }

      .cls-35 {
        fill: url(#_Безымянный_градиент_81-10);
      }

      .cls-36 {
        fill: url(#_Безымянный_градиент_81-19);
      }

      .cls-37 {
        fill: url(#_Безымянный_градиент_81);
      }

      .cls-38 {
        fill: #eeebf4;
      }

      .cls-39 {
        fill: url(#_Безымянный_градиент_81-13);
      }

      .cls-40 {
        fill: #66773f;
      }

      .cls-41 {
        fill: url(#_Безымянный_градиент_74-5);
      }

      .cls-42 {
        fill: url(#_Безымянный_градиент_81-12);
      }

      .cls-43 {
        fill: url(#_Безымянный_градиент_80);
      }

      .cls-45 {
        fill: #e4d975;
        opacity: .7;
      }

      .cls-46 {
        fill: #274959;
      }

      .cls-47 {
        fill: url(#_Безымянный_градиент_82-10);
      }

      .cls-48 {
        fill: url(#_Безымянный_градиент_82-16);
      }

      .cls-49 {
        fill: #fff;
      }

      .cls-50 {
        fill: url(#_Безымянный_градиент_77);
      }

      .cls-51 {
        fill: url(#_Безымянный_градиент_75-7);
      }

      .cls-52 {
        fill: url(#_Безымянный_градиент_74-3);
      }

      .cls-53 {
        fill: #afbd22;
      }

      .cls-54 {
        fill: url(#_Безымянный_градиент_75-5);
      }

      .cls-55 {
        fill: url(#_Безымянный_градиент_10);
      }

      .cls-56 {
        fill: url(#_Безымянный_градиент_77-2);
      }

      .cls-57 {
        fill: url(#_Безымянный_градиент_75-2);
      }

      .cls-96 {
        mix-blend-mode: screen;
      }

      .cls-58 {
        fill: url(#_Безымянный_градиент_83-6);
      }

      .cls-59 {
        fill: url(#_Безымянный_градиент_82-18);
      }

      .cls-60 {
        fill: url(#_Безымянный_градиент_77-4);
      }

      .cls-97 {
        clip-path: url(#clippath);
      }

      .cls-61 {
        fill: url(#_Безымянный_градиент_81-20);
      }

      .cls-62 {
        fill: url(#_Безымянный_градиент_82-4);
      }

      .cls-63 {
        fill: #313f49;
      }

      .cls-64 {
        fill: url(#_Безымянный_градиент_74-4);
      }

      .cls-65 {
        fill: url(#_Безымянный_градиент_81-4);
      }

      .cls-66 {
        fill: url(#_Безымянный_градиент_82-11);
      }

      .cls-67 {
        fill: #c4e2e5;
      }

      .cls-68 {
        fill: url(#_Безымянный_градиент_82-2);
      }

      .cls-69 {
        fill: url(#_Безымянный_градиент_101);
      }

      .cls-70 {
        fill: url(#_Безымянный_градиент_81-15);
      }

      .cls-71 {
        fill: url(#_Безымянный_градиент_81-6);
      }

      .cls-72 {
        fill: #223943;
      }

      .cls-73 {
        fill: url(#_Безымянный_градиент_75);
      }

      .cls-74, .cls-75 {
        fill: #c1ae97;
      }

      .cls-76 {
        fill: url(#_Безымянный_градиент_82-19);
      }

      .cls-77 {
        fill: url(#_Безымянный_градиент_81-9);
      }

      .cls-78 {
        fill: url(#_Безымянный_градиент_80-2);
      }

      .cls-79 {
        fill: url(#_Безымянный_градиент_82-17);
      }

      .cls-80 {
        fill: url(#_Безымянный_градиент_74);
      }

      .cls-81 {
        fill: url(#_Безымянный_градиент_82-3);
      }

      .cls-82 {
        fill: url(#_Безымянный_градиент_101-2);
      }

      .cls-83 {
        fill: url(#_Безымянный_градиент_83-2);
      }

      .cls-84 {
        fill: url(#_Безымянный_градиент_82-12);
      }

      .cls-85 {
        fill: url(#_Безымянный_градиент_81-16);
      }

      .cls-86 {
        fill: url(#_Безымянный_градиент_81-3);
      }

      .cls-87 {
        fill: url(#_Безымянный_градиент_82-8);
      }

      .cls-88 {
        fill: url(#_Безымянный_градиент_81-5);
      }

      .cls-89 {
        fill: url(#_Безымянный_градиент_74-2);
      }

      .cls-90 {
        fill: #f5fdff;
      }

      .cls-91 {
        fill: url(#_Безымянный_градиент_80-5);
      }

      .cls-92 {
        fill: url(#_Безымянный_градиент_82-5);
      }

      .cls-93 {
        fill: url(#_Безымянный_градиент_82-6);
      }
    </style>
    <linearGradient id="_Безымянный_градиент_82" data-name="Безымянный градиент 82" x1="608.43" y1="668.8" x2="608.43" y2="812.87" gradientTransform="translate(-265.73 -433.46) scale(1.07 1.06) skewX(.01)" gradientUnits="userSpaceOnUse">
      <stop offset="0" stop-color="#73789d"/>
      <stop offset=".28" stop-color="#9fa4bd"/>
      <stop offset=".6" stop-color="#cdd2de"/>
      <stop offset=".86" stop-color="#e9eef2"/>
      <stop offset="1" stop-color="#f4f9fa"/>
    </linearGradient>
    <linearGradient id="_Безымянный_градиент_83" data-name="Безымянный градиент 83" x1="379.46" y1="659" x2="379.46" y2="797.44" gradientTransform="translate(4.7 -430.37) rotate(-.03) scale(1 1.06) skewX(-.07)" gradientUnits="userSpaceOnUse">
      <stop offset="0" stop-color="#fff"/>
      <stop offset=".99" stop-color="#f5fdff"/>
    </linearGradient>
    <linearGradient id="_Безымянный_градиент_87" data-name="Безымянный градиент 87" x1="228.02" y1="359.98" x2="539.8" y2="359.98" gradientUnits="userSpaceOnUse">
      <stop offset="0" stop-color="#73789d"/>
      <stop offset=".62" stop-color="#c5cad8"/>
      <stop offset="1" stop-color="#f4f9fa"/>
    </linearGradient>
    <linearGradient id="_Безымянный_градиент_82-2" data-name="Безымянный градиент 82" x1="549.14" y1="451.93" x2="539.91" y2="466.01" gradientTransform="matrix(1,0,0,1,0,0)" xlink:href="#_Безымянный_градиент_82"/>
    <linearGradient id="_Безымянный_градиент_83-2" data-name="Безымянный градиент 83" x1="3741.02" y1="16162.69" x2="3744.9" y2="16156.73" gradientTransform="translate(13175.2 12077.43) rotate(150.26) scale(1.36 1)" xlink:href="#_Безымянный_градиент_83"/>
    <clipPath id="clippath">
      <path class="cls-34" d="m456.27,363.07v-.58s0,.02,0,.02v.56Z"/>
    </clipPath>
    <linearGradient id="_Безымянный_градиент_80" data-name="Безымянный градиент 80" x1="293.45" y1="278.76" x2="335.98" y2="278.76" gradientUnits="userSpaceOnUse">
      <stop offset="0" stop-color="#afbd22"/>
      <stop offset="1" stop-color="#ecad11"/>
    </linearGradient>
    <linearGradient id="_Безымянный_градиент_77" data-name="Безымянный градиент 77" x1="230.21" y1="245.35" x2="335.96" y2="245.35" gradientUnits="userSpaceOnUse">
      <stop offset="0" stop-color="#bad775"/>
      <stop offset="1" stop-color="#afbd22"/>
    </linearGradient>
    <linearGradient id="_Безымянный_градиент_77-2" data-name="Безымянный градиент 77" x1="225.84" y1="347.89" x2="246.98" y2="313.08" xlink:href="#_Безымянный_градиент_77"/>
    <linearGradient id="_Безымянный_градиент_80-2" data-name="Безымянный градиент 80" x1="247.29" y1="337.59" x2="323.18" y2="337.59" xlink:href="#_Безымянный_градиент_80"/>
    <linearGradient id="_Безымянный_градиент_83-3" data-name="Безымянный градиент 83" x1="247.29" y1="335.58" x2="380.74" y2="335.58" gradientTransform="matrix(1,0,0,1,0,0)" xlink:href="#_Безымянный_градиент_83"/>
    <linearGradient id="_Безымянный_градиент_82-3" data-name="Безымянный градиент 82" x1="440.69" y1="468.34" x2="436.29" y2="393.45" gradientTransform="matrix(1,0,0,1,0,0)" xlink:href="#_Безымянный_градиент_82"/>
    <linearGradient id="_Безымянный_градиент_82-4" data-name="Безымянный градиент 82" x1="380.74" y1="365.24" x2="493.34" y2="365.24" gradientTransform="matrix(1,0,0,1,0,0)" xlink:href="#_Безымянный_градиент_82"/>
    <linearGradient id="_Безымянный_градиент_82-5" data-name="Безымянный градиент 82" x1="771.39" y1="195.24" x2="802.55" y2="195.24" gradientTransform="matrix(1,0,0,1,0,0)" xlink:href="#_Безымянный_градиент_82"/>
    <linearGradient id="_Безымянный_градиент_80-3" data-name="Безымянный градиент 80" x1="715.07" y1="198.77" x2="755.91" y2="198.77" xlink:href="#_Безымянный_градиент_80"/>
    <linearGradient id="_Безымянный_градиент_82-6" data-name="Безымянный градиент 82" x1="727.01" y1="172.43" x2="756.82" y2="172.43" gradientTransform="matrix(1,0,0,1,0,0)" xlink:href="#_Безымянный_градиент_82"/>
    <linearGradient id="_Безымянный_градиент_82-7" data-name="Безымянный градиент 82" x1="-584.31" y1="246.13" x2="-475.17" y2="246.13" gradientTransform="translate(1240)" xlink:href="#_Безымянный_градиент_82"/>
    <linearGradient id="_Безымянный_градиент_82-8" data-name="Безымянный градиент 82" x1="-530.03" y1="239.32" x2="-535.24" y2="247.74" gradientTransform="translate(1240)" xlink:href="#_Безымянный_градиент_82"/>
    <linearGradient id="_Безымянный_градиент_82-9" data-name="Безымянный градиент 82" x1="-519.27" y1="244.35" x2="-512.54" y2="232.67" gradientTransform="translate(1240)" xlink:href="#_Безымянный_градиент_82"/>
    <linearGradient id="_Безымянный_градиент_83-4" data-name="Безымянный градиент 83" x1="8803.17" y1="239.33" x2="8890.58" y2="239.33" gradientTransform="translate(9523.11) rotate(-180) scale(1 -1)" xlink:href="#_Безымянный_градиент_83"/>
    <linearGradient id="_Безымянный_градиент_82-10" data-name="Безымянный градиент 82" x1="8855.55" y1="253.17" x2="8836.1" y2="220.52" gradientTransform="translate(9523.11) rotate(-180) scale(1 -1)" xlink:href="#_Безымянный_градиент_82"/>
    <linearGradient id="_Безымянный_градиент_82-11" data-name="Безымянный градиент 82" x1="8843.72" y1="244.17" x2="8849.53" y2="249.99" gradientTransform="translate(9523.11) rotate(-180) scale(1 -1)" xlink:href="#_Безымянный_градиент_82"/>
    <linearGradient id="_Безымянный_градиент_80-4" data-name="Безымянный градиент 80" x1="768.23" y1="209.81" x2="808.77" y2="209.81" xlink:href="#_Безымянный_градиент_80"/>
    <linearGradient id="_Безымянный_градиент_82-12" data-name="Безымянный градиент 82" x1="736.46" y1="176.37" x2="785.33" y2="176.37" gradientTransform="matrix(1,0,0,1,0,0)" xlink:href="#_Безымянный_градиент_82"/>
    <linearGradient id="_Безымянный_градиент_101" data-name="Безымянный градиент 101" x1="1363.63" y1="549.37" x2="1446.44" y2="549.37" gradientTransform="translate(-1362.62)" gradientUnits="userSpaceOnUse">
      <stop offset="0" stop-color="#afbd22"/>
      <stop offset="1" stop-color="#bad775"/>
    </linearGradient>
    <linearGradient id="_Безымянный_градиент_80-5" data-name="Безымянный градиент 80" x1="1363.63" y1="562.36" x2="1446.43" y2="562.36" gradientTransform="translate(-1362.62)" xlink:href="#_Безымянный_градиент_80"/>
    <linearGradient id="_Безымянный_градиент_81" data-name="Безымянный градиент 81" x1="1385.31" y1="501.9" x2="1430.42" y2="517.09" gradientTransform="translate(-1362.62)" gradientUnits="userSpaceOnUse">
      <stop offset="0" stop-color="#dbe6ef"/>
      <stop offset=".08" stop-color="#dae3e2"/>
      <stop offset=".28" stop-color="#d8dfca"/>
      <stop offset=".49" stop-color="#d7ddba"/>
      <stop offset=".71" stop-color="#d7dbb0"/>
      <stop offset="1" stop-color="#d7dbad"/>
    </linearGradient>
    <linearGradient id="_Безымянный_градиент_101-2" data-name="Безымянный градиент 101" x1="1362.63" y1="465.91" x2="1447.44" y2="465.91" xlink:href="#_Безымянный_градиент_101"/>
    <linearGradient id="_Безымянный_градиент_80-6" data-name="Безымянный градиент 80" x1="1362.62" y1="478.9" x2="1447.42" y2="478.9" gradientTransform="translate(-1362.62)" xlink:href="#_Безымянный_градиент_80"/>
    <linearGradient id="_Безымянный_градиент_82-13" data-name="Безымянный градиент 82" x1="7469.1" y1="445.42" x2="7571.17" y2="445.42" gradientTransform="translate(7608.78) rotate(-180) scale(1 -1)" xlink:href="#_Безымянный_градиент_82"/>
    <linearGradient id="_Безымянный_градиент_82-14" data-name="Безымянный градиент 82" x1="7519.86" y1="439.05" x2="7514.99" y2="446.93" gradientTransform="translate(7608.78) rotate(-180) scale(1 -1)" xlink:href="#_Безымянный_градиент_82"/>
    <linearGradient id="_Безымянный_градиент_82-15" data-name="Безымянный градиент 82" x1="7529.92" y1="443.76" x2="7536.22" y2="432.83" gradientTransform="translate(7608.78) rotate(-180) scale(1 -1)" xlink:href="#_Безымянный_градиент_82"/>
    <linearGradient id="_Безымянный_градиент_83-5" data-name="Безымянный градиент 83" x1="7575.04" y1="398.47" x2="7518.59" y2="366.99" gradientTransform="translate(7608.78) rotate(-180) scale(1 -1)" xlink:href="#_Безымянный_градиент_83"/>
    <linearGradient id="_Безымянный_градиент_83-6" data-name="Безымянный градиент 83" x1="753.92" y1="439.06" x2="835.66" y2="439.06" gradientTransform="translate(-674.32)" xlink:href="#_Безымянный_градиент_83"/>
    <linearGradient id="_Безымянный_градиент_82-16" data-name="Безымянный градиент 82" x1="802.91" y1="452" x2="784.72" y2="421.47" gradientTransform="translate(-674.32)" xlink:href="#_Безымянный_градиент_82"/>
    <linearGradient id="_Безымянный_градиент_82-17" data-name="Безымянный градиент 82" x1="791.84" y1="443.59" x2="797.28" y2="449.03" gradientTransform="translate(-674.32)" xlink:href="#_Безымянный_градиент_82"/>
    <linearGradient id="_Безымянный_градиент_82-18" data-name="Безымянный градиент 82" x1="415.4" y1="233.89" x2="408.44" y2="214.17" gradientTransform="translate(-365.94)" xlink:href="#_Безымянный_градиент_82"/>
    <linearGradient id="_Безымянный_градиент_75" data-name="Безымянный градиент 75" x1="412.18" y1="242.86" x2="410.42" y2="237.57" gradientTransform="translate(-365.93)" gradientUnits="userSpaceOnUse">
      <stop offset="0" stop-color="#fff"/>
      <stop offset="1" stop-color="#f4f9fa"/>
    </linearGradient>
    <linearGradient id="_Безымянный_градиент_75-2" data-name="Безымянный градиент 75" x1="403.62" y1="242.82" x2="401.16" y2="235.46" xlink:href="#_Безымянный_градиент_75"/>
    <linearGradient id="_Безымянный_градиент_75-3" data-name="Безымянный градиент 75" x1="420.17" y1="242.79" x2="419.04" y2="239.4" xlink:href="#_Безымянный_градиент_75"/>
    <linearGradient id="_Безымянный_градиент_75-4" data-name="Безымянный градиент 75" x1="428.35" y1="241.9" x2="427.77" y2="240.17" gradientTransform="translate(-365.94)" xlink:href="#_Безымянный_градиент_75"/>
    <linearGradient id="_Безымянный_градиент_82-19" data-name="Безымянный градиент 82" x1="6526.7" y1="50.85" x2="6514.06" y2="26.13" gradientTransform="translate(7296.29) rotate(-180) scale(1 -1)" xlink:href="#_Безымянный_градиент_82"/>
    <linearGradient id="_Безымянный_градиент_77-3" data-name="Безымянный градиент 77" x1="3874.7" y1="28.28" x2="3874.7" y2="64.72" gradientTransform="translate(4614.07) rotate(-180) scale(1 -1) skewX(-21.88)" xlink:href="#_Безымянный_градиент_77"/>
    <linearGradient id="_Безымянный_градиент_77-4" data-name="Безымянный градиент 77" x1="3866.88" y1="29.76" x2="3866.88" y2="62.9" gradientTransform="translate(4614.07) rotate(-180) scale(1 -1) skewX(-21.88)" xlink:href="#_Безымянный_градиент_77"/>
    <linearGradient id="_Безымянный_градиент_75-5" data-name="Безымянный градиент 75" x1="7686.81" y1="611.29" x2="7656.36" y2="562.68" gradientTransform="translate(8124.69) rotate(-180) scale(1 -1)" xlink:href="#_Безымянный_градиент_75"/>
    <linearGradient id="_Безымянный_градиент_81-2" data-name="Безымянный градиент 81" x1="7711.34" y1="568.26" x2="7724.36" y2="601.01" gradientTransform="translate(8124.69) rotate(-180) scale(1 -1)" xlink:href="#_Безымянный_градиент_81"/>
    <linearGradient id="_Безымянный_градиент_81-3" data-name="Безымянный градиент 81" x1="7698.46" y1="573.37" x2="7711.48" y2="606.13" gradientTransform="translate(8124.69) rotate(-180) scale(1 -1)" xlink:href="#_Безымянный_градиент_81"/>
    <linearGradient id="_Безымянный_градиент_81-4" data-name="Безымянный градиент 81" x1="7685.59" y1="578.49" x2="7698.6" y2="611.24" gradientTransform="translate(8124.69) rotate(-180) scale(1 -1)" xlink:href="#_Безымянный_градиент_81"/>
    <linearGradient id="_Безымянный_градиент_81-5" data-name="Безымянный градиент 81" x1="7672.71" y1="583.61" x2="7685.73" y2="616.36" gradientTransform="translate(8124.69) rotate(-180) scale(1 -1)" xlink:href="#_Безымянный_градиент_81"/>
    <linearGradient id="_Безымянный_градиент_81-6" data-name="Безымянный градиент 81" x1="7659.83" y1="588.73" x2="7672.85" y2="621.48" gradientTransform="translate(8124.69) rotate(-180) scale(1 -1)" xlink:href="#_Безымянный_градиент_81"/>
    <linearGradient id="_Безымянный_градиент_81-7" data-name="Безымянный градиент 81" x1="7710.25" y1="568.69" x2="7723.27" y2="601.44" gradientTransform="translate(8124.69) rotate(-180) scale(1 -1)" xlink:href="#_Безымянный_градиент_81"/>
    <linearGradient id="_Безымянный_градиент_81-8" data-name="Безымянный градиент 81" x1="7697.38" y1="573.81" x2="7710.39" y2="606.56" gradientTransform="translate(8124.69) rotate(-180) scale(1 -1)" xlink:href="#_Безымянный_градиент_81"/>
    <linearGradient id="_Безымянный_градиент_81-9" data-name="Безымянный градиент 81" x1="7684.5" y1="578.92" x2="7697.52" y2="611.68" gradientTransform="translate(8124.69) rotate(-180) scale(1 -1)" xlink:href="#_Безымянный_градиент_81"/>
    <linearGradient id="_Безымянный_градиент_81-10" data-name="Безымянный градиент 81" x1="7671.63" y1="584.04" x2="7684.64" y2="616.79" gradientTransform="translate(8124.69) rotate(-180) scale(1 -1)" xlink:href="#_Безымянный_градиент_81"/>
    <linearGradient id="_Безымянный_градиент_81-11" data-name="Безымянный градиент 81" x1="7658.75" y1="589.16" x2="7671.77" y2="621.91" gradientTransform="translate(8124.69) rotate(-180) scale(1 -1)" xlink:href="#_Безымянный_градиент_81"/>
    <linearGradient id="_Безымянный_градиент_81-12" data-name="Безымянный градиент 81" x1="7709.17" y1="569.12" x2="7722.19" y2="601.87" gradientTransform="translate(8124.69) rotate(-180) scale(1 -1)" xlink:href="#_Безымянный_градиент_81"/>
    <linearGradient id="_Безымянный_градиент_81-13" data-name="Безымянный градиент 81" x1="7696.29" y1="574.24" x2="7709.31" y2="606.99" gradientTransform="translate(8124.69) rotate(-180) scale(1 -1)" xlink:href="#_Безымянный_градиент_81"/>
    <linearGradient id="_Безымянный_градиент_81-14" data-name="Безымянный градиент 81" x1="7683.42" y1="579.35" x2="7696.43" y2="612.11" gradientTransform="translate(8124.69) rotate(-180) scale(1 -1)" xlink:href="#_Безымянный_градиент_81"/>
    <linearGradient id="_Безымянный_градиент_81-15" data-name="Безымянный градиент 81" x1="7670.54" y1="584.47" x2="7683.56" y2="617.22" gradientTransform="translate(8124.69) rotate(-180) scale(1 -1)" xlink:href="#_Безымянный_градиент_81"/>
    <linearGradient id="_Безымянный_градиент_81-16" data-name="Безымянный градиент 81" x1="7657.66" y1="589.59" x2="7670.68" y2="622.34" gradientTransform="translate(8124.69) rotate(-180) scale(1 -1)" xlink:href="#_Безымянный_градиент_81"/>
    <linearGradient id="_Безымянный_градиент_81-17" data-name="Безымянный градиент 81" x1="7708.08" y1="569.55" x2="7721.1" y2="602.3" gradientTransform="translate(8124.69) rotate(-180) scale(1 -1)" xlink:href="#_Безымянный_градиент_81"/>
    <linearGradient id="_Безымянный_градиент_81-18" data-name="Безымянный градиент 81" x1="7695.21" y1="574.67" x2="7708.22" y2="607.42" gradientTransform="translate(8124.69) rotate(-180) scale(1 -1)" xlink:href="#_Безымянный_градиент_81"/>
    <linearGradient id="_Безымянный_градиент_81-19" data-name="Безымянный градиент 81" x1="7682.33" y1="579.79" x2="7695.35" y2="612.54" gradientTransform="translate(8124.69) rotate(-180) scale(1 -1)" xlink:href="#_Безымянный_градиент_81"/>
    <linearGradient id="_Безымянный_градиент_81-20" data-name="Безымянный градиент 81" x1="7669.45" y1="584.9" x2="7682.47" y2="617.65" gradientTransform="translate(8124.69) rotate(-180) scale(1 -1)" xlink:href="#_Безымянный_градиент_81"/>
    <linearGradient id="_Безымянный_градиент_81-21" data-name="Безымянный градиент 81" x1="7656.58" y1="590.02" x2="7669.6" y2="622.77" gradientTransform="translate(8124.69) rotate(-180) scale(1 -1)" xlink:href="#_Безымянный_градиент_81"/>
    <linearGradient id="_Безымянный_градиент_80-7" data-name="Безымянный градиент 80" x1="7681.7" y1="597.15" x2="7699.22" y2="597.15" gradientTransform="translate(8124.69) rotate(-180) scale(1 -1)" xlink:href="#_Безымянный_градиент_80"/>
    <linearGradient id="_Безымянный_градиент_74" data-name="Безымянный градиент 74" x1="295.9" y1="603.73" x2="290.12" y2="604.27" gradientUnits="userSpaceOnUse">
      <stop offset="0" stop-color="#73789d"/>
      <stop offset=".55" stop-color="#bcc1d2"/>
      <stop offset="1" stop-color="#f4f9fa"/>
    </linearGradient>
    <linearGradient id="_Безымянный_градиент_74-2" data-name="Безымянный градиент 74" x1="315.99" y1="619.94" x2="301.89" y2="597.75" xlink:href="#_Безымянный_градиент_74"/>
    <linearGradient id="_Безымянный_градиент_75-6" data-name="Безымянный градиент 75" x1="306.25" y1="589.54" x2="313.77" y2="617.36" gradientTransform="matrix(1,0,0,1,0,0)" xlink:href="#_Безымянный_градиент_75"/>
    <linearGradient id="_Безымянный_градиент_74-3" data-name="Безымянный градиент 74" x1="319.53" y1="617.69" x2="305.43" y2="595.51" xlink:href="#_Безымянный_градиент_74"/>
    <linearGradient id="_Безымянный_градиент_75-7" data-name="Безымянный градиент 75" x1="310.68" y1="588.34" x2="318.2" y2="616.16" gradientTransform="matrix(1,0,0,1,0,0)" xlink:href="#_Безымянный_градиент_75"/>
    <linearGradient id="_Безымянный_градиент_74-4" data-name="Безымянный градиент 74" x1="323.2" y1="615.36" x2="309.1" y2="593.17" xlink:href="#_Безымянный_градиент_74"/>
    <linearGradient id="_Безымянный_градиент_75-8" data-name="Безымянный градиент 75" x1="315.4" y1="587.06" x2="322.92" y2="614.89" gradientTransform="matrix(1,0,0,1,0,0)" xlink:href="#_Безымянный_градиент_75"/>
    <linearGradient id="_Безымянный_градиент_74-5" data-name="Безымянный градиент 74" x1="327.88" y1="612.39" x2="313.78" y2="590.2" xlink:href="#_Безымянный_градиент_74"/>
    <linearGradient id="_Безымянный_градиент_73" data-name="Безымянный градиент 73" x1="312.86" y1="603.43" x2="332.38" y2="603.43" gradientUnits="userSpaceOnUse">
      <stop offset="0" stop-color="#223943"/>
      <stop offset=".99" stop-color="#3f4351"/>
    </linearGradient>
    <linearGradient id="_Безымянный_градиент_10" data-name="Безымянный градиент 10" x1="-3089.92" y1="11746.53" x2="-3089.92" y2="11704.36" gradientTransform="translate(12069.04 3693.9) rotate(90)" gradientUnits="userSpaceOnUse">
      <stop offset="0" stop-color="#000"/>
      <stop offset="1" stop-color="#fff"/>
    </linearGradient>
  </defs>
  <g class="cls-94">
    <g id="Layer_2" data-name="Layer 2">
      <g id="Layer_4" data-name="Layer 4">
        <g>
          <g>
            <g>
              <path class="cls-32" d="m763.48,536.7l-152.29-92.45c-10.67-6.32-23.57-7.29-34.94-2.88-.04-.02-.07-.05-.1-.07l-31.39-18.33c-5.45-3.18-12.18-3.24-17.69-.16h0c-6.06,3.4-6.13,12.09-.14,15.59l31.39,18.33c.82.48,1.67.88,2.53,1.21-1.58,8.16,1.68,17.14,9.84,21.97l152.29,92.45c12.32,7.29,27.58,7.48,40.07.48h0c14.02-7.86,14.26-27.95.43-36.13Z"/>
              <ellipse class="cls-32" cx="420.39" cy="359.98" rx="102.77" ry="160.43" transform="translate(6.67 727.6) rotate(-82.2)"/>
              <path class="cls-6" d="m203.43,369.03v20.35c0,17.53,7.3,34.35,20.35,46.06,34.28,30.72,92.49,53.58,158.74,54.3,67.04.73,126.27-21.3,161.02-51.86,13.29-11.69,20.72-28.68,20.72-46.38v-22.46H203.43Z"/>
              <path class="cls-25" d="m382.52,473.71c99.52,1.08,180.73-47.3,181.39-108.05.66-60.76-79.48-110.89-179-111.97-99.52-1.08-180.73,47.3-181.39,108.05-.66,60.76,79.48,110.89,178.99,111.97Z"/>
              <path class="cls-33" d="m382.93,450.12c86.09.94,156.33-38.66,156.87-88.45.54-49.79-68.81-90.91-154.91-91.84-86.09-.94-156.33,38.67-156.87,88.45s68.81,90.91,154.91,91.84Z"/>
              <path class="cls-68" d="m521.14,455.66l31.39,18.33c5.45,3.18,12.18,3.24,17.69.16h0c6.06-3.39,6.13-12.08.14-15.58l-31.39-18.33c-5.45-3.18-12.18-3.24-17.69-.16h0c-6.06,3.39-6.13,12.08-.14,15.59Z"/>
              <path class="cls-63" d="m564.9,497.17l138.42,81.99c12.32,7.29,27.58,7.48,40.07.48h0c14.02-7.86,14.26-27.95.43-36.13l-138.42-81.99c-12.32-7.3-27.58-7.48-40.07-.48h0c-14.02,7.86-14.26,27.95-.43,36.13Z"/>
              <path class="cls-83" d="m746.96,567.23c-1.51-2.64-6.1-2.85-10.26-.47-4.16,2.38-6.31,6.44-4.8,9.08,1.51,2.64,6.1,2.85,10.26.47s6.31-6.44,4.8-9.08Z"/>
            </g>
            <g>
              <g>
                <path class="cls-27" d="m493.29,281.84l.29,137.11c29.3-16.16,44.09-37.38,44.02-58.57l-.05-129.21c.06,21.19-44.27,50.67-44.27,50.67Z"/>
                <path class="cls-27" d="m453.55,219.46c-.26-1.21-.63-2.39-1.11-3.59-6.8-16.68-29.43-24.35-46.83-27.23-19.69-3.27-41-2.04-59.68,4.74-3.51,1.27-6.85,2.74-9.97,4.4l.22,139.4c3.12-1.66,6.46-3.12,9.97-4.39,18.36-6.67,39.23-7.93,58.61-4.91,16.68,2.6,37.47,9.3,46.31,23.79.73,1.19,1.59,2.39,2.1,3.62.24.57.56,1.14.86,1.72v-133.85s-.02-.02-.02-.04c-.04-1.22-.2-2.44-.46-3.66Z"/>
                <polygon class="cls-27" points="433.57 338.9 493.29 370.8 493.29 284.68 433.57 252.78 433.57 338.9"/>
                <polygon class="cls-27" points="276.27 318.47 335.98 350.38 335.98 200.66 276.27 168.76 276.27 318.47"/>
                <path class="cls-63" d="m494.06,168.68c-60.49-39.19-157.51-32.04-217.86,0l59.76,31.93c27.15-14.39,70.98-14.4,97.94,0,26.95,14.41,26.81,37.76-.32,52.16l59.78,31.94c60.36-32.04,57.41-79.31.71-116.04Z"/>
              </g>
              <g class="cls-97">
                <rect class="cls-40" x="456.27" y="362.49" width="0" height=".58"/>
                <rect class="cls-2" x="456.27" y="362.49" width="0" height=".58"/>
              </g>
              <polygon class="cls-43" points="293.45 327.65 335.98 350.38 335.98 229.87 293.45 207.15 293.45 327.65"/>
              <path class="cls-50" d="m335.96,229.65l-59.76-31.94c-48.29,25.63-59.63,62.96-28.91,95.27l75.67-20.5c-13.79-14.52-8.71-31.31,13-42.83Z"/>
              <path class="cls-56" d="m244.67,290.12c-.3-.34-.59-.69-.88-1.03-.3-.35-.58-.7-.87-1.05-.32-.4-.64-.8-.94-1.2-.27-.35-.54-.7-.81-1.05-.3-.4-.59-.81-.87-1.21-.25-.36-.5-.7-.75-1.06-.27-.41-.54-.81-.8-1.23-.23-.34-.46-.7-.68-1.05-.15-.23-.29-.47-.42-.7-.75-1.23-1.45-2.46-2.08-3.69-.02-.04-.04-.08-.05-.12-.62-1.23-1.18-2.45-1.69-3.68-.07-.17-.16-.35-.22-.51-.46-1.15-.87-2.29-1.24-3.44-.08-.24-.15-.47-.23-.7-.35-1.15-.67-2.31-.91-3.47-.04-.14-.08-.27-.1-.4-.24-1.11-.47-2.22-.61-3.33-.02-.17-.13-.34-.14-.5-.15-1.15-.38-2.3-.42-3.45-.03-.52-.35-1.03-.35-1.55v.11l.53,105.04c0,.4.3.81.32,1.21,0,.12.03.23.03.35.04,1.15.14,2.3.27,3.45.02.17.05.34.07.5.15,1.12.34,2.22.58,3.33.01.1.02.19.04.29,0,.04.02.07.03.11.26,1.15.57,2.32.92,3.47.07.23.14.46.22.7.37,1.15.77,2.29,1.24,3.43.02.07.04.12.06.18.05.11.11.22.15.34.51,1.22,1.06,2.45,1.69,3.68.01.04.03.08.05.12.64,1.23,1.34,2.47,2.08,3.69.07.12.12.24.21.36.06.11.14.23.21.34.22.35.46.7.68,1.05.27.41.53.81.81,1.22.24.35.49.7.75,1.06.28.41.57.8.86,1.2.27.35.54.7.82,1.06.31.4.61.8.94,1.2.29.35.58.7.87,1.05.19.22.36.45.55.68.11.12.23.24.33.36.83.97,1.7,1.93,2.61,2.89l-.23-105.16c-.92-.96-1.78-1.93-2.61-2.89Z"/>
              <polygon class="cls-78" points="247.29 292.21 247.51 398.18 323.18 403.47 322.95 271.71 247.29 292.21"/>
              <path class="cls-67" d="m259.35,331.11c-4.47-3.32-8.49-6.86-12.06-10.62l.23,77.67c2.15,2.28,4.47,4.46,6.98,6.59,31.67,26.99,79.07,36.8,121.03,38.11,1.73.06,5.19.09,5.19.09v-71.8l-.88-.03c-40.89-.39-88.48-15.12-120.48-40.01Z"/>
              <path class="cls-3" d="m247.29,320.49c3.56,3.76,7.58,7.3,12.05,10.62,31.86,24.65,79.73,40.01,120.5,40.01.1,0,.9.03.9.03v-51.07c-23.79-.71-46.23-7.95-57.77-20.07l-75.68,20.49Z"/>
              <path class="cls-81" d="m380.72,393.16v49.79c4.19.06,6.96.06,10.46-.03,35.23-.86,71.63-7.67,102.42-23.97l-.25-49.8c-1.52.8-108.43,24.04-112.63,24.01Z"/>
              <path class="cls-62" d="m416.01,344c-11.31,3.07-23.43,4.31-35.27,3.96v45.23c2.45.03,4.92.03,7.4-.03,33.75,1.09,70.93-7.1,100.65-21.7,1.52-.74,3.03-1.51,4.54-2.3l-59.76-31.93c-5.44,2.87-10.75,4.94-17.56,6.77Z"/>
            </g>
          </g>
          <g>
            <path class="cls-44" d="m721.53,479c17.65-.08,22.16-23.99,31.04-20.88,0,0-10.15,9.1-10.82,10.04,3.66,2.91,16.29-13.33,23.22-11.26,7.25,2.17,21.81,5.95,31.42,7.59-3.96,14.36-24.1,28.85-24.1,28.85,0,0-4.65,2.42-1.58,6.51,6.86,9.15,26.93-9.2,26.77-9.31,4.65-5.05,20.63-14.53,25.18-19.26,14.77,2.91,46.71,18.89,60.52,16,12.04-8.2,21.56-30.83,24.92-41.88.85-8.53-7.15-14.91-10.83-21.69,7.45.31,7.67-2.35,6.95-5.21,4.15,1.39,12.35,5.5,11.73,4.94-1.2-10.89,26.84-11.37,14.55-23.43-4.77-4.68-6.44-10.26-6.98-14.34,12.2-19.97-39.96-29.07-39.81-28.6,0,0-13.09-6.35-20.56,1.93.14,0,.27,0,.42,0-5.68,1.73-7.49,3.23-13.54,6.88-10-2.77-42.51,5.09-44.52,4.98,0,0,2.17,2.14,5.97,5.1-11.96-.99-42.75-20.92-47.91-21.43-6.3-2.08-21.89-6.85-29.2-8.11l5.61,32.3,38.18,21.12c-15.75,4.93-31.68,10.16-46.34,17.87-.62.33-2.37,20.22-2.96,20.55-3.86,2.19-7.66,4.64-10.88,7.67,3.96,2.29,8.03,3.81,12.28,5.99-5.13,9.17-10.36,22.35-16.4,22.11-4.42-.18-2.73,4.79,7.68,4.95Zm29.31-123.4l-13.51-7.51c4.26,1.74,12.85,4.06,12.79,4.04-.3.13-.95,2.92.72,3.47Zm37.71,31.42c-5.58-3.21-11.24-4.06-11.99-4.16l-15.83-21.76-5.08-2.82c1.55.75,3.19,1.53,4.72,2.34,6.94,3.7,4.99-.07,4.99-.07,7.37,2.72,31.22,21.19,48.41,27.07-.21.52.1,1.11.65,1.82-6.86,4.11-23.76-1.25-25.87-2.42Zm-5.06,5.37c3.35.36,7.33.74,13.14,2.05-3.07.87-6.29,1.79-9.63,2.77l-3.5-4.82Z"/>
            <path class="cls-92" d="m796.85,184.24c13.1,16.3-1.39,36.67,5.22,58.22,0,0-19.2-1.46-29.11-27.29-6.46-16.83,9.16-67.15,9.16-67.15,0,0,5.49,24.71,14.73,36.22Z"/>
            <path class="cls-75" d="m725.12,200.43c2.29-8.94,2.41-16.98,8.03-26.2,5.63-9.21,12.52-2.04,15.97-.43,8.78,4.12-8.38,62.63-19.56,64.47-6.6,1.08-12.9-5.17-12.14-7.23,1.07-2.89,5.41-21.67,7.69-30.61Z"/>
            <g>
              <path class="cls-75" d="m728.31,440.01c.58-10.67-1.58-40.95-3.3-48.94-3.87-18.02-4.14-24.45-2.98-37.88.77-8.9.83-30.04.83-30.04,0,0,28.33,3.31,26.7,7.66-1.07,2.84-5.34,19.29-5.93,38.96-.32,10.45,4.22,10.9,2.61,31.58-1.13,14.57-4.09,37.28-3.9,44.1.24,8.82,1.36,13.03-1.96,14.8-3.32,1.76-3.94,2.86-9.82,8.49-5.88,5.63-15.18,1.98-12.74-1.88,2.44-3.86,9.64-11.24,10.49-26.86Z"/>
              <path class="cls-63" d="m717.82,466.87c3.9,2.87,7.57,2.01,15.77-3.75,7.35-5.16,8.75-17.66,8.75-17.66,0,0,1.73,1.79,2.5,3.87h0s.08.18.18.54c0,.04.02.08.03.11.32,1.25.73,4.33-.84,9.5-1.48,4.87-.86,7.3-1.34,9.94-.83.83-1.9,1.1-2.59,0-.16-2.4-.06-4.51-.28-7.83h0c-.4.36-.79.72-1.25,1.13-2.93,2.62-5.36,6.95-8.5,10.97-2.99,3.82-8.4,5.75-12.17,6.02-7.15.51-9.19-2.19-6.76-4.88,4.53-5.03,6.5-7.95,6.5-7.95Z"/>
            </g>
            <path class="cls-75" d="m781.29,388.22c.91,4.85,3.94,10.16,5.38,18.97,1.44,8.81-3.04,48.14-2.36,62.57.46,9.65-7.42,30.56-13.55,28.67-3.39-1.04-5.39-4.72-3.91-9.75,1.49-5.05,3.87-13.2,4.34-19.23.68-8.86-4.84-43.38-6.89-54.08-2.05-10.7-6.07-40.27-6.07-40.27l25.72-8.85s-3.44,17.82-2.67,21.98Z"/>
            <path class="cls-63" d="m785.38,483.96c-.16,2.99-.53,5.58-.53,5.58,0,0-2.42,1.93-3.05-.74.43-8.61,4.3-13.79,4.3-13.79,0,0-.56,5.96-.72,8.95Z"/>
            <path class="cls-63" d="m766.86,488.18s-.52,6.28,3.73,6.16c3.88-.11,6.84-2,10.62-10.85,2.82-6.62,3.04-15.17,3.04-15.17,0,0,4.05,2.98.83,9.56-1.89,5.56-3.99,16.54-5.99,20.67-1.59,3.26-3.98,8.53-11.96,7.38-3.12-.45-3.64-4.36-2.98-7.38,1.54-6.98,2.71-10.37,2.71-10.37Z"/>
            <path class="cls-63" d="m789.7,246.17c0,12.92,16.85,25.23,20.95,50.2,3.36,20.45,12.53,85.79,8.69,103.93-6.79,9.91-80.26,22.91-93.26,1.67-8.92-14.57-21.08-14.19-25.96-17.47,0-49.24,24.94-123.34,31.17-146.61.08-.31,58.42,3.15,58.42,8.29Z"/>
            <path class="cls-63" d="m716.15,290.79v100.68c-6.5-4.26-12.83-4.84-16.03-7,0-27.85,7.97-63.63,16.03-93.68Z"/>
            <path class="cls-63" d="m802.76,396.8c16.89-10.31-6.5-133.99-6.5-133.99,5.21,8.61,11.99,18.9,14.4,33.54,3.36,20.45,12.53,85.79,8.69,103.93-5.57,8.13-56.06,18.35-81.17,10,0,0,35.27,4.43,64.58-13.48Z"/>
            <path class="cls-19" d="m755.91,179.38c0,14.31-14.08,49.15-14.08,49.15-13.22-.84-26.76-17.88-26.76-17.88,0,0,12.31-31.39,17.05-38.4,4.74-7.01,23.8-1.76,23.8,7.13Z"/>
            <path class="cls-53" d="m730.1,205.21c-2.81-11.71,18.91-33.19,18.91-33.19l20.72,3.4s18.11,4.77,21.33,10.36c.49.85,3.85,20.35.49,42.75-1.67,11.1,7.9,18.39,1.06,27.16-7.99,10.23-53.05,1.69-62.47-12.76-2.28-3.49-2.65-5.79,2.32-17.13,1.98-4.52.04-10.59-2.36-20.58Z"/>
            <path class="cls-75" d="m754.15,163.55s11.8-17.5,18.16-14.65c-2.21,9.46.24,16.44.76,20.68-1.97,4.64-5.77,9.72-9.26,12.01-3.72,2.44-9.92,4.26-12.47,5.98,0-3.69.64-10.54,1.04-11.18,7.3-5.09,1.78-12.84,1.78-12.84Z"/>
            <path class="cls-93" d="m734.03,206.48c.04-8.27,3.64-44.01,4.07-48.32,2.22-22.27,10.98-28.32,10.98-28.32,0,0,7.77,25.05,7.74,31.51-.12,23.19-11.42,47.42-18.59,51.9-6.26,3.91-11.22.16-11.22.16,0,0,6.99.09,7.02-6.92Z"/>
            <path class="cls-75" d="m769.4,131.55c4.3,4,7.21,15.25,3.55,24.08-3.25,7.84-12.6,13.46-16.93,14.87-7.72,2.53-19.72-18.01-12.79-32.82,6.61-14.13,20.63-11.27,26.16-6.13Z"/>
            <path class="cls-75" d="m776.43,244.83c2.15-7.41-1.04-37.31-1.04-37.31l21.6-7.92s3.82,16.22,2.67,31.17c-.85,11.05-1.91,16.48-4.18,22.73-3.61,9.9-22.11,6.55-19.04-8.67Z"/>
            <g>
              <g>
                <path class="cls-38" d="m655.69,242.05v-2.41l1.96.23,38.89-22.45c1.24-.72,3.24-.72,4.47,0l59.74,34.72,4.09.49v2.58h0c.03.49-.28.99-.93,1.36l-39.57,22.85c-1.7.98-4.44.98-6.12,0l-61.26-35.6c-.82-.47-1.23-1.09-1.25-1.71h0v-.05Z"/>
                <g>
                  <path class="cls-18" d="m656.62,238.08c-1.24.72-1.25,1.88-.01,2.59l62.91,36.56c1.23.72,3.24.72,4.48,0l39.57-22.84c1.7-.98,1.71-2.57.02-3.55l-61.26-35.6c-1.69-.98-4.43-.98-6.12,0l-39.57,22.84h0Z"/>
                  <g>
                    <path class="cls-87" d="m747.17,260.45l-61.5-35.74c-.81-.47-2.14-.47-2.95,0l-23.34,13.48c-.82.47-.82,1.24,0,1.71l61.5,35.74c.81.47,2.14.47,2.96,0l23.34-13.48c.82-.47.82-1.24,0-1.71Z"/>
                    <g>
                      <path class="cls-1" d="m714.06,264.12l-2.86,1.65c-.29.17-.75.17-1.03,0l-2.84-1.65c-.29-.17-.28-.43,0-.6l2.85-1.65c.29-.17.75-.17,1.04,0l2.84,1.65c.29.17.28.43,0,.6h0Z"/>
                      <path class="cls-1" d="m712.15,257.83l-2.85,1.65c-.29.17-.75.17-1.03,0l-2.84-1.65c-.29-.17-.28-.43,0-.6l2.85-1.65c.29-.17.75-.17,1.04,0l2.84,1.65c.29.17.28.43,0,.6h0Z"/>
                      <path class="cls-1" d="m716.6,260.42l-2.85,1.65c-.29.17-.75.17-1.03,0l-2.84-1.65c-.28-.17-.28-.43,0-.6l2.85-1.65c.29-.17.75-.17,1.04,0l2.84,1.65c.29.17.28.43,0,.6h0Z"/>
                      <path class="cls-1" d="m721.04,263l-2.85,1.65c-.29.17-.75.17-1.03,0l-2.84-1.65c-.29-.17-.29-.43,0-.6l2.85-1.65c.29-.17.75-.17,1.03,0l2.84,1.65c.29.17.28.43,0,.6h0Z"/>
                      <path class="cls-1" d="m725.49,265.58l-2.85,1.65c-.29.17-.75.17-1.03,0l-2.84-1.65c-.29-.17-.28-.43,0-.6l2.85-1.65c.29-.17.75-.17,1.04,0l2.84,1.65c.29.17.28.43,0,.6h0Z"/>
                      <path class="cls-1" d="m718.5,266.71l-2.85,1.65c-.29.17-.75.17-1.03,0l-2.84-1.65c-.29-.17-.29-.43,0-.6l2.86-1.65c.29-.17.75-.17,1.04,0l2.84,1.65c.29.17.28.43,0,.6h0Z"/>
                      <path class="cls-1" d="m722.95,269.29l-2.86,1.65c-.29.17-.75.16-1.03,0l-2.84-1.65c-.29-.17-.29-.43,0-.6l2.85-1.65c.29-.17.75-.17,1.04,0l2.84,1.65c.28.16.28.43,0,.6h0Z"/>
                      <path class="cls-1" d="m687.62,227.88l-2.85,1.65c-.29.16-.75.16-1.03,0l-2.84-1.65c-.28-.16-.28-.43,0-.6l2.85-1.65c.29-.17.75-.17,1.04,0l2.84,1.65c.28.17.28.43,0,.6h0Z"/>
                      <path class="cls-1" d="m692.06,230.47l-2.85,1.65c-.29.16-.75.16-1.03,0l-2.84-1.65c-.28-.16-.28-.43,0-.6l2.86-1.65c.29-.17.75-.17,1.04,0l2.84,1.65c.28.16.28.43,0,.6h0Z"/>
                      <path class="cls-1" d="m696.51,233.05l-2.85,1.65c-.29.16-.75.16-1.03,0l-2.84-1.65c-.28-.16-.28-.43,0-.6l2.85-1.65c.29-.17.75-.17,1.04,0l2.84,1.65c.28.16.28.43,0,.6h0Z"/>
                      <path class="cls-1" d="m700.95,235.64l-2.85,1.65c-.29.17-.75.17-1.04,0l-2.84-1.65c-.28-.16-.28-.43,0-.6l2.85-1.65c.29-.17.75-.17,1.04,0l2.84,1.65c.29.17.28.44,0,.6h0Z"/>
                      <path class="cls-1" d="m728.08,272.27l-2.85,1.65c-.29.17-.75.16-1.04,0l-3.52-2.05c-.29-.17-.29-.43,0-.6l2.86-1.65c.29-.17.75-.17,1.04,0l3.52,2.05c.29.17.28.44,0,.6h0Z"/>
                      <path class="cls-1" d="m728.21,251.47l-2.85,1.65c-.29.16-.75.16-1.04,0l-25.64-14.9c-.28-.16-.28-.43,0-.6l2.85-1.65c.29-.17.75-.17,1.04,0l25.64,14.9c.28.17.28.44,0,.6h0Z"/>
                      <path class="cls-1" d="m719.16,272.27l-.77.44c-.29.17-.75.17-1.04,0l-2.84-1.65c-.28-.16-.28-.43,0-.6l.77-.44c.29-.17.75-.17,1.03,0l2.84,1.65c.28.17.28.43,0,.6h0Z"/>
                      <path class="cls-1" d="m723.61,274.86l-.77.44c-.29.17-.75.17-1.04,0l-2.84-1.65c-.28-.17-.28-.43,0-.6l.77-.44c.29-.16.75-.16,1.04,0l2.84,1.65c.29.17.28.43,0,.6h0Z"/>
                      <path class="cls-1" d="m732.59,269.67l-2.86,1.65c-.29.17-.75.17-1.04,0l-5.46-3.17c-.29-.17-.28-.43,0-.6l2.86-1.65c.29-.17.75-.17,1.03,0l5.46,3.17c.29.17.28.43,0,.6h0Z"/>
                      <path class="cls-1" d="m737.09,267.07l-2.86,1.65c-.29.17-.75.17-1.04,0l-7.68-4.46c-.29-.17-.28-.43,0-.6l2.85-1.65c.29-.17.75-.17,1.03,0l7.68,4.46c.29.17.29.43,0,.6h0Z"/>
                      <path class="cls-1" d="m739.46,260.43l-.77.44c-.29.16-.75.17-1.03,0l-2.84-1.65c-.29-.17-.28-.43,0-.6l.77-.45c.29-.16.75-.16,1.03,0l2.84,1.65c.28.17.28.43,0,.6h0Z"/>
                      <path class="cls-1" d="m741.54,259.22l-.77.44c-.29.17-.75.17-1.04,0l-2.84-1.65c-.29-.17-.28-.43,0-.6l.77-.44c.29-.17.75-.17,1.03,0l2.84,1.65c.29.17.28.43,0,.6h0Z"/>
                      <path class="cls-1" d="m723.35,259.09l-2.85,1.65c-.29.17-.75.17-1.03,0l-2.84-1.65c-.29-.17-.28-.43,0-.6l2.85-1.65c.29-.16.75-.16,1.03,0l2.83,1.65c.29.17.29.43,0,.6h0Z"/>
                      <path class="cls-1" d="m727.8,261.67l-2.86,1.65c-.29.17-.75.17-1.03,0l-2.84-1.65c-.29-.17-.28-.43,0-.6l2.85-1.65c.29-.17.75-.17,1.03,0l2.84,1.65c.29.17.28.43,0,.6h0Z"/>
                      <path class="cls-1" d="m727.89,256.47l-2.86,1.65c-.29.16-.75.17-1.03,0l-2.84-1.65c-.29-.17-.28-.43,0-.6l2.86-1.65c.29-.17.75-.17,1.03,0l2.84,1.65c.29.17.28.43,0,.6h0Z"/>
                      <path class="cls-1" d="m732.34,259.06l-2.86,1.65c-.29.16-.75.17-1.03,0l-2.84-1.65c-.29-.17-.28-.43,0-.6l2.86-1.65c.29-.16.75-.17,1.03,0l2.84,1.65c.29.16.28.43,0,.6h0Z"/>
                      <path class="cls-1" d="m736.78,261.64l-2.86,1.65c-.29.17-.75.17-1.03,0l-2.84-1.65c-.29-.17-.28-.43,0-.6l2.86-1.65c.29-.16.75-.17,1.03,0l2.83,1.65c.29.17.28.43,0,.6h0Z"/>
                      <path class="cls-1" d="m741.63,264.45l-2.86,1.65c-.29.16-.75.16-1.03,0l-3.23-1.88c-.29-.17-.28-.43,0-.6l2.86-1.65c.29-.16.75-.17,1.03,0l3.23,1.88c.29.17.28.44,0,.6h0Z"/>
                      <path class="cls-1" d="m714.46,253.92l-2.85,1.65c-.29.17-.75.17-1.04,0l-2.83-1.65c-.29-.17-.28-.43,0-.6l2.85-1.65c.29-.17.75-.17,1.03,0l2.84,1.65c.29.17.28.43,0,.6h0Z"/>
                      <path class="cls-1" d="m718.91,256.51l-2.85,1.65c-.29.17-.75.17-1.04,0l-2.84-1.65c-.29-.17-.28-.43,0-.6l2.85-1.65c.29-.17.75-.17,1.03,0l2.84,1.65c.28.17.28.43,0,.6h0Z"/>
                      <path class="cls-1" d="m719,251.3l-2.86,1.65c-.28.16-.75.17-1.03,0l-2.84-1.65c-.29-.17-.28-.43,0-.6l2.86-1.65c.29-.16.75-.17,1.03,0l2.84,1.65c.29.17.28.43,0,.6h0Z"/>
                      <path class="cls-1" d="m723.44,253.89l-2.86,1.65c-.29.16-.75.17-1.03,0l-2.84-1.65c-.29-.17-.28-.43,0-.6l2.86-1.65c.29-.17.75-.17,1.03,0l2.84,1.65c.29.17.28.43,0,.6h0Z"/>
                      <path class="cls-1" d="m710.02,251.34l-2.85,1.65c-.29.17-.75.17-1.04,0l-2.84-1.65c-.29-.17-.28-.43,0-.6l2.85-1.65c.29-.17.75-.17,1.03,0l2.84,1.65c.29.17.29.43,0,.6h0Z"/>
                      <path class="cls-1" d="m710.11,246.14l-2.86,1.65c-.29.16-.75.16-1.03,0l-2.84-1.65c-.29-.17-.28-.43,0-.6l2.86-1.65c.29-.16.75-.17,1.03,0l2.84,1.65c.29.17.28.43,0,.6h0Z"/>
                      <path class="cls-1" d="m714.55,248.72l-2.86,1.65c-.29.16-.75.16-1.04,0l-2.84-1.65c-.29-.17-.28-.43,0-.6l2.86-1.65c.29-.16.75-.17,1.03,0l2.84,1.65c.29.17.28.43,0,.6h0Z"/>
                      <path class="cls-1" d="m705.66,243.55l-2.86,1.65c-.29.16-.75.16-1.04,0l-2.84-1.65c-.29-.17-.28-.43,0-.6l2.86-1.65c.29-.16.75-.17,1.03,0l2.84,1.65c.29.17.28.43,0,.6h0Z"/>
                      <path class="cls-1" d="m732.65,254.06l-2.86,1.65c-.29.16-.75.16-1.03,0l-2.84-1.65c-.29-.17-.28-.43,0-.6l2.85-1.65c.29-.17.75-.17,1.04,0l2.84,1.65c.29.17.28.43,0,.6h0Z"/>
                      <path class="cls-1" d="m737.1,256.64l-2.85,1.65c-.29.17-.75.17-1.03,0l-2.84-1.65c-.29-.17-.28-.43,0-.6l2.85-1.65c.29-.17.75-.17,1.04,0l2.84,1.65c.29.17.28.43,0,.6h0Z"/>
                      <path class="cls-1" d="m746.1,261.87l-2.85,1.65c-.29.16-.75.16-1.04,0l-2.84-1.65c-.28-.16-.28-.43,0-.6l2.85-1.65c.29-.17.75-.17,1.04,0l2.84,1.65c.29.17.28.44,0,.6h0Z"/>
                    </g>
                  </g>
                  <path class="cls-29" d="m704.64,233.19l11.61-6.7c.68-.39,1.78-.39,2.45,0l25.5,14.82c.67.39.67,1.03,0,1.42l-11.61,6.7c-.68.39-1.78.39-2.45,0l-25.5-14.82c-.67-.39-.67-1.03,0-1.42h0Z"/>
                </g>
              </g>
              <g>
                <path class="cls-31" d="m632.53,199.22l1.61-1.35s0,0,0,0h0s0,0,0,0c.27-.2.85-.1,1.66.37l62.56,36.12c1.45.84,3.06,2.51,3.6,3.74l17.84,40.66c.17.4.17.67.02.8h0s-.01.01-.01.01h0s-1.6,1.35-1.6,1.35l-5.48-4.98-58.01-33.49c-1.1-.63-2.32-1.91-2.73-2.84l-16.56-37.73-2.91-2.64Z"/>
                <path class="cls-47" d="m634.19,199.59c-1.45-.84-2.19-.52-1.65.71l17.84,40.66c.41.93,1.63,2.2,2.73,2.84l63.82,36.85c1.1.64,1.66.4,1.26-.54l-17.84-40.66c-.54-1.23-2.15-2.9-3.59-3.74l-62.56-36.12h0Z"/>
                <path class="cls-66" d="m680.63,247.45c2.09,3.23,1.76,5.85-.74,5.85s-6.21-2.62-8.29-5.85c-2.09-3.23-1.76-5.85.74-5.85s6.21,2.62,8.29,5.85Z"/>
              </g>
            </g>
            <path class="cls-20" d="m782.18,178.09c5-1.06,9.36,2.22,12.5,6.15,8.62,10.77,14.08,51.52,14.08,51.52,0,0-20.32,7.24-27.62,5.78-9.92-1.98-12.92-4.96-12.92-4.96,0,0,2.24-28.59,4.16-40.11,2.17-13,5.1-17.4,9.79-18.39Z"/>
            <path class="cls-84" d="m748.63,128.26s16.5-11.13,27.97,4.5c5.39,7.35,19.29,32.08-5.76,71.56-5.27,8.3-14.89,20.89-7.51,23.06-9.07,3.73-12.78-4.17-10.83-11.68,1.94-7.47,9.43-48.94,9.77-54.64,1.15-19.51-16.18-24-16.18-24,0,0-4.12,8.86-9.6,15.36-.62-22.19,12.15-24.16,12.15-24.16Z"/>
            <path class="cls-75" d="m721.42,218.67c5.47-.14,14.79-1.79,19.17-.77,4.38,1.03,41.64,20.76,42.98,21.83,8.22,6.56,6.01,20.45,3.82,20.25-13.72-1.28-37.19-28.06-43.19-29.18,0,0,2.81,7.51-3.28,3.75-3.25-2.01-6.88-2.95-8.94-5.68-1.19-1.57-1.27-7-1.27-7,0,0-5.81.64-9.56-.21-3.29-.74-5.2-2.85.27-3Z"/>
            <path class="cls-75" d="m786.22,245.26l4.53-.77.13,10.27-1.23,3.6s-1.75.64-3.14.25c-1.4-.39-.79-10.39-.79-10.39l.5-2.97Z"/>
          </g>
          <g>
            <g class="cls-95">
              <path class="cls-32" d="m146.62,575.63s-.04-.02-.04-.02c0,0,0,0,.04.02Z"/>
              <path class="cls-32" d="m183,363.11c-12.56,8.38-33.03,4.53-42.34,11.04-10.97,7.67-15.26,39.75-34.76,27.82-1.79-1.56-24.73-7.98-24.58-10.15.87-4.45.24-6.75-3.94-8.95-3.04-1.55-5.39-2.14-7.9-1.9-.98.56-.58,1.66-2.13,2.01-1.07.27,4.09,6.16,4.02,6.28-3.3-4.04-10.43-4.38-2.62,1.67,3.96,5.81,14.09,19.01,30.56,26.4-.71.43-1.44.92-2.23,1.53-6.34,4.96,11.27,9.38,23.77,10.82-3.71,6.44-6.52,13.87-5.19,16,5.9,7.7-68.3,15.5-68.3,15.5-9.37-2.09,7.88,15.92,7.68,17.76.95,1.32,11.01,2.22,12.51,2.67-17.88.94-42.91,47.09-32.47,54.15,6.99-.46-2.89,2.66-3.52,3.51,0,0,.02-.01.02-.02-.83.44-19.98,5.7-20.15,9.45,11.8,4.69,40.01-9.84,51.13-16.99,1.96,7.61-4.13,19.41-5.25,23.71-8.42,32.29,20.52,5.3,20.52,5.3l37.5-41.9-1.77-37.23s34.77-10.02,58.5-24.82c11.78-7.35,25.98-18.44,30.72-31.56,36.72-9.68-2.31-27.75,3.57-44.38,4.16-11.78-13.59-24.23-23.35-17.73Z"/>
            </g>
            <g>
              <path class="cls-69" d="m83.63,551.22c-1.88,10.51-19.63,18.76-41.23,18.76s-39.55-8.34-41.26-18.93c-.15-.65-.2-2.44-.01-3.24t0-.02c.91-6.12,7.16-10.84,13.45-13.67,9.84-4.34,21.42-5.8,32.05-5.25.39,0,3.01.2,3.6.26,10.74.98,24.51,4.87,30.61,12.58,2.47,2.93,3.4,6.72,2.79,9.5Z"/>
              <path class="cls-91" d="m1.04,555.51c-.04-.55-.03-.23-.03-6.14,0,.66.09,1.49.14,1.67,1.71,10.59,19.56,18.93,41.26,18.93s39.35-8.25,41.23-18.76c.25-1.13.17-4.97.17,3.52,0,6.64-6.35,11.96-13.19,15.08-17.81,8.26-45.97,7.09-60.87-2.43-2.27-1.49-4.35-3.11-6.03-5.34-1-1.27-1.81-2.82-2.19-4.1,0-.02-.18-.53-.16-.55-.24-.77-.3-1.56-.33-1.89Z"/>
              <path class="cls-37" d="m58.18,512.3c-2.78-2.33-2.67-5.45.28-7.71,10.04-7.68,16.34-22.75,18.36-31.42.56-1.71.81-3.34.12-5.59-1.3-4.25-4.96-7.69-9.66-9.58-8.09-3.25-16.04-5.01-26.67-4.81-2.94.09-6.26.29-9.83.91-10.77,1.29-27.8,9.27-22.43,20.2,3.47,7.07,8.9,22.67,18.16,30.44,2.78,2.33,2.67,5.45-.28,7.71-10.05,7.68-16.34,22.75-18.36,31.42-.57,1.71-.81,3.34-.12,5.59,1.29,4.25,4.96,7.69,9.66,9.58,8.09,3.25,16.04,5.01,26.67,4.81,2.94-.09,6.26-.29,9.83-.91,10.77-1.29,27.8-9.27,22.43-20.2-3.47-7.07-8.9-22.67-18.16-30.44Z"/>
              <path class="cls-82" d="m84.63,467.76c-1.92,10.51-20.1,18.76-42.23,18.76S1.89,478.18.14,467.59c-.15-.65-.2-2.44-.01-3.24t0-.02c.93-6.12,7.33-10.84,13.78-13.67,10.08-4.33,21.94-5.8,32.83-5.25.4,0,3.08.2,3.69.26,11,.98,25.11,4.87,31.35,12.58,2.53,2.93,3.49,6.72,2.86,9.5Z"/>
              <path class="cls-11" d="m.03,472.05c-.05-.55-.03-.23-.03-6.14,0,.66.1,1.48.14,1.67,1.75,10.59,20.03,18.93,42.26,18.93s40.47-8.96,42.39-19.48v4.23c0,6.64-6.49,11.96-13.5,15.08-18.24,8.26-47.09,7.09-62.34-2.43-2.32-1.49-4.46-3.11-6.18-5.34-1.02-1.27-1.85-2.82-2.25-4.1,0-.02-.18-.54-.16-.55-.24-.77-.3-1.55-.33-1.89Z"/>
            </g>
            <g>
              <path class="cls-53" d="m88.66,389.2c6.15-1.89,12.04-1.8,12.76-4.15,3.49-11.35-8.07-38.58-15.3-44.95-6.04-5.32-24.36.44-28.02,5.55-3.66,5.11,3.06,51.82,16.82,49.37,5.95-1.06,6.56-3.61,13.75-5.82Z"/>
              <g>
                <path class="cls-75" d="m132.2,535.67s-6.05,6.03-4.88,9.32c1.18,3.29,15.57,23.06,22.49,24.95,14.4,3.94,10.17-8.66,7.65-11.14-2.22-2.18-10.86-8.01-11.21-14.08-.47-8.19-14.06-9.06-14.06-9.06Z"/>
                <path class="cls-63" d="m126.3,539.95s10.23,10.58,14.49,17.74c4.26,7.16,8.52,9.85,11.5,9.51,4.75-.54,7.81-3.02,6.39-6.05-1.12-2.4-1.23-2.35-1.23-2.35,0,0,13.14,11.87,12.16,20.02-.98,8.15-23.1-1.33-26.66-5.25-1.36-1.5-5.51-10.18-8.54-13.27-3.03-3.1-6.45-4.1-8.74-10.72-2.29-6.62.62-9.63.62-9.63Z"/>
              </g>
              <path class="cls-63" d="m120.01,546.36l.75-61.52s-59.26-19.69-64.89-26.45c-10.7-12.84-4.28-34.45-1.69-39.38,9.06-17.2,98.47,27.16,100.88,48.26,2.41,21.1,3.9,56.54,4.91,80.36-7.5,14.63-39.97-1.28-39.97-1.28Z"/>
              <path class="cls-27" d="m99.76,455.62c-9.09-9.1-44.38-42.41-48.8-34.03-2.59,4.93-5.78,23.95,4.92,36.79,5.63,6.76,64.89,26.45,64.89,26.45l-.75,61.52s4.62,2.26,10.77,4.29v-60.78c0-7.19-3.62-13.89-9.64-17.82-6.79-4.44-15.66-10.69-21.39-16.42Z"/>
              <path class="cls-1" d="m72.75,309.11c.42-3.67-14.45-8.11-14.45-8.11-6.28,5.57-35.65,37.13-48.58,72.3.61,6.83,25.36,15.03,36.6,12.91,3.88-.73,24.62-61.21,26.42-77.09Z"/>
              <g>
                <path class="cls-75" d="m102.26,552.77s-5.32,3.94-5.45,9.31c-.13,5.27,5.58,26.93,12.21,29.67,6.63,2.74,13.56-1.34,13.13-4.42-.43-3.08-6.01-12.8-7.33-20.37-1.42-8.08-12.55-14.18-12.55-14.18Z"/>
                <path class="cls-63" d="m116.06,563.93s3.38,13.25,5.32,19.84c4.22,14.36,3.92,16.95,2.74,20.28-1.23,3.47-11.27-.11-18.25-6.33-7.99-7.13-7.38-16.59-12.1-25.02-1.53-2.74-1.35-4.81-1.04-11.16.16-5.39,6.75-5.86,6.75-5.86,0,0-3.84,5.31-2.12,9.96.87,2.34.47,3.32,1.8,6.25,2.65,5.84,2.9,11.45,6.88,15.77,3.74,4.05,15.41,2.16,15.2-.15-.4-4.26-3.8-11.57-5.11-15.61-1.56-4.81-.06-7.99-.06-7.99Z"/>
              </g>
              <path class="cls-63" d="m80.38,564.21l5.17-61.31s-6.23-2.4-23.14-8.34c-17.62-6.18-39-20.13-44.13-27.27-9.75-13.58-4.78-32.08-2.26-37.05,10.33-20.34,104.12,36.39,105.01,57.61.89,21.22-.18,56.67-.88,80.51-8.53,14.05-39.77-4.15-39.77-4.15Z"/>
              <g>
                <path class="cls-38" d="m139.68,441.6v-2.26l-1.83.22-36.36-20.99c-1.16-.67-3.03-.67-4.18,0l-55.86,32.46-3.82.46v2.42h0c-.02.46.26.92.87,1.27l37,21.36c1.59.92,4.15.92,5.73,0l57.29-33.29c.76-.44,1.15-1.02,1.17-1.6h0v-.05Z"/>
                <g>
                  <path class="cls-5" d="m138.81,437.89l-37-21.36c-1.59-.92-4.15-.92-5.73,0l-57.29,33.29c-1.58.92-1.57,2.4.02,3.32l37,21.36c1.16.67,3.03.67,4.18,0l58.82-34.19c1.15-.67,1.15-1.75-.01-2.42h0Z"/>
                  <g>
                    <path class="cls-17" d="m54.15,460.41l21.83,12.6c.77.44,2,.44,2.76,0l57.51-33.42c.76-.44.76-1.16,0-1.6l-21.83-12.6c-.77-.44-2-.44-2.76,0l-57.51,33.42c-.76.44-.76,1.16,0,1.6Z"/>
                    <g>
                      <path class="cls-1" d="m85.1,462.25l2.67,1.54c.27.16.7.16.97,0l2.65-1.54c.27-.16.27-.41,0-.56l-2.67-1.54c-.27-.15-.7-.16-.97,0l-2.65,1.54c-.27.16-.26.41,0,.56h0Z"/>
                      <path class="cls-1" d="m86.88,456.36l2.67,1.54c.27.15.7.15.97,0l2.65-1.54c.27-.16.27-.4,0-.56l-2.67-1.54c-.27-.15-.7-.16-.97,0l-2.65,1.54c-.27.15-.26.4,0,.56h0Z"/>
                      <path class="cls-1" d="m82.73,458.78l2.67,1.54c.27.15.7.15.97,0l2.65-1.54c.27-.16.27-.4,0-.56l-2.67-1.54c-.27-.15-.7-.16-.97,0l-2.65,1.54c-.27.15-.26.41,0,.56h0Z"/>
                      <path class="cls-1" d="m78.57,461.2l2.67,1.54c.27.15.7.15.97,0l2.65-1.54c.27-.16.27-.41,0-.56l-2.67-1.54c-.27-.15-.7-.16-.97,0l-2.65,1.54c-.27.15-.26.41,0,.56h0Z"/>
                      <path class="cls-1" d="m74.41,463.61l2.67,1.54c.27.16.7.16.97,0l2.65-1.54c.27-.16.27-.41,0-.56l-2.67-1.54c-.27-.15-.7-.16-.97,0l-2.65,1.54c-.27.15-.26.41,0,.56h0Z"/>
                      <path class="cls-1" d="m80.94,464.66l2.67,1.54c.27.16.7.16.97,0l2.65-1.54c.27-.16.27-.41,0-.56l-2.67-1.54c-.27-.16-.7-.16-.97,0l-2.65,1.54c-.27.16-.26.41,0,.56h0Z"/>
                      <path class="cls-1" d="m76.79,467.08l2.67,1.54c.27.15.7.15.97,0l2.65-1.54c.27-.16.27-.41,0-.56l-2.67-1.54c-.27-.15-.7-.15-.97,0l-2.65,1.54c-.27.16-.26.41,0,.56h0Z"/>
                      <path class="cls-1" d="m109.83,428.36l2.67,1.54c.27.15.7.15.97,0l2.65-1.54c.26-.15.26-.41,0-.56l-2.67-1.54c-.27-.16-.7-.16-.97,0l-2.65,1.54c-.27.15-.26.41,0,.56h0Z"/>
                      <path class="cls-1" d="m105.67,430.77l2.67,1.54c.27.15.7.15.97,0l2.65-1.54c.27-.15.26-.41,0-.56l-2.67-1.54c-.27-.16-.7-.16-.97,0l-2.65,1.54c-.27.15-.26.41,0,.56h0Z"/>
                      <path class="cls-1" d="m101.51,433.19l2.67,1.54c.27.15.7.15.97,0l2.65-1.54c.26-.15.26-.41,0-.56l-2.67-1.54c-.27-.16-.7-.16-.97,0l-2.65,1.54c-.27.15-.26.41,0,.56h0Z"/>
                      <path class="cls-1" d="m97.35,435.61l2.67,1.54c.27.15.7.15.97,0l2.65-1.54c.27-.15.26-.41,0-.56l-2.67-1.54c-.27-.16-.7-.16-.97,0l-2.65,1.54c-.27.15-.27.41,0,.56h0Z"/>
                      <path class="cls-1" d="m71.99,469.87l2.67,1.54c.27.15.7.15.97,0l3.29-1.91c.27-.16.27-.41,0-.56l-2.67-1.54c-.27-.15-.7-.15-.97,0l-3.29,1.91c-.27.16-.27.41,0,.56h0Z"/>
                      <path class="cls-1" d="m71.87,450.42l2.67,1.54c.27.15.7.15.97,0l23.98-13.94c.26-.15.26-.41,0-.56l-2.67-1.54c-.27-.16-.7-.16-.97,0l-23.98,13.94c-.27.15-.27.41,0,.56h0Z"/>
                      <path class="cls-1" d="m80.33,469.87l.72.42c.27.16.7.16.97,0l2.65-1.54c.27-.15.26-.41,0-.56l-.72-.41c-.27-.15-.7-.15-.97,0l-2.65,1.54c-.26.16-.26.41,0,.56h0Z"/>
                      <path class="cls-1" d="m76.17,472.28l.72.41c.27.16.7.16.97,0l2.65-1.54c.27-.15.26-.41,0-.56l-.72-.42c-.27-.15-.7-.15-.97,0l-2.65,1.54c-.27.16-.27.41,0,.56h0Z"/>
                      <path class="cls-1" d="m67.77,467.43l2.67,1.54c.27.15.7.15.97,0l5.1-2.97c.27-.15.26-.41,0-.56l-2.67-1.54c-.27-.15-.7-.16-.97,0l-5.1,2.96c-.27.15-.27.41,0,.56h0Z"/>
                      <path class="cls-1" d="m63.56,465l2.67,1.54c.27.16.7.16.97,0l7.18-4.17c.27-.16.26-.41,0-.56l-2.67-1.54c-.27-.15-.7-.15-.97,0l-7.18,4.17c-.27.16-.27.41,0,.56h0Z"/>
                      <path class="cls-1" d="m61.35,458.79l.72.42c.27.15.7.16.97,0l2.65-1.54c.27-.16.26-.41,0-.56l-.72-.42c-.27-.15-.7-.15-.97,0l-2.65,1.54c-.27.16-.27.4,0,.56h0Z"/>
                      <path class="cls-1" d="m59.4,457.66l.72.42c.27.15.7.16.97,0l2.65-1.54c.27-.15.26-.4,0-.56l-.72-.42c-.27-.16-.7-.16-.97,0l-2.65,1.54c-.27.15-.26.41,0,.56h0Z"/>
                      <path class="cls-1" d="m76.41,457.54l2.67,1.54c.27.16.7.16.97,0l2.65-1.54c.27-.15.26-.41,0-.56l-2.67-1.54c-.27-.16-.7-.16-.97,0l-2.65,1.54c-.27.15-.27.4,0,.56h0Z"/>
                      <path class="cls-1" d="m72.25,459.95l2.67,1.54c.27.16.7.16.97,0l2.65-1.54c.27-.15.26-.41,0-.56l-2.67-1.54c-.27-.15-.7-.15-.97,0l-2.65,1.54c-.27.16-.27.4,0,.56h0Z"/>
                      <path class="cls-1" d="m72.17,455.09l2.67,1.54c.27.15.7.16.97,0l2.65-1.54c.27-.16.26-.41,0-.56l-2.67-1.54c-.27-.15-.7-.16-.97,0l-2.65,1.54c-.27.16-.26.41,0,.56h0Z"/>
                      <path class="cls-1" d="m68.01,457.51l2.67,1.54c.27.15.7.16.97,0l2.65-1.54c.27-.16.26-.41,0-.56l-2.67-1.54c-.27-.15-.7-.16-.97,0l-2.65,1.54c-.27.15-.26.41,0,.56h0Z"/>
                      <path class="cls-1" d="m63.85,459.92l2.67,1.54c.27.15.7.16.97,0l2.65-1.54c.27-.16.26-.41,0-.56l-2.67-1.54c-.27-.15-.7-.16-.97,0l-2.65,1.54c-.27.16-.26.41,0,.56h0Z"/>
                      <path class="cls-1" d="m59.32,462.55l2.67,1.54c.27.15.7.15.97,0l3.02-1.76c.27-.16.26-.41,0-.56l-2.67-1.54c-.27-.15-.7-.16-.97,0l-3.02,1.76c-.27.16-.27.41,0,.56h0Z"/>
                      <path class="cls-1" d="m84.72,452.71l2.67,1.54c.27.16.7.16.97,0l2.65-1.54c.27-.16.26-.41,0-.56l-2.67-1.54c-.27-.16-.7-.16-.97,0l-2.65,1.54c-.27.16-.27.4,0,.56h0Z"/>
                      <path class="cls-1" d="m80.56,455.12l2.67,1.54c.27.16.7.16.97,0l2.65-1.54c.27-.15.26-.41,0-.56l-2.67-1.54c-.27-.16-.7-.16-.97,0l-2.65,1.54c-.27.15-.27.4,0,.56h0Z"/>
                      <path class="cls-1" d="m80.48,450.26l2.67,1.54c.27.15.7.16.97,0l2.65-1.54c.27-.16.26-.41,0-.56l-2.67-1.54c-.27-.15-.7-.16-.97,0l-2.65,1.54c-.27.16-.26.41,0,.56h0Z"/>
                      <path class="cls-1" d="m76.32,452.67l2.67,1.54c.27.15.7.16.97,0l2.65-1.54c.27-.16.26-.41,0-.56l-2.67-1.54c-.27-.15-.7-.16-.97,0l-2.65,1.54c-.27.16-.26.41,0,.56h0Z"/>
                      <path class="cls-1" d="m88.88,450.29l2.67,1.54c.27.16.7.16.97,0l2.65-1.54c.27-.15.26-.41,0-.56l-2.67-1.54c-.27-.16-.7-.16-.97,0l-2.65,1.54c-.27.16-.27.41,0,.56h0Z"/>
                      <path class="cls-1" d="m88.79,445.43l2.67,1.54c.27.15.7.15.97,0l2.65-1.54c.27-.15.26-.41,0-.56l-2.67-1.54c-.27-.15-.7-.16-.97,0l-2.65,1.54c-.27.15-.27.41,0,.56h0Z"/>
                      <path class="cls-1" d="m84.64,447.84l2.67,1.54c.27.15.7.15.97,0l2.65-1.54c.27-.15.26-.41,0-.56l-2.67-1.54c-.27-.15-.7-.16-.97,0l-2.65,1.54c-.27.16-.27.41,0,.56h0Z"/>
                      <path class="cls-1" d="m92.95,443.01l2.67,1.54c.27.15.7.15.97,0l2.65-1.54c.27-.16.26-.41,0-.56l-2.67-1.54c-.27-.15-.7-.16-.97,0l-2.65,1.54c-.27.16-.27.41,0,.56h0Z"/>
                      <path class="cls-1" d="m67.71,452.83l2.67,1.54c.27.15.7.15.97,0l2.65-1.54c.27-.15.26-.41,0-.56l-2.67-1.54c-.27-.15-.7-.16-.97,0l-2.65,1.54c-.27.16-.26.41,0,.56h0Z"/>
                      <path class="cls-1" d="m63.55,455.25l2.67,1.54c.27.15.7.15.97,0l2.65-1.54c.27-.16.26-.41,0-.56l-2.67-1.54c-.27-.15-.7-.16-.97,0l-2.65,1.54c-.27.16-.26.41,0,.56h0Z"/>
                      <path class="cls-1" d="m55.14,460.14l2.67,1.54c.27.15.7.15.97,0l2.65-1.54c.27-.15.26-.41,0-.56l-2.67-1.54c-.27-.16-.7-.16-.97,0l-2.65,1.54c-.27.15-.27.41,0,.56h0Z"/>
                    </g>
                  </g>
                  <path class="cls-22" d="m93.91,433.32l-10.85-6.27c-.64-.37-1.66-.37-2.29,0l-23.84,13.86c-.63.37-.63.96,0,1.33l10.85,6.27c.64.37,1.66.37,2.29,0l23.84-13.86c.63-.37.63-.96,0-1.33h0Z"/>
                </g>
              </g>
              <g>
                <path class="cls-75" d="m74.58,375.83c3.23.53,7.49,4.81,9.79,8.69,2.3,3.88,10.57,31.26,14.71,33.27,4.13,2.01,8.39,3.69,10.69,5.66,1.84,1.58,4.7,5.59,5.96,7.66.95,1.55,3.08,6.6,3.08,6.6l-.33,1.35.66,2.42-1.18.69-1.69-1.05s-1.3,1.17-2.04.99c-.74-.18-11.13-10.75-11.13-10.75,0,0,4.77,6.09,5.83,8.42.23.52.52,2.06-2.21.53-2.72-1.53-7.01-7.73-7.01-7.73,0,0-3.8-1.65-6.02-4.72-2.22-3.07-3.5-5.41-3.5-5.41,0,0-30.11-24.75-29.82-38.46.35-16.35,10.16-8.82,14.19-8.15Z"/>
                <path class="cls-74" d="m109.8,433.17c.6,2.37,5.62,8.01,5.62,8.01l-.73.91,1.68-.9-1.41-2.27s-3.13-3.56-4.07-5.24c-.95-1.68-1.16-.81-1.09-.52Z"/>
                <path class="cls-74" d="m110.95,428.95c-.64,0,4.04,5.77,5.18,7.77.77,1.34,2.51,5.06,2.51,5.06l.5-.29s-1.83-3.79-2.6-5.16c-1.13-2-5.2-7.38-5.59-7.38Z"/>
              </g>
              <path class="cls-63" d="m94.06,570.52v-69.48c0-6.94-3.86-13.3-10.03-16.49-13.28-6.87-35.53-18.53-39.94-21.82-7.37-5.49-11.15-14.55-6.08-23.21,2.12-3.62,6.05-6.49,10.37-7.8-15.78-6.41-28.85-8.37-32.34-1.48-2.52,4.96-7.49,23.47,2.26,37.05,5.13,7.14,26.51,21.09,44.13,27.27,16.91,5.94,23.14,8.34,23.14,8.34l-5.17,61.31s6.12,3.56,13.68,6.31Z"/>
              <path class="cls-26" d="m12.13,440.58c0,18.51,73.14-12.58,73.98-22.33,1.26-14.74-1.59-17.39,3.87-30.35,3.69-8.74-1.51-49.12-6.9-51.61-5.39-2.49-32.95.66-36.43,2.43-3.48,1.77-18.29,16.09-18.65,17.42-.36,1.33-15.87,63.07-15.87,84.44Z"/>
              <path class="cls-1" d="m85.49,355.06c-1.29-2.53-2.09-5.23-2.6-8.01-.24-1.39-.4-2.81-.42-4.26-.02-1.45.07-2.94.46-4.48.1-.39.21-.78.37-1.17.15-.38.36-.82.47-1.06.27-.57.54-1.14.77-1.72.48-1.15.86-2.33,1.15-3.54.58-2.43.6-5.01.3-7.85,1.81,2.19,2.8,5.18,2.7,8.19-.03,1.51-.31,3-.75,4.42-.23.71-.48,1.41-.8,2.07-.17.38-.25.57-.35.82-.09.25-.18.51-.25.79-.59,2.25-.69,4.93-.78,7.57-.09,2.67-.09,5.4-.27,8.22Z"/>
              <path class="cls-90" d="m51.63,395.48s-23.33-40.48-23.64-39.34c-.36,1.33-15.87,63.07-15.87,84.44,0,6.01,7.39,8.78,28.64,1.99,9.87-3.15,9.84-38.4,13.61-39.18,16.33-3.35-2.75-7.91-2.75-7.91Z"/>
              <path class="cls-75" d="m73.43,343.71c5.83,5.13-11.21-37.9-12.03-28.22-.82,9.69.09,15.18-3.43,18.9-1.53,1.62-10.34,5.33-10.34,5.33,0,0-1.34.58.87,3.67,2.21,3.09,20.98,35.47,26.68,32.88,5.11-2.32-8.52-38.54-1.74-32.57Z"/>
              <path class="cls-75" d="m64.42,315.58s-1.08,14.38-.93,18.23c.15,3.86,11.94,12.63,17.13,12.67,3.33-1.44,9.06-9.61,10.43-14.28,1.37-4.67.4-6.24,1.35-7.14,2.9-2.77.77-13.28.33-14.24-.45-.96-24.31-9.24-28.3,4.76Z"/>
              <path class="cls-75" d="m89.61,327.39c-.77,1.84.84,10.06.46,11.04-.38.98-3.69.43-4.92-.33l4.46-10.71Z"/>
              <path class="cls-1" d="m66.92,326.18s9.73-.13,13.55-2.68c6.5-4.39,11.74-11.13,11.74-11.13,1.83.29,1.74,7.43,1.74,7.43,0,0,1-3.09.57-6.78-.43-3.69-1.99-12.36-11.6-17.05-9.61-4.69-19.73-.74-25.85,6.25-4.17,5.14-3.41,11.61-2.5,13.75.91,2.13,2.84,5.96,3.14,7.52.3,1.56-.82,3.82-.82,3.82,0,0,2.95-.14,3.27-1.5.3-1.25.78-7.82,2.11-8.71,2.63-1.75,4.71.93,5.14,3.13.43,2.21,0,4.17-.5,5.95Z"/>
              <path class="cls-1" d="m60.93,322.54s-.21,10.36-2.84,18.46c-2.63,8.1-15.66-4.32-24.97,1.05-9.31,5.37,27.81-19.51,27.81-19.51Z"/>
              <path class="cls-75" d="m32.86,414.91c1.41-4.6,2.76-13.54,2.76-19.45,0-12.15-22.2-12.88-23.97-6.57-2.29,8.16-1.86,18.67-.92,28.48.94,9.84,19.1,7.46,22.14-2.46Z"/>
              <path class="cls-53" d="m37.53,401.72c9.85-6.62,16.39-35.41,14.78-44.91-1.35-7.94-2.45-22.44-23.65-12.98-5.74,2.56-25.18,36.96-18,48.95,6.75,11.28,24.83,10.3,26.87,8.93Z"/>
              <path class="cls-1" d="m82.19,302.38c.92,2.64,1.45,5.4,1.83,8.18.33,2.79.46,5.63.23,8.49-.24,2.86-.81,5.75-1.99,8.51-1.16,2.75-3.03,5.37-5.59,7.21-.64.45-1.31.86-2.01,1.22-.61.33-1.2.6-1.78.94-1.17.62-2.3,1.3-3.38,2.03-2.16,1.45-4.13,3.14-5.57,5.17-1.43,2.02-2.26,4.44-2.21,7.04,0,2.6.77,5.26,1.75,7.86-1.71-2.2-3.04-4.78-3.59-7.69-.24-1.45-.27-2.98,0-4.49.27-1.5.8-2.97,1.55-4.29,1.5-2.67,3.69-4.77,6.02-6.51,1.17-.88,2.39-1.65,3.64-2.36.61-.36,1.27-.69,1.88-1.01.53-.28,1.03-.6,1.52-.94,1.95-1.38,3.45-3.37,4.55-5.64,1.1-2.28,1.82-4.82,2.3-7.43.48-2.62.76-5.31.86-8.04.13-2.73.1-5.48-.01-8.26Z"/>
              <path class="cls-1" d="m86.29,312.93c-.91,2.69-2.29,5.15-3.92,7.45-.83,1.14-1.73,2.25-2.76,3.28-1.02,1.03-2.16,2-3.53,2.79-.35.2-.71.39-1.09.55-.38.16-.84.31-1.09.4-.6.2-1.19.4-1.77.64-1.16.46-2.27,1.01-3.34,1.65-2.14,1.28-4.01,3.06-5.84,5.26.31-2.83,1.76-5.62,3.99-7.65,1.1-1.03,2.36-1.87,3.69-2.54.67-.33,1.34-.64,2.04-.88.39-.14.58-.22.83-.32.24-.11.49-.23.74-.37,2.02-1.14,4.01-2.94,5.97-4.72,1.98-1.8,3.93-3.7,6.08-5.54Z"/>
              <g>
                <path class="cls-75" d="m23.12,407.96c3.27-.21,8.39,2.98,11.51,6.23,3.12,3.25,17.41,28.04,21.89,29.05,4.48,1.02,9.01,1.68,11.7,3.08,2.15,1.12,5.85,4.38,7.55,6.11,1.28,1.3,4.5,5.73,4.5,5.73v1.39s1.19,2.21,1.19,2.21l-.99.94-1.88-.64s-1,1.43-1.76,1.43-13.28-7.94-13.28-7.94c0,0,6.03,4.84,7.59,6.87.35.45.98,1.89-2.03,1.02-3-.87-8.58-5.93-8.58-5.93,0,0-4.08-.74-6.94-3.23-2.86-2.49-4.64-4.47-4.64-4.47,0,0-34.95-17.25-37.79-30.67-3.38-16,7.88-10.89,11.97-11.16Z"/>
                <path class="cls-74" d="m70.46,455.78c1.12,2.17,7.3,6.52,7.3,6.52l-.51,1.05,1.43-1.26-1.89-1.89s-3.85-2.75-5.16-4.17c-1.3-1.42-1.31-.52-1.18-.26Z"/>
                <path class="cls-74" d="m70.62,451.42c-.62.15,5.25,4.7,6.81,6.38,1.05,1.13,3.6,4.35,3.6,4.35l.42-.39s-2.64-3.27-3.7-4.43c-1.55-1.69-6.74-6-7.13-5.91Z"/>
              </g>
              <g>
                <path class="cls-58" d="m161.34,401.55l-1.5-1.27s0,0,0,0h0s0,0,0,0c-.25-.19-.8-.09-1.55.34l-58.5,33.78c-1.35.78-2.86,2.35-3.36,3.5l-16.68,38.02c-.16.37-.16.62-.02.75h0s.01.01.01.01h0s1.5,1.26,1.5,1.26l5.13-4.66,54.24-31.32c1.03-.59,2.17-1.78,2.55-2.65l15.48-35.28,2.72-2.47Z"/>
                <path class="cls-48" d="m159.78,401.9l-58.5,33.78c-1.35.78-2.86,2.35-3.36,3.5l-16.68,38.02c-.38.87.15,1.1,1.17.5l59.68-34.46c1.03-.59,2.17-1.78,2.55-2.65l16.68-38.02c.5-1.15-.19-1.45-1.55-.66h0Z"/>
                <path class="cls-79" d="m116.36,446.65c-1.95,3.02-1.64,5.47.69,5.47s5.8-2.45,7.76-5.47c1.95-3.02,1.64-5.47-.69-5.47s-5.8,2.45-7.76,5.47Z"/>
              </g>
            </g>
          </g>
          <g>
            <path class="cls-59" d="m71.37,185.97l-44.21,25.81c-4.11,2.4-6.64,6.8-6.64,11.56v56.42c0,4.06,4.4,6.59,7.91,4.54l44.21-25.81c4.11-2.4,6.64-6.8,6.64-11.56v-56.42c0-4.06-4.4-6.59-7.91-4.54Z"/>
            <path class="cls-63" d="m68.19,209.82l-34.96,20.41c-2.03,1.19-3.29,3.37-3.29,5.72v33.8c0,.85.93,1.38,1.66.95l34.96-20.41c2.03-1.19,3.29-3.37,3.29-5.72v-33.8c0-.85-.93-1.38-1.66-.95Z"/>
            <path class="cls-73" d="m45.52,235.72h0c-.85.5-1.37,1.41-1.37,2.39v13.55c0,2.14,2.32,3.47,4.17,2.39h0c.85-.5,1.37-1.41,1.37-2.39v-13.55c0-2.14-2.32-3.47-4.17-2.39Z"/>
            <path class="cls-57" d="m37.23,232.67h0c-.85.5-1.37,1.41-1.37,2.39v21.18c0,2.14,2.32,3.47,4.17,2.39h0c.85-.5,1.37-1.41,1.37-2.39v-21.18c0-2.14-2.32-3.47-4.17-2.39Z"/>
            <path class="cls-9" d="m53.27,238.4h0c-.85.5-1.37,1.41-1.37,2.39v6.6c0,2.14,2.32,3.47,4.17,2.39h0c.85-.5,1.37-1.41,1.37-2.39v-6.6c0-2.14-2.32-3.47-4.17-2.39Z"/>
            <path class="cls-15" d="m61.24,239.92h0c-.85.5-1.37,1.41-1.37,2.39v.5c0,2.14,2.32,3.47,4.17,2.39h0c.85-.5,1.37-1.41,1.37-2.39v-.5c0-2.14-2.32-3.47-4.17-2.39Z"/>
            <path class="cls-76" d="m748.62.73l44.21,25.81c4.11,2.4,6.64,6.8,6.64,11.56v56.42c0,4.06-4.4,6.59-7.91,4.54l-44.21-25.81c-4.11-2.4-6.64-6.8-6.64-11.56V5.27c0-4.06,4.4-6.59,7.91-4.54Z"/>
            <g>
              <path class="cls-12" d="m748.53,47.73c-2.26-13.29,1.81-23.77,9.89-25.18l6.37,25.18h-16.25Z"/>
              <path class="cls-60" d="m769.05,52.03l-6.96-27.53c8.92.94,18.69,12.39,22.24,26.43,3.7,14.65-.77,26.52-10,26.52s-19.15-11.29-23.09-25.42h17.81Z"/>
            </g>
          </g>
          <g>
            <g>
              <path class="cls-32" d="m382.87,606.58l104.31,60.74c4.39,2.56,9.81,2.64,14.27.2l54.87-29.9c3.05-1.66,3.11-6.02.11-7.77l-104.31-60.74c-4.4-2.56-9.81-2.64-14.27-.2l-54.87,29.9c-3.05,1.66-3.11,6.02-.11,7.77Z"/>
              <path class="cls-72" d="m518.1,575.64l10.89,64.03c-.72,2.53-3.07,3.55-5.25,2.29l-100.22-58.12c-2.18-1.26-3.37-4.34-2.65-6.87l-10.89-64.03,108.11,62.7Z"/>
              <path class="cls-72" d="m410.08,506.83l-4.32,15.24,109.74,65.16,5.38-2.65.5-13.19c.74-2.6-.48-5.77-2.73-7.08l-103.18-59.84c-2.25-1.3-4.66-.25-5.4,2.36Z"/>
              <path class="cls-46" d="m516.23,585.54l-21.11,74.51c-.72,2.53-3.07,3.56-5.25,2.29l-100.22-58.12c-2.18-1.27-3.37-4.34-2.65-6.87l21.11-74.51,108.11,62.7Z"/>
              <path class="cls-54" d="m514.2,586.52l-21.11,74.51c-.72,2.53-3.07,3.55-5.25,2.29l-100.21-58.12c-2.18-1.27-3.37-4.34-2.65-6.87l21.11-74.51,108.11,62.7Z"/>
              <path class="cls-46" d="m408.56,507.51l-4.32,15.24,111.31,64.56,4.32-15.24c.74-2.6-.48-5.77-2.73-7.07l-103.18-59.84c-2.25-1.3-4.66-.25-5.4,2.36Z"/>
              <polygon class="cls-46" points="415.55 548.48 416.5 545.65 422.09 549.03 421.14 551.86 415.55 548.48"/>
              <polygon class="cls-46" points="427.91 555.57 428.86 552.74 434.46 556.13 433.51 558.95 427.91 555.57"/>
              <polygon class="cls-46" points="440.28 562.66 441.23 559.84 446.83 563.22 445.88 566.04 440.28 562.66"/>
              <polygon class="cls-46" points="452.65 569.76 453.6 566.93 459.2 570.31 458.25 573.14 452.65 569.76"/>
              <polygon class="cls-46" points="465.02 576.85 465.97 574.02 471.56 577.4 470.61 580.23 465.02 576.85"/>
              <path class="cls-23" d="m409.9,561.62l1.04-3.66c.52-1.83,2.63-2.69,4.28-1.73l5.16,2.99c1.16.67,1.71,2.04,1.35,3.32l-1.04,3.66c-.52,1.83-2.63,2.69-4.28,1.73l-5.16-2.99c-1.16-.67-1.71-2.04-1.35-3.32Z"/>
              <path class="cls-86" d="m422.01,568.64l1.04-3.66c.52-1.84,2.63-2.69,4.28-1.73l5.16,2.99c1.16.67,1.71,2.04,1.34,3.32l-1.04,3.66c-.52,1.83-2.63,2.69-4.28,1.73l-5.16-2.99c-1.16-.67-1.71-2.04-1.35-3.32Z"/>
              <path class="cls-65" d="m434.13,575.67l1.04-3.66c.52-1.84,2.63-2.69,4.28-1.73l5.16,2.99c1.16.67,1.71,2.04,1.35,3.32l-1.04,3.66c-.52,1.83-2.63,2.69-4.28,1.73l-5.16-2.99c-1.16-.67-1.71-2.04-1.35-3.32Z"/>
              <path class="cls-88" d="m446.25,582.7l1.04-3.66c.52-1.83,2.63-2.69,4.28-1.73l5.16,2.99c1.16.67,1.71,2.04,1.35,3.32l-1.04,3.66c-.52,1.83-2.63,2.69-4.28,1.73l-5.16-2.99c-1.16-.67-1.71-2.04-1.34-3.32Z"/>
              <path class="cls-71" d="m458.37,589.73l1.04-3.66c.52-1.84,2.63-2.69,4.28-1.73l5.16,2.99c1.16.67,1.71,2.04,1.35,3.33l-1.04,3.66c-.52,1.83-2.63,2.69-4.28,1.73l-5.16-2.99c-1.16-.67-1.71-2.04-1.35-3.32Z"/>
              <path class="cls-21" d="m406.78,572.62l1.04-3.66c.52-1.84,2.63-2.69,4.28-1.73l5.16,2.99c1.16.67,1.71,2.04,1.35,3.32l-1.04,3.66c-.52,1.84-2.63,2.69-4.28,1.73l-5.16-2.99c-1.16-.67-1.71-2.04-1.35-3.32Z"/>
              <path class="cls-10" d="m418.9,579.65l1.04-3.66c.52-1.83,2.63-2.69,4.28-1.73l5.16,2.99c1.16.67,1.71,2.04,1.35,3.32l-1.04,3.66c-.52,1.83-2.63,2.69-4.28,1.73l-5.16-2.99c-1.16-.67-1.71-2.04-1.35-3.32Z"/>
              <path class="cls-77" d="m431.01,586.68l1.04-3.66c.52-1.83,2.63-2.69,4.28-1.73l5.16,2.99c1.16.67,1.71,2.04,1.35,3.32l-1.04,3.66c-.52,1.84-2.63,2.69-4.28,1.73l-5.16-2.99c-1.16-.67-1.71-2.04-1.35-3.32Z"/>
              <path class="cls-35" d="m443.13,593.7l1.04-3.66c.52-1.83,2.63-2.69,4.28-1.73l5.16,2.99c1.16.67,1.71,2.04,1.35,3.32l-1.04,3.66c-.52,1.83-2.63,2.69-4.28,1.73l-5.16-2.99c-1.16-.67-1.71-2.04-1.35-3.32Z"/>
              <path class="cls-14" d="m455.25,600.73l1.04-3.66c.52-1.83,2.63-2.69,4.28-1.73l5.16,2.99c1.16.67,1.71,2.04,1.35,3.32l-1.04,3.66c-.52,1.83-2.63,2.69-4.28,1.73l-5.16-2.99c-1.16-.67-1.71-2.04-1.35-3.32Z"/>
              <path class="cls-42" d="m403.66,583.63l1.04-3.66c.52-1.84,2.63-2.69,4.28-1.73l5.16,2.99c1.15.67,1.71,2.04,1.34,3.32l-1.04,3.66c-.52,1.83-2.63,2.69-4.28,1.73l-5.16-2.99c-1.16-.67-1.71-2.04-1.35-3.32Z"/>
              <path class="cls-39" d="m415.78,590.65l1.04-3.66c.52-1.84,2.63-2.69,4.28-1.73l5.16,2.99c1.16.67,1.71,2.04,1.34,3.33l-1.04,3.66c-.52,1.83-2.63,2.69-4.28,1.73l-5.16-2.99c-1.16-.67-1.71-2.04-1.35-3.32Z"/>
              <path class="cls-4" d="m427.9,597.68l1.04-3.66c.52-1.84,2.63-2.69,4.28-1.73l5.16,2.99c1.16.67,1.71,2.04,1.34,3.33l-1.04,3.66c-.52,1.83-2.63,2.69-4.28,1.73l-5.16-2.99c-1.16-.67-1.71-2.04-1.35-3.32Z"/>
              <path class="cls-70" d="m440.01,604.71l1.04-3.66c.52-1.84,2.63-2.69,4.28-1.73l5.16,2.99c1.16.67,1.71,2.04,1.34,3.32l-1.04,3.66c-.52,1.83-2.63,2.69-4.28,1.73l-5.16-2.99c-1.16-.67-1.71-2.04-1.35-3.32Z"/>
              <path class="cls-85" d="m452.13,611.74l1.04-3.66c.52-1.83,2.63-2.69,4.28-1.73l5.16,2.99c1.16.67,1.71,2.04,1.35,3.33l-1.04,3.66c-.52,1.84-2.63,2.69-4.28,1.73l-5.16-2.99c-1.16-.67-1.71-2.04-1.34-3.32Z"/>
              <path class="cls-13" d="m400.55,594.63l1.04-3.66c.52-1.83,2.63-2.69,4.28-1.73l5.16,2.99c1.16.67,1.71,2.04,1.35,3.33l-1.04,3.66c-.52,1.83-2.63,2.69-4.28,1.73l-5.16-2.99c-1.16-.67-1.71-2.04-1.35-3.32Z"/>
              <path class="cls-8" d="m412.66,601.66l1.04-3.66c.52-1.83,2.63-2.69,4.28-1.73l5.16,2.99c1.16.67,1.71,2.04,1.35,3.32l-1.04,3.66c-.52,1.83-2.63,2.69-4.28,1.73l-5.16-2.99c-1.16-.67-1.71-2.04-1.34-3.33Z"/>
              <path class="cls-36" d="m424.78,608.69l1.04-3.66c.52-1.83,2.63-2.69,4.28-1.73l5.16,2.99c1.16.67,1.71,2.04,1.34,3.32l-1.04,3.66c-.52,1.83-2.63,2.69-4.28,1.73l-5.16-2.99c-1.16-.67-1.71-2.04-1.35-3.32Z"/>
              <path class="cls-61" d="m436.9,615.72l1.04-3.66c.52-1.83,2.63-2.69,4.28-1.73l5.16,2.99c1.16.67,1.71,2.04,1.35,3.32l-1.04,3.66c-.52,1.83-2.63,2.69-4.28,1.73l-5.16-2.99c-1.16-.67-1.71-2.04-1.35-3.32Z"/>
              <path class="cls-30" d="m449.01,622.74l1.04-3.66c.52-1.83,2.63-2.69,4.28-1.73l5.16,2.99c1.16.67,1.71,2.04,1.35,3.32l-1.04,3.66c-.52,1.83-2.63,2.69-4.28,1.73l-5.16-2.99c-1.16-.67-1.71-2.04-1.34-3.32Z"/>
              <polygon class="cls-46" points="477.17 583.63 478.12 580.8 483.72 584.18 482.77 587.01 477.17 583.63"/>
              <path class="cls-46" d="m470.52,596.51l1.04-3.66c.52-1.83,2.63-2.69,4.28-1.73l5.16,2.99c1.16.67,1.71,2.04,1.35,3.32l-1.04,3.66c-.52,1.84-2.63,2.69-4.28,1.73l-5.16-2.99c-1.16-.67-1.71-2.04-1.35-3.32Z"/>
              <path class="cls-46" d="m467.4,607.51l1.04-3.66c.52-1.84,2.63-2.69,4.28-1.73l5.16,2.99c1.16.67,1.71,2.04,1.34,3.32l-1.04,3.66c-.52,1.84-2.63,2.69-4.28,1.73l-5.16-2.99c-1.16-.67-1.71-2.04-1.35-3.33Z"/>
              <path class="cls-46" d="m464.28,618.52l1.04-3.66c.52-1.83,2.63-2.69,4.28-1.73l5.16,2.99c1.16.67,1.71,2.04,1.34,3.32l-1.04,3.66c-.52,1.83-2.63,2.69-4.28,1.73l-5.16-2.99c-1.16-.67-1.71-2.04-1.35-3.32Z"/>
              <path class="cls-46" d="m461.17,629.53l1.04-3.66c.52-1.83,2.63-2.69,4.28-1.73l5.16,2.99c1.16.67,1.71,2.04,1.35,3.32l-1.04,3.66c-.52,1.84-2.63,2.69-4.28,1.73l-5.16-2.99c-1.16-.67-1.71-2.04-1.34-3.32Z"/>
              <polygon class="cls-46" points="489.32 590.41 490.27 587.59 495.87 590.97 494.92 593.79 489.32 590.41"/>
              <path class="cls-46" d="m482.67,603.29l1.04-3.66c.52-1.83,2.63-2.69,4.28-1.73l5.16,2.99c1.16.67,1.71,2.04,1.35,3.33l-1.04,3.66c-.52,1.83-2.63,2.69-4.28,1.73l-5.16-2.99c-1.16-.67-1.71-2.04-1.35-3.32Z"/>
              <path class="cls-46" d="m479.55,614.3l1.04-3.66c.52-1.83,2.63-2.69,4.28-1.73l5.16,2.99c1.16.67,1.71,2.04,1.35,3.32l-1.04,3.66c-.52,1.83-2.63,2.69-4.28,1.73l-5.16-2.99c-1.16-.67-1.71-2.04-1.34-3.32Z"/>
              <path class="cls-46" d="m476.44,625.3l1.04-3.66c.52-1.84,2.63-2.69,4.28-1.73l5.16,2.99c1.16.67,1.71,2.04,1.35,3.33l-1.04,3.66c-.52,1.83-2.63,2.69-4.28,1.73l-5.16-2.99c-1.16-.67-1.71-2.04-1.35-3.33Z"/>
              <path class="cls-46" d="m473.32,636.31l1.04-3.66c.52-1.83,2.63-2.69,4.28-1.73l5.16,2.99c1.16.67,1.71,2.04,1.35,3.32l-1.04,3.66c-.52,1.83-2.63,2.69-4.28,1.73l-5.16-2.99c-1.16-.67-1.71-2.04-1.35-3.32Z"/>
              <path class="cls-24" d="m432.65,602.28c3.66.57,9.94,1.68,10.33-3.75.21-2.97-2.3-5.48-4.6-6.94-2.91-1.85-5.63-1.81-8.49.14-3.18,2.17-6.17,7.08-3.18,10.67,3.31,3.96,11.27.19,12.61-3.91.3-.91-1.14-1.31-1.44-.39-1.17,3.59-9.4,6.75-10.75,1.67-.71-2.66,1.47-5.32,3.49-6.73,2.33-1.64,4.64-1.63,7-.14,2.23,1.41,5.13,4.39,3.14,7.07-1.78,2.39-5.2,1.27-7.72.88-.94-.15-1.34,1.29-.4,1.44h0Z"/>
            </g>
            <g>
              <path class="cls-32" d="m386.8,615.2c-5.55-2.16-12.3-3.41-19.41-3.78-7.18-.37-13.66-1.63-19.31-3.42-.15-.29-.35-.57-.61-.83-.27-.27-.61-.52-1-.76-.91-.67-2.34-1.29-4.47-1.83.01,0,.02,0,.03,0-.4-.13-1.91-.48-3.83-.77-.56-.2-1.2-.38-1.9-.57,0,0,.02,0,.03,0-.72-.24-5.1-1.24-8.93-1.25-1.8-.37-4.29-.78-6.51-.81-3.86-.06-7.6.4-11,1.14-5.07-1.05-11.68-.43-16.01,1.71-4.33,2.13-4.99,5.07-2.02,7.16-2.27,2.64-2.54,5.45,1.15,7.78.39,1.29,1.55,2.51,3.72,3.57.06.03.14.06.2.09.22.1.44.21.68.31,0,0,0,0,0,0,.07.03.13.05.2.08.6.66,1.45,1.29,2.62,1.86.07.03.14.06.21.09.22.1.43.21.67.31,0,0,0,0,0,0,.62.25,1.31.47,2.04.66.22.11.44.21.69.3.84.33,1.81.57,2.9.73.52.08,1.08.13,1.66.17,4.92,2.36,8.61,5.17,10.47,8.38,1.88,3.24,5.97,6.19,12.28,8.37,15.36,5.32,40.05,4.16,54.19-2.8.46-.23.94-.43,1.39-.66,15.75-7.76,15.7-19.05-.12-25.21Z"/>
              <path class="cls-80" d="m305.24,603.43c0-4.97-1.31-9.07-2.98-9.56-.97-.32-2.01-.49-3.09-.49-5.55,0-10.05,4.5-10.05,10.05s4.5,10.05,10.05,10.05c1.08,0,2.12-.17,3.09-.49,1.67-.49,2.98-4.59,2.98-9.56Z"/>
              <g>
                <path class="cls-89" d="m308.86,584.55c-.73.05-4.74.85-7.03,2.54-3.79,2.79-5.78,7.06-6.69,11.17-1.9,8.67,1.35,23.84,14.46,24.18-8.22-9.24-7.53-30.1-.75-37.89Z"/>
                <path class="cls-28" d="m320.72,616.22c1.69-3.53,4.43-16.75-.26-25.72-1.49-2.84-4.41-7.43-12.42-5.8-3.8.77-7.57,5.05-9.82,9.47-2.11,4.14-1.74,10.82-1.35,13.35.42,2.75,1.16,5.26,2.3,7.36,1.39,2.57,3.21,5.2,6.2,6.62,5.47,2.59,13.06-.49,15.35-5.27Z"/>
              </g>
              <g>
                <path class="cls-52" d="m313.59,582.25c-.73.06-4.74.95-7.03,2.84-3.79,3.13-5.78,7.92-6.68,12.53-1.9,9.72,1.35,26.73,14.46,27.12-8.22-10.36-7.53-33.76-.75-42.49Z"/>
                <path class="cls-51" d="m325.45,617.77c1.69-3.96,4.43-18.79-.26-28.84-1.49-3.19-4.41-8.33-12.42-6.51-3.8.87-7.57,5.66-9.82,10.62-2.11,4.64-1.74,12.13-1.35,14.97.43,3.08,1.16,5.9,2.3,8.25,1.39,2.89,3.21,5.83,6.21,7.42,5.47,2.91,13.06-.55,15.35-5.91Z"/>
              </g>
              <g>
                <path class="cls-64" d="m318.65,581.18c-.73.06-4.74,1-7.03,2.99-3.79,3.29-5.78,8.32-6.68,13.17-1.9,10.22,1.35,28.1,14.46,28.5-8.22-10.89-7.53-35.49-.75-44.66Z"/>
                <path class="cls-16" d="m330.5,618.51c1.69-4.16,4.43-19.75-.26-30.32-1.49-3.35-4.41-8.76-12.42-6.84-3.8.91-7.57,5.95-9.82,11.16-2.11,4.88-1.74,12.75-1.35,15.74.42,3.24,1.16,6.2,2.3,8.68,1.39,3.04,3.21,6.13,6.2,7.8,5.47,3.05,13.06-.58,15.35-6.22Z"/>
              </g>
              <path class="cls-41" d="m327.74,623.4c4.15-3.63,7-11.21,7-19.97s-2.75-16.06-6.77-19.77c-.92-.84-1.9-1.49-2.93-1.92-.92-.38-1.88-.58-2.85-.58-.34,0-.67.03-.99.08-1.01.13-1.99.49-2.93,1.04-5.01,2.92-8.63,11.28-8.63,21.15s3.46,17.86,8.3,20.95c.88.57,1.81.96,2.78,1.16.49.11.98.15,1.48.15.9,0,1.78-.17,2.62-.49,1.03-.39,2.02-1,2.93-1.81Z"/>
              <path class="cls-7" d="m332.38,603.43c0-10.99-5.14-18.65-9.76-18.65s-9.76,7.66-9.76,18.65,5.14,18.65,9.76,18.65,9.76-7.66,9.76-18.65Z"/>
              <path class="cls-45" d="m389.08,605.02c0-.49.03-.98.03-1.46,0-16.98-13.77-30.74-30.74-30.74-5.96,0-11.52,1.7-16.22,4.63-5.67,3.53-12.25,5.07-18.92,5.22-3.03.07-6.05,2.09-8.36,6.07-4.73,8.13-4.73,21.37,0,29.55,2.32,4.01,5.34,6.07,8.38,6.16,6.79.21,13.43,1.91,19.25,5.43,5.07,3.07,11.1,4.71,17.54,4.38,15.67-.82,29.06-13.99,29.06-29.24Z"/>
              <g class="cls-96">
                <path class="cls-55" d="m364.31,603.98c0-7.48-6.08-13.56-13.56-13.56h-26.94c-2.24,0-4.06,1.82-4.06,4.06s1.82,4.06,4.06,4.06h26.94c3,0,5.45,2.44,5.45,5.44s-2.44,5.44-5.45,5.44h-26.94c-2.24,0-4.06,1.82-4.06,4.06s1.82,4.06,4.06,4.06h26.94c7.48,0,13.56-6.08,13.56-13.56Z"/>
              </g>
              <g>
                <path class="cls-49" d="m328.7,594.59c0-1.21-.94-2.18-2.1-2.18s-2.1.98-2.1,2.18.94,2.18,2.1,2.18,2.1-.98,2.1-2.18Z"/>
                <path class="cls-49" d="m335.87,594.59c0-1.21-.94-2.18-2.1-2.18s-2.1.98-2.1,2.18.94,2.18,2.1,2.18,2.1-.98,2.1-2.18Z"/>
                <path class="cls-49" d="m343.03,594.59c0-1.21-.94-2.18-2.1-2.18s-2.1.98-2.1,2.18.94,2.18,2.1,2.18,2.1-.98,2.1-2.18Z"/>
                <path class="cls-49" d="m350.2,594.59c0-1.21-.94-2.18-2.1-2.18s-2.1.98-2.1,2.18.94,2.18,2.1,2.18,2.1-.98,2.1-2.18Z"/>
                <path class="cls-49" d="m357.36,595.58c0-1.21-.94-2.18-2.1-2.18s-2.1.98-2.1,2.18.94,2.18,2.1,2.18,2.1-.98,2.1-2.18Z"/>
                <path class="cls-49" d="m361.57,600.8c0-1.21-.94-2.18-2.1-2.18s-2.1.98-2.1,2.18.94,2.18,2.1,2.18,2.1-.98,2.1-2.18Z"/>
                <path class="cls-49" d="m328.7,613.39c0-1.21-.94-2.18-2.1-2.18s-2.1.98-2.1,2.18.94,2.18,2.1,2.18,2.1-.98,2.1-2.18Z"/>
                <path class="cls-49" d="m335.87,613.39c0-1.21-.94-2.18-2.1-2.18s-2.1.98-2.1,2.18.94,2.18,2.1,2.18,2.1-.98,2.1-2.18Z"/>
                <path class="cls-49" d="m343.03,613.39c0-1.21-.94-2.18-2.1-2.18s-2.1.98-2.1,2.18.94,2.18,2.1,2.18,2.1-.98,2.1-2.18Z"/>
                <path class="cls-49" d="m350.2,613.39c0-1.21-.94-2.18-2.1-2.18s-2.1.98-2.1,2.18.94,2.18,2.1,2.18,2.1-.98,2.1-2.18Z"/>
                <path class="cls-49" d="m357.36,612.4c0-1.21-.94-2.18-2.1-2.18s-2.1.98-2.1,2.18.94,2.18,2.1,2.18,2.1-.98,2.1-2.18Z"/>
                <path class="cls-49" d="m361.57,607.18c0-1.21-.94-2.18-2.1-2.18s-2.1.98-2.1,2.18.94,2.18,2.1,2.18,2.1-.98,2.1-2.18Z"/>
              </g>
            </g>
          </g>
        </g>
      </g>
    </g>
  </g>
</svg>