<?xml version="1.0" encoding="UTF-8"?>
<svg xmlns="http://www.w3.org/2000/svg" xmlns:xlink="http://www.w3.org/1999/xlink" viewBox="0 0 707.89 767.42">
  <defs>
    <style>
      .cls-1 {
        fill: url(#_Безымянный_градиент_83-3);
      }

      .cls-1, .cls-2, .cls-3, .cls-4, .cls-5, .cls-6, .cls-7, .cls-8, .cls-9, .cls-10, .cls-11, .cls-12, .cls-13, .cls-14, .cls-15, .cls-16, .cls-17, .cls-18, .cls-19, .cls-20, .cls-21, .cls-22, .cls-23, .cls-24, .cls-25, .cls-26, .cls-27, .cls-28, .cls-29, .cls-30, .cls-31, .cls-32, .cls-33, .cls-34, .cls-35, .cls-36, .cls-37, .cls-38, .cls-39, .cls-40, .cls-41, .cls-42, .cls-43, .cls-44, .cls-45, .cls-46, .cls-47, .cls-48 {
        stroke-width: 0px;
      }

      .cls-2 {
        fill: url(#_Безымянный_градиент_82);
      }

      .cls-3 {
        fill: url(#_Безымянный_градиент_77-10);
      }

      .cls-4 {
        fill: url(#_Безымянный_градиент_77-15);
      }

      .cls-5 {
        fill: url(#_Безымянный_градиент_77-3);
      }

      .cls-6 {
        fill: url(#_Безымянный_градиент_77-5);
      }

      .cls-7 {
        fill: url(#_Безымянный_градиент_77-14);
      }

      .cls-8 {
        fill: url(#_Безымянный_градиент_80-3);
      }

      .cls-9 {
        fill: url(#_Безымянный_градиент_80-4);
      }

      .cls-10 {
        fill: url(#_Безымянный_градиент_86-5);
      }

      .cls-11 {
        fill: url(#_Безымянный_градиент_77-17);
      }

      .cls-49 {
        isolation: isolate;
      }

      .cls-12 {
        fill: url(#_Безымянный_градиент_83);
      }

      .cls-13 {
        fill: url(#_Безымянный_градиент_86-2);
      }

      .cls-14 {
        fill: url(#_Безымянный_градиент_86-3);
      }

      .cls-15 {
        fill: url(#_Безымянный_градиент_83-4);
      }

      .cls-16 {
        fill: #cfd3d3;
      }

      .cls-16, .cls-40 {
        mix-blend-mode: multiply;
      }

      .cls-17 {
        fill: url(#_Безымянный_градиент_87);
      }

      .cls-18 {
        fill: url(#_Безымянный_градиент_86-10);
      }

      .cls-19 {
        fill: url(#_Безымянный_градиент_80);
      }

      .cls-20 {
        fill: url(#_Безымянный_градиент_77-9);
      }

      .cls-21 {
        fill: #e8fff2;
      }

      .cls-22 {
        fill: url(#_Безымянный_градиент_86-8);
      }

      .cls-23 {
        fill: url(#_Безымянный_градиент_86-4);
      }

      .cls-24 {
        fill: url(#_Безымянный_градиент_77-7);
      }

      .cls-25 {
        fill: #fff;
      }

      .cls-26 {
        fill: url(#_Безымянный_градиент_77);
      }

      .cls-27 {
        fill: url(#_Безымянный_градиент_86-9);
      }

      .cls-28 {
        fill: url(#_Безымянный_градиент_77-11);
      }

      .cls-29 {
        fill: url(#_Безымянный_градиент_77-2);
      }

      .cls-30 {
        fill: url(#_Безымянный_градиент_86-7);
      }

      .cls-31 {
        fill: url(#_Безымянный_градиент_77-6);
      }

      .cls-32 {
        fill: url(#_Безымянный_градиент_77-16);
      }

      .cls-33 {
        fill: #273238;
      }

      .cls-34 {
        fill: url(#_Безымянный_градиент_77-4);
      }

      .cls-35 {
        fill: url(#_Безымянный_градиент_87-2);
      }

      .cls-36 {
        fill: #313f49;
      }

      .cls-37 {
        fill: url(#_Безымянный_градиент_86-6);
      }

      .cls-38 {
        fill: url(#_Безымянный_градиент_101);
      }

      .cls-39 {
        fill: #223943;
      }

      .cls-40, .cls-41 {
        fill: #c1ae97;
      }

      .cls-42 {
        fill: url(#_Безымянный_градиент_80-2);
      }

      .cls-43 {
        fill: url(#_Безымянный_градиент_77-18);
      }

      .cls-44 {
        fill: url(#_Безымянный_градиент_83-2);
      }

      .cls-45 {
        fill: url(#_Безымянный_градиент_77-12);
      }

      .cls-46 {
        fill: url(#_Безымянный_градиент_77-8);
      }

      .cls-47 {
        fill: url(#_Безымянный_градиент_86);
      }

      .cls-48 {
        fill: url(#_Безымянный_градиент_77-13);
      }
    </style>
    <linearGradient id="_Безымянный_градиент_77" data-name="Безымянный градиент 77" x1="-7462.09" y1="497.75" x2="-7433.98" y2="497.75" gradientTransform="translate(-7396.83) rotate(-180) scale(1 -1)" gradientUnits="userSpaceOnUse">
      <stop offset="0" stop-color="#bad775"/>
      <stop offset="1" stop-color="#afbd22"/>
    </linearGradient>
    <linearGradient id="_Безымянный_градиент_77-2" data-name="Безымянный градиент 77" x1="2034.85" y1="556.84" x2="2049.47" y2="536.12" gradientTransform="translate(-1993.98)" xlink:href="#_Безымянный_градиент_77"/>
    <linearGradient id="_Безымянный_градиент_77-3" data-name="Безымянный градиент 77" x1="-7448.04" y1="532.12" y2="532.12" xlink:href="#_Безымянный_градиент_77"/>
    <linearGradient id="_Безымянный_градиент_86" data-name="Безымянный градиент 86" x1="-7421.19" y1="583.04" x2="-7412.49" y2="441.4" gradientTransform="translate(-7396.83) rotate(-180) scale(1 -1)" gradientUnits="userSpaceOnUse">
      <stop offset="0" stop-color="#313f49"/>
      <stop offset=".99" stop-color="#313f49"/>
    </linearGradient>
    <linearGradient id="_Безымянный_градиент_86-2" data-name="Безымянный градиент 86" x1="-7495.75" y1="536.74" x2="-7484.88" y2="454.82" xlink:href="#_Безымянный_градиент_86"/>
    <linearGradient id="_Безымянный_градиент_77-4" data-name="Безымянный градиент 77" x1="-7533.96" y1="487.06" x2="-7505.85" y2="487.06" xlink:href="#_Безымянный_градиент_77"/>
    <linearGradient id="_Безымянный_градиент_77-5" data-name="Безымянный градиент 77" x1="-7530.69" y1="516.74" x2="-7522.89" y2="491.18" xlink:href="#_Безымянный_градиент_77"/>
    <linearGradient id="_Безымянный_градиент_77-6" data-name="Безымянный градиент 77" x1="-7519.91" y1="504.33" x2="-7505.85" y2="504.33" xlink:href="#_Безымянный_градиент_77"/>
    <linearGradient id="_Безымянный_градиент_87" data-name="Безымянный градиент 87" x1="-6838.66" y1="904.6" x2="-6838.66" y2="1016.02" gradientTransform="translate(-6919.17 -436.99) rotate(179.99) scale(1.07 -1.06) skewX(.01)" gradientUnits="userSpaceOnUse">
      <stop offset="0" stop-color="#73789d"/>
      <stop offset=".62" stop-color="#c5cad8"/>
      <stop offset="1" stop-color="#f4f9fa"/>
    </linearGradient>
    <linearGradient id="_Безымянный_градиент_83" data-name="Безымянный градиент 83" x1="-7070.38" y1="896.39" x2="-7070.38" y2="1003.46" gradientTransform="translate(-6689.86 -439.09) rotate(-179.97) scale(1 -1.06) skewX(-.07)" gradientUnits="userSpaceOnUse">
      <stop offset="0" stop-color="#fff"/>
      <stop offset=".99" stop-color="#f5fdff"/>
    </linearGradient>
    <linearGradient id="_Безымянный_градиент_87-2" data-name="Безымянный градиент 87" x1="-7186.64" y1="584.89" x2="-6945.49" y2="584.89" gradientTransform="translate(-6685.12) rotate(-180) scale(1 -1)" xlink:href="#_Безымянный_градиент_87"/>
    <linearGradient id="_Безымянный_градиент_77-7" data-name="Безымянный градиент 77" x1="263.53" y1="586.7" x2="498.4" y2="586.7" gradientTransform="matrix(1,0,0,1,0,0)" xlink:href="#_Безымянный_градиент_77"/>
    <linearGradient id="_Безымянный_градиент_83-2" data-name="Безымянный градиент 83" x1="-5619.16" y1="-23.44" x2="-5632.72" y2="-26.29" gradientTransform="translate(-5151.24 -588.07) rotate(-167.68) scale(1 -1)" xlink:href="#_Безымянный_градиент_83"/>
    <linearGradient id="_Безымянный_градиент_83-3" data-name="Безымянный градиент 83" x1="-7297.82" y1="622.39" x2="-7313.55" y2="608.29" gradientTransform="translate(-6916.81) rotate(-180) scale(1 -1)" xlink:href="#_Безымянный_градиент_83"/>
    <linearGradient id="_Безымянный_градиент_83-4" data-name="Безымянный градиент 83" x1="-7291.01" y1="359.13" x2="-7298.04" y2="282.38" gradientTransform="translate(-6916.81) rotate(-180) scale(1 -1)" xlink:href="#_Безымянный_градиент_83"/>
    <linearGradient id="_Безымянный_градиент_82" data-name="Безымянный градиент 82" x1="290.43" y1="323.32" x2="354.67" y2="323.32" gradientUnits="userSpaceOnUse">
      <stop offset="0" stop-color="#73789d"/>
      <stop offset=".28" stop-color="#9fa4bd"/>
      <stop offset=".6" stop-color="#cdd2de"/>
      <stop offset=".86" stop-color="#e9eef2"/>
      <stop offset="1" stop-color="#f4f9fa"/>
    </linearGradient>
    <linearGradient id="_Безымянный_градиент_101" data-name="Безымянный градиент 101" x1="1413.83" y1="1092.25" x2="1515.47" y2="1092.25" gradientTransform="translate(-1221.67 -603.52) rotate(-5.78)" gradientUnits="userSpaceOnUse">
      <stop offset="0" stop-color="#afbd22"/>
      <stop offset="1" stop-color="#bad775"/>
    </linearGradient>
    <linearGradient id="_Безымянный_градиент_80" data-name="Безымянный градиент 80" x1="181.04" y1="63.07" x2="263.53" y2="63.07" gradientUnits="userSpaceOnUse">
      <stop offset="0" stop-color="#afbd22"/>
      <stop offset="1" stop-color="#ecad11"/>
    </linearGradient>
    <linearGradient id="_Безымянный_градиент_77-8" data-name="Безымянный градиент 77" x1="-6592.18" y1="110.39" x2="-6464.72" y2="2.91" gradientTransform="translate(-6324.54) rotate(-180) scale(1 -1)" xlink:href="#_Безымянный_градиент_77"/>
    <linearGradient id="_Безымянный_градиент_80-2" data-name="Безымянный градиент 80" x1="569.86" y1="430.43" x2="652.36" y2="430.43" xlink:href="#_Безымянный_градиент_80"/>
    <linearGradient id="_Безымянный_градиент_77-9" data-name="Безымянный градиент 77" x1="-6981" y1="477.75" x2="-6853.54" y2="370.27" gradientTransform="translate(-6324.54) rotate(-180) scale(1 -1)" xlink:href="#_Безымянный_градиент_77"/>
    <linearGradient id="_Безымянный_градиент_80-3" data-name="Безымянный градиент 80" x1="161.95" y1="359.54" x2="244.45" y2="359.54" xlink:href="#_Безымянный_градиент_80"/>
    <linearGradient id="_Безымянный_градиент_77-10" data-name="Безымянный градиент 77" x1="159.94" y1="363.02" x2="232.97" y2="363.02" gradientTransform="matrix(1,0,0,1,0,0)" xlink:href="#_Безымянный_градиент_77"/>
    <linearGradient id="_Безымянный_градиент_86-3" data-name="Безымянный градиент 86" x1="606.97" y1="709.56" x2="616.13" y2="709.56" gradientTransform="matrix(1,0,0,1,0,0)" xlink:href="#_Безымянный_градиент_86"/>
    <linearGradient id="_Безымянный_градиент_86-4" data-name="Безымянный градиент 86" x1="669.79" y1="708.33" x2="678.95" y2="708.33" gradientTransform="matrix(1,0,0,1,0,0)" xlink:href="#_Безымянный_градиент_86"/>
    <linearGradient id="_Безымянный_градиент_86-5" data-name="Безымянный градиент 86" x1="601.61" y1="717.91" x2="687.31" y2="717.91" gradientTransform="matrix(1,0,0,1,0,0)" xlink:href="#_Безымянный_градиент_86"/>
    <linearGradient id="_Безымянный_градиент_86-6" data-name="Безымянный градиент 86" x1="639.05" y1="746.3" x2="652.12" y2="746.3" gradientTransform="matrix(1,0,0,1,0,0)" xlink:href="#_Безымянный_градиент_86"/>
    <linearGradient id="_Безымянный_градиент_86-7" data-name="Безымянный градиент 86" x1="681.39" y1="725.87" x2="687.31" y2="725.87" gradientTransform="matrix(1,0,0,1,0,0)" xlink:href="#_Безымянный_градиент_86"/>
    <linearGradient id="_Безымянный_градиент_86-8" data-name="Безымянный градиент 86" x1="671.15" y1="738.68" x2="680.69" y2="738.68" gradientTransform="matrix(1,0,0,1,0,0)" xlink:href="#_Безымянный_градиент_86"/>
    <linearGradient id="_Безымянный_градиент_86-9" data-name="Безымянный градиент 86" x1="609.57" y1="740.14" x2="619.73" y2="740.14" gradientTransform="matrix(1,0,0,1,0,0)" xlink:href="#_Безымянный_градиент_86"/>
    <linearGradient id="_Безымянный_градиент_86-10" data-name="Безымянный градиент 86" x1="601.53" y1="727.68" x2="607.54" y2="727.68" gradientTransform="matrix(1,0,0,1,0,0)" xlink:href="#_Безымянный_градиент_86"/>
    <linearGradient id="_Безымянный_градиент_77-11" data-name="Безымянный градиент 77" x1="478.22" y1="707.21" x2="491.37" y2="707.21" gradientTransform="matrix(1,0,0,1,0,0)" xlink:href="#_Безымянный_градиент_77"/>
    <linearGradient id="_Безымянный_градиент_77-12" data-name="Безымянный градиент 77" x1="568.4" y1="705.44" x2="581.54" y2="705.44" gradientTransform="matrix(1,0,0,1,0,0)" xlink:href="#_Безымянный_градиент_77"/>
    <linearGradient id="_Безымянный_градиент_80-4" data-name="Безымянный градиент 80" x1="470.54" y1="734.16" x2="593.55" y2="734.16" xlink:href="#_Безымянный_градиент_80"/>
    <linearGradient id="_Безымянный_градиент_77-13" data-name="Безымянный градиент 77" x1="470.54" y1="719.19" x2="593.55" y2="719.19" gradientTransform="matrix(1,0,0,1,0,0)" xlink:href="#_Безымянный_градиент_77"/>
    <linearGradient id="_Безымянный_градиент_77-14" data-name="Безымянный градиент 77" x1="524.28" y1="759.93" x2="543.04" y2="759.93" gradientTransform="matrix(1,0,0,1,0,0)" xlink:href="#_Безымянный_градиент_77"/>
    <linearGradient id="_Безымянный_градиент_77-15" data-name="Безымянный градиент 77" x1="585.04" y1="730.61" x2="593.55" y2="730.61" gradientTransform="matrix(1,0,0,1,0,0)" xlink:href="#_Безымянный_градиент_77"/>
    <linearGradient id="_Безымянный_градиент_77-16" data-name="Безымянный градиент 77" x1="570.35" y1="749" x2="584.05" y2="749" gradientTransform="matrix(1,0,0,1,0,0)" xlink:href="#_Безымянный_градиент_77"/>
    <linearGradient id="_Безымянный_градиент_77-17" data-name="Безымянный градиент 77" x1="481.96" y1="751.1" x2="496.55" y2="751.1" gradientTransform="matrix(1,0,0,1,0,0)" xlink:href="#_Безымянный_градиент_77"/>
    <linearGradient id="_Безымянный_градиент_77-18" data-name="Безымянный градиент 77" x1="470.43" y1="733.21" x2="479.04" y2="733.21" gradientTransform="matrix(1,0,0,1,0,0)" xlink:href="#_Безымянный_градиент_77"/>
  </defs>
  <g class="cls-49">
    <g id="Layer_2" data-name="Layer 2">
      <g id="Layer_10" data-name="Layer 10">
        <g>
          <g>
            <polygon class="cls-16" points="109.02 512.63 123.07 521.71 149.99 504.87 135.93 495.8 109.02 512.63"/>
            <polygon class="cls-16" points="73.48 535 87.54 544.07 123.24 521.55 109.19 512.47 73.48 535"/>
            <polygon class="cls-16" points="37.15 557.51 51.2 566.59 87.56 544.08 73.51 535 37.15 557.51"/>
            <polygon class="cls-16" points="0 579.8 14.06 588.88 55.8 563.65 41.74 554.57 0 579.8"/>
            <polygon class="cls-26" points="37.15 497.65 51.2 506.94 65.26 497.86 51.2 488.57 37.15 497.65"/>
            <polygon class="cls-29" points="51.2 566.59 65.26 557.51 65.26 497.86 51.2 506.94 51.2 566.59"/>
            <polygon class="cls-5" points="37.15 557.29 51.2 566.59 51.2 506.94 37.15 497.65 37.15 557.29"/>
            <polygon class="cls-36" points="0 470.54 14.06 479.83 28.12 470.76 14.06 461.47 0 470.54"/>
            <polygon class="cls-47" points="14.06 588.88 28.12 579.8 28.12 470.76 14.06 479.83 14.06 588.88"/>
            <polygon class="cls-36" points="0 579.59 14.06 588.88 14.06 479.83 0 470.54 0 579.59"/>
            <polygon class="cls-36" points="73.48 463.64 87.54 472.93 101.6 463.86 87.54 454.57 73.48 463.64"/>
            <polygon class="cls-13" points="87.54 544.15 101.6 535.07 101.6 463.86 87.54 472.93 87.54 544.15"/>
            <polygon class="cls-36" points="73.48 534.86 87.54 544.15 87.54 472.93 73.48 463.64 73.48 534.86"/>
            <polygon class="cls-34" points="109.02 486.95 123.07 496.24 137.13 487.16 123.07 477.87 109.02 486.95"/>
            <polygon class="cls-6" points="123.07 521.71 137.13 512.63 137.13 487.16 123.07 496.24 123.07 521.71"/>
            <polygon class="cls-31" points="109.02 512.42 123.07 521.71 123.07 496.24 109.02 486.95 109.02 512.42"/>
            <polygon class="cls-16" points="51.2 550.08 37.15 552.25 37.15 557.51 51.2 566.59 65.26 557.51 51.2 550.08"/>
            <polygon class="cls-16" points="73.48 534.86 87.54 527.33 101.6 535.07 87.54 544.15 73.48 534.86"/>
            <polygon class="cls-16" points="109.01 512.42 123.07 504.89 137.13 512.63 123.07 521.71 109.01 512.42"/>
          </g>
          <g>
            <path class="cls-16" d="m424.07,683.31c-86.19,11.81-160.89-13.87-166.85-57.37-5.96-43.49,59.08-88.33,145.27-100.14,86.19-11.81,140.85,22.59,146.82,66.09,5.96,43.49-39.04,79.61-125.23,91.42Z"/>
            <path class="cls-17" d="m520.54,591.89v15.74c0,13.56-5.65,26.57-15.74,35.62-26.51,23.76-71.53,41.45-122.77,42-51.85.57-97.66-16.48-124.54-40.11-10.28-9.04-16.02-22.18-16.02-35.87v-17.38h279.08Z"/>
            <path class="cls-12" d="m382.02,672.85c-76.97.84-139.78-36.58-140.29-83.57-.51-46.99,61.47-85.77,138.44-86.6,76.97-.84,139.78,36.58,140.29,83.57.51,46.99-61.47,85.77-138.44,86.6Z"/>
            <path class="cls-35" d="m381.71,654.61c-66.59.72-120.91-29.91-121.33-68.41-.42-38.51,53.22-70.31,119.81-71.03,66.59-.72,120.91,29.91,121.33,68.41.42,38.51-53.22,70.31-119.81,71.03Z"/>
            <path class="cls-24" d="m381.71,654.61c-64.86.7-117.76-29.13-118.17-66.63-.41-37.5,51.84-68.48,116.7-69.19,64.86-.71,117.76,29.13,118.17,66.63.41,37.5-51.84,68.48-116.69,69.19Z"/>
          </g>
          <g>
            <path class="cls-36" d="m341.81,188.83c-.55,0-1-.45-1-1v-46.04c0-3.92-2.11-7.57-5.5-9.53l-34.31-19.81c-.48-.28-.64-.89-.37-1.37.28-.48.89-.64,1.37-.37l34.31,19.81c4.01,2.32,6.5,6.63,6.5,11.26v46.04c0,.55-.45,1-1,1Z"/>
            <path class="cls-36" d="m317.05,432.22c-1.09,0-2.17-.29-3.16-.86l-32.33-18.66c-.48-.28-.64-.89-.37-1.37.28-.48.89-.64,1.37-.37l32.33,18.66c1.35.78,2.97.78,4.33,0,1.35-.78,2.16-2.18,2.16-3.75v-43.74c0-.55.45-1,1-1s1,.45,1,1v43.74c0,2.29-1.18,4.34-3.16,5.48-.99.57-2.08.86-3.16.86Z"/>
            <path class="cls-36" d="m315.51,277.05c-.17,0-.34-.04-.5-.13l-57.47-33.18c-.48-.28-.64-.89-.37-1.37.28-.48.89-.64,1.37-.37l57.47,33.18c.48.28.64.89.37,1.37-.19.32-.52.5-.87.5Z"/>
            <path class="cls-36" d="m296.97,117.8c-1.54,0-3.27-.52-5.03-1.53-5.35-3.09-9.55-9.74-9.55-15.14,0-2.55.96-4.5,2.71-5.51,2.04-1.18,4.9-.88,7.84.82,5.35,3.09,9.55,9.74,9.55,15.13,0,2.55-.96,4.5-2.71,5.51-.82.47-1.78.71-2.81.71Zm-9.04-20.89c-.69,0-1.31.15-1.83.45-1.12.64-1.71,1.95-1.71,3.78,0,4.67,3.83,10.68,8.55,13.4,2.31,1.33,4.44,1.63,5.84.82,1.12-.64,1.71-1.95,1.71-3.78,0-4.67-3.83-10.68-8.55-13.4-1.46-.84-2.84-1.27-4.01-1.27Z"/>
            <path class="cls-36" d="m253.91,249.09c-1.54,0-3.27-.52-5.03-1.53-5.35-3.09-9.55-9.74-9.55-15.13,0-2.55.96-4.5,2.71-5.51,2.04-1.18,4.9-.88,7.84.82,5.35,3.09,9.55,9.74,9.55,15.13,0,2.55-.96,4.5-2.71,5.51-.82.47-1.77.71-2.81.71Zm-9.04-20.89c-.69,0-1.31.15-1.83.45-1.12.64-1.71,1.95-1.71,3.78,0,4.67,3.83,10.68,8.55,13.4,2.31,1.33,4.44,1.63,5.84.82,1.12-.64,1.71-1.95,1.71-3.78,0-4.67-3.83-10.68-8.55-13.4-1.46-.84-2.84-1.27-4.01-1.27Z"/>
            <path class="cls-36" d="m277.54,418.06c-1.54,0-3.27-.52-5.03-1.53-5.35-3.09-9.55-9.74-9.55-15.13,0-2.55.96-4.5,2.71-5.51,2.04-1.17,4.9-.88,7.84.82,5.35,3.09,9.55,9.74,9.55,15.13,0,2.55-.96,4.5-2.71,5.51-.82.47-1.77.71-2.81.71Zm-9.04-20.89c-.69,0-1.31.15-1.83.45-1.12.64-1.71,1.95-1.71,3.78,0,4.67,3.83,10.68,8.55,13.4,2.31,1.33,4.44,1.63,5.84.82,1.12-.64,1.71-1.95,1.71-3.78,0-4.67-3.83-10.68-8.55-13.4-1.46-.84-2.84-1.27-4.01-1.27Z"/>
          </g>
          <g>
            <path class="cls-16" d="m561.92,575.06c2.05-4.07,3.36-8.05.58-11.62-1.77-4.64-14.52-14.07-21.08-18.95.28-.54.79-1.25,1.69-1.87l.25.29c1.1-1.36,9.79-.63,12.27-1.7.14-.06.26-.12.38-.19,2.49.16,4.24.15,4.86.18-3.13-1.49-2.34-4.69-7.09-8.01-2.64-1.84-5.75-3.37-9.02-4.6-10.19-4.17-21.89-5.16-25.63-3.42-.11.05-.14.1-.12.15-.11.04-.23.08-.33.13-.21.1-.14.2.12.29-.2.08-.41.16-.61.26-3.18,1.47-5.66,3.67-6.18,5.67-1.03-.25-2.08-.49-3.16-.7-5.85-1.13-19.66-3.34-26.94-2.04-.04,0-.08,0-.11.02-2.17.45-11.38,2.11-19.88,3.81l-30.7-21.39c-.29-.21-.63-.35-.94-.41,0,0,0,0,0,0l-1.18-.22c-.31-.06-.59-.05-.78.06l-16.9,10.48s-.08.06-.11.09c0,0,0,0,0,0,0,0,0,.01,0,.02-.02.02-.03.04-.04.06,0,.01,0,.03,0,.04,0,0,0,.01,0,.02,0,0,0,.01,0,.02,0,.02,0,.05,0,.07,0,0,0,.02,0,.03,0,0,0,.01,0,.02,0,0,0,.02,0,.03,0,.02,0,.05.02.07,0,0,0,.02,0,.02,0,0,0,.02,0,.02,0,.01,0,.03.01.04.01.03.03.06.05.09h0s.01.02.01.03c.02.03.04.05.05.07.02.01.02.02.04.03.02.03.05.06.08.09.01.01.03.03.04.05,0,0,.02.01.03.02.06.06.15.13.24.19l21.74,15.15c-11.23,1.2-25.33,2.76-25.33,2.76l1.59,1.06c-.52-.03-.96-.07-1.29-.14-5.5-1.16-11.04-2.47-14.39-2.84-2.69-.3-7.4-.26-9.59-.15-1.64.08-5.87.76-5.87.76l-.09.57-1.61.48h0s0,0,0,0l.44.28.68.44,2.22.38h-.02s.52.32.52.32c.28.21.68.47,1.09.67l.04.02h0c.17.08.35.15.52.2.92.27,16.66,1.42,16.66,1.42,0,0-7.65-.14-9.69.15-.45.06-1.32.43,2.38,1.13,3.7.7,10.82.59,10.82.59,0,0,4.99,1.13,8.63,1.11,3.64-.01,5.95-.2,5.95-.2,0,0,.15.01.43.04l2.72,1.81c1.55.18,6.83.29,13.23.24-3.19,1.25-5.4,2.11-6.09,2.34-1.68.58-.65,2.16,1.3,3.72-.13.08-.27.15-.4.23h0c-.96.56-1.94,1.13-2.96,1.73,0,0,0,0,0,0h0c-24.04,14.16-81.46,34.21-83.56,33.48-3.92-1.35-5.31-1.33-6.5-1.14.01,0,.02-.02.03-.03-.32,0-4.65,2.1-4.45,2.88.18.71.04,3.14,6.49,5.66,6.44,2.51,15.9,1.92,34.56,1.92,16,0,84.87-25.49,84.99-25.41.26.17-69.73,39.98-69.46,40.15.1.06.2.12.3.18.16.1.32.2.49.29l-.25.09s-5.04.24-8.22-.05c-3.18-.29-13.38,5.56-10.69,8.57,5.07,5.67,36.79,4.21,38.89,3.83.31-.06.58-.12.83-.19.08-.02.15-.05.23-.07.16-.05.31-.1.45-.15.08-.03.14-.06.21-.09.12-.05.23-.11.32-.17.06-.03.11-.07.17-.1.09-.06.17-.12.24-.18.04-.03.08-.07.11-.1.07-.07.13-.14.18-.22.02-.03.04-.06.06-.09.06-.1.1-.19.14-.29,0,0,0-.02,0-.02.03-.1.05-.2.07-.31,3.25,1.28,5.43,2.08,5.43,2.08,0,0,47.87-20.05,78.24-33.54,6.05,1.84,10.83,2.69,12.53,1.69.83-.49,11.32-5.86,22.94-11.97,3.03.91,5.51,1.59,7.19,1.94,4.89,1.02,10.68,2.43,14.6.75,5.11-2.18,6.88-5.08,9.86-11.02Zm-132.04-64.14s-.02,0-.04,0c.01,0,.02,0,.04,0Zm-17.37,10.68s.01,0,.01-.01c.03-.03.06-.07.1-.09-.09.05-.14.12-.16.21,0,0,0,0,0,0,.01-.03.02-.06.04-.09Zm-.05.26s0-.02,0-.02c0-.04,0-.07.01-.11-.02.08-.01.17.02.26,0,0,0,0,0,0-.02-.04-.02-.09-.03-.13Zm.12.31s0-.02-.02-.02c-.03-.05-.05-.09-.07-.14,0,0,0,0,0,0,.04.1.1.2.19.3,0,0-.02-.02-.02-.02-.03-.04-.05-.07-.08-.11Zm.23.27s-.05-.05-.06-.07c-.01-.01-.02-.02-.03-.03.09.1.2.2.34.3-.09-.06-.17-.13-.25-.2Z"/>
            <g>
              <g>
                <path class="cls-41" d="m336.12,331.5c-3.7,1.24-16.35,50.9-20.83,54.05-4.48,3.15-9.18,5.95-11.5,8.7-1.87,2.21-4.46,7.48-5.55,10.16-.82,2.01-2.36,8.36-2.36,8.36l.64,1.53-.32,2.98,1.52.58,1.78-1.56s1.75,1.12,2.59.77c.84-.35,11.05-14.78,11.05-14.78,0,0-4.45,8.07-5.25,11.02-.18.65-.22,2.53,2.7.21,2.91-2.32,6.77-10.43,6.77-10.43,0,0,4.16-2.67,6.18-6.71,2.02-4.04,3.09-7.04,3.09-7.04,0,0,26.76-35.41,23.8-51.49-3.53-19.18-9.68-7.9-14.3-6.35Z"/>
                <path class="cls-36" d="m330.69,330.93c-1.84,4.66-16.69,52.66-16.69,52.66l16.61,6.92c3.21-3.71,23.86-44.61,21.78-54.95-3.84-19.12-19.74-9.64-21.71-4.63Z"/>
                <path class="cls-40" d="m305.6,405.7c-.25,2.91-5.09,10.5-5.09,10.5l1.04.93-2.15-.73,1.23-2.94s3-4.78,3.8-6.94c.79-2.16,1.21-1.17,1.18-.82Z"/>
                <path class="cls-40" d="m303.45,400.96c.75-.12-3.66,7.56-4.62,10.13-.64,1.73-1.99,6.43-1.99,6.43l-.64-.24s1.43-4.81,2.07-6.57c.95-2.57,4.71-9.68,5.18-9.75Z"/>
              </g>
              <path class="cls-36" d="m330.84,332.62c-1.04-5.64,9.31-51.58,10.59-58.31,2.72-14.23,23.09,12.37,24.32,20.09,1.59,9.97-10.57,45.07-10.57,45.07,0,0-22.11,5.32-24.34-6.84Z"/>
              <path class="cls-39" d="m369.2,569.68c-1.13.47-7.89,4.68-9.19,4.77-1.3.09-20.21,6.14-22.8,6.77-4.5,1.1-4.76,3.06-5.24,5.25-.48,2.19-.99,3.49-.34,5.2.65,1.71,5.07,4.25,11.45,5.1,6.38.85,13.39-.02,16.23-1.34,2.85-1.32,9.21-2.6,11.32-2.28,9.75,1.47,14.45.64,16.03-2.52,1.58-3.16,3.86-12.06,3.86-12.06l-21.33-8.89Z"/>
              <path class="cls-44" d="m332.17,585.4c.01.5.28,1.02.49,1.57.65,1.71,5.07,4.25,11.45,5.1,6.38.85,13.39-.02,16.23-1.34,2.85-1.32,9.21-2.6,11.32-2.28,9.75,1.47,14.45.64,16.03-2.52.82-1.63,1.82-4.78,2.59-7.46l.24.1s-.19,8.47-1.77,11.63c-1.58,3.16-8.05,4.79-17.81,3.32-2.11-.32-8.79.59-11.64,1.91-2.85,1.32-9.85,2.19-16.23,1.34-6.38-.85-10.46-3.12-11.42-4.69-1.06-1.74.33-6.33.51-6.69Z"/>
              <path class="cls-36" d="m394.74,358.17l-3.22,226.83s-22.07,3.4-35.92-11.52c0,0-15.12-189.9-13.69-209.63,2.18-.27,52.84-5.69,52.84-5.69Z"/>
              <path class="cls-36" d="m374.86,360.3c-14.46,1.55-31.71,3.41-32.96,3.56-.36,4.99.34,20.84,1.58,41.76,9.61,5.43,25.48-14.45,35.9-11l-4.52-34.32Z"/>
              <path class="cls-39" d="m415.17,587.21c1.55,2.94,5.39,6.57,3.82,13.63-.96,4.35-7.91,7.36-10.69,9.97-5.13,4.82-6.15,15.16-23.46,15.59-16.23.4-16.1-6.18-16.02-6.15,0,0-.01-3.72,3.72-6.87,2.33-1.97,13.51-9.77,15.64-12.55,2.13-2.77,4.66-8.91,4.66-8.91l.72-11.73h21.89l-.29,7.01Z"/>
              <path class="cls-1" d="m368.83,620.25s.01-1.96,1.43-4.24c.49,1.62,3.01,5.4,15.08,5.1,16.39-.41,16.7-7.27,21.56-11.84,2.63-2.47,9.87-8.26,10.78-12.38.46-2.07.43-3.83.12-5.35,1.21,2.31,2.09,5.23,1.2,9.29-.96,4.35-7.91,7.36-10.69,9.97-5.13,4.82-6.15,15.16-23.46,15.59-16.23.4-16.1-6.18-16.02-6.15Z"/>
              <path class="cls-36" d="m426.42,365.43c2.85,7.11-2.57,226.36-2.57,226.36,0,0-26.41,4.81-37.37-3.42-.68-24.79-7.92-212.21-14.09-219.74,2.16-.27,39.21,5.89,54.03-3.21Z"/>
              <path class="cls-33" d="m398.92,432.49c13.01,4.67,28.03,0,28.03,0,.44-36.03.46-64.58-.54-67.07-14.83,9.09-51.88,2.93-54.03,3.21,6.17,7.53,13.41,194.95,14.09,219.74,3.19,2.39,7.68,3.68,12.45,4.3v-160.18Z"/>
              <path class="cls-15" d="m342.94,363.74s21.15,26.54,61.73,19.41c0,0,2.87-114.75-3.36-124.26-6.23-9.51-23.92-9.01-34.09-8.35-10.17.66-16.64,18.44-17.63,21.72-.98,3.28-6.65,91.49-6.65,91.49Z"/>
              <path class="cls-39" d="m372.78,271.94l-2.5-3.24,5.28-4.53,1.18-.09,3.69,6.56-3.34,1.84s-1.43,52.88-3.35,69.05c-.96,8.06-7.66,27.9-7.66,27.9,0,0-4.45-14.41-3.79-32.73.72-19.64,10.49-64.76,10.49-64.76Z"/>
              <path class="cls-25" d="m399.55,255.87c.95,6.89-7.71,16.16-15.82,20.96-.42.25-7.49-12.3-7.49-12.3,0,0-11.35,8.63-11.43,8.43-3.89-9.4-4.85-5.71-5.66-11.55-.88-6.42,7.45-12.86,18.61-14.39,11.16-1.53,20.91,2.43,21.79,8.85Z"/>
              <path class="cls-36" d="m375.33,244.83s-8.94-.94-16.3,4.79c-5.29,4.12-18.11,16.08-18.11,29.36,0,32.13-2.73,104.04-3.18,110.14-.54,7.32,12.4,12.27,14.29,8.74,1.89-3.54,7.77-112.94,12.3-138.03,2.08-11.53,10.99-14.99,10.99-14.99Z"/>
              <g>
                <path class="cls-41" d="m394.48,250.08s-3.29-8.07-1.94-14.74c1.82-9-17.53,9.91-17.53,9.91,0,0-4.17,8.77-4.34,11.36-.8,12.39,26.15,5.38,23.81-6.53Z"/>
                <path class="cls-41" d="m374.67,209.38c10.56-1.33,20.39.52,20.8,12-.31,12.07-4.34,21.88-13.73,28.44-4.57,3.86-10.71,5.23-14.95,4.54-5.05-.82-8.54-15.6-8.54-27.46s4.12-15.98,16.42-17.53Z"/>
                <path class="cls-39" d="m357.77,223.81c0,2.01,2.73-1.46,4.19-2.31,0,0,13.75,13.01,22.54,10.39,2.04-.61,3.05,4.88,3.05,4.88l5.28,4.78c-1.03-4.62,4.72-12.35,4.82-17.74.15-8.42-4.03-14.2-11.65-17.71-15.48-7.14-28.22,6.88-28.22,17.71Z"/>
                <path class="cls-41" d="m388.21,239.95c1.43-1.22,2.79-2.62,3.58-4.33.8-1.71.96-3.8.07-5.46-.89-1.66-2.99-2.7-4.77-2.06-1.23.45-2.1,1.59-2.55,2.82-.45,1.23-.53,2.55-.61,3.86-.07,1.19-.14,2.37-.21,3.56-.05.82-.07,1.73.49,2.34.51.56,1.37.67,2.09.46.72-.21,1.33-.69,1.9-1.18Z"/>
                <path class="cls-39" d="m386.9,205.8c6.68,3.08,10.12,11.96,13.67,12.24-1.04,1.57-5.95,12.51-16.15,15.08-8.84,2.22-22.37-10.43-22.37-10.43-1.46.85-4.19,4.31-4.19,2.31,0-10.83,13.57-26.33,29.04-19.19Z"/>
              </g>
              <path class="cls-36" d="m394.29,264.44c0,20.79-13.72,154.94-13.72,154.94,6.57,8.23,56.52,8.67,55.57-7.02-.3-4.91-3.17-128.51-5.77-136.64-3.48-10.86-25.87-22.42-36.71-28.06,0,0,.64,8.07.64,16.79Z"/>
              <path class="cls-36" d="m425.72,375.23s-5.91,1.72-12.02,2.87c-6.12,1.15-13.47,2.31-13.47,2.31,0,0-.19,7.21,3.31,7.7,3.5.49,21.94-2.4,23.24-4.45,1.3-2.05-1.05-8.43-1.05-8.43Z"/>
              <g>
                <path class="cls-2" d="m349.83,312.53l-58.02-26.61c-.82-.38-1.44.08-1.37,1.02l3.21,44.78c.07.94.79,2.01,1.62,2.39l58.03,26.61c.82.38,1.44-.08,1.36-1.02l-3.21-44.78c-.07-.94-.79-2.01-1.62-2.39Z"/>
                <path class="cls-21" d="m354.1,360.81c-.06.02-.14.03-.21.03-.02,0-.03,0-.04,0-.07,0-.15-.01-.23-.03-.05-.01-.12-.03-.16-.06-.05,0-.1-.03-.15-.05l-58.03-26.61c-.13-.06-.26-.14-.38-.22-.04-.03-.08-.07-.12-.1-.05-.04-.11-.09-.16-.13-.06-.06-.12-.12-.18-.18-.01-.02-.02-.03-.04-.05-.07-.08-.14-.18-.21-.27-.01-.02-.02-.03-.03-.05-.06-.09-.12-.2-.17-.29-.01-.02-.02-.03-.03-.05-.05-.1-.09-.2-.13-.3,0-.02-.02-.04-.02-.06-.03-.09-.07-.19-.09-.28,0-.02,0-.03,0-.05-.02-.12-.05-.23-.05-.35l-3.21-44.78c-.04-.48.1-.83.35-1.01l-.93.74c-.25.18-.39.53-.36,1.01l3.22,44.77c0,.11.02.22.05.33,0,0,0,0,0,.02,0,.02.01.03.01.04.01.07.04.13.05.19.02.03.03.06.04.1,0,.02,0,.03.02.06,0,.02.01.03.02.05.03.06.06.13.08.19.01.03.02.05.03.07,0,.01.02.03.03.04.01.02.03.04.04.06.02.06.06.12.1.17.01.02.02.03.04.05.01.02.02.03.03.04.02.03.04.05.05.08.04.07.09.12.14.18h0s.03.05.04.07c.05.04.09.08.12.13.03.01.04.03.06.05.05.05.1.09.16.14.03.02.05.05.08.08.01,0,.03.01.05.02.11.09.24.17.37.23l58.03,26.6s.02,0,.02.01c.04.02.08.02.12.04.05.02.12.04.16.06,0,0,0,0,.01,0,.07.01.13.02.19.02.02,0,.03,0,.04,0,.02,0,.03,0,.04,0,.02,0,.04,0,.07,0,.05,0,.09-.02.13-.03,0,0,.02,0,.02,0,0,0,.01,0,.03-.01.02,0,.04-.01.06-.02.04-.02.07-.04.11-.06h.02s.93-.76.93-.76c-.06.05-.12.07-.19.1,0,0-.02.01-.02.01Z"/>
                <path class="cls-38" d="m396.31,338.33l-58.22-26.88c-.83-.38-2.18-.35-3.03.07l-40.33,20.05c-.85.42-.86,1.07-.04,1.46l58.21,26.88c.83.38,2.19.35,3.04-.07l40.33-20.05c.85-.42.86-1.08.03-1.46Z"/>
                <path class="cls-25" d="m396.92,337.97s-.02-.03-.01-.04h0s0-.02,0-.02c-.01-.03-.07-.12-.08-.14,0-.01-.23-.21-.24-.23-.01-.01-.17-.11-.25-.14l-58.21-26.88c-.09-.05-.2-.09-.31-.12-.04-.02-.08-.02-.11-.03-.05-.02-.11-.03-.16-.05-.03,0-.06,0-.09,0-.03,0-.04-.01-.07-.02-.03,0-.21-.03-.28-.03-.02,0-.04,0-.06,0-.02,0-.03,0-.04,0-.01,0-.04,0-.06-.01-.06,0-.26,0-.31,0,0,0-.01,0-.01,0h0s-.22.01-.27.01c-.05,0-.14.02-.14.02h-.01s-.1.01-.15.02c-.05,0-.2.04-.22.04-.01,0-.02,0-.03,0-.02,0-.03,0-.05.01-.07.02-.12.03-.18.05-.03.01-.14.04-.17.06,0,0-.22.08-.31.13l-40.32,20.05c-.42.21-.64.48-.65.74v.93c0-.26.21-.53.64-.74l40.33-20.05c.09-.04.2-.09.32-.13.03,0,.03-.01.05-.01.11-.04.22-.07.33-.09.02-.01.03,0,.04-.01.12-.02.25-.04.38-.06h0c.13-.02.27-.03.4-.03h.01c.13,0,.26,0,.4,0,0,0,.02,0,.02,0,.12,0,.23.03.34.04.02,0,.05,0,.07.02.09.01.17.04.25.05.04.01.07.02.11.03.11.03.21.07.31.12l58.22,26.88c.1.04.27.16.29.17.06.05.11.1.16.15v.02c.06.05.09.12.11.17,0,0,0,.01,0,.01.02.06.04.13.03.19l.02-.93s0-.01,0-.01c0-.02,0-.04,0-.07,0-.02,0-.05-.01-.07Z"/>
              </g>
              <g>
                <path class="cls-41" d="m363.13,349.52c-3.52-1.93-7.95-.83-14.36-3.49-9.4-3.9-8.52,3.76,2.17,5.51,0,0-13.89,1.26-14.09,3.47-.23,2.5,2.62,3.97,4.36,3.65,0,0-2.76,1.8-.78,4.32.96,1.22,3.2.78,3.2.78l-.65.89c-.89,1.65,1.24,3.42,2.83,3.23l1.75-.09c-1.21,1.53,12.35,3.77,22.89,1.43,1.79-.4,15.77-2.92,15.77-2.92l-8.57-12.41s-4.52.98-5.88.81c-2.83-.34-6.33-3.92-8.62-5.17Z"/>
                <path class="cls-36" d="m418.63,267.76c-13.09.75-13.47,17.62-7.16,34.99,3.26,8.99,5.92,31.03,5.92,31.03l-45.1,19.33,2.69,18.84s55.83-10.69,65.88-17.8c3.97-2.82,8.92-5.67,9.09-14.17.22-11.08-2.3-20.27-7.81-38.4-5.57-18.33-11.82-34.49-23.52-33.82Z"/>
              </g>
            </g>
          </g>
          <g>
            <path class="cls-36" d="m433.28,225.25c-.55,0-1-.45-1-1v-43.49c0-2.34,1.21-4.44,3.24-5.61,2.03-1.17,4.45-1.17,6.47,0l31.04,17.92c.48.28.64.89.37,1.37s-.89.64-1.37.37l-31.04-17.92c-1.4-.81-3.07-.81-4.47,0-1.4.81-2.24,2.26-2.24,3.87v43.49c0,.55-.45,1-1,1Z"/>
            <path class="cls-36" d="m494.82,535.7c-.17,0-.34-.04-.5-.13l-34.91-20.16c-3.65-2.1-5.91-6.03-5.91-10.24v-46.72c0-.55.45-1,1-1s1,.45,1,1v46.72c0,3.5,1.88,6.75,4.91,8.5l34.91,20.16c.48.28.64.89.37,1.37-.19.32-.52.5-.87.5Z"/>
            <path class="cls-36" d="m523.13,397.84c-.17,0-.34-.04-.5-.13l-64.34-37.15c-.48-.28-.64-.89-.37-1.37s.89-.64,1.37-.37l64.34,37.15c.48.28.64.89.37,1.37-.19.32-.52.5-.87.5Z"/>
            <path class="cls-36" d="m486.45,210.8c-1.54,0-3.27-.52-5.03-1.53-5.35-3.09-9.55-9.74-9.55-15.13,0-2.55.96-4.5,2.7-5.51,2.04-1.18,4.9-.88,7.84.82,5.35,3.09,9.55,9.74,9.55,15.13,0,2.55-.96,4.5-2.71,5.51-.82.47-1.78.71-2.81.71Zm-9.04-20.89c-.69,0-1.31.15-1.83.45-1.12.64-1.7,1.95-1.7,3.78,0,4.67,3.83,10.68,8.55,13.4,2.31,1.33,4.44,1.63,5.84.82,1.12-.64,1.71-1.95,1.71-3.78,0-4.67-3.83-10.68-8.55-13.4-1.46-.84-2.84-1.27-4.01-1.27Z"/>
            <path class="cls-36" d="m507.68,550.95c-1.54,0-3.27-.52-5.03-1.53-5.35-3.09-9.55-9.74-9.55-15.13,0-2.55.96-4.5,2.71-5.51,2.04-1.18,4.9-.88,7.84.82,5.35,3.09,9.55,9.74,9.55,15.13,0,2.55-.96,4.5-2.71,5.51-.82.47-1.77.71-2.81.71Zm-9.04-20.89c-.69,0-1.31.15-1.83.45-1.12.64-1.71,1.95-1.71,3.78,0,4.67,3.83,10.68,8.55,13.4,2.31,1.33,4.44,1.63,5.84.82,1.12-.64,1.71-1.95,1.71-3.78,0-4.67-3.83-10.68-8.55-13.4-1.46-.84-2.84-1.27-4.01-1.27Z"/>
            <path class="cls-36" d="m536.2,414.12c-1.54,0-3.27-.52-5.03-1.53-5.35-3.09-9.55-9.74-9.55-15.13,0-2.55.96-4.5,2.71-5.51,2.04-1.18,4.9-.88,7.84.82,5.35,3.09,9.55,9.74,9.55,15.13,0,2.55-.96,4.5-2.71,5.51-.82.47-1.77.71-2.81.71Zm-9.04-20.89c-.69,0-1.31.15-1.83.45-1.12.64-1.71,1.95-1.71,3.78,0,4.67,3.83,10.68,8.55,13.4,2.31,1.33,4.44,1.63,5.84.82,1.12-.64,1.71-1.95,1.71-3.78,0-4.67-3.83-10.68-8.55-13.4-1.46-.84-2.84-1.27-4.01-1.27Z"/>
          </g>
          <g>
            <g>
              <path class="cls-19" d="m181.04,7.08l11.24-6.52c.06-.04.12-.07.18-.11l.09-.05h0c1.06-.53,2.37-.57,3.54.11l61.85,36.11c3.46,2.02,5.59,5.73,5.59,9.74v70.82c0,1.01-.55,1.82-1.31,2.26h0l-11.55,6.69-10.6-18.13-46.84-27.35c-1.69-.99-2.73-2.79-2.73-4.75V23.27l-9.47-16.19Z"/>
              <path class="cls-46" d="m179.02,10.38v72.19c0,1.96,1.04,3.76,2.73,4.75l66.39,38.76c1.73,1.01,3.91-.24,3.91-2.25V53.02c0-4.01-2.13-7.72-5.59-9.74L184.61,7.17c-2.48-1.45-5.59.34-5.59,3.21Z"/>
            </g>
            <path class="cls-25" d="m209.75,85.02c-10.97-7.67-13.19-27.33-3.04-30.89,8.45-2.96,3.97-17.27,3.97-17.27,0,0,13.98,15.26,11.34,25.82,0,0,3.98,3.24,7.76-.44,0,0,7.19,41.79-20.02,22.77Z"/>
          </g>
          <g>
            <g>
              <path class="cls-42" d="m569.86,374.45l11.24-6.52c.06-.04.12-.07.18-.11l.09-.05h0c1.06-.53,2.37-.57,3.54.11l61.85,36.11c3.46,2.02,5.59,5.73,5.59,9.74v70.82c0,1.01-.55,1.82-1.32,2.26h0l-11.55,6.69-10.6-18.13-46.84-27.35c-1.69-.99-2.73-2.79-2.73-4.75v-52.64l-9.47-16.19Z"/>
              <path class="cls-20" d="m567.84,377.74v72.19c0,1.96,1.04,3.76,2.73,4.75l66.39,38.76c1.73,1.01,3.91-.24,3.91-2.25v-70.82c0-4.01-2.13-7.72-5.59-9.74l-61.85-36.11c-2.48-1.45-5.59.34-5.59,3.21Z"/>
            </g>
            <path class="cls-25" d="m631.38,447.29l-25.03-41.89-24.89,13.07,1.08,3.42,8.42-4.51v28.65l30.78,17.77v-28.8l8.56,14.47,1.08-2.18Zm-25.85-4.74l-6.56-3.79v-14.77l6.56,3.79v14.77Zm8.21,4.74l-6.65-3.84v-14.77l6.65,3.84v14.77Z"/>
          </g>
          <g>
            <g>
              <path class="cls-36" d="m510.45,172.3l11.24-6.52c.06-.04.12-.07.18-.11l.09-.05h0c1.06-.53,2.37-.57,3.54.11l61.85,36.11c3.46,2.02,5.59,5.73,5.59,9.74v70.82c0,1.01-.55,1.82-1.32,2.26h0l-11.55,6.69-10.6-18.13-46.84-27.35c-1.69-.99-2.73-2.79-2.73-4.75v-52.65l-9.47-16.19Z"/>
              <path class="cls-36" d="m508.43,175.6v72.19c0,1.96,1.04,3.76,2.73,4.75l66.39,38.76c1.73,1.01,3.91-.24,3.91-2.25v-70.82c0-4.01-2.13-7.72-5.59-9.74l-61.85-36.11c-2.48-1.45-5.59.34-5.59,3.21Z"/>
            </g>
            <path class="cls-25" d="m553.27,255.32l1.84,3.88,4.24-2.03-1.72-3.62c1.5-1.28,2.63-3.25,3.27-5.84l2.68,2.46.52-7.39-2.68-2.03c-.2-3.24-.93-6.67-2.08-10.05l2.2-.96-3.81-7.98-2.01.86c-1.69-3.51-4.96-7.31-6.21-8.39l.33-3.18-5.98-4.76-.59,3.17c-2.4-1.36-4.09-1.63-6.11-1.49l-1.73-3.62-4.3,2.06,1.59,3.39c-1.03.88-2.55,2.9-3.13,5.51l-3.27-2.59-.52,7.4,3.21,2.41c.2,3.25.83,6.73,1.99,10.11l-2.33,1.02,3.82,7.98,2.33-1.02s2.7,5.29,6.1,8.43l-.3,3.22,5.98,4.76.34-3.42c.85.79,3.4,2.18,6.34,1.71Zm-7.72-13.64c-4.11-3.58-7.61-10.9-7.82-16.35-.21-5.44,2.95-6.95,7.05-3.37.16.14.32.28.48.44,3.75,3.57,6.9,10.15,7.31,15.31.02.2.03.41.04.6.21,5.45-2.95,6.96-7.06,3.37Z"/>
          </g>
          <g>
            <g>
              <path class="cls-36" d="m133.76,131.84l11.24-6.52c.06-.04.12-.07.18-.11l.09-.05h0c1.06-.53,2.37-.57,3.54.11l61.85,36.11c3.46,2.02,5.59,5.73,5.59,9.74v70.82c0,1.01-.55,1.82-1.32,2.26h0l-11.55,6.69-10.6-18.13-46.84-27.35c-1.69-.99-2.73-2.79-2.73-4.75v-52.65l-9.47-16.19Z"/>
              <path class="cls-36" d="m131.75,135.14v72.19c0,1.96,1.04,3.76,2.73,4.75l66.39,38.76c1.73,1.01,3.91-.24,3.91-2.25v-70.82c0-4.01-2.13-7.72-5.59-9.74l-61.85-36.11c-2.48-1.45-5.59.34-5.59,3.21Z"/>
            </g>
            <g>
              <path class="cls-25" d="m168.26,191.95c-4.26-2.46-8.33-3.54-11.78-3.17-.91.1-1.1,1.26-.42,2.53h0c.62,1.15,1.75,1.97,2.58,1.88,2.74-.29,6.05.53,9.62,2.58,3.56,2.06,6.87,5.06,9.62,8.52.83,1.04,1.95,1.52,2.58,1.1h0c.69-.47.5-1.85-.42-3.01-3.44-4.35-7.51-7.96-11.78-10.42Z"/>
              <path class="cls-25" d="m172.45,212.55c0,2.31-1.88,3.11-4.19,1.77-2.31-1.34-4.19-4.29-4.19-6.61s1.88-3.11,4.19-1.77c2.31,1.34,4.19,4.29,4.19,6.61Z"/>
              <path class="cls-25" d="m181.4,189.34c-4.16-4.16-8.59-7.61-13.14-10.24-4.56-2.63-8.98-4.29-13.14-4.93-2.37-.37-4.6-.39-6.67-.09-.89.13-1.06,1.28-.38,2.53h0c.64,1.17,1.79,2,2.62,1.88,4.94-.74,11.01.65,17.57,4.44,6.56,3.79,12.63,9.41,17.57,15.85.83,1.08,1.99,1.59,2.62,1.15h0c.68-.46.5-1.81-.38-2.97-2.07-2.69-4.29-5.24-6.67-7.61Z"/>
              <path class="cls-25" d="m185.84,181.39c-5.57-5.57-11.48-10.18-17.58-13.7-6.1-3.52-12.01-5.74-17.58-6.6-3.34-.52-6.46-.53-9.35-.05-.87.15-1.03,1.29-.35,2.52h0c.65,1.19,1.82,2.01,2.65,1.88,6.88-1.15,15.41.74,24.63,6.07,9.22,5.32,17.75,13.28,24.63,22.37.83,1.1,2.01,1.63,2.65,1.19h0c.67-.46.51-1.79-.35-2.93-2.88-3.81-6.01-7.41-9.35-10.75Z"/>
            </g>
          </g>
          <g>
            <g>
              <path class="cls-8" d="m161.95,303.55l11.24-6.52c.06-.04.12-.07.18-.11l.09-.05h0c1.06-.53,2.37-.57,3.54.11l61.85,36.11c3.46,2.02,5.59,5.73,5.59,9.74v70.82c0,1.01-.55,1.82-1.32,2.26h0l-11.55,6.69-10.6-18.13-46.84-27.35c-1.69-.99-2.73-2.79-2.73-4.75v-52.64l-9.47-16.19Z"/>
              <path class="cls-3" d="m159.94,306.85v72.19c0,1.96,1.04,3.76,2.73,4.75l66.39,38.76c1.73,1.01,3.91-.24,3.91-2.25v-70.82c0-4.01-2.13-7.72-5.59-9.74l-61.85-36.11c-2.48-1.45-5.59.34-5.59,3.21Z"/>
            </g>
            <g>
              <path class="cls-25" d="m178.2,362.39c-2.07-12.15,1.65-21.72,9.03-23.01l5.82,23.01h-14.85Z"/>
              <path class="cls-25" d="m200.13,368.31l-6.36-25.15c8.15.86,17.08,11.32,20.32,24.15,3.38,13.38-.71,24.24-9.13,24.24s-17.5-10.31-21.1-23.23h16.27Z"/>
            </g>
          </g>
          <g>
            <path class="cls-16" d="m698.1,731.34s-.04.02-.05.03l-1.17.64s-.09.04-.13.07l-24.86,13.65-20.5-11.89-24.73-5.51-1.43-9.67,13.76-8.09,16.92-9.95c13.43-3.71,30.27-2.51,41.5,3.6,13.74,7.47,13.97,19.5.7,27.12Z"/>
            <path class="cls-16" d="m610.69,739.36s-.05.03-.07.04l-1.78.98c-.07.03-.13.07-.2.11l-37.79,20.75-31.15-18.07-37.59-8.37-2.18-14.7,20.92-12.3,25.71-15.13c20.42-5.63,46-3.81,63.08,5.47,20.88,11.35,21.23,29.64,1.06,41.22Z"/>
            <g>
              <polygon class="cls-14" points="606.97 704.96 606.97 712.73 608.86 714.16 616.13 709.56 614.65 705.33 606.97 704.96 606.97 704.96"/>
              <polygon class="cls-23" points="678.95 703.73 678.95 711.49 677.05 712.93 669.79 708.33 671.26 704.1 678.95 703.73 678.95 703.73"/>
              <path class="cls-36" d="m674.64,716.78l4.34-2.63-10.16-4.93-4.1,2.46c-6.36-2.53-15.13-2.76-15.14-2.76l-.13-3.75h-13.08l.13,3.75c-5.25.61-10.29,1.99-14.75,3.8l-5.26-2.75-9.54,5.42,5.54,2.71c-3.11,2.45-5.24,2.41-5.75,4.35l-5.14,3.39v7.05h5.93c1.1,2.78,2.53,4.86,5.88,7.2l-3.85,2.8,10.16,4.94,4.03-2.47c2.24.97,9.39,2.92,15.15,2.93l.14,3.22h13.07l-.12-3.54c5.24-.62,10.28-1.84,14.73-3.64l4.42,2.27,9.53-5.41-4.99-2c3.05-2.5,4.95-5.27,5.7-8.08l5.93-.02v-6.95l-5.32-3.97c-1.25-4.22-5.76-2.74-7.35-3.38Zm-16.79,17.34c-.27.12-.55.24-.83.33-7.14,2.75-17.93,2.75-25.08.02-.3-.11-.59-.23-.88-.36-7.39-3.19-7.39-8.37,0-11.56,7.4-3.2,19.41-3.2,26.8,0,7.4,3.19,7.4,8.37,0,11.56Z"/>
              <path class="cls-10" d="m674.64,706.35l4.34-2.63-10.16-4.93-4.1,2.46c-6.36-2.53-15.13-2.76-15.14-2.76l-.13-3.75h-13.08l.13,3.75c-5.25.61-10.29,1.99-14.75,3.8l-5.26-2.75-9.54,5.42,5.54,2.72c-3.11,2.45-4.84,5.75-5.35,7.69l-5.54.04v7.05h5.93c1.1,2.78,2.53,4.86,5.88,7.2l-3.85,2.8,10.16,4.93,4.03-2.47c2.24.97,9.39,2.92,15.15,2.93l.14,3.22h13.07l-.12-3.54c5.24-.63,10.28-1.84,14.73-3.64l4.42,2.27,9.53-5.41-4.99-2c3.05-2.5,4.95-5.27,5.7-8.08l5.93-.02v-6.95l-6.35.02c-1.25-4.22-4.73-6.73-6.33-7.37Zm-16.79,17.34c-.27.12-.55.24-.83.33-7.14,2.75-17.93,2.75-25.08.02-.3-.11-.59-.23-.88-.35-7.39-3.19-7.39-8.37,0-11.56,7.4-3.2,19.41-3.2,26.8,0,7.4,3.19,7.4,8.37,0,11.56Z"/>
              <polygon class="cls-37" points="639.05 741.08 639.05 751.51 652.12 751.51 652.12 741.08 639.05 741.08 639.05 741.08"/>
              <polygon class="cls-30" points="687.31 720.65 687.31 731.08 681.39 731.08 681.39 720.67 687.31 720.65 687.31 720.65"/>
              <path class="cls-22" d="m671.15,736.17v10.43s10.02-5.21,9.53-5.41c-.5-.2,0-10.43,0-10.43l-9.53,5.41h0Z"/>
              <polygon class="cls-27" points="619.73 737.39 619.73 747.83 609.57 742.89 609.57 732.46 619.73 737.39 619.73 737.39"/>
              <path class="cls-18" d="m601.61,722.46s-.17,10.43,0,10.43h5.93v-10.43h-5.93Z"/>
            </g>
            <g>
              <polygon class="cls-28" points="478.22 700.61 478.22 711.75 480.95 713.82 491.37 707.21 489.26 701.13 478.22 700.61 478.22 700.61"/>
              <polygon class="cls-45" points="581.54 698.84 581.54 709.98 578.82 712.05 568.4 705.44 570.51 699.36 581.54 698.84 581.54 698.84"/>
              <path class="cls-9" d="m575.36,717.57l6.23-3.77-14.58-7.08-5.88,3.53c-9.12-3.63-21.71-3.96-21.73-3.96l-.18-5.38h-18.78l.19,5.38c-7.53.88-14.77,2.86-21.17,5.46l-7.54-3.94-13.69,7.78,7.95,3.9c-4.47,3.51-7.52,3.46-8.26,6.24l-7.38,4.86v10.11h8.5c1.58,3.99,3.64,6.98,8.45,10.33l-5.52,4.02,14.58,7.08,5.79-3.54c3.22,1.39,13.48,4.19,21.74,4.21l.2,4.62h18.76l-.17-5.09c7.52-.9,14.76-2.64,21.14-5.23l6.34,3.26,13.67-7.76-7.16-2.88c4.38-3.59,7.1-7.56,8.18-11.6l8.51-.03v-9.97l-7.64-5.7c-1.79-6.06-8.26-3.93-10.55-4.84Zm-24.09,24.88c-.39.17-.79.34-1.19.48-10.25,3.94-25.73,3.94-36,.03-.43-.15-.85-.32-1.27-.51-10.61-4.58-10.61-12.02,0-16.59,10.63-4.59,27.86-4.59,38.46,0,10.62,4.58,10.62,12.02,0,16.59Z"/>
              <path class="cls-48" d="m575.36,702.6l6.23-3.77-14.58-7.08-5.88,3.53c-9.12-3.63-21.71-3.96-21.73-3.96l-.18-5.38h-18.78l.19,5.38c-7.53.88-14.77,2.86-21.17,5.46l-7.54-3.94-13.69,7.78,7.95,3.9c-4.47,3.51-6.94,8.26-7.69,11.04l-7.95.06v10.11h8.5c1.58,3.99,3.64,6.98,8.45,10.33l-5.52,4.02,14.58,7.08,5.79-3.54c3.22,1.39,13.48,4.19,21.74,4.21l.2,4.63h18.76l-.17-5.09c7.52-.9,14.76-2.64,21.14-5.23l6.34,3.26,13.67-7.76-7.16-2.88c4.38-3.59,7.1-7.56,8.18-11.6l8.51-.03v-9.97l-9.11.03c-1.79-6.06-6.79-9.67-9.08-10.58Zm-24.09,24.88c-.39.17-.79.34-1.19.48-10.25,3.94-25.73,3.94-36,.03-.43-.15-.85-.32-1.27-.51-10.61-4.58-10.61-12.02,0-16.59,10.63-4.59,27.86-4.59,38.46,0,10.62,4.58,10.62,12.02,0,16.59Z"/>
              <polygon class="cls-7" points="524.28 752.45 524.28 767.42 543.04 767.42 543.04 752.45 524.28 752.45 524.28 752.45"/>
              <polygon class="cls-4" points="593.55 723.12 593.55 738.1 585.04 738.1 585.04 723.16 593.55 723.12 593.55 723.12"/>
              <path class="cls-32" d="m570.35,745.4v14.97s14.38-7.48,13.67-7.76,0-14.97,0-14.97l-13.67,7.76h0Z"/>
              <polygon class="cls-11" points="496.55 747.16 496.55 762.13 481.96 755.05 481.96 740.07 496.55 747.16 496.55 747.16"/>
              <path class="cls-43" d="m470.54,725.72s-.24,14.97,0,14.97h8.5v-14.97h-8.5Z"/>
            </g>
          </g>
          <g>
            <g>
              <path class="cls-36" d="m540.09,510.04l11.24-6.52c.06-.04.12-.07.18-.11l.09-.05h0c1.06-.53,2.37-.57,3.54.11l61.85,36.11c3.46,2.02,5.59,5.73,5.59,9.74v70.82c0,1.01-.55,1.82-1.32,2.26h0s-11.55,6.69-11.55,6.69l-10.6-18.13-46.84-27.35c-1.69-.99-2.73-2.79-2.73-4.75v-52.64l-9.47-16.19Z"/>
              <path class="cls-36" d="m538.08,513.34v72.19c0,1.96,1.04,3.76,2.73,4.75l66.39,38.76c1.73,1.01,3.91-.24,3.91-2.25v-70.82c0-4.01-2.13-7.72-5.59-9.74l-61.85-36.11c-2.48-1.45-5.59.34-5.59,3.21Z"/>
            </g>
            <path class="cls-25" d="m587,565.58c-.78-.45-1.54-.79-2.26-1.05-2.23-3.96-3.92-9.52-9.33-11.84-5.43-2.32-9.49-.24-11.28,3.21-1.04-1.04-2.18-1.94-3.37-2.63-4.78-2.76-8.66-1.12-8.66,3.66s3.88,10.9,8.66,13.66c2.64,1.53,11.56,6.67,14.65,8.46,2.22,1.28,9.56,5.52,11.59,6.69,5.57,3.21,10.08,1.31,10.08-4.26s-4.51-12.69-10.08-15.9Z"/>
          </g>
        </g>
      </g>
    </g>
  </g>
</svg>