<?xml version="1.0" encoding="UTF-8"?>
<svg xmlns="http://www.w3.org/2000/svg" xmlns:xlink="http://www.w3.org/1999/xlink" viewBox="0 0 895.02 682.08">
  <defs>
    <style>
      .cls-1 {
        fill: #545;
      }

      .cls-1, .cls-2, .cls-3, .cls-4, .cls-5, .cls-6, .cls-7, .cls-8, .cls-9, .cls-10, .cls-11, .cls-12, .cls-13, .cls-14, .cls-15, .cls-16, .cls-17, .cls-18, .cls-19, .cls-20, .cls-21, .cls-22, .cls-23, .cls-24, .cls-25, .cls-26, .cls-27, .cls-28, .cls-29, .cls-30, .cls-31, .cls-32, .cls-33, .cls-34, .cls-35, .cls-36, .cls-37, .cls-38, .cls-39, .cls-40, .cls-41, .cls-42, .cls-43, .cls-44, .cls-45, .cls-46, .cls-47, .cls-48, .cls-49, .cls-50, .cls-51, .cls-52, .cls-53, .cls-54, .cls-55, .cls-56, .cls-57, .cls-58, .cls-59, .cls-60, .cls-61, .cls-62, .cls-63, .cls-64, .cls-65, .cls-66, .cls-67, .cls-68 {
        stroke-width: 0px;
      }

      .cls-2 {
        fill: url(#_Безымянный_градиент_80-15);
      }

      .cls-3 {
        fill: #d8d9dc;
      }

      .cls-4 {
        fill: url(#_Безымянный_градиент_80-16);
      }

      .cls-5 {
        fill: url(#_Безымянный_градиент_82);
      }

      .cls-6 {
        fill: url(#_Безымянный_градиент_77-10);
      }

      .cls-7 {
        fill: url(#_Безымянный_градиент_80-6);
      }

      .cls-8 {
        fill: url(#_Безымянный_градиент_77-3);
      }

      .cls-9 {
        fill: url(#_Безымянный_градиент_67);
      }

      .cls-10 {
        fill: #151c34;
      }

      .cls-11 {
        fill: url(#_Безымянный_градиент_77-5);
      }

      .cls-12 {
        fill: url(#_Безымянный_градиент_82-7);
      }

      .cls-13 {
        fill: url(#_Безымянный_градиент_80-3);
      }

      .cls-14 {
        fill: url(#_Безымянный_градиент_80-4);
      }

      .cls-15 {
        fill: url(#_Безымянный_градиент_80-17);
      }

      .cls-16 {
        fill: #d4d7d8;
      }

      .cls-17 {
        fill: url(#_Безымянный_градиент_80-11);
      }

      .cls-18 {
        fill: url(#_Безымянный_градиент_78);
      }

      .cls-19 {
        fill: #d7d9db;
      }

      .cls-69 {
        isolation: isolate;
      }

      .cls-20 {
        fill: url(#_Безымянный_градиент_80-7);
      }

      .cls-21 {
        fill: url(#_Безымянный_градиент_83);
      }

      .cls-22 {
        fill: url(#_Безымянный_градиент_82-9);
      }

      .cls-23, .cls-29 {
        fill: #cfd3d3;
      }

      .cls-23, .cls-47, .cls-70 {
        mix-blend-mode: multiply;
      }

      .cls-24 {
        fill: url(#_Безымянный_градиент_80-14);
      }

      .cls-25 {
        fill: #eeebf4;
      }

      .cls-26 {
        fill: url(#_Безымянный_градиент_80-13);
      }

      .cls-27 {
        fill: url(#_Безымянный_градиент_80-18);
      }

      .cls-28 {
        fill: url(#_Безымянный_градиент_80);
      }

      .cls-30 {
        fill: url(#_Безымянный_градиент_77-9);
      }

      .cls-31 {
        fill: #d7d8db;
      }

      .cls-32 {
        fill: url(#_Безымянный_градиент_77-7);
      }

      .cls-33 {
        fill: #fff;
      }

      .cls-34 {
        fill: #d3d6d7;
      }

      .cls-35 {
        fill: url(#_Безымянный_градиент_77);
      }

      .cls-36 {
        fill: url(#_Безымянный_градиент_77-11);
      }

      .cls-37 {
        fill: url(#_Безымянный_градиент_77-2);
      }

      .cls-38 {
        fill: url(#_Безымянный_градиент_75-2);
      }

      .cls-39 {
        fill: url(#_Безымянный_градиент_77-6);
      }

      .cls-40 {
        fill: url(#_Безымянный_градиент_77-4);
      }

      .cls-41 {
        fill: url(#_Безымянный_градиент_82-4);
      }

      .cls-42 {
        fill: url(#_Безымянный_градиент_80-10);
      }

      .cls-43 {
        fill: #313f49;
      }

      .cls-44 {
        fill: url(#_Безымянный_градиент_82-2);
      }

      .cls-45 {
        fill: #223943;
      }

      .cls-46 {
        fill: url(#_Безымянный_градиент_75);
      }

      .cls-47, .cls-48 {
        fill: #c1ae97;
      }

      .cls-49 {
        fill: #d0d4d4;
      }

      .cls-50 {
        fill: #d4d6d8;
      }

      .cls-51 {
        fill: #d2d5d6;
      }

      .cls-52 {
        fill: url(#_Безымянный_градиент_80-2);
      }

      .cls-53 {
        fill: url(#_Безымянный_градиент_80-8);
      }

      .cls-54 {
        fill: url(#_Безымянный_градиент_82-3);
      }

      .cls-55 {
        fill: url(#_Безымянный_градиент_80-12);
      }

      .cls-56 {
        fill: url(#_Безымянный_градиент_80-9);
      }

      .cls-57 {
        fill: url(#_Безымянный_градиент_67-2);
      }

      .cls-58 {
        fill: url(#_Безымянный_градиент_85);
      }

      .cls-59 {
        fill: #d1d4d5;
      }

      .cls-60 {
        fill: url(#_Безымянный_градиент_77-8);
      }

      .cls-61 {
        fill: #d9dadd;
      }

      .cls-62 {
        fill: url(#_Безымянный_градиент_82-8);
      }

      .cls-63 {
        fill: #d5d7d9;
      }

      .cls-64 {
        fill: url(#_Безымянный_градиент_80-5);
      }

      .cls-65 {
        fill: #d1d5d5;
      }

      .cls-66 {
        fill: #d6d8da;
      }

      .cls-67 {
        fill: url(#_Безымянный_градиент_82-5);
      }

      .cls-68 {
        fill: url(#_Безымянный_градиент_82-6);
      }
    </style>
    <linearGradient id="_Безымянный_градиент_85" data-name="Безымянный градиент 85" x1="393.81" y1="349.41" x2="278.56" y2="561.39" gradientUnits="userSpaceOnUse">
      <stop offset="0" stop-color="#f5fdff"/>
      <stop offset=".02" stop-color="#f6fdff"/>
      <stop offset=".17" stop-color="#fdfeff"/>
      <stop offset=".6" stop-color="#fff"/>
      <stop offset=".87" stop-color="#fcfeff"/>
      <stop offset=".98" stop-color="#f5fdff"/>
      <stop offset=".99" stop-color="#f5fdff"/>
    </linearGradient>
    <linearGradient id="_Безымянный_градиент_82" data-name="Безымянный градиент 82" x1="7431.21" y1="500.98" x2="7600.82" y2="500.98" gradientTransform="translate(7767.05) rotate(-180) scale(1 -1)" gradientUnits="userSpaceOnUse">
      <stop offset="0" stop-color="#73789d"/>
      <stop offset=".28" stop-color="#9fa4bd"/>
      <stop offset=".6" stop-color="#cdd2de"/>
      <stop offset=".86" stop-color="#e9eef2"/>
      <stop offset="1" stop-color="#f4f9fa"/>
    </linearGradient>
    <linearGradient id="_Безымянный_градиент_82-2" data-name="Безымянный градиент 82" x1="7400.98" y1="504.51" x2="7570.59" y2="504.51" gradientTransform="translate(7736.82) rotate(-180) scale(1 -1)" xlink:href="#_Безымянный_градиент_82"/>
    <linearGradient id="_Безымянный_градиент_82-3" data-name="Безымянный градиент 82" x1="7138.13" y1="527.11" x2="7722.73" y2="527.11" xlink:href="#_Безымянный_градиент_82"/>
    <linearGradient id="_Безымянный_градиент_82-4" data-name="Безымянный градиент 82" x1="585.96" y1="426.6" x2="446.96" y2="125.64" gradientTransform="matrix(1,0,0,1,0,0)" xlink:href="#_Безымянный_градиент_82"/>
    <linearGradient id="_Безымянный_градиент_78" data-name="Безымянный градиент 78" x1="303.21" y1="243.89" x2="699.23" y2="243.89" gradientUnits="userSpaceOnUse">
      <stop offset="0" stop-color="#44526e"/>
      <stop offset=".61" stop-color="#6175c8"/>
      <stop offset="1" stop-color="#738afd"/>
    </linearGradient>
    <linearGradient id="_Безымянный_градиент_80" data-name="Безымянный градиент 80" x1="7817.75" y1="2856.07" x2="7918.04" y2="2856.07" gradientTransform="translate(8376.77 2539.79) rotate(-145.27) scale(1.13 -.88) skewX(-23.09)" gradientUnits="userSpaceOnUse">
      <stop offset="0" stop-color="#afbd22"/>
      <stop offset="1" stop-color="#ecad11"/>
    </linearGradient>
    <linearGradient id="_Безымянный_градиент_80-2" data-name="Безымянный градиент 80" x1="7936.21" y1="2865.93" x2="8036.49" y2="2865.93" xlink:href="#_Безымянный_градиент_80"/>
    <linearGradient id="_Безымянный_градиент_80-3" data-name="Безымянный градиент 80" x1="8054.66" y1="2875.79" x2="8154.94" y2="2875.79" xlink:href="#_Безымянный_градиент_80"/>
    <linearGradient id="_Безымянный_градиент_80-4" data-name="Безымянный градиент 80" x1="8173.11" y1="2885.65" x2="8273.4" y2="2885.65" xlink:href="#_Безымянный_градиент_80"/>
    <linearGradient id="_Безымянный_градиент_80-5" data-name="Безымянный градиент 80" x1="8294.98" y1="2896.61" x2="8395.26" y2="2896.61" xlink:href="#_Безымянный_градиент_80"/>
    <linearGradient id="_Безымянный_градиент_80-6" data-name="Безымянный градиент 80" x1="784.84" y1="342.43" x2="689.07" y2="276.03" gradientTransform="matrix(1,0,0,1,0,0)" xlink:href="#_Безымянный_градиент_80"/>
    <linearGradient id="_Безымянный_градиент_80-7" data-name="Безымянный градиент 80" x1="673.39" y1="275.74" x2="577.61" y2="209.34" gradientTransform="matrix(1,0,0,1,0,0)" xlink:href="#_Безымянный_градиент_80"/>
    <linearGradient id="_Безымянный_градиент_80-8" data-name="Безымянный градиент 80" x1="561.93" y1="209.04" x2="466.15" y2="142.64" gradientTransform="matrix(1,0,0,1,0,0)" xlink:href="#_Безымянный_градиент_80"/>
    <linearGradient id="_Безымянный_градиент_80-9" data-name="Безымянный градиент 80" x1="450.47" y1="142.35" x2="354.7" y2="75.94" gradientTransform="matrix(1,0,0,1,0,0)" xlink:href="#_Безымянный_градиент_80"/>
    <linearGradient id="_Безымянный_градиент_80-10" data-name="Безымянный градиент 80" x1="335.72" y1="74.54" x2="239.94" y2="8.14" gradientTransform="matrix(1,0,0,1,0,0)" xlink:href="#_Безымянный_градиент_80"/>
    <linearGradient id="_Безымянный_градиент_77" data-name="Безымянный градиент 77" x1="7825.07" y1="2865.69" x2="7925.35" y2="2865.69" gradientTransform="translate(8376.77 2539.79) rotate(-145.27) scale(1.13 -.88) skewX(-23.09)" gradientUnits="userSpaceOnUse">
      <stop offset="0" stop-color="#bad775"/>
      <stop offset="1" stop-color="#afbd22"/>
    </linearGradient>
    <linearGradient id="_Безымянный_градиент_77-2" data-name="Безымянный градиент 77" x1="7943.52" y1="2875.55" x2="8043.8" y2="2875.55" xlink:href="#_Безымянный_градиент_77"/>
    <linearGradient id="_Безымянный_градиент_77-3" data-name="Безымянный градиент 77" x1="8061.97" y1="2885.41" x2="8162.26" y2="2885.41" xlink:href="#_Безымянный_градиент_77"/>
    <linearGradient id="_Безымянный_градиент_77-4" data-name="Безымянный градиент 77" x1="8180.43" y1="2895.27" x2="8280.71" y2="2895.27" xlink:href="#_Безымянный_градиент_77"/>
    <linearGradient id="_Безымянный_градиент_77-5" data-name="Безымянный градиент 77" x1="8302.29" y1="2906.22" x2="8402.58" y2="2906.22" xlink:href="#_Безымянный_градиент_77"/>
    <linearGradient id="_Безымянный_градиент_75" data-name="Безымянный градиент 75" x1="7271.17" y1="589.58" x2="7327.46" y2="589.58" gradientTransform="translate(7883.38) rotate(-180) scale(1 -1)" gradientUnits="userSpaceOnUse">
      <stop offset="0" stop-color="#fff"/>
      <stop offset="1" stop-color="#f4f9fa"/>
    </linearGradient>
    <linearGradient id="_Безымянный_градиент_75-2" data-name="Безымянный градиент 75" x1="7168.33" y1="596.72" x2="7224.18" y2="596.72" xlink:href="#_Безымянный_градиент_75"/>
    <linearGradient id="_Безымянный_градиент_80-11" data-name="Безымянный градиент 80" x1="11253.89" y1="4979.48" x2="11260.6" y2="5018.34" gradientTransform="translate(-452.59 12655.82) rotate(-111.26)" xlink:href="#_Безымянный_градиент_80"/>
    <linearGradient id="_Безымянный_градиент_82-5" data-name="Безымянный градиент 82" x1="74.94" y1="420.53" x2="169.52" y2="420.53" gradientTransform="matrix(1,0,0,1,0,0)" xlink:href="#_Безымянный_градиент_82"/>
    <linearGradient id="_Безымянный_градиент_82-6" data-name="Безымянный градиент 82" x1="121.98" y1="414.63" x2="117.47" y2="421.93" gradientTransform="matrix(1,0,0,1,0,0)" xlink:href="#_Безымянный_градиент_82"/>
    <linearGradient id="_Безымянный_градиент_82-7" data-name="Безымянный градиент 82" x1="131.3" y1="418.99" x2="137.13" y2="408.87" gradientTransform="matrix(1,0,0,1,0,0)" xlink:href="#_Безымянный_градиент_82"/>
    <linearGradient id="_Безымянный_градиент_67" data-name="Безымянный градиент 67" x1="173.1" y1="377.03" x2="120.8" y2="347.86" gradientUnits="userSpaceOnUse">
      <stop offset="0" stop-color="#b1bb27"/>
      <stop offset="1" stop-color="#a76c0b"/>
    </linearGradient>
    <linearGradient id="_Безымянный_градиент_67-2" data-name="Безымянный градиент 67" x1="147.86" y1="379.68" x2="193.13" y2="379.68" xlink:href="#_Безымянный_градиент_67"/>
    <linearGradient id="_Безымянный_градиент_80-12" data-name="Безымянный градиент 80" x1="175.09" y1="366.34" x2="177.24" y2="327.56" gradientTransform="matrix(1,0,0,1,0,0)" xlink:href="#_Безымянный_градиент_80"/>
    <linearGradient id="_Безымянный_градиент_83" data-name="Безымянный градиент 83" x1="8193.23" y1="414.64" x2="8268.97" y2="414.64" gradientTransform="translate(8323.84) rotate(-180) scale(1 -1)" gradientUnits="userSpaceOnUse">
      <stop offset="0" stop-color="#fff"/>
      <stop offset=".99" stop-color="#f5fdff"/>
    </linearGradient>
    <linearGradient id="_Безымянный_градиент_82-8" data-name="Безымянный градиент 82" x1="8238.62" y1="426.63" x2="8221.77" y2="398.34" gradientTransform="translate(8323.84) rotate(-180) scale(1 -1)" xlink:href="#_Безымянный_градиент_82"/>
    <linearGradient id="_Безымянный_градиент_82-9" data-name="Безымянный градиент 82" x1="8228.37" y1="418.84" x2="8233.4" y2="423.87" gradientTransform="translate(8323.84) rotate(-180) scale(1 -1)" xlink:href="#_Безымянный_градиент_82"/>
    <linearGradient id="_Безымянный_градиент_80-13" data-name="Безымянный градиент 80" x1="0" y1="255.53" x2="84.96" y2="255.53" gradientTransform="matrix(1,0,0,1,0,0)" xlink:href="#_Безымянный_градиент_80"/>
    <linearGradient id="_Безымянный_градиент_77-6" data-name="Безымянный градиент 77" x1="0" y1="247.32" x2="84.96" y2="247.32" gradientTransform="matrix(1,0,0,1,0,0)" xlink:href="#_Безымянный_градиент_77"/>
    <linearGradient id="_Безымянный_градиент_80-14" data-name="Безымянный градиент 80" x1="798.36" y1="605.13" x2="883.32" y2="605.13" gradientTransform="matrix(1,0,0,1,0,0)" xlink:href="#_Безымянный_градиент_80"/>
    <linearGradient id="_Безымянный_градиент_77-7" data-name="Безымянный градиент 77" x1="798.36" y1="596.91" x2="883.32" y2="596.91" gradientTransform="matrix(1,0,0,1,0,0)" xlink:href="#_Безымянный_градиент_77"/>
    <linearGradient id="_Безымянный_градиент_80-15" data-name="Безымянный градиент 80" x1="156.07" y1="633.76" x2="241.04" y2="633.76" gradientTransform="matrix(1,0,0,1,0,0)" xlink:href="#_Безымянный_градиент_80"/>
    <linearGradient id="_Безымянный_градиент_77-8" data-name="Безымянный градиент 77" x1="156.08" y1="625.55" x2="241.04" y2="625.55" gradientTransform="matrix(1,0,0,1,0,0)" xlink:href="#_Безымянный_градиент_77"/>
    <linearGradient id="_Безымянный_градиент_80-16" data-name="Безымянный градиент 80" x1="7218.38" y1="654.18" x2="7303.34" y2="654.18" gradientTransform="translate(7373.35) rotate(-180) scale(1 -1)" xlink:href="#_Безымянный_градиент_80"/>
    <linearGradient id="_Безымянный_градиент_77-9" data-name="Безымянный градиент 77" x1="7218.38" y1="645.96" x2="7303.34" y2="645.96" gradientTransform="translate(7373.35) rotate(-180) scale(1 -1)" xlink:href="#_Безымянный_градиент_77"/>
    <linearGradient id="_Безымянный_градиент_80-17" data-name="Безымянный градиент 80" x1="7642.54" y1="499.98" x2="7727.5" y2="499.98" gradientTransform="translate(7805.71 257.67) rotate(-176.14) scale(1 -1)" xlink:href="#_Безымянный_градиент_80"/>
    <linearGradient id="_Безымянный_градиент_77-10" data-name="Безымянный градиент 77" x1="7642.54" y1="491.77" x2="7727.5" y2="491.77" gradientTransform="translate(7805.71 257.67) rotate(-176.14) scale(1 -1)" xlink:href="#_Безымянный_градиент_77"/>
    <linearGradient id="_Безымянный_градиент_80-18" data-name="Безымянный градиент 80" x1="-1036.35" y1="1472.2" x2="-951.39" y2="1472.2" gradientTransform="translate(1424.51 -594.33) rotate(11.2)" xlink:href="#_Безымянный_градиент_80"/>
    <linearGradient id="_Безымянный_градиент_77-11" data-name="Безымянный градиент 77" x1="-1036.35" y1="1463.98" x2="-951.39" y2="1463.98" gradientTransform="translate(1424.51 -594.33) rotate(11.2)" xlink:href="#_Безымянный_градиент_77"/>
  </defs>
  <g class="cls-69">
    <g id="Layer_2" data-name="Layer 2">
      <g id="Layer_17" data-name="Layer 17">
        <g>
          <g>
            <g>
              <path class="cls-23" d="m808.74,400.54l-402.09,226.06c-10.72,6.03-23.81,6.02-34.52-.02l-233.36-131.57-67.91-38.28-13.34-7.52c-8.35-4.71-8.39-16.72-.07-21.48l24.29-13.9,25.38-14.53,21.18-12.12,75.43-43.18,248.73-142.38c10.66-6.1,23.73-6.2,34.48-.26l321.72,177.62c8.47,4.68,8.52,16.84.08,21.58Z"/>
              <path class="cls-58" d="m625.11,489.97l-232.83,129.73c-4.91,2.72-12.65,2.74-17.3.04l-237.36-138.3-65.62-38.23-24.31-14.17c-4.65-2.7-4.46-7.12.45-9.85l28.9-16.11,18.67-10.4,38.87-21.66,64.74-36.07,81.65-45.49c4.91-2.74,12.65-2.75,17.3-.05l327.29,190.69c4.65,2.71,4.46,7.12-.45,9.85Z"/>
              <path class="cls-5" d="m170.94,489.85l62.34-34.74c6.07-3.38,15.64-3.4,21.41-.04l76.99,44.86c5.76,3.35,5.52,8.81-.54,12.19l-62.34,34.73c-6.06,3.38-15.64,3.4-21.41.04l-76.99-44.86c-5.76-3.35-5.52-8.81.54-12.19Z"/>
              <path class="cls-44" d="m170.94,493.38l62.34-34.73c6.07-3.38,15.64-3.4,21.41-.04l76.99,44.86c5.76,3.36,5.52,8.81-.54,12.19l-62.34,34.73c-6.06,3.38-15.64,3.4-21.41.04l-76.99-44.86c-5.76-3.36-5.52-8.81.54-12.19Z"/>
              <path class="cls-54" d="m45.19,426.86c.26.36.56.71.93,1.05.24.22,328.86,191.84,328.86,191.84,4.94,2.88,12.34,2.7,17.3-.03l232.83-129.74c2.47-1.37,3.75-3.18,3.81-4.97l-.57,8.12c-.07,1.79-1.34,3.59-3.82,4.98l-232.83,129.72c-4.98,2.75-12.34,2.93-17.3.04,0,0-326.35-190.24-326.56-190.37-3.52-2.18-3.52-5.61-3.52-5.61v-7.62c.32,1.67.51,2.04.74,2.4.04.07.08.13.12.2Z"/>
              <g>
                <path class="cls-45" d="m278.61,308.18c1.22-.68,3.17-.7,4.35-.01l14.62,8.52c1.18.68,1.11,1.79-.11,2.48l-11.78,6.56c-1.23.69-3.19.7-4.36.02l-14.62-8.52c-1.18-.69-1.11-1.8.12-2.49l11.79-6.57Z"/>
                <path class="cls-45" d="m299.12,320.12c1.23-.68,3.18-.7,4.35,0l14.62,8.52c1.18.69,1.12,1.8-.11,2.48l-11.78,6.56c-1.24.69-3.19.71-4.37.02l-14.62-8.52c-1.18-.68-1.11-1.79.13-2.49l11.78-6.56Z"/>
                <path class="cls-45" d="m320.03,332.31c1.22-.68,3.19-.68,4.35,0l14.62,8.51c1.18.69,1.13,1.81-.1,2.49l-11.78,6.56c-1.24.69-3.2.69-4.38,0l-14.62-8.51c-1.16-.68-1.11-1.8.13-2.49l11.78-6.57Z"/>
                <path class="cls-45" d="m341.19,344.63c1.22-.68,3.17-.7,4.35,0l14.62,8.52c1.18.69,1.11,1.8-.11,2.48l-11.79,6.56c-1.24.69-3.19.7-4.37.01l-14.62-8.52c-1.18-.69-1.11-1.79.12-2.49l11.78-6.56Z"/>
                <path class="cls-45" d="m362.1,356.82c1.22-.68,3.19-.69,4.35,0l14.62,8.52c1.18.69,1.13,1.81-.1,2.49l-11.78,6.57c-1.24.69-3.2.69-4.38.01l-14.62-8.52c-1.16-.68-1.11-1.8.13-2.49l11.78-6.56Z"/>
                <path class="cls-45" d="m383.06,369.03c1.22-.68,3.17-.69,4.35,0l14.62,8.52c1.18.68,1.11,1.8-.11,2.48l-11.78,6.57c-1.24.69-3.19.7-4.37.01l-14.62-8.51c-1.18-.69-1.11-1.79.13-2.49l11.78-6.57Z"/>
                <path class="cls-45" d="m403.97,381.21c1.22-.68,3.19-.69,4.37,0l14.62,8.51c1.16.68,1.11,1.8-.11,2.48l-11.78,6.57c-1.24.69-3.21.69-4.37.02l-14.62-8.52c-1.17-.68-1.12-1.81.12-2.5l11.78-6.56Z"/>
                <path class="cls-45" d="m424.92,393.42c1.22-.68,3.19-.68,4.35,0l14.62,8.52c1.18.68,1.12,1.8-.09,2.49l-11.78,6.56c-1.24.69-3.21.69-4.39,0l-14.62-8.52c-1.16-.68-1.11-1.79.12-2.49l11.78-6.56Z"/>
                <path class="cls-45" d="m445.85,405.61c1.22-.68,3.18-.69,4.35,0l14.62,8.52c1.18.69,1.11,1.8-.11,2.47l-11.78,6.57c-1.24.69-3.19.71-4.37.02l-14.62-8.51c-1.18-.69-1.12-1.8.12-2.49l11.79-6.57Z"/>
                <path class="cls-45" d="m466.84,417.84c1.22-.68,3.18-.69,4.37,0l14.62,8.52c1.16.68,1.11,1.8-.11,2.48l-11.78,6.56c-1.24.69-3.21.69-4.36.02l-14.62-8.52c-1.18-.68-1.13-1.81.11-2.5l11.79-6.56Z"/>
                <path class="cls-45" d="m487.77,430.03c1.22-.68,3.17-.69,4.35,0l14.62,8.51c1.18.69,1.11,1.8-.11,2.48l-11.78,6.56c-1.24.69-3.19.7-4.36.02l-14.63-8.52c-1.18-.69-1.11-1.79.13-2.49l11.78-6.56Z"/>
                <path class="cls-45" d="m508.72,442.24c1.22-.68,3.17-.7,4.35,0l14.62,8.51c1.17.69,1.11,1.8-.11,2.48l-11.78,6.57c-1.24.69-3.19.7-4.37.01l-14.62-8.52c-1.17-.69-1.11-1.8.13-2.49l11.78-6.57Z"/>
                <path class="cls-45" d="m529.63,454.42c1.22-.68,3.19-.68,4.35,0l14.62,8.51c1.17.68,1.12,1.8-.1,2.49l-11.78,6.57c-1.24.69-3.21.69-4.38,0l-14.62-8.52c-1.16-.67-1.11-1.8.12-2.49l11.78-6.57Z"/>
                <path class="cls-45" d="m550.58,466.63c1.22-.68,3.17-.69,4.35,0l14.62,8.52c1.18.69,1.11,1.8-.11,2.48l-11.78,6.57c-1.24.69-3.18.7-4.37.01l-14.62-8.51c-1.18-.69-1.11-1.8.13-2.49l11.78-6.57Z"/>
                <path class="cls-45" d="m571.5,478.82c1.22-.68,3.19-.69,4.37,0l14.62,8.52c1.16.68,1.11,1.79-.11,2.47l-11.78,6.57c-1.24.69-3.21.69-4.37.02l-14.62-8.52c-1.18-.68-1.13-1.8.12-2.5l11.78-6.57Z"/>
                <path class="cls-45" d="m260.55,318.24c1.24-.69,3.17-.7,4.35-.01l49.31,28.74c1.18.68,1.13,1.78-.11,2.48l-11.78,6.57c-1.24.69-3.18.69-4.35,0l-49.31-28.73c-1.18-.69-1.13-1.79.11-2.48l11.79-6.56Z"/>
                <path class="cls-45" d="m316.28,350.71c1.24-.69,3.19-.68,4.37,0l14.62,8.52c1.16.67,1.13,1.79-.11,2.48l-11.78,6.56c-1.24.69-3.19.68-4.35.01l-14.62-8.52c-1.18-.68-1.15-1.79.09-2.49l11.78-6.56Z"/>
                <path class="cls-45" d="m337.21,362.9c1.24-.69,3.18-.69,4.35,0l14.62,8.52c1.18.68,1.14,1.79-.09,2.49l-11.78,6.57c-1.24.69-3.19.68-4.37,0l-14.62-8.51c-1.17-.69-1.13-1.79.11-2.48l11.78-6.56Z"/>
                <path class="cls-45" d="m358.16,375.11c1.24-.7,3.17-.7,4.35,0l14.62,8.51c1.18.69,1.13,1.79-.11,2.48l-11.78,6.56c-1.24.69-3.17.7-4.35,0l-14.62-8.52c-1.18-.68-1.13-1.79.11-2.48l11.79-6.56Z"/>
                <path class="cls-45" d="m379.08,387.3c1.24-.7,3.19-.68,4.35-.01l14.62,8.52c1.18.68,1.14,1.8-.1,2.49l-11.78,6.57c-1.24.69-3.19.68-4.36,0l-14.62-8.52c-1.16-.68-1.13-1.79.11-2.48l11.78-6.56Z"/>
                <path class="cls-45" d="m400.03,399.5c1.24-.7,3.18-.7,4.35,0l14.62,8.52c1.18.69,1.13,1.79-.11,2.48l-11.78,6.57c-1.24.69-3.17.69-4.35,0l-14.62-8.52c-1.18-.69-1.13-1.79.11-2.48l11.78-6.56Z"/>
                <path class="cls-45" d="m420.94,411.69c1.24-.69,3.19-.68,4.37,0l14.62,8.52c1.16.67,1.13,1.79-.11,2.48l-11.78,6.56c-1.24.69-3.19.68-4.35,0l-14.62-8.51c-1.18-.69-1.14-1.8.1-2.49l11.78-6.57Z"/>
                <path class="cls-45" d="m441.94,423.92c1.24-.7,3.19-.69,4.35-.01l14.62,8.52c1.18.68,1.14,1.8-.1,2.49l-11.78,6.56c-1.24.69-3.19.68-4.36,0l-14.62-8.52c-1.16-.68-1.13-1.79.11-2.48l11.78-6.56Z"/>
                <path class="cls-45" d="m462.88,436.11c1.24-.68,3.17-.69,4.35,0l14.62,8.52c1.17.68,1.13,1.79-.11,2.47l-11.78,6.57c-1.24.69-3.17.69-4.35,0l-14.62-8.52c-1.18-.69-1.13-1.79.11-2.48l11.78-6.58Z"/>
                <path class="cls-45" d="m483.81,448.32c1.24-.7,3.19-.68,4.37,0l14.62,8.52c1.17.68,1.13,1.79-.11,2.48l-11.78,6.56c-1.24.69-3.19.68-4.35,0l-14.62-8.52c-1.18-.68-1.15-1.8.09-2.48l11.78-6.56Z"/>
                <path class="cls-45" d="m504.74,460.51c1.24-.69,3.17-.69,4.35,0l14.62,8.52c1.18.68,1.15,1.79-.09,2.48l-11.78,6.57c-1.24.69-3.19.69-4.37,0l-14.62-8.52c-1.18-.69-1.13-1.79.11-2.48l11.78-6.57Z"/>
                <path class="cls-45" d="m525.69,472.71c1.24-.69,3.17-.69,4.35,0l14.62,8.52c1.18.69,1.13,1.79-.11,2.48l-11.78,6.57c-1.24.69-3.17.69-4.35,0l-14.62-8.52c-1.18-.69-1.13-1.79.11-2.48l11.78-6.57Z"/>
                <path class="cls-45" d="m546.61,484.9c1.24-.69,3.18-.69,4.35,0l14.62,8.52c1.17.68,1.14,1.79-.1,2.49l-11.78,6.56c-1.24.69-3.19.69-4.36,0l-14.62-8.52c-1.17-.68-1.13-1.79.11-2.48l11.78-6.56Z"/>
                <path class="cls-45" d="m242.36,328.37c1.24-.69,3.17-.69,4.35,0l15.8,9.21c1.17.68,1.13,1.78-.11,2.48l-11.78,6.56c-1.24.69-3.17.69-4.35.01l-15.8-9.21c-1.18-.68-1.13-1.79.11-2.48l11.78-6.57Z"/>
                <path class="cls-45" d="m264.13,341.06c1.24-.69,3.19-.68,4.37,0l15.8,9.2c1.18.69,1.13,1.79-.11,2.48l-11.78,6.56c-1.24.69-3.17.7-4.36,0l-15.79-9.2c-1.18-.68-1.14-1.79.1-2.49l11.78-6.56Z"/>
                <path class="cls-45" d="m224.21,338.49c1.24-.69,3.19-.71,4.36-.02l11.07,6.45c1.18.69,1.11,1.79-.13,2.49l-29.73,16.56c-1.24.69-3.17.69-4.35.01l-11.07-6.45c-1.18-.69-1.13-1.78.11-2.48l29.73-16.56Z"/>
                <path class="cls-45" d="m241.61,348.62c1.24-.69,3.19-.7,4.37-.02l15.79,9.21c1.18.69,1.13,1.81-.11,2.5l-11.78,6.57c-1.22.68-3.18.68-4.37,0l-15.8-9.2c-1.18-.69-1.11-1.79.11-2.48l11.78-6.56Z"/>
                <path class="cls-45" d="m308.31,366.69c1.24-.69,3.19-.7,4.37-.01l14.62,8.51c1.18.69,1.12,1.8-.12,2.49l-11.78,6.56c-1.22.68-3.17.69-4.35,0l-14.62-8.51c-1.18-.69-1.11-1.79.11-2.48l11.78-6.57Z"/>
                <path class="cls-45" d="m264.8,366.82l4.31-2.4,18.04-10.06c1.25-.69,3.21-.69,4.39,0l14.62,8.52c1.16.68,1.11,1.8-.13,2.49l-15.81,8.81,12.18,7.09c1.18.69,1.11,1.8-.11,2.48l-11.78,6.56c-1.24.7-3.19.71-4.37.02l-28.93-16.86c-1.18-.69-1.13-1.81.11-2.49l7.47-4.16Z"/>
                <path class="cls-45" d="m329.23,378.88c1.24-.69,3.2-.69,4.39,0l14.62,8.52c1.16.68,1.11,1.8-.13,2.49l-11.78,6.56c-1.22.68-3.19.69-4.35,0l-14.62-8.51c-1.18-.69-1.12-1.81.09-2.49l11.78-6.57Z"/>
                <path class="cls-45" d="m350.18,391.08c1.24-.69,3.2-.7,4.37-.02l14.62,8.52c1.18.69,1.13,1.81-.11,2.5l-11.78,6.56c-1.22.68-3.19.68-4.37,0l-14.62-8.52c-1.16-.67-1.11-1.8.11-2.48l11.78-6.56Z"/>
                <path class="cls-45" d="m371.1,403.27c1.24-.69,3.21-.69,4.38,0l14.62,8.52c1.18.68,1.11,1.79-.12,2.49l-11.78,6.56c-1.22.68-3.17.7-4.35.01l-14.62-8.51c-1.18-.69-1.13-1.81.1-2.49l11.78-6.56Z"/>
                <path class="cls-45" d="m392.05,415.47c1.24-.69,3.21-.69,4.37-.01l14.63,8.52c1.17.68,1.11,1.8-.13,2.49l-11.78,6.56c-1.22.68-3.19.68-4.35.01l-14.64-8.53c-1.16-.68-1.11-1.79.11-2.48l11.78-6.57Z"/>
                <path class="cls-45" d="m412.98,427.67c1.24-.69,3.19-.7,4.37-.01l14.62,8.52c1.18.69,1.11,1.79-.13,2.49l-11.78,6.56c-1.22.68-3.17.7-4.35,0l-14.62-8.51c-1.18-.69-1.11-1.8.11-2.48l11.78-6.56Z"/>
                <path class="cls-45" d="m433.96,439.9c1.24-.69,3.21-.69,4.38,0l14.62,8.51c1.18.69,1.11,1.8-.13,2.49l-11.78,6.57c-1.23.68-3.18.69-4.36,0l-14.62-8.51c-1.18-.69-1.13-1.81.09-2.49l11.78-6.56Z"/>
                <path class="cls-45" d="m454.9,452.09c1.24-.69,3.21-.7,4.37-.02l14.62,8.52c1.18.68,1.13,1.8-.11,2.49l-11.78,6.57c-1.22.68-3.19.69-4.37,0l-14.62-8.52c-1.16-.68-1.11-1.8.11-2.48l11.78-6.56Z"/>
                <path class="cls-45" d="m475.84,464.3c1.24-.69,3.19-.7,4.37-.01l14.62,8.52c1.18.69,1.12,1.8-.12,2.49l-11.78,6.56c-1.23.68-3.17.69-4.35,0l-14.62-8.51c-1.17-.69-1.11-1.8.11-2.48l11.78-6.57Z"/>
                <path class="cls-45" d="m496.76,476.48c1.24-.69,3.2-.7,4.38,0l14.62,8.51c1.16.68,1.11,1.8-.13,2.49l-11.78,6.56c-1.22.68-3.19.69-4.35,0l-14.62-8.52c-1.17-.68-1.13-1.8.09-2.49l11.79-6.56Z"/>
                <path class="cls-45" d="m518.01,488.86c1.24-.69,3.19-.7,4.37-.02l31.97,18.63c1.16.67,1.11,1.79-.13,2.48l-11.78,6.56c-1.22.68-3.19.69-4.35,0l-31.97-18.63c-1.18-.69-1.11-1.8.11-2.48l11.78-6.56Z"/>
                <path class="cls-45" d="m304.36,384.95c1.23-.68,3.19-.68,4.35,0l14.62,8.52c1.17.69,1.13,1.81-.1,2.49l-11.78,6.57c-1.24.69-3.2.69-4.38,0l-14.61-8.52c-1.17-.67-1.11-1.79.12-2.49l11.78-6.56Z"/>
                <path class="cls-45" d="m325.31,397.15c1.23-.68,3.17-.69,4.35,0l14.62,8.51c1.17.68,1.11,1.8-.11,2.48l-11.78,6.57c-1.24.69-3.19.71-4.37.02l-14.62-8.52c-1.18-.68-1.11-1.8.13-2.49l11.78-6.57Z"/>
                <path class="cls-45" d="m346.23,409.34c1.22-.68,3.19-.68,4.36,0l14.62,8.52c1.16.68,1.11,1.8-.11,2.48l-11.78,6.57c-1.24.69-3.21.69-4.37.02l-14.62-8.52c-1.18-.68-1.13-1.81.12-2.5l11.78-6.56Z"/>
                <path class="cls-45" d="m367.17,421.55c1.22-.68,3.19-.68,4.35,0l14.62,8.52c1.18.68,1.13,1.8-.1,2.49l-11.78,6.56c-1.24.69-3.2.69-4.38,0l-14.62-8.52c-1.16-.67-1.11-1.79.13-2.48l11.78-6.56Z"/>
                <path class="cls-45" d="m388.11,433.75c1.22-.68,3.17-.69,4.35-.01l14.62,8.52c1.17.69,1.11,1.8-.11,2.48l-11.78,6.57c-1.24.69-3.19.71-4.37.02l-14.62-8.52c-1.18-.68-1.11-1.79.12-2.49l11.78-6.56Z"/>
                <path class="cls-45" d="m409.09,445.96c1.22-.67,3.19-.68,4.36,0l14.62,8.52c1.17.68,1.11,1.79-.11,2.48l-11.78,6.57c-1.24.69-3.21.69-4.37.02l-14.62-8.52c-1.17-.68-1.13-1.8.11-2.5l11.78-6.57Z"/>
                <path class="cls-45" d="m430.02,458.17c1.22-.68,3.17-.7,4.35-.01l14.62,8.52c1.18.68,1.11,1.79-.11,2.48l-11.78,6.56c-1.24.7-3.19.71-4.36.02l-14.62-8.52c-1.18-.69-1.11-1.8.13-2.49l11.78-6.56Z"/>
                <path class="cls-45" d="m450.95,470.36c1.22-.68,3.19-.68,4.37,0l14.62,8.51c1.17.69,1.11,1.8-.11,2.48l-11.78,6.57c-1.24.69-3.19.71-4.37.02l-14.62-8.52c-1.17-.68-1.13-1.8.11-2.5l11.78-6.56Z"/>
                <path class="cls-45" d="m471.89,482.56c1.22-.68,3.18-.68,4.35-.01l14.62,8.52c1.18.68,1.13,1.8-.09,2.48l-11.78,6.57c-1.24.69-3.21.69-4.39,0l-14.62-8.52c-1.16-.68-1.11-1.79.13-2.49l11.78-6.56Z"/>
                <path class="cls-45" d="m492.83,494.76c1.22-.68,3.17-.69,4.35,0l14.62,8.51c1.18.69,1.11,1.8-.11,2.48l-11.78,6.57c-1.24.68-3.19.7-4.36.01l-14.62-8.52c-1.18-.69-1.11-1.8.12-2.48l11.78-6.57Z"/>
                <path class="cls-45" d="m513.75,506.95c1.22-.68,3.19-.68,4.37,0l18.17,10.58c1.16.68,1.11,1.8-.11,2.48l-11.78,6.56c-1.24.7-3.2.7-4.37.02l-18.17-10.58c-1.17-.69-1.13-1.81.12-2.5l11.78-6.56Z"/>
                <path class="cls-45" d="m223.67,358.62c1.23-.69,3.17-.7,4.35-.01l15.8,9.21c1.18.69,1.14,1.79-.1,2.49l-11.78,6.57c-1.24.69-3.19.68-4.36,0l-15.8-9.2c-1.18-.69-1.13-1.79.11-2.49l11.78-6.56Z"/>
                <path class="cls-45" d="m246.41,371.76c1.24-.69,3.21-.69,4.38,0l19.29,11.24c1.16.68,1.11,1.8-.13,2.49l-11.78,6.57c-1.22.68-3.19.68-4.35,0l-19.28-11.24c-1.18-.69-1.13-1.8.1-2.48l11.78-6.57Z"/>
                <path class="cls-45" d="m272.23,386.8c1.24-.69,3.19-.7,4.37-.02l14.62,8.52c1.18.68,1.11,1.79-.13,2.49l-11.78,6.56c-1.22.68-3.17.69-4.35,0l-14.62-8.52c-1.18-.68-1.11-1.79.11-2.48l11.79-6.57Z"/>
                <path class="cls-45" d="m293.14,398.99c1.24-.69,3.2-.7,4.39,0l14.62,8.52c1.16.68,1.11,1.8-.13,2.49l-11.78,6.57c-1.23.68-3.19.68-4.35,0l-14.62-8.52c-1.18-.68-1.13-1.8.1-2.48l11.78-6.57Z"/>
                <path class="cls-45" d="m314.09,411.19c1.23-.69,3.2-.69,4.36-.02l14.62,8.52c1.18.69,1.13,1.81-.11,2.5l-11.78,6.57c-1.22.67-3.19.68-4.37,0l-14.62-8.52c-1.16-.68-1.11-1.8.11-2.48l11.78-6.56Z"/>
                <path class="cls-45" d="m335.01,423.37c1.24-.69,3.2-.69,4.38,0l14.62,8.52c1.18.69,1.11,1.8-.13,2.49l-11.78,6.57c-1.22.68-3.17.7-4.35,0l-14.62-8.52c-1.18-.69-1.13-1.8.1-2.49l11.78-6.57Z"/>
                <path class="cls-45" d="m355.96,435.58c1.24-.69,3.21-.69,4.36-.02l14.64,8.53c1.16.68,1.11,1.8-.13,2.49l-11.78,6.57c-1.22.68-3.19.68-4.35,0l-14.64-8.52c-1.16-.68-1.11-1.8.11-2.48l11.78-6.56Z"/>
                <path class="cls-45" d="m376.89,447.78c1.24-.7,3.19-.71,4.37-.02l14.62,8.52c1.18.68,1.11,1.8-.13,2.49l-11.78,6.57c-1.22.68-3.17.69-4.35,0l-14.62-8.52c-1.18-.69-1.12-1.8.11-2.48l11.78-6.56Z"/>
                <path class="cls-45" d="m397.87,460c1.24-.69,3.21-.7,4.38,0l14.62,8.52c1.18.68,1.11,1.8-.13,2.49l-11.78,6.56c-1.22.68-3.17.7-4.35,0l-14.62-8.51c-1.18-.69-1.13-1.8.1-2.49l11.78-6.57Z"/>
                <path class="cls-45" d="m418.81,472.2c1.24-.69,3.21-.69,4.37-.01l14.62,8.51c1.18.69,1.13,1.81-.12,2.5l-11.78,6.56c-1.22.68-3.19.68-4.37,0l-14.62-8.52c-1.16-.67-1.11-1.79.11-2.48l11.78-6.57Z"/>
                <path class="cls-45" d="m439.76,484.41c1.24-.69,3.19-.7,4.36-.02l14.62,8.52c1.18.68,1.11,1.8-.12,2.49l-11.78,6.56c-1.22.68-3.17.7-4.35,0l-14.62-8.52c-1.18-.69-1.11-1.8.11-2.48l11.78-6.56Z"/>
                <path class="cls-45" d="m460.67,496.59c1.24-.69,3.2-.69,4.39,0l14.62,8.52c1.16.68,1.11,1.79-.13,2.49l-11.78,6.56c-1.22.68-3.19.68-4.35.01l-14.62-8.52c-1.18-.69-1.13-1.8.09-2.49l11.78-6.57Z"/>
                <path class="cls-45" d="m481.92,508.97c1.24-.69,3.19-.7,4.37-.01l31.98,18.62c1.16.68,1.11,1.8-.13,2.49l-11.78,6.56c-1.22.68-3.19.68-4.35,0l-31.97-18.63c-1.18-.68-1.11-1.8.11-2.47l11.78-6.57Z"/>
                <path class="cls-45" d="m188.12,358.59c1.24-.69,3.19-.7,4.36-.02l11.07,6.45c1.18.69,1.11,1.8-.13,2.49l-29.86,16.64c-1.24.7-3.19.7-4.36.02l-11.07-6.45c-1.18-.69-1.11-1.8.13-2.49l29.86-16.63Z"/>
                <path class="cls-45" d="m205.08,368.48c1.24-.69,3.19-.71,4.37-.02l16.68,9.71c1.18.69,1.13,1.81-.11,2.5l-11.78,6.56c-1.23.68-3.19.68-4.36,0l-16.67-9.72c-1.19-.69-1.12-1.8.11-2.48l11.78-6.56Z"/>
                <path class="cls-45" d="m228.17,381.92c1.24-.69,3.2-.69,4.38,0l8.26,4.81c1.18.69,1.13,1.81-.1,2.5l-11.79,6.56c-1.22.68-3.19.69-4.36,0l-8.26-4.81c-1.18-.69-1.13-1.81.1-2.49l11.78-6.57Z"/>
                <path class="cls-45" d="m243.46,390.83c1.24-.69,3.19-.7,4.37-.01l8.65,5.04c1.18.69,1.13,1.81-.11,2.5l-11.78,6.56c-1.23.68-3.19.69-4.37,0l-8.65-5.04c-1.18-.69-1.11-1.79.11-2.47l11.78-6.57Z"/>
                <path class="cls-45" d="m258.73,399.72c1.24-.69,3.21-.69,4.37-.01l23.97,13.96c1.18.68,1.12,1.81-.11,2.5l-11.78,6.56c-1.22.68-3.19.69-4.36,0l-23.97-13.96c-1.16-.68-1.11-1.8.12-2.48l11.78-6.57Z"/>
                <path class="cls-45" d="m289.02,417.37c1.24-.69,3.19-.7,4.37-.01l14.62,8.52c1.17.69,1.11,1.79-.13,2.49l-11.78,6.56c-1.23.68-3.17.69-4.35,0l-14.62-8.51c-1.18-.69-1.11-1.8.11-2.48l11.78-6.57Z"/>
                <path class="cls-45" d="m309.94,429.56c1.24-.69,3.21-.69,4.38,0l14.62,8.52c1.16.67,1.11,1.79-.12,2.49l-11.78,6.56c-1.22.68-3.19.69-4.35.01l-14.62-8.52c-1.18-.69-1.13-1.81.1-2.49l11.78-6.56Z"/>
                <path class="cls-45" d="m330.88,441.77c1.24-.69,3.2-.69,4.37-.01l14.62,8.51c1.18.69,1.13,1.81-.11,2.5l-11.78,6.56c-1.22.68-3.19.68-4.36,0l-14.62-8.51c-1.16-.68-1.11-1.8.11-2.48l11.78-6.56Z"/>
                <path class="cls-45" d="m351.82,453.96c1.24-.69,3.19-.7,4.37-.02l14.62,8.52c1.17.68,1.11,1.8-.13,2.49l-11.78,6.56c-1.23.68-3.17.7-4.35,0l-14.62-8.52c-1.18-.69-1.12-1.8.11-2.48l11.78-6.56Z"/>
                <path class="cls-45" d="m372.8,466.19c1.24-.69,3.21-.69,4.38-.01l14.62,8.52c1.16.67,1.11,1.79-.13,2.49l-11.78,6.56c-1.22.68-3.19.69-4.35,0l-14.62-8.51c-1.17-.69-1.13-1.81.09-2.49l11.78-6.56Z"/>
                <path class="cls-45" d="m393.73,478.38c1.24-.69,3.19-.7,4.37-.02l14.62,8.52c1.18.69,1.11,1.79-.13,2.49l-11.78,6.57c-1.22.68-3.17.69-4.35,0l-14.62-8.52c-1.18-.68-1.11-1.79.11-2.47l11.78-6.57Z"/>
                <path class="cls-45" d="m414.67,490.58c1.24-.69,3.2-.69,4.38,0l14.62,8.52c1.18.68,1.11,1.79-.13,2.49l-11.78,6.56c-1.22.68-3.17.7-4.35,0l-14.62-8.52c-1.17-.69-1.12-1.81.1-2.49l11.78-6.57Z"/>
                <path class="cls-45" d="m435.6,502.78c1.24-.69,3.2-.7,4.36-.02l14.62,8.51c1.18.69,1.13,1.81-.11,2.5l-11.78,6.56c-1.23.68-3.19.69-4.37,0l-14.62-8.52c-1.16-.68-1.11-1.8.11-2.48l11.78-6.56Z"/>
                <path class="cls-45" d="m456.54,514.98c1.24-.69,3.19-.7,4.37-.02l14.62,8.52c1.18.68,1.11,1.79-.13,2.49l-11.78,6.56c-1.22.68-3.17.7-4.35,0l-14.62-8.51c-1.18-.69-1.11-1.8.11-2.48l11.78-6.57Z"/>
                <path class="cls-45" d="m477.46,527.17c1.24-.69,3.21-.7,4.38,0l14.62,8.51c1.16.68,1.11,1.8-.13,2.49l-11.78,6.56c-1.23.68-3.19.69-4.35,0l-14.62-8.52c-1.18-.69-1.13-1.8.1-2.48l11.78-6.56Z"/>
                <path class="cls-45" d="m193.84,382.53c1.23-.68,3.17-.7,4.35,0l14.62,8.52c1.18.68,1.11,1.79-.11,2.47l-11.78,6.57c-1.24.69-3.18.7-4.37.02l-14.62-8.52c-1.18-.69-1.11-1.8.13-2.49l11.78-6.56Z"/>
                <path class="cls-45" d="m214.76,394.71c1.22-.68,3.19-.68,4.36,0l14.62,8.52c1.16.68,1.11,1.79-.11,2.48l-11.79,6.57c-1.24.69-3.2.69-4.36.02l-14.62-8.52c-1.18-.68-1.13-1.81.11-2.5l11.79-6.56Z"/>
                <path class="cls-45" d="m235.91,407.04c1.22-.69,3.18-.69,4.35,0l14.62,8.52c1.18.69,1.11,1.79-.11,2.48l-11.78,6.57c-1.24.69-3.19.7-4.37.01l-14.62-8.52c-1.18-.69-1.11-1.79.13-2.49l11.78-6.56Z"/>
                <path class="cls-45" d="m256.82,419.22c1.22-.68,3.19-.68,4.37,0l14.62,8.52c1.16.67,1.11,1.79-.11,2.48l-11.78,6.56c-1.24.69-3.2.69-4.37.02l-14.62-8.52c-1.18-.69-1.13-1.81.11-2.5l11.78-6.57Z"/>
                <path class="cls-45" d="m277.77,431.43c1.23-.68,3.18-.69,4.36,0l98.42,57.34c1.17.69,1.11,1.79-.11,2.48l-11.78,6.56c-1.24.69-3.19.7-4.37.02l-98.41-57.34c-1.18-.69-1.11-1.8.13-2.49l11.78-6.56Z"/>
                <path class="cls-45" d="m382.49,492.43c1.22-.68,3.19-.68,4.35,0l14.62,8.52c1.18.69,1.12,1.81-.1,2.49l-11.78,6.56c-1.24.69-3.2.7-4.38,0l-14.62-8.51c-1.16-.68-1.11-1.8.13-2.49l11.78-6.57Z"/>
                <path class="cls-45" d="m403.44,504.64c1.22-.68,3.18-.69,4.35-.01l14.62,8.52c1.18.68,1.11,1.79-.11,2.48l-11.78,6.56c-1.24.69-3.19.7-4.36.02l-14.62-8.52c-1.18-.69-1.11-1.8.12-2.49l11.78-6.56Z"/>
                <path class="cls-45" d="m424.35,516.83c1.22-.68,3.19-.69,4.37,0l14.62,8.52c1.16.68,1.12,1.8-.11,2.48l-11.78,6.56c-1.24.7-3.2.7-4.37.02l-14.62-8.52c-1.18-.69-1.13-1.8.11-2.49l11.78-6.57Z"/>
                <path class="cls-45" d="m445.3,529.03c1.22-.68,3.19-.69,4.35,0l14.62,8.51c1.18.69,1.13,1.81-.09,2.49l-11.78,6.56c-1.24.69-3.21.7-4.39,0l-14.62-8.51c-1.16-.68-1.11-1.8.13-2.48l11.78-6.57Z"/>
                <path class="cls-45" d="m466.22,541.22c1.22-.68,3.18-.68,4.36,0l11.34,6.6c1.16.68,1.11,1.79-.12,2.48l-11.78,6.57c-1.24.69-3.2.69-4.37.02l-11.34-6.61c-1.18-.69-1.12-1.8.11-2.49l11.78-6.57Z"/>
              </g>
              <path class="cls-41" d="m387.89,8.44l313.31,182.6c6.74,3.93,13.36,10.15,10.88,18.94l-78.2,265.03c-1.49,4.95-5.05,7.55-9.07,5.21l-332.47-193.77c-.37-.22-.71-.55-1.02-.96-1.54-2-1.84-4.7-1.12-7.13L367.55,18.25c2.13-8.84,12.04-14.65,20.34-9.81Z"/>
              <path class="cls-18" d="m395.06,23.33l293.48,171.05c6.31,3.68,12.51,9.5,10.2,17.75l-73.25,248.26c-1.39,4.63-4.73,7.08-8.49,4.88l-311.43-181.51c-.35-.2-.67-.52-.96-.9-1.45-1.88-1.72-4.41-1.05-6.68l72.45-243.66c2-8.28,11.28-13.72,19.05-9.19Z"/>
            </g>
            <path class="cls-48" d="m707.72,320.24c.45.75-5.57,3.57-5.57,3.57.47.47,1.51-.48,2.81-1.15,3.62-1.86,10.89-2.82,13.5-2.9,1.69-.05.08,3.08,1.65,3.21,8.2.69-1.18,6.81-1.02,8.27.56,4.89-13.07,7.23-16,7.66-7.63,1.1-42.31,20.12-53.09,20.3-7.07.12-13.19-9.02-8.49-15.69,9.49-13.51,45.3-9.15,52.39-14.22.93-.66,2.3-3.37,2.06-5.21-.51-3.95,10.85-5.38,11.77-3.84Z"/>
            <g>
              <g>
                <polygon class="cls-28" points="747.75 267.89 729.85 286.53 696.71 271.4 717.72 306.81 708.5 333.54 739.38 336.8 766.81 368.44 764.9 335.04 791.07 327.87 759.01 303.97 747.75 267.89"/>
                <polygon class="cls-52" points="636.29 201.2 618.39 219.83 585.26 204.71 606.26 240.12 597.04 266.85 627.92 270.1 655.35 301.74 653.44 268.35 679.62 261.17 647.55 237.28 636.29 201.2"/>
                <polygon class="cls-13" points="524.84 134.5 506.93 153.13 473.8 138.01 494.8 173.42 485.58 200.15 516.46 203.41 543.9 235.05 541.98 201.65 568.16 194.48 536.09 170.58 524.84 134.5"/>
                <polygon class="cls-14" points="413.38 67.81 395.48 86.44 362.34 71.31 383.35 106.72 374.12 133.45 405.01 136.71 432.44 168.35 430.52 134.96 456.7 127.78 424.63 103.88 413.38 67.81"/>
                <polygon class="cls-64" points="298.63 0 280.73 18.63 247.59 3.51 268.59 38.91 259.37 65.64 290.26 68.9 317.69 100.54 315.78 67.15 341.95 59.97 309.88 36.08 298.63 0"/>
              </g>
              <g>
                <polygon class="cls-7" points="688.89 276.29 696.71 271.4 727.68 285.53 739.93 272.79 747.75 267.89 758.82 303.38 791.08 327.87 783.25 332.76 774.93 326.56 765.05 337.75 766.81 368.44 758.99 373.33 688.89 276.29"/>
                <polygon class="cls-20" points="577.43 209.6 585.26 204.71 616.22 218.84 628.47 206.09 636.3 201.2 647.37 236.68 679.62 261.17 671.79 266.06 663.47 259.86 653.6 271.05 655.36 301.75 647.53 306.64 577.43 209.6"/>
                <polygon class="cls-53" points="465.97 142.9 473.8 138.01 504.76 152.14 517.01 139.4 524.84 134.5 535.91 169.99 568.16 194.48 560.33 199.37 552.01 193.17 542.14 204.36 543.9 235.05 536.07 239.94 465.97 142.9"/>
                <polygon class="cls-56" points="354.52 76.2 362.34 71.31 393.31 85.44 405.55 72.7 413.38 67.81 424.45 103.29 456.7 127.78 448.88 132.67 440.56 126.47 430.68 137.66 432.44 168.35 424.62 173.24 354.52 76.2"/>
                <polygon class="cls-42" points="239.76 8.4 247.59 3.51 278.55 17.64 290.8 4.89 298.63 0 309.7 35.48 341.95 59.97 334.13 64.86 325.81 58.66 315.93 69.85 317.69 100.54 309.86 105.44 239.76 8.4"/>
                <polygon class="cls-35" points="739.92 272.79 722.02 291.42 688.89 276.29 709.89 311.7 700.67 338.43 731.55 341.69 758.99 373.33 757.07 339.93 783.25 332.76 751.18 308.87 739.92 272.79"/>
                <polygon class="cls-37" points="628.47 206.09 610.56 224.72 577.43 209.6 598.43 245.01 589.21 271.74 620.09 274.99 647.53 306.63 645.61 273.24 671.79 266.06 639.72 242.17 628.47 206.09"/>
                <polygon class="cls-8" points="517.01 139.4 499.11 158.02 465.97 142.9 486.98 178.31 477.75 205.04 508.64 208.3 536.07 239.94 534.16 206.54 560.33 199.37 528.27 175.47 517.01 139.4"/>
                <polygon class="cls-40" points="405.55 72.7 387.65 91.33 354.52 76.21 375.52 111.61 366.3 138.34 397.18 141.6 424.62 173.24 422.7 139.85 448.88 132.67 416.81 108.77 405.55 72.7"/>
                <polygon class="cls-11" points="290.8 4.89 272.9 23.52 239.76 8.4 260.77 43.8 251.55 70.54 282.43 73.79 309.86 105.44 307.95 72.04 334.13 64.86 302.06 40.97 290.8 4.89"/>
              </g>
            </g>
            <g>
              <g>
                <g>
                  <path class="cls-46" d="m564.09,581.64c3.74-2.05,38.88-8.25,46.34-2.42,6.35,4.97-6.07,12.76-9.96,14.63-4.27,2.05-29.24,13.56-40.86,5.97-1.4-.92-2.76-1.97-3.52-3.41-1.3-2.49,5.14-13.21,7.99-14.78Z"/>
                  <path class="cls-45" d="m563.09,582.07c2.87-1.56,17.88-5.59,23.38-6.35,10.42-1.45,22.55,1.54,23.02,4.7.57,3.87-7.92,8.3-11.8,10.19-11.13,5.44-29.92,9.9-35.65,6.5-1.45-.86-4.1-2.6-4.85-4.04-1.3-2.49,2.86-9.36,5.91-11.01Z"/>
                </g>
                <path class="cls-48" d="m569.9,560.85l20.74,2.7s-11.3,14.91-13.46,21.63c-1.08,3.34-6.97,3.66-10.21,2.86.67-1.29.94-4.15-.9-5.27-1.85-1.13-3.1.55-4.38,1.1,1.08-2.16,8.22-23.01,8.22-23.01Z"/>
              </g>
              <path class="cls-45" d="m602.34,490.41c6-4.43,35.28-9.12,27.69,8.3-6.16,14.14-39.74,71.9-39.74,71.9,0,0-15.23,6.21-23.45-5.7,3.85-7.16,12.86-57.77,35.5-74.49Z"/>
              <path class="cls-45" d="m593.82,437.23c-13.26-21.79-7.11-39.39,4.39-51.59,2.78-2.95,20.6-3.99,31.92,2.92,20.37,12.44,4.06,95.92.97,107.58-3.3,12.45-31.31,13.66-33.79-1.24-1.93-11.61-1.54-54.45-3.5-57.67Z"/>
              <path class="cls-10" d="m604.43,498.42c6.53-3.54,14.36-1.34,14.04-2.62-2.78-11.37-20.83-29.9-22.84-30.82-.41-13.34-.79-26.04-1.82-27.74-13.26-21.79-7.11-39.39,4.39-51.59,2.78-2.95,20.6-3.99,31.92,2.92,20.37,12.44,4.06,95.92.97,107.58-1.18,4.46-20.7,39.32-20.7,39.32,0,0,7.97-22.98,3.06-32.23-1.41-2.65-9.14-4.76-9.03-4.82Z"/>
              <g>
                <g>
                  <path class="cls-38" d="m667.22,589.63c3.67-2.01,39.83-12.06,47.43-.86,2.16,3.18-4.97,10.16-8.8,12-4.2,2.02-31.62,14.19-43.03,6.73-1.38-.9-2.72-1.93-3.46-3.35-1.28-2.45,5.05-12.98,7.85-14.52Z"/>
                  <path class="cls-45" d="m666.23,590.05c2.82-1.53,17.57-5.49,22.97-6.24,10.24-1.42,22.16,1.51,22.61,4.62.56,3.8-6.39,8.57-10.2,10.43-10.94,5.34-30.78,9.3-36.41,5.97-1.42-.84-4.03-2.55-4.77-3.97-1.28-2.45,2.81-9.19,5.8-10.82Z"/>
                </g>
                <path class="cls-48" d="m666.24,570.02l18.89,2.5s-2.53,14.91-4.69,21.63c-1.08,3.34-6.97,3.66-10.21,2.86.67-1.29.94-4.15-.9-5.28-1.85-1.13-3.88,1.17-5.16,1.71,1.08-2.16,2.08-23.42,2.08-23.42Z"/>
              </g>
              <path class="cls-45" d="m673.28,494.62c8.85-8.59,30.48-20.68,30.36-1.68-.14,21.41-16.89,83.87-16.89,83.87,0,0-11.49,4.84-24.69-1.1,5.29-23.22,3.15-73.26,11.22-81.1Z"/>
              <path class="cls-45" d="m703.02,487.41c3.56,12.38-18.47,27.1-30.72,14.56-8.23-8.42-36.92-31.98-47.22-51.08-14.8-27.45-2.63-52.38,18.91-48.58,23.51,4.14,52.58,62.62,59.03,85.09Z"/>
              <path class="cls-10" d="m643.98,402.32c9.24,1.63,19.34,11.65,28.59,24.59-8.24.47-21.58,16.97-21.58,41.62,0,3.92-20.15-6.93-25.92-17.63-14.8-27.45-2.63-52.38,18.91-48.58Z"/>
              <path class="cls-43" d="m616.43,299.78c11.08,0,53.61,9.92,53.61,35.8,0,20.65-10.87,76.48,1.47,89.76-14.51,0-19.89,21.75-42.48,31.45-13.19,5.66-41.23,4.54-47.33-9.06,0,0-9.75-147.95,34.73-147.95Z"/>
              <path class="cls-43" d="m657.51,412.28c1.64-4.14,4.6-11.44,4.6-17.65,0-4.41-13.58-20.89-16.29-33.58-5.06-23.61,24.22-25.73,24.22-25.47,0,20.65-10.87,76.48,1.47,89.76-14.51,0-19.89,21.75-42.48,31.45-13.19,5.66-41.23,4.54-47.33-9.06,0,0,49.52,30.68,75.81-35.45Z"/>
              <path class="cls-48" d="m752.97,365.44c-.22.86-5.62,4.68-5.36,5.12.34.58,12.72-6.4,15.43-7.31,3.9-1.32,1.68,2.71,1.68,2.71,0,0,4.82-2.19,5.79-.55,2.35,4-8.28,10.46-6.79,9.95,2.86-.97,4.71.73,2.31,2.14-5.56,3.26-16.03,8.73-20.87,10.7-2.41.98-2.66.33-3-.04-4.41-4.69-49.07,28.02-61.78,12.75-4.95-5.94,2.21-16.57,11.22-19.22,16.56-4.87,41.27-2.63,47.49-6.28,1.69-.99,1.65-2.03,2.41-3.86,1.61-3.84,12.54-10.14,11.49-6.11Z"/>
              <path class="cls-48" d="m631.4,289.12s-.65,6.58-5.52,10.84c-4.87,4.26,2.56,11.3,12.81,9.68,10.23-1.62,12.42.25,12.42.25-3.95-2.55-7.65-3.75-4.93-11.24,1.56-4.31-14.78-9.53-14.78-9.53Z"/>
              <path class="cls-48" d="m664.29,271.1s-.02,7.43-.9,9.04c-.66,1.21-1.28,2.13-1.73,3.15-.45,1.02.28,2.92,0,4.41-.27,1.49-2.33,4.71-3.47,6.42-1.14,1.71-2.34,5.68-3.62,6.61-1.86,1.36-14.2-.03-23.26-10.54,0,0,.86-6.34-1.5-13.62-2.36-7.28,27.25-19.4,34.47-5.47Z"/>
              <path class="cls-45" d="m664.19,273.7s-3.25,4.44-6.21,5.22c-2.96.78-.7,7.86-2.64,7.56-3.76-.59-1.22-7.47-5.68-5.07-2.26,1.21-1.81,6.92-1.52,9.29.29,2.37-3.05,2.96-6.79,2.32-2.79-.47-8.59-3.25-9.94-4.34,0,0-.04-4.8-.34-6.61-.3-1.81.38-2.47,7.83-10.57,7.45-8.09,25.28,2.19,25.28,2.19Z"/>
              <path class="cls-43" d="m630.82,280.47s6.48,8.14,13.35-1.6c6.87-9.73,14.49-3.13,20.03-5.17,5.54-2.04,6.61-14.03.04-15.05-1.31-.2-.58,2.53-7.19.63-6.62-1.9-15.62-2.94-19.99-1.08-4.37,1.87-9.53,6.52-8.48,12.87,1.05,6.35,2.24,9.41,2.24,9.41Z"/>
              <path class="cls-43" d="m661.62,317.7c18.2,14.12,32.9,55.28,35.92,59.94,4.01,6.19-12.66,29.19-21.53,22.06-14.97-12.04-29.29-34.73-35.1-47.4-7.7-16.81,5.76-46.19,20.71-34.6Z"/>
            </g>
            <g>
              <path class="cls-61" d="m70.18,524.16s.03-.03.03-.03c0,0,0,0-.03.03Z"/>
              <path class="cls-23" d="m104.23,456.69l-.02-1.12s.15-.05.4-.13c-.16.42-.28.84-.38,1.24Zm30.22-60.57c.57-.48,1.23-1.08,1.99-1.74.09.28.23.58.42.89-.79.27-1.6.56-2.41.85Zm61.51,15.1c-18.52-12.36-61.37-40.18-61.37-40.18-1.88,5.13-4.17,11.49-6.29,16.13-.86,1.9-1.69,3.5-2.45,4.64-1.35-.32-2.97-.17-4.07.47l-13.39,7.74-1.26-.72-11.41-6.59-18.67,10.4,4.7,10.72.33.75c.36.81,1.42,1.91,2.37,2.47l4.93,2.85c-9.6,7.01-16.34,14.03-16.96,19.42-.15,1.25-.28,2.56-.42,3.92-.41,4.11-.79,8.67-1.15,13.5l67.91,38.28-1.15-13.56-.77-9.13s.14-.06.43-.17c.12-.05.26-.1.44-.17.17-.06.36-.14.59-.21,2.56-.96,8.71-3.22,19.97-7.18,13.78-4.84,30.03-14.79,37.63-21.76,1.41-1.29,2.53-2.49,3.26-3.51,1.87-2.6,3.16-5.41,4-8.25,2.21-7.48-.72-15.53-7.22-19.85Z"/>
            </g>
            <g>
              <path class="cls-17" d="m122.22,368.44c-5.7-1.75-11.15-1.67-11.82-3.85-3.23-10.51,7.48-35.75,14.18-41.65,5.6-4.93,22.58.41,25.97,5.14,3.39,4.73-2.83,48.01-15.58,45.75-5.51-.98-6.08-3.34-12.74-5.39Z"/>
              <g>
                <path class="cls-48" d="m81.87,504.16s5.61,5.59,4.52,8.64c-1.09,3.05-14.43,21.37-20.84,23.12-13.35,3.65-9.42-8.02-7.09-10.32,2.06-2.02,10.06-7.42,10.38-13.05.43-7.59,13.02-8.39,13.02-8.39Z"/>
                <path class="cls-43" d="m87.34,508.13s-9.48,9.8-13.43,16.44c-3.95,6.64-7.89,9.13-10.65,8.82-4.4-.5-7.24-2.8-5.92-5.6,1.04-2.22,1.13-2.17,1.13-2.17,0,0-12.17,11-11.27,18.55.91,7.55,21.41-1.23,24.7-4.86,1.26-1.39,5.1-9.43,7.91-12.3,2.81-2.87,5.98-3.8,8.1-9.94,2.12-6.14-.57-8.93-.57-8.93Z"/>
              </g>
              <path class="cls-43" d="m93.16,514.06l-.69-57s54.91-18.25,60.12-24.51c9.92-11.9,3.96-31.92,1.56-36.49-8.39-15.94-91.24,25.17-93.48,44.72-2.24,19.55-3.61,52.39-4.55,74.46,6.95,13.56,37.04-1.19,37.04-1.19Z"/>
              <path class="cls-43" d="m111.94,429.99c8.42-8.43,41.13-39.3,45.22-31.53,2.4,4.56,5.36,22.19-4.56,34.09-5.22,6.26-60.12,24.51-60.12,24.51l.69,57s-4.28,2.1-9.98,3.98v-56.32c0-6.66,3.35-12.87,8.93-16.52,6.29-4.12,14.51-9.9,19.82-15.22Z"/>
              <path class="cls-1" d="m136.97,294.22c-.39-3.4,13.39-7.51,13.39-7.51,5.82,5.16,33.03,34.41,45.01,66.99-.56,6.33-23.5,13.92-33.92,11.96-3.59-.68-22.82-56.71-24.48-71.44Z"/>
              <g>
                <path class="cls-48" d="m109.61,520s4.93,3.65,5.05,8.62c.12,4.88-5.17,24.95-11.31,27.49-6.14,2.54-12.56-1.24-12.16-4.1.4-2.86,5.57-11.86,6.8-18.88,1.31-7.49,11.63-13.14,11.63-13.14Z"/>
                <path class="cls-43" d="m96.83,530.35s-3.14,12.28-4.93,18.39c-3.91,13.31-3.63,15.71-2.54,18.8,1.14,3.22,10.45-.1,16.91-5.86,7.41-6.6,6.84-15.38,11.22-23.18,1.42-2.53,1.25-4.46.97-10.34-.15-5-6.25-5.43-6.25-5.43,0,0,3.56,4.92,1.96,9.23-.81,2.17-.43,3.07-1.67,5.79-2.46,5.41-2.68,10.61-6.38,14.61-3.47,3.75-14.28,2-14.08-.14.37-3.95,3.53-10.72,4.73-14.46,1.44-4.46.06-7.4.06-7.4Z"/>
              </g>
              <path class="cls-43" d="m129.89,530.61l-4.79-56.81s5.77-2.23,21.44-7.73c16.33-5.73,36.14-18.65,40.89-25.27,9.03-12.58,4.43-29.73,2.09-34.33-9.57-18.85-96.48,33.72-97.3,53.38-.83,19.67.16,52.51.81,74.6,7.91,13.02,36.86-3.85,36.86-3.85Z"/>
              <g>
                <path class="cls-25" d="m74.94,417v-2.09l1.7.2,33.69-19.45c1.07-.62,2.81-.62,3.87,0l51.76,30.08,3.54.42v2.24h0c.02.43-.24.86-.81,1.18l-34.29,19.79c-1.47.85-3.84.85-5.31,0l-53.08-30.85c-.71-.41-1.07-.95-1.09-1.49h0v-.04Z"/>
                <g>
                  <path class="cls-67" d="m75.75,413.55c-1.07.62-1.08,1.63-.01,2.25l54.51,31.68c1.07.62,2.8.62,3.88,0l34.29-19.8c1.47-.85,1.48-2.22.02-3.07l-53.08-30.85c-1.46-.85-3.84-.85-5.31,0l-34.29,19.79h0Z"/>
                  <g>
                    <path class="cls-68" d="m154.21,432.94l-53.29-30.97c-.71-.41-1.85-.41-2.56,0l-20.23,11.68c-.71.41-.71,1.07,0,1.48l53.29,30.97c.7.41,1.85.41,2.56,0l20.23-11.68c.71-.41.71-1.07,0-1.48Z"/>
                    <g>
                      <path class="cls-1" d="m125.52,436.12l-2.47,1.43c-.25.14-.65.14-.89,0l-2.46-1.43c-.25-.14-.25-.37,0-.52l2.47-1.43c.25-.14.65-.14.9,0l2.46,1.43c.25.14.24.38,0,.52h0Z"/>
                      <path class="cls-1" d="m123.87,430.67l-2.47,1.43c-.25.14-.65.14-.89,0l-2.46-1.43c-.25-.14-.25-.38,0-.52l2.47-1.43c.25-.14.65-.14.9,0l2.46,1.43c.25.14.24.38,0,.52h0Z"/>
                      <path class="cls-1" d="m127.72,432.91l-2.47,1.43c-.25.14-.65.14-.9,0l-2.46-1.43c-.25-.14-.25-.38,0-.52l2.47-1.43c.25-.14.65-.14.9,0l2.46,1.43c.25.14.24.38,0,.52h0Z"/>
                      <path class="cls-1" d="m131.57,435.15l-2.47,1.43c-.25.14-.65.14-.9,0l-2.46-1.43c-.25-.14-.25-.38,0-.52l2.47-1.43c.25-.14.65-.15.9,0l2.46,1.43c.25.14.24.38,0,.52h0Z"/>
                      <path class="cls-1" d="m135.42,437.39l-2.47,1.43c-.25.14-.65.14-.89,0l-2.46-1.43c-.25-.14-.25-.38,0-.52l2.47-1.43c.25-.14.65-.14.9,0l2.46,1.43c.25.14.24.38,0,.52h0Z"/>
                      <path class="cls-1" d="m129.37,438.36l-2.47,1.43c-.25.14-.65.14-.89,0l-2.46-1.43c-.25-.14-.25-.38,0-.52l2.47-1.43c.25-.14.65-.14.9,0l2.46,1.43c.25.14.24.38,0,.52h0Z"/>
                      <path class="cls-1" d="m133.22,440.6l-2.47,1.43c-.25.14-.65.14-.89,0l-2.46-1.43c-.25-.14-.25-.38,0-.52l2.47-1.43c.25-.14.65-.14.9,0l2.46,1.43c.25.14.24.38,0,.52h0Z"/>
                      <path class="cls-1" d="m102.61,404.72l-2.47,1.43c-.25.14-.65.14-.9,0l-2.46-1.43c-.25-.14-.24-.38,0-.52l2.47-1.43c.25-.14.65-.14.9,0l2.46,1.43c.25.14.24.38,0,.52h0Z"/>
                      <path class="cls-1" d="m106.46,406.96l-2.47,1.43c-.25.14-.65.14-.89,0l-2.46-1.43c-.25-.14-.24-.38,0-.52l2.47-1.43c.25-.14.65-.14.9,0l2.46,1.43c.25.14.24.38,0,.52h0Z"/>
                      <path class="cls-1" d="m110.31,409.2l-2.47,1.43c-.25.14-.65.14-.89,0l-2.46-1.43c-.25-.14-.24-.38,0-.52l2.47-1.43c.25-.14.65-.14.9,0l2.46,1.43c.25.14.24.38,0,.52h0Z"/>
                      <path class="cls-1" d="m114.16,411.44l-2.47,1.43c-.25.14-.65.14-.9,0l-2.46-1.43c-.25-.14-.24-.38,0-.52l2.47-1.43c.25-.14.65-.14.9,0l2.46,1.43c.25.14.25.38,0,.52h0Z"/>
                      <path class="cls-1" d="m137.67,443.19l-2.47,1.43c-.25.14-.65.14-.9,0l-3.05-1.77c-.25-.14-.25-.38,0-.52l2.47-1.43c.25-.14.65-.14.9,0l3.05,1.77c.25.14.25.38,0,.52h0Z"/>
                      <path class="cls-1" d="m137.78,425.16l-2.47,1.43c-.25.14-.65.14-.9,0l-22.22-12.91c-.25-.14-.24-.38,0-.52l2.47-1.43c.25-.14.65-.14.9,0l22.22,12.91c.25.14.25.38,0,.52h0Z"/>
                      <path class="cls-1" d="m129.94,443.19l-.67.38c-.25.14-.65.14-.9,0l-2.46-1.43c-.25-.14-.24-.38,0-.52l.67-.38c.25-.14.65-.14.9,0l2.46,1.43c.25.14.24.38,0,.52h0Z"/>
                      <path class="cls-1" d="m133.79,445.43l-.67.38c-.25.14-.65.14-.9,0l-2.46-1.43c-.25-.14-.24-.38,0-.52l.67-.38c.25-.14.65-.14.9,0l2.46,1.43c.25.14.25.38,0,.52h0Z"/>
                      <path class="cls-1" d="m141.57,440.93l-2.47,1.43c-.25.14-.65.14-.9,0l-4.73-2.75c-.25-.14-.25-.38,0-.52l2.48-1.43c.25-.14.65-.14.89,0l4.73,2.75c.25.14.25.38,0,.52h0Z"/>
                      <path class="cls-1" d="m145.48,438.68l-2.47,1.43c-.25.14-.65.14-.9,0l-6.65-3.87c-.25-.14-.24-.38,0-.52l2.47-1.43c.25-.14.65-.14.89,0l6.65,3.87c.25.14.25.38,0,.52h0Z"/>
                      <path class="cls-1" d="m147.53,432.92l-.67.38c-.25.14-.65.14-.9,0l-2.46-1.43c-.25-.14-.24-.38,0-.52l.67-.39c.25-.14.65-.14.89,0l2.46,1.43c.25.14.25.37,0,.52h0Z"/>
                      <path class="cls-1" d="m149.33,431.88l-.67.38c-.25.14-.65.14-.9,0l-2.46-1.43c-.25-.14-.24-.38,0-.52l.67-.38c.25-.14.65-.14.9,0l2.46,1.43c.25.14.24.38,0,.52h0Z"/>
                      <path class="cls-1" d="m133.57,431.76l-2.47,1.43c-.25.14-.65.14-.9,0l-2.46-1.43c-.25-.14-.24-.38,0-.52l2.47-1.43c.25-.14.65-.14.9,0l2.46,1.43c.25.14.25.37,0,.52h0Z"/>
                      <path class="cls-1" d="m137.43,434l-2.47,1.43c-.25.14-.65.14-.9,0l-2.46-1.43c-.25-.14-.24-.38,0-.52l2.47-1.43c.25-.14.65-.14.89,0l2.46,1.43c.25.14.25.38,0,.52h0Z"/>
                      <path class="cls-1" d="m137.5,429.49l-2.48,1.43c-.25.14-.65.14-.89,0l-2.46-1.43c-.25-.14-.24-.38,0-.52l2.48-1.43c.25-.14.65-.14.89,0l2.46,1.43c.25.14.24.38,0,.52h0Z"/>
                      <path class="cls-1" d="m141.36,431.73l-2.48,1.43c-.25.14-.65.14-.9,0l-2.46-1.43c-.25-.14-.24-.38,0-.52l2.48-1.43c.25-.14.65-.14.9,0l2.46,1.43c.25.14.24.38,0,.52h0Z"/>
                      <path class="cls-1" d="m145.21,433.97l-2.48,1.43c-.25.14-.65.14-.89,0l-2.46-1.43c-.25-.14-.24-.38,0-.52l2.48-1.43c.25-.14.65-.14.89,0l2.46,1.43c.25.14.24.38,0,.52h0Z"/>
                      <path class="cls-1" d="m149.41,436.41l-2.48,1.43c-.25.14-.65.14-.9,0l-2.8-1.63c-.25-.14-.24-.38,0-.52l2.47-1.43c.25-.14.65-.14.89,0l2.8,1.63c.25.14.25.38,0,.52h0Z"/>
                      <path class="cls-1" d="m125.87,427.29l-2.47,1.43c-.25.14-.65.14-.9,0l-2.46-1.43c-.25-.14-.24-.38,0-.52l2.47-1.43c.25-.14.65-.14.89,0l2.46,1.43c.25.14.25.38,0,.52h0Z"/>
                      <path class="cls-1" d="m129.72,429.52l-2.47,1.43c-.25.14-.65.14-.9,0l-2.46-1.43c-.25-.14-.24-.38,0-.52l2.47-1.43c.25-.14.65-.14.89,0l2.46,1.43c.25.14.25.37,0,.52h0Z"/>
                      <path class="cls-1" d="m129.8,425.02l-2.48,1.43c-.25.14-.65.14-.89,0l-2.46-1.43c-.25-.14-.24-.38,0-.52l2.48-1.43c.25-.14.65-.14.9,0l2.46,1.43c.25.14.24.38,0,.52h0Z"/>
                      <path class="cls-1" d="m133.65,427.25l-2.48,1.43c-.25.14-.65.14-.9,0l-2.46-1.43c-.25-.14-.24-.38,0-.52l2.48-1.43c.25-.14.65-.14.9,0l2.46,1.43c.25.14.25.38,0,.52h0Z"/>
                      <path class="cls-1" d="m122.02,425.05l-2.47,1.43c-.25.14-.65.14-.9,0l-2.46-1.43c-.25-.14-.24-.38,0-.52l2.47-1.43c.25-.14.65-.14.9,0l2.46,1.43c.25.14.25.38,0,.52h0Z"/>
                      <path class="cls-1" d="m122.1,420.54l-2.48,1.43c-.25.14-.65.14-.9,0l-2.46-1.43c-.25-.14-.24-.38,0-.52l2.48-1.43c.25-.14.65-.14.89,0l2.46,1.43c.25.14.25.38,0,.52h0Z"/>
                      <path class="cls-1" d="m125.95,422.78l-2.48,1.43c-.25.14-.65.14-.9,0l-2.46-1.43c-.25-.14-.24-.38,0-.52l2.48-1.43c.25-.14.65-.14.89,0l2.46,1.43c.25.14.25.38,0,.52h0Z"/>
                      <path class="cls-1" d="m118.24,418.3l-2.48,1.43c-.25.14-.65.14-.9,0l-2.46-1.43c-.25-.14-.24-.38,0-.52l2.48-1.43c.25-.14.65-.14.89,0l2.46,1.43c.25.14.25.38,0,.52h0Z"/>
                      <path class="cls-1" d="m141.63,427.4l-2.47,1.43c-.25.14-.65.14-.9,0l-2.46-1.43c-.25-.14-.24-.38,0-.52l2.47-1.43c.25-.14.65-.14.9,0l2.46,1.43c.25.14.25.38,0,.52h0Z"/>
                      <path class="cls-1" d="m145.48,429.64l-2.47,1.43c-.25.14-.65.14-.89,0l-2.46-1.43c-.25-.14-.24-.38,0-.52l2.47-1.43c.25-.14.65-.14.9,0l2.46,1.43c.25.14.24.38,0,.52h0Z"/>
                      <path class="cls-1" d="m153.28,434.17l-2.47,1.43c-.25.14-.65.14-.9,0l-2.46-1.43c-.25-.14-.24-.38,0-.52l2.47-1.43c.25-.14.65-.14.9,0l2.46,1.43c.25.14.25.38,0,.52h0Z"/>
                    </g>
                  </g>
                  <path class="cls-12" d="m117.35,409.32l10.06-5.81c.59-.34,1.54-.34,2.12,0l22.09,12.84c.58.34.58.89,0,1.23l-10.06,5.81c-.59.34-1.54.34-2.13,0l-22.09-12.84c-.58-.34-.58-.89,0-1.23h0Z"/>
                </g>
              </g>
              <g>
                <path class="cls-48" d="m135.27,356.05c-2.99.5-6.94,4.46-9.07,8.05-2.13,3.59-9.8,28.97-13.63,30.83-3.83,1.86-7.78,3.42-9.91,5.25-1.71,1.46-4.35,5.18-5.52,7.1-.88,1.44-2.85,6.12-2.85,6.12l.3,1.25-.62,2.24,1.09.64,1.56-.97s1.2,1.08,1.89.91c.69-.16,10.31-9.96,10.31-9.96,0,0-4.42,5.64-5.4,7.8-.22.48-.48,1.91,2.04.49,2.52-1.42,6.49-7.16,6.49-7.16,0,0,3.52-1.53,5.58-4.38,2.05-2.85,3.24-5.01,3.24-5.01,0,0,27.9-22.94,27.63-35.64-.32-15.15-9.41-8.17-13.15-7.55Z"/>
                <path class="cls-47" d="m102.63,409.18c-.55,2.2-5.21,7.42-5.21,7.42l.68.84-1.56-.83,1.31-2.1s2.9-3.29,3.77-4.85c.88-1.56,1.07-.75,1.01-.48Z"/>
                <path class="cls-47" d="m101.57,405.28c.59,0-3.75,5.35-4.8,7.2-.71,1.24-2.33,4.69-2.33,4.69l-.46-.26s1.69-3.51,2.41-4.78c1.04-1.86,4.82-6.84,5.18-6.84Z"/>
              </g>
              <path class="cls-43" d="m117.21,536.46v-64.38c0-6.43,3.58-12.32,9.29-15.28,12.3-6.36,32.92-17.17,37.01-20.22,6.83-5.09,10.33-13.49,5.64-21.5-1.96-3.35-5.6-6.02-9.6-7.23,14.62-5.94,26.73-7.75,29.97-1.37,2.33,4.6,6.94,21.75-2.09,34.33-4.75,6.62-24.56,19.54-40.89,25.27-15.67,5.5-21.44,7.73-21.44,7.73l4.79,56.81s-5.67,3.3-12.67,5.85Z"/>
              <path class="cls-9" d="m193.13,416.05c0,17.15-67.78-11.66-68.55-20.69-1.17-13.66,1.48-16.12-3.59-28.13-3.42-8.09,1.4-45.51,6.4-47.82,5-2.31,30.53.61,33.76,2.25,3.23,1.64,16.94,14.91,17.28,16.14.33,1.24,14.7,58.44,14.7,78.24Z"/>
              <path class="cls-1" d="m125.15,336.81c1.2-2.34,1.94-4.84,2.41-7.42.22-1.29.37-2.6.39-3.95.02-1.35-.07-2.72-.43-4.15-.09-.36-.2-.72-.34-1.08-.14-.36-.33-.76-.44-.98-.25-.53-.5-1.05-.72-1.59-.44-1.07-.8-2.16-1.06-3.28-.54-2.25-.56-4.64-.28-7.27-1.68,2.03-2.59,4.8-2.5,7.59.03,1.39.29,2.78.7,4.09.22.65.45,1.3.74,1.92.16.35.23.53.32.76.08.23.16.47.23.73.55,2.08.64,4.57.72,7.02.08,2.48.09,5,.25,7.62Z"/>
              <path class="cls-57" d="m156.53,374.26s21.62-37.51,21.9-36.45c.33,1.24,14.7,58.44,14.7,78.24,0,5.57-6.85,8.13-26.54,1.84-9.15-2.92-9.12-35.58-12.61-36.3-15.13-3.11,2.54-7.33,2.54-7.33Z"/>
              <path class="cls-48" d="m136.34,326.28c-5.4,4.76,10.38-35.12,11.15-26.15.76,8.98-.08,14.06,3.18,17.51,1.42,1.5,9.58,4.94,9.58,4.94,0,0,1.25.54-.8,3.4-2.05,2.86-19.44,32.87-24.72,30.47-4.74-2.15,7.89-35.71,1.61-30.18Z"/>
              <path class="cls-48" d="m144.68,300.22s1,13.32.86,16.89c-.14,3.58-11.06,11.71-15.87,11.74-3.09-1.33-8.39-8.91-9.67-13.24-1.27-4.33-.37-5.78-1.25-6.62-2.69-2.56-.72-12.3-.3-13.19.41-.89,22.53-8.56,26.23,4.42Z"/>
              <path class="cls-48" d="m121.34,311.17c.71,1.7-.78,9.32-.42,10.23.35.91,3.42.4,4.56-.31l-4.14-9.92Z"/>
              <path class="cls-1" d="m142.36,310.04s-9.02-.12-12.56-2.48c-6.02-4.06-10.88-10.31-10.88-10.31-1.7.27-1.61,6.89-1.61,6.89,0,0-.93-2.86-.53-6.28.4-3.42,1.84-11.45,10.75-15.8,8.91-4.35,18.29-.69,23.96,5.79,3.86,4.76,3.16,10.76,2.31,12.74-.84,1.98-2.63,5.53-2.91,6.97-.28,1.44.76,3.54.76,3.54,0,0-2.73-.13-3.03-1.39-.28-1.16-.72-7.24-1.96-8.07-2.44-1.62-4.36.86-4.76,2.9-.4,2.04,0,3.87.46,5.52Z"/>
              <path class="cls-1" d="m147.91,306.67s.2,9.6,2.63,17.11c2.43,7.51,14.51-4,23.14.97,8.63,4.97-25.77-18.08-25.77-18.08Z"/>
              <path class="cls-48" d="m173.93,392.26c-1.3-4.26-2.56-12.55-2.56-18.03,0-11.26,20.57-11.94,22.21-6.09,2.12,7.56,1.72,17.3.86,26.39-.87,9.12-17.7,6.91-20.51-2.28Z"/>
              <path class="cls-55" d="m169.59,380.04c-9.13-6.14-15.19-32.81-13.7-41.61,1.25-7.36,2.27-20.8,21.91-12.02,5.32,2.37,23.33,34.25,16.68,45.36-6.25,10.45-23.01,9.55-24.9,8.28Z"/>
              <path class="cls-1" d="m128.22,287.99c-.85,2.45-1.35,5-1.7,7.58-.3,2.59-.43,5.22-.21,7.87.22,2.65.75,5.33,1.84,7.88,1.08,2.55,2.81,4.98,5.18,6.69.59.42,1.21.8,1.86,1.13.57.3,1.11.56,1.65.87,1.09.57,2.13,1.2,3.13,1.88,2,1.34,3.82,2.91,5.16,4.79,1.33,1.87,2.09,4.12,2.05,6.53,0,2.41-.71,4.88-1.62,7.29,1.58-2.04,2.82-4.43,3.33-7.12.22-1.35.25-2.76,0-4.16-.25-1.39-.74-2.75-1.43-3.98-1.39-2.47-3.42-4.42-5.58-6.04-1.08-.81-2.22-1.53-3.37-2.19-.57-.33-1.18-.64-1.74-.94-.49-.25-.96-.55-1.41-.87-1.8-1.28-3.2-3.12-4.22-5.22-1.02-2.11-1.69-4.46-2.14-6.88-.44-2.42-.7-4.92-.79-7.45-.12-2.53-.09-5.08,0-7.66Z"/>
              <path class="cls-1" d="m124.41,297.76c.84,2.49,2.12,4.77,3.63,6.9.77,1.06,1.61,2.08,2.56,3.04.95.95,2,1.85,3.27,2.59.32.18.65.36,1.01.51.36.15.78.29,1.01.37.55.19,1.1.37,1.64.6,1.08.43,2.1.93,3.09,1.53,1.99,1.18,3.71,2.84,5.41,4.87-.29-2.62-1.63-5.21-3.69-7.09-1.02-.95-2.19-1.73-3.42-2.35-.62-.3-1.25-.59-1.89-.81-.36-.13-.54-.2-.77-.3-.22-.1-.45-.21-.69-.34-1.87-1.06-3.72-2.72-5.53-4.38-1.83-1.67-3.64-3.43-5.63-5.14Z"/>
              <g>
                <path class="cls-48" d="m182.95,385.83c-3.03-.2-7.77,2.76-10.67,5.77-2.89,3.01-16.13,25.98-20.29,26.92-4.15.94-8.35,1.56-10.84,2.85-2,1.04-5.42,4.06-7,5.66-1.18,1.2-4.17,5.31-4.17,5.31v1.29s-1.1,2.04-1.1,2.04l.92.87,1.74-.59s.92,1.33,1.63,1.32c.71,0,12.31-7.35,12.31-7.35,0,0-5.59,4.49-7.03,6.37-.32.42-.9,1.75,1.88.95,2.78-.81,7.95-5.5,7.95-5.5,0,0,3.78-.69,6.43-2.99,2.65-2.3,4.3-4.14,4.3-4.14,0,0,32.39-15.98,35.02-28.42,3.13-14.83-7.31-10.09-11.09-10.34Z"/>
                <path class="cls-47" d="m139.08,430.14c-1.04,2.02-6.76,6.05-6.76,6.05l.47.97-1.33-1.16,1.75-1.75s3.57-2.55,4.78-3.87c1.21-1.32,1.22-.49,1.09-.24Z"/>
                <path class="cls-47" d="m138.94,426.09c.58.14-4.87,4.36-6.31,5.92-.97,1.05-3.33,4.03-3.33,4.03l-.39-.36s2.45-3.03,3.43-4.11c1.44-1.57,6.25-5.56,6.6-5.48Z"/>
              </g>
              <g>
                <path class="cls-21" d="m54.87,379.89l1.39-1.17s0,0,0,0h0s0,0,0,0c.23-.18.74-.08,1.44.32l54.21,31.3c1.25.72,2.65,2.18,3.11,3.24l15.46,35.23c.15.34.15.58.02.69h0s0,0,0,0h0s-1.39,1.17-1.39,1.17l-4.75-4.32-50.26-29.02c-.95-.55-2.01-1.65-2.37-2.46l-14.35-32.69-2.52-2.29Z"/>
                <path class="cls-62" d="m56.31,380.2c-1.26-.72-1.9-.45-1.43.62l15.46,35.23c.35.81,1.41,1.91,2.37,2.46l55.3,31.93c.95.55,1.44.34,1.09-.47l-15.46-35.23c-.47-1.07-1.86-2.52-3.12-3.24l-54.21-31.3h0Z"/>
                <path class="cls-22" d="m96.55,421.67c1.81,2.8,1.52,5.07-.64,5.07s-5.38-2.27-7.19-5.07c-1.81-2.8-1.52-5.07.64-5.07s5.38,2.27,7.19,5.07Z"/>
              </g>
            </g>
            <g>
              <g class="cls-70">
                <path class="cls-23" d="m82.72,236.29c-18.33-9.2-47.76-8.75-65.74,1.01-17.97,9.76-17.68,25.13.65,34.33,18.33,9.2,47.76,8.75,65.74-1.01,17.97-9.76,17.68-25.13-.65-34.33Z"/>
                <path class="cls-29" d="m82.53,236.39c-18.23-9.15-47.49-8.7-65.37,1.01-17.87,9.71-17.58,24.99.64,34.14,18.23,9.15,47.49,8.7,65.37-1.01,17.87-9.7,17.58-24.99-.65-34.14Z"/>
                <path class="cls-49" d="m82.35,236.49c-18.12-9.1-47.22-8.65-65,1-17.77,9.65-17.48,24.85.64,33.94,18.13,9.1,47.22,8.65,65-1,17.77-9.65,17.48-24.85-.64-33.94Z"/>
                <path class="cls-49" d="m82.17,236.59c-18.02-9.05-46.96-8.6-64.62,1-17.67,9.6-17.38,24.71.64,33.75,18.02,9.04,46.96,8.6,64.63-1,17.67-9.59,17.38-24.71-.64-33.75Z"/>
                <path class="cls-59" d="m81.98,236.69c-17.92-8.99-46.69-8.55-64.25.99-17.57,9.54-17.28,24.56.63,33.56,17.92,8.99,46.69,8.55,64.25-.99,17.57-9.54,17.28-24.56-.63-33.56Z"/>
                <path class="cls-65" d="m81.8,236.79c-17.81-8.94-46.42-8.5-63.88.98-17.47,9.48-17.19,24.42.63,33.36,17.82,8.94,46.42,8.5,63.88-.98,17.47-9.48,17.18-24.42-.63-33.36Z"/>
                <path class="cls-51" d="m81.62,236.89c-17.71-8.89-46.15-8.45-63.51.98-17.37,9.43-17.09,24.28.63,33.17,17.71,8.89,46.15,8.45,63.51-.98,17.37-9.43,17.09-24.28-.63-33.17Z"/>
                <path class="cls-51" d="m81.43,236.99c-17.61-8.84-45.88-8.4-63.14.97-17.26,9.37-16.99,24.14.62,32.98,17.61,8.84,45.88,8.4,63.14-.97,17.26-9.37,16.99-24.14-.62-32.98Z"/>
                <path class="cls-34" d="m81.25,237.09c-17.5-8.79-45.61-8.35-62.77.97-17.16,9.32-16.89,24,.62,32.78,17.51,8.78,45.61,8.35,62.77-.97,17.16-9.32,16.89-24-.62-32.78Z"/>
                <path class="cls-34" d="m81.07,237.19c-17.4-8.73-45.34-8.3-62.4.96-17.06,9.26-16.79,23.86.61,32.59,17.4,8.73,45.34,8.3,62.4-.96,17.06-9.26,16.79-23.86-.62-32.59Z"/>
                <path class="cls-50" d="m80.88,237.29c-17.3-8.68-45.07-8.25-62.03.96-16.96,9.21-16.69,23.71.61,32.4,17.3,8.68,45.07,8.25,62.03-.96,16.96-9.21,16.69-23.71-.61-32.4Z"/>
                <path class="cls-16" d="m80.7,237.39c-17.19-8.63-44.8-8.2-61.66.95-16.86,9.15-16.59,23.57.61,32.2,17.19,8.63,44.8,8.2,61.66-.95,16.86-9.15,16.59-23.57-.61-32.2Z"/>
                <path class="cls-63" d="m80.52,237.49c-17.09-8.58-44.53-8.16-61.29.94-16.76,9.1-16.49,23.43.6,32.01,17.09,8.58,44.53,8.15,61.29-.94,16.76-9.1,16.49-23.43-.61-32.01Z"/>
                <path class="cls-63" d="m80.33,237.59c-16.99-8.53-44.26-8.11-60.92.94-16.66,9.04-16.39,23.29.6,31.81,16.99,8.53,44.26,8.1,60.92-.94,16.66-9.04,16.39-23.29-.6-31.81Z"/>
                <path class="cls-66" d="m80.15,237.69c-16.88-8.47-43.99-8.06-60.55.93-16.55,8.99-16.29,23.15.6,31.62,16.88,8.47,43.99,8.06,60.55-.93,16.55-8.99,16.29-23.15-.6-31.62Z"/>
                <path class="cls-66" d="m79.96,237.79c-16.78-8.42-43.72-8.01-60.18.93-16.45,8.93-16.19,23.01.59,31.43,16.78,8.42,43.72,8.01,60.18-.93,16.45-8.93,16.19-23.01-.59-31.43Z"/>
                <path class="cls-31" d="m79.78,237.89c-16.68-8.37-43.45-7.96-59.8.92-16.35,8.88-16.09,22.86.59,31.23,16.68,8.37,43.45,7.96,59.81-.92,16.35-8.88,16.09-22.86-.59-31.23Z"/>
                <path class="cls-19" d="m79.6,237.99c-16.57-8.32-43.18-7.91-59.43.92-16.25,8.82-15.99,22.72.59,31.04,16.57,8.32,43.18,7.91,59.44-.92,16.25-8.82,15.99-22.72-.59-31.04Z"/>
                <path class="cls-3" d="m79.41,238.08c-16.47-8.27-42.91-7.86-59.06.91-16.15,8.77-15.89,22.58.58,30.85,16.47,8.27,42.92,7.86,59.06-.91,16.15-8.77,15.89-22.58-.58-30.85Z"/>
                <path class="cls-3" d="m79.23,238.18c-16.37-8.22-42.65-7.81-58.69.9-16.05,8.71-15.79,22.44.58,30.65,16.37,8.21,42.65,7.81,58.69-.9,16.05-8.71,15.79-22.44-.58-30.65Z"/>
                <path class="cls-61" d="m79.05,238.28c-16.26-8.16-42.38-7.76-58.32.9-15.95,8.66-15.69,22.3.57,30.46,16.26,8.16,42.38,7.76,58.32-.9,15.95-8.66,15.69-22.3-.58-30.46Z"/>
                <path class="cls-61" d="m78.86,238.38c-16.16-8.11-42.11-7.71-57.95.89-15.85,8.6-15.59,22.15.57,30.27,16.16,8.11,42.11,7.71,57.95-.89,15.85-8.6,15.59-22.16-.57-30.27Z"/>
              </g>
              <g>
                <path class="cls-26" d="m82.46,247.32c-2.05-3.33-5.33-6.46-9.94-9.12-16.59-9.58-43.49-9.58-60.08,0-4.61,2.66-7.9,5.8-9.94,9.12H0v8.75h.04c.23,6.1,4.34,12.16,12.4,16.81,16.59,9.58,43.49,9.58,60.08,0,8.06-4.65,12.17-10.71,12.4-16.81h.04v-8.75h-2.5Z"/>
                <path class="cls-39" d="m12.44,229.97c-16.59,9.58-16.59,25.11,0,34.69,16.59,9.58,43.49,9.58,60.08,0,16.59-9.58,16.59-25.11,0-34.69-16.59-9.58-43.49-9.58-60.08,0Z"/>
              </g>
              <path class="cls-33" d="m55.13,257.84v-.03c3.97-.28,8.02-1.37,11.27-3.25,6.77-3.91,7.5-9.71,1.64-12.95-4.61-2.56-11.94-2.77-18.15-.83,3.29-3.55,2.77-7.69-1.84-10.25-5.86-3.25-16.1-2.71-22.86,1.2-4.25,2.46-6.12,5.66-5.47,8.5l.37,17.79,31.96-.16c.83.03,1.67.03,2.52-.01h.57Z"/>
            </g>
            <g>
              <g class="cls-70">
                <path class="cls-23" d="m881.08,585.89c-18.33-9.2-47.76-8.75-65.74,1.01-17.97,9.76-17.68,25.13.65,34.33,18.33,9.2,47.76,8.75,65.74-1.01,17.97-9.76,17.68-25.13-.65-34.33Z"/>
                <path class="cls-29" d="m880.9,585.99c-18.23-9.15-47.49-8.7-65.37,1.01-17.87,9.71-17.58,24.99.64,34.14,18.23,9.15,47.49,8.7,65.37-1.01,17.87-9.7,17.58-24.99-.64-34.14Z"/>
                <path class="cls-49" d="m880.71,586.09c-18.13-9.1-47.22-8.65-65,1-17.77,9.65-17.48,24.85.64,33.94,18.13,9.1,47.22,8.65,65-1,17.77-9.65,17.48-24.85-.64-33.94Z"/>
                <path class="cls-49" d="m880.53,586.19c-18.02-9.05-46.96-8.6-64.63,1-17.67,9.6-17.38,24.71.64,33.75,18.02,9.04,46.96,8.6,64.63-1,17.67-9.59,17.38-24.71-.64-33.75Z"/>
                <path class="cls-59" d="m880.34,586.29c-17.92-8.99-46.69-8.55-64.25.99-17.57,9.54-17.28,24.56.63,33.56,17.92,8.99,46.69,8.55,64.26-.99,17.57-9.54,17.28-24.56-.63-33.56Z"/>
                <path class="cls-65" d="m880.16,586.38c-17.81-8.94-46.42-8.5-63.88.98-17.47,9.49-17.19,24.42.63,33.36,17.82,8.94,46.42,8.5,63.88-.98,17.47-9.48,17.19-24.42-.63-33.36Z"/>
                <path class="cls-51" d="m879.98,586.48c-17.71-8.89-46.15-8.45-63.51.98-17.37,9.43-17.09,24.28.63,33.17,17.71,8.89,46.15,8.45,63.51-.98,17.36-9.43,17.09-24.28-.63-33.17Z"/>
                <path class="cls-51" d="m879.79,586.58c-17.61-8.84-45.88-8.4-63.14.97-17.26,9.38-16.99,24.14.62,32.98,17.61,8.84,45.88,8.4,63.14-.97,17.26-9.37,16.99-24.14-.62-32.98Z"/>
                <path class="cls-34" d="m879.61,586.68c-17.5-8.79-45.61-8.35-62.77.97-17.16,9.32-16.89,24,.62,32.78,17.51,8.78,45.61,8.35,62.77-.97,17.16-9.32,16.89-24-.62-32.78Z"/>
                <path class="cls-34" d="m879.43,586.78c-17.4-8.73-45.34-8.3-62.4.96-17.06,9.27-16.79,23.86.61,32.59,17.4,8.73,45.34,8.3,62.4-.96,17.06-9.26,16.79-23.86-.62-32.59Z"/>
                <path class="cls-50" d="m879.24,586.88c-17.3-8.68-45.07-8.25-62.03.96-16.96,9.21-16.69,23.71.61,32.4,17.3,8.68,45.07,8.25,62.03-.96,16.96-9.21,16.69-23.71-.61-32.4Z"/>
                <path class="cls-16" d="m879.06,586.98c-17.19-8.63-44.8-8.21-61.66.95-16.86,9.16-16.59,23.57.61,32.2,17.2,8.63,44.8,8.2,61.66-.95,16.86-9.15,16.59-23.57-.61-32.2Z"/>
                <path class="cls-63" d="m878.88,587.08c-17.09-8.58-44.53-8.16-61.29.94-16.76,9.1-16.49,23.43.6,32.01,17.09,8.58,44.53,8.15,61.29-.94,16.76-9.1,16.49-23.43-.6-32.01Z"/>
                <path class="cls-63" d="m878.69,587.18c-16.99-8.53-44.26-8.11-60.92.94-16.66,9.04-16.39,23.29.6,31.81,16.99,8.53,44.26,8.11,60.92-.94,16.66-9.04,16.39-23.29-.6-31.81Z"/>
                <path class="cls-66" d="m878.51,587.28c-16.88-8.47-43.99-8.06-60.55.93-16.55,8.99-16.29,23.15.6,31.62,16.89,8.47,43.99,8.06,60.55-.93,16.55-8.99,16.29-23.15-.6-31.62Z"/>
                <path class="cls-66" d="m878.33,587.38c-16.78-8.42-43.72-8.01-60.18.93-16.45,8.93-16.19,23.01.59,31.43,16.78,8.42,43.72,8.01,60.18-.93,16.45-8.93,16.19-23.01-.59-31.43Z"/>
                <path class="cls-31" d="m878.14,587.48c-16.68-8.37-43.45-7.96-59.81.92-16.35,8.88-16.09,22.86.59,31.23,16.68,8.37,43.45,7.96,59.81-.92,16.35-8.88,16.09-22.86-.59-31.23Z"/>
                <path class="cls-19" d="m877.96,587.58c-16.57-8.32-43.18-7.91-59.43.92-16.25,8.82-15.99,22.72.59,31.04,16.58,8.32,43.18,7.91,59.44-.92,16.25-8.82,15.99-22.72-.59-31.04Z"/>
                <path class="cls-3" d="m877.77,587.68c-16.47-8.27-42.91-7.86-59.06.91-16.15,8.77-15.89,22.58.58,30.85,16.47,8.27,42.92,7.86,59.07-.91,16.15-8.77,15.89-22.58-.58-30.85Z"/>
                <path class="cls-3" d="m877.59,587.78c-16.37-8.22-42.65-7.81-58.69.9-16.05,8.71-15.79,22.44.58,30.65,16.37,8.21,42.65,7.81,58.69-.9,16.05-8.71,15.79-22.44-.58-30.65Z"/>
                <path class="cls-61" d="m877.41,587.88c-16.26-8.16-42.38-7.76-58.32.9-15.95,8.66-15.69,22.3.57,30.46,16.27,8.16,42.38,7.76,58.32-.9,15.95-8.66,15.69-22.3-.58-30.46Z"/>
                <path class="cls-61" d="m877.22,587.98c-16.16-8.11-42.11-7.71-57.95.89s-15.59,22.16.57,30.27c16.16,8.11,42.11,7.71,57.95-.89,15.85-8.6,15.59-22.16-.57-30.27Z"/>
              </g>
              <g>
                <path class="cls-24" d="m880.82,596.91c-2.05-3.33-5.33-6.46-9.95-9.12-16.59-9.58-43.49-9.58-60.08,0-4.61,2.66-7.9,5.8-9.94,9.12h-2.5v8.75h.04c.23,6.1,4.34,12.16,12.4,16.81,16.59,9.58,43.49,9.58,60.08,0,8.06-4.65,12.17-10.71,12.4-16.81h.04v-8.75h-2.5Z"/>
                <path class="cls-32" d="m810.8,579.57c-16.59,9.58-16.59,25.11,0,34.69,16.59,9.58,43.49,9.58,60.08,0,16.59-9.58,16.59-25.11,0-34.69-16.59-9.58-43.49-9.58-60.08,0Z"/>
              </g>
              <path class="cls-33" d="m853.49,607.43v-.03c3.97-.28,8.02-1.37,11.27-3.25,6.77-3.91,7.5-9.71,1.64-12.96-4.62-2.56-11.94-2.77-18.15-.83,3.29-3.55,2.77-7.69-1.84-10.25-5.86-3.25-16.1-2.71-22.86,1.2-4.25,2.46-6.12,5.66-5.47,8.5l.37,17.79,31.95-.16c.83.03,1.67.03,2.52-.01h.57Z"/>
            </g>
            <g>
              <g class="cls-70">
                <path class="cls-23" d="m238.79,614.52c-18.33-9.2-47.76-8.75-65.74,1.01-17.97,9.76-17.68,25.13.65,34.33,18.33,9.2,47.76,8.75,65.74-1.01,17.97-9.76,17.68-25.13-.65-34.33Z"/>
                <path class="cls-29" d="m238.61,614.62c-18.23-9.15-47.49-8.7-65.37,1.01-17.87,9.71-17.58,24.99.64,34.14,18.23,9.15,47.49,8.7,65.37-1.01,17.87-9.7,17.58-24.99-.65-34.14Z"/>
                <path class="cls-49" d="m238.43,614.72c-18.12-9.1-47.22-8.65-65,1-17.77,9.65-17.48,24.85.64,33.94,18.13,9.1,47.22,8.65,65-1,17.77-9.65,17.48-24.85-.64-33.94Z"/>
                <path class="cls-49" d="m238.24,614.82c-18.02-9.05-46.96-8.6-64.62,1-17.67,9.6-17.38,24.71.64,33.75,18.02,9.04,46.96,8.6,64.63-1,17.67-9.59,17.38-24.71-.64-33.75Z"/>
                <path class="cls-59" d="m238.06,614.92c-17.92-8.99-46.69-8.55-64.25.99-17.57,9.54-17.28,24.56.63,33.56,17.92,8.99,46.69,8.55,64.26-.99,17.57-9.54,17.28-24.56-.63-33.56Z"/>
                <path class="cls-65" d="m237.87,615.02c-17.81-8.94-46.42-8.5-63.88.98-17.47,9.49-17.18,24.42.63,33.36,17.82,8.94,46.42,8.5,63.88-.99,17.47-9.48,17.18-24.42-.63-33.36Z"/>
                <path class="cls-51" d="m237.69,615.12c-17.71-8.89-46.15-8.45-63.51.98-17.37,9.43-17.09,24.28.63,33.17,17.71,8.89,46.15,8.45,63.51-.98,17.37-9.43,17.09-24.28-.63-33.17Z"/>
                <path class="cls-51" d="m237.51,615.22c-17.61-8.84-45.88-8.4-63.14.97-17.26,9.38-16.99,24.14.62,32.98,17.61,8.84,45.88,8.4,63.14-.97,17.26-9.37,16.99-24.14-.62-32.98Z"/>
                <path class="cls-34" d="m237.32,615.32c-17.5-8.79-45.61-8.35-62.77.97-17.16,9.32-16.89,24,.62,32.78,17.51,8.79,45.61,8.35,62.77-.97,17.16-9.32,16.89-24-.62-32.78Z"/>
                <path class="cls-34" d="m237.14,615.42c-17.4-8.73-45.34-8.3-62.4.96-17.06,9.27-16.79,23.86.61,32.59,17.4,8.73,45.34,8.3,62.4-.96,17.06-9.26,16.79-23.86-.62-32.59Z"/>
                <path class="cls-50" d="m236.96,615.52c-17.3-8.68-45.07-8.25-62.03.96-16.96,9.21-16.69,23.71.61,32.4,17.3,8.68,45.07,8.25,62.03-.96,16.96-9.21,16.69-23.71-.61-32.4Z"/>
                <path class="cls-16" d="m236.77,615.62c-17.19-8.63-44.8-8.2-61.66.95-16.86,9.16-16.59,23.57.61,32.2,17.2,8.63,44.8,8.2,61.66-.95,16.86-9.15,16.59-23.57-.61-32.2Z"/>
                <path class="cls-63" d="m236.59,615.72c-17.09-8.58-44.53-8.16-61.29.94-16.76,9.1-16.49,23.43.6,32.01,17.09,8.58,44.53,8.15,61.29-.95,16.76-9.1,16.49-23.43-.61-32.01Z"/>
                <path class="cls-63" d="m236.41,615.82c-16.99-8.53-44.26-8.11-60.92.94-16.66,9.04-16.39,23.29.6,31.82,16.99,8.53,44.26,8.1,60.92-.94,16.66-9.04,16.39-23.29-.6-31.81Z"/>
                <path class="cls-66" d="m236.22,615.92c-16.88-8.47-43.99-8.06-60.55.93-16.55,8.99-16.29,23.15.6,31.62,16.89,8.47,43.99,8.06,60.55-.93,16.55-8.99,16.29-23.15-.6-31.62Z"/>
                <path class="cls-66" d="m236.04,616.02c-16.78-8.42-43.72-8.01-60.18.93-16.45,8.93-16.19,23.01.59,31.43,16.78,8.42,43.72,8.01,60.18-.93,16.45-8.93,16.19-23.01-.59-31.43Z"/>
                <path class="cls-31" d="m235.86,616.12c-16.68-8.37-43.45-7.96-59.81.92-16.35,8.88-16.09,22.86.59,31.23,16.68,8.37,43.45,7.96,59.81-.92,16.35-8.88,16.09-22.86-.59-31.23Z"/>
                <path class="cls-19" d="m235.67,616.22c-16.57-8.32-43.18-7.91-59.43.92-16.25,8.82-15.99,22.72.59,31.04,16.58,8.32,43.18,7.91,59.44-.92,16.25-8.82,15.99-22.72-.59-31.04Z"/>
                <path class="cls-3" d="m235.49,616.32c-16.47-8.27-42.92-7.86-59.06.91-16.15,8.77-15.89,22.58.58,30.85,16.47,8.27,42.92,7.86,59.07-.91,16.15-8.77,15.89-22.58-.58-30.85Z"/>
                <path class="cls-3" d="m235.31,616.41c-16.37-8.22-42.65-7.81-58.69.9-16.05,8.71-15.79,22.44.58,30.65,16.37,8.21,42.65,7.81,58.69-.9,16.05-8.71,15.79-22.44-.58-30.65Z"/>
                <path class="cls-61" d="m235.12,616.51c-16.26-8.16-42.38-7.76-58.32.9-15.95,8.66-15.69,22.3.57,30.46,16.27,8.16,42.38,7.76,58.32-.9,15.95-8.66,15.69-22.3-.58-30.46Z"/>
                <path class="cls-61" d="m234.94,616.61c-16.16-8.11-42.11-7.71-57.95.89-15.84,8.6-15.59,22.16.57,30.27,16.16,8.11,42.11,7.71,57.95-.89,15.84-8.6,15.59-22.16-.57-30.27Z"/>
              </g>
              <g>
                <path class="cls-2" d="m238.54,625.55c-2.05-3.33-5.33-6.46-9.95-9.12-16.59-9.58-43.49-9.58-60.08,0-4.61,2.66-7.9,5.8-9.94,9.12h-2.5v8.75h.04c.23,6.1,4.34,12.16,12.4,16.81,16.59,9.58,43.49,9.58,60.08,0,8.06-4.65,12.17-10.71,12.4-16.81h.04v-8.75h-2.5Z"/>
                <path class="cls-60" d="m168.52,608.2c-16.59,9.58-16.59,25.11,0,34.69,16.59,9.58,43.49,9.58,60.08,0,16.59-9.58,16.59-25.11,0-34.69-16.59-9.58-43.49-9.58-60.08,0Z"/>
              </g>
              <path class="cls-33" d="m211.21,636.07v-.03c3.97-.28,8.02-1.37,11.27-3.25,6.77-3.91,7.5-9.71,1.64-12.96-4.61-2.56-11.94-2.77-18.15-.83,3.29-3.55,2.77-7.69-1.84-10.25-5.86-3.25-16.09-2.71-22.86,1.2-4.25,2.46-6.12,5.66-5.47,8.5l.37,17.79,31.96-.16c.83.03,1.67.03,2.52-.01h.57Z"/>
            </g>
            <g>
              <g>
                <path class="cls-4" d="m72.51,645.96c2.05-3.33,5.33-6.46,9.94-9.12,16.59-9.58,43.49-9.58,60.08,0,4.61,2.66,7.9,5.8,9.94,9.12h2.5v8.75h-.04c-.23,6.1-4.34,12.16-12.4,16.81-16.59,9.58-43.49,9.58-60.08,0-8.06-4.65-12.17-10.71-12.4-16.81h-.04v-8.75h2.5Z"/>
                <path class="cls-30" d="m142.53,628.62c16.59,9.58,16.59,25.11,0,34.69-16.59,9.58-43.49,9.58-60.08,0-16.59-9.58-16.59-25.11,0-34.69,16.59-9.58,43.49-9.58,60.08,0Z"/>
              </g>
              <path class="cls-33" d="m99.84,656.49v-.03c-3.97-.28-8.02-1.37-11.27-3.25-6.77-3.91-7.5-9.71-1.64-12.96,4.61-2.56,11.94-2.77,18.15-.83-3.29-3.55-2.77-7.69,1.84-10.25,5.86-3.25,16.1-2.71,22.86,1.2,4.25,2.46,6.12,5.66,5.47,8.5l-.37,17.79-31.96-.16c-.83.03-1.67.03-2.52-.01h-.57Z"/>
            </g>
            <g>
              <g class="cls-70">
                <path class="cls-23" d="m147.24,227.39c-16.42-12.29-45.48-17.02-64.89-10.58s-21.83,21.62-5.41,33.91c16.43,12.28,45.48,17.02,64.89,10.58,19.41-6.44,21.83-21.62,5.41-33.91Z"/>
                <path class="cls-29" d="m147.04,227.46c-16.33-12.22-45.22-16.93-64.52-10.52-19.3,6.41-21.71,21.5-5.38,33.72,16.33,12.22,45.22,16.93,64.52,10.52,19.3-6.41,21.71-21.5,5.38-33.72Z"/>
                <path class="cls-49" d="m146.84,227.52c-16.24-12.15-44.96-16.83-64.16-10.46-19.19,6.37-21.59,21.38-5.35,33.53,16.24,12.15,44.96,16.83,64.16,10.46,19.19-6.37,21.59-21.38,5.35-33.53Z"/>
                <path class="cls-49" d="m146.64,227.59c-16.15-12.08-44.71-16.74-63.79-10.4-19.08,6.33-21.46,21.26-5.32,33.34,16.15,12.08,44.71,16.73,63.79,10.4,19.08-6.33,21.46-21.26,5.32-33.34Z"/>
                <path class="cls-59" d="m146.45,227.65c-16.05-12.01-44.45-16.64-63.42-10.34-18.97,6.3-21.34,21.14-5.29,33.14,16.05,12.01,44.45,16.64,63.42,10.34,18.97-6.3,21.34-21.14,5.29-33.14Z"/>
                <path class="cls-65" d="m146.25,227.72c-15.96-11.94-44.19-16.54-63.06-10.28-18.86,6.26-21.22,21.01-5.26,32.95,15.96,11.94,44.19,16.54,63.06,10.28,18.86-6.26,21.22-21.01,5.26-32.95Z"/>
                <path class="cls-51" d="m146.05,227.79c-15.87-11.87-43.94-16.45-62.69-10.22-18.75,6.22-21.09,20.89-5.23,32.76,15.87,11.87,43.94,16.45,62.69,10.22,18.75-6.22,21.09-20.89,5.23-32.76Z"/>
                <path class="cls-51" d="m145.85,227.85c-15.78-11.8-43.68-16.35-62.33-10.16-18.65,6.19-20.97,20.77-5.2,32.57,15.78,11.8,43.68,16.35,62.33,10.16,18.64-6.19,20.97-20.77,5.19-32.57Z"/>
                <path class="cls-34" d="m145.65,227.92c-15.68-11.73-43.42-16.26-61.96-10.1-18.54,6.15-20.85,20.65-5.17,32.38,15.68,11.73,43.42,16.25,61.96,10.1,18.54-6.15,20.85-20.65,5.16-32.38Z"/>
                <path class="cls-34" d="m145.45,227.98c-15.59-11.66-43.17-16.16-61.59-10.04-18.43,6.11-20.73,20.53-5.14,32.19,15.59,11.66,43.17,16.16,61.6,10.04,18.43-6.11,20.73-20.53,5.13-32.19Z"/>
                <path class="cls-50" d="m145.26,228.05c-15.5-11.59-42.91-16.06-61.23-9.98-18.32,6.08-20.6,20.4-5.1,32,15.5,11.59,42.91,16.06,61.23,9.98,18.32-6.08,20.6-20.4,5.1-32Z"/>
                <path class="cls-16" d="m145.06,228.11c-15.41-11.52-42.65-15.97-60.86-9.93-18.21,6.04-20.48,20.28-5.07,31.81,15.41,11.52,42.66,15.97,60.86,9.93,18.21-6.04,20.48-20.28,5.07-31.81Z"/>
                <path class="cls-63" d="m144.86,228.18c-15.31-11.45-42.4-15.87-60.5-9.87-18.1,6.01-20.36,20.16-5.04,31.61,15.31,11.45,42.4,15.87,60.5,9.87,18.1-6.01,20.36-20.16,5.04-31.61Z"/>
                <path class="cls-63" d="m144.66,228.25c-15.22-11.38-42.14-15.78-60.13-9.81-17.99,5.97-20.23,20.04-5.01,31.42,15.22,11.38,42.14,15.77,60.13,9.81,17.99-5.97,20.23-20.04,5.01-31.42Z"/>
                <path class="cls-66" d="m144.46,228.31c-15.13-11.32-41.89-15.68-59.76-9.75-17.88,5.93-20.11,19.92-4.98,31.23,15.13,11.32,41.89,15.68,59.77,9.75,17.88-5.93,20.11-19.92,4.98-31.23Z"/>
                <path class="cls-66" d="m144.26,228.38c-15.03-11.25-41.63-15.58-59.4-9.69-17.77,5.9-19.99,19.79-4.95,31.04,15.04,11.25,41.63,15.58,59.4,9.69,17.77-5.9,19.99-19.79,4.95-31.04Z"/>
                <path class="cls-31" d="m144.07,228.44c-14.94-11.18-41.37-15.49-59.03-9.63-17.66,5.86-19.86,19.67-4.92,30.85,14.94,11.18,41.37,15.49,59.03,9.63,17.66-5.86,19.86-19.67,4.92-30.85Z"/>
                <path class="cls-19" d="m143.87,228.51c-14.85-11.11-41.12-15.39-58.67-9.57-17.55,5.82-19.74,19.55-4.89,30.66,14.85,11.11,41.12,15.39,58.67,9.57,17.55-5.82,19.74-19.55,4.89-30.66Z"/>
                <path class="cls-3" d="m143.67,228.58c-14.76-11.04-40.86-15.3-58.3-9.51-17.44,5.79-19.62,19.43-4.86,30.47,14.76,11.04,40.86,15.29,58.3,9.51,17.44-5.79,19.62-19.43,4.86-30.47Z"/>
                <path class="cls-3" d="m143.47,228.64c-14.66-10.97-40.6-15.2-57.93-9.45-17.33,5.75-19.49,19.31-4.83,30.28,14.67,10.97,40.6,15.2,57.94,9.45,17.33-5.75,19.49-19.31,4.83-30.28Z"/>
                <path class="cls-61" d="m143.27,228.71c-14.57-10.9-40.35-15.1-57.57-9.39-17.22,5.72-19.37,19.18-4.8,30.08,14.57,10.9,40.35,15.1,57.57,9.39,17.22-5.72,19.37-19.18,4.8-30.08Z"/>
                <path class="cls-61" d="m143.08,228.77c-14.48-10.83-40.09-15.01-57.2-9.33-17.11,5.68-19.25,19.06-4.77,29.89,14.48,10.83,40.09,15.01,57.2,9.33,17.11-5.68,19.25-19.06,4.77-29.89Z"/>
              </g>
              <g>
                <g>
                  <path class="cls-15" d="m65.38,228.42c2.27-3.18,5.75-6.09,10.54-8.44,17.2-8.44,44.03-6.63,59.94,4.04,4.42,2.97,7.49,6.31,9.31,9.77l2.49.17-.59,8.73h-.04c-.64,6.07-5.15,11.83-13.5,15.93-17.2,8.44-44.03,6.63-59.94-4.04-7.73-5.18-11.42-11.51-11.24-17.6h-.04s.59-8.73.59-8.73l2.49.17Z"/>
                  <path class="cls-6" d="m136.41,215.82c15.91,10.67,14.86,26.17-2.33,34.61-17.2,8.44-44.03,6.63-59.94-4.04-15.91-10.67-14.86-26.17,2.33-34.61,17.2-8.44,44.03-6.63,59.94,4.04Z"/>
                </g>
                <path class="cls-33" d="m91.94,240.75v-.03c-3.94-.54-7.91-1.91-11.02-4-6.49-4.35-6.83-10.19-.77-13.04,4.78-2.24,12.1-1.96,18.17.39-3.05-3.77-2.25-7.86,2.53-10.1,6.06-2.85,16.24-1.62,22.73,2.73,4.08,2.74,5.73,6.06,4.89,8.85l-1.57,17.72-31.87-2.31c-.83-.02-1.67-.08-2.51-.18l-.57-.04Z"/>
              </g>
            </g>
            <g>
              <g class="cls-70">
                <path class="cls-23" d="m206.79,645.58c-16.19-12.59-45.15-17.86-64.68-11.78-19.53,6.08-22.23,21.22-6.03,33.8,16.2,12.59,45.15,17.86,64.68,11.78,19.53-6.08,22.23-21.22,6.03-33.8Z"/>
                <path class="cls-29" d="m206.59,645.64c-16.1-12.52-44.9-17.76-64.32-11.71-19.42,6.05-22.1,21.1-6,33.61,16.1,12.51,44.9,17.76,64.32,11.71,19.42-6.05,22.1-21.1,6-33.61Z"/>
                <path class="cls-49" d="m206.39,645.71c-16.01-12.44-44.65-17.66-63.95-11.64-19.31,6.01-21.98,20.98-5.97,33.42,16.01,12.44,44.64,17.66,63.95,11.64,19.31-6.01,21.98-20.98,5.97-33.42Z"/>
                <path class="cls-49" d="m206.19,645.77c-15.92-12.37-44.39-17.56-63.59-11.58-19.2,5.98-21.85,20.86-5.93,33.23,15.92,12.37,44.39,17.56,63.59,11.58,19.2-5.98,21.85-20.86,5.93-33.23Z"/>
                <path class="cls-59" d="m205.99,645.83c-15.83-12.3-44.14-17.46-63.22-11.51-19.09,5.95-21.73,20.74-5.9,33.04,15.83,12.3,44.14,17.46,63.22,11.51,19.09-5.94,21.73-20.74,5.9-33.04Z"/>
                <path class="cls-65" d="m205.79,645.89c-15.74-12.23-43.88-17.36-62.86-11.45-18.98,5.91-21.6,20.62-5.86,32.85,15.74,12.23,43.88,17.35,62.86,11.45,18.98-5.91,21.6-20.62,5.86-32.85Z"/>
                <path class="cls-51" d="m205.59,645.95c-15.65-12.16-43.63-17.26-62.49-11.38-18.87,5.88-21.48,20.5-5.83,32.66,15.65,12.16,43.63,17.25,62.49,11.38,18.87-5.88,21.48-20.5,5.83-32.66Z"/>
                <path class="cls-51" d="m205.39,646.02c-15.56-12.09-43.37-17.15-62.13-11.31-18.76,5.84-21.35,20.38-5.8,32.47,15.56,12.09,43.37,17.15,62.13,11.31,18.76-5.84,21.35-20.38,5.79-32.47Z"/>
                <path class="cls-34" d="m205.19,646.08c-15.46-12.02-43.12-17.05-61.76-11.25-18.65,5.81-21.23,20.26-5.76,32.28,15.47,12.02,43.12,17.05,61.76,11.25,18.65-5.81,21.23-20.26,5.76-32.28Z"/>
                <path class="cls-34" d="m204.99,646.14c-15.37-11.95-42.86-16.95-61.4-11.18-18.54,5.77-21.1,20.14-5.73,32.09,15.37,11.95,42.86,16.95,61.4,11.18,18.54-5.77,21.1-20.14,5.73-32.09Z"/>
                <path class="cls-50" d="m204.8,646.2c-15.28-11.88-42.61-16.85-61.03-11.11-18.43,5.74-20.98,20.02-5.69,31.9,15.28,11.88,42.61,16.85,61.03,11.11,18.43-5.74,20.98-20.02,5.69-31.9Z"/>
                <path class="cls-16" d="m204.6,646.27c-15.19-11.81-42.35-16.75-60.67-11.05-18.32,5.71-20.85,19.9-5.66,31.71,15.19,11.81,42.35,16.75,60.67,11.05,18.32-5.71,20.85-19.9,5.66-31.71Z"/>
                <path class="cls-63" d="m204.4,646.33c-15.1-11.74-42.1-16.65-60.3-10.98-18.21,5.67-20.72,19.78-5.63,31.52,15.1,11.73,42.1,16.65,60.31,10.98,18.21-5.67,20.72-19.78,5.62-31.52Z"/>
                <path class="cls-63" d="m204.2,646.39c-15.01-11.66-41.84-16.55-59.94-10.91-18.1,5.64-20.6,19.66-5.59,31.33,15.01,11.66,41.84,16.55,59.94,10.91,18.1-5.64,20.6-19.66,5.59-31.33Z"/>
                <path class="cls-66" d="m204,646.45c-14.92-11.59-41.59-16.45-59.57-10.85-17.99,5.6-20.47,19.54-5.56,31.13,14.92,11.59,41.59,16.45,59.58,10.85,17.99-5.6,20.47-19.54,5.56-31.13Z"/>
                <path class="cls-66" d="m203.8,646.51c-14.82-11.52-41.33-16.35-59.21-10.78-17.88,5.57-20.35,19.42-5.52,30.94,14.83,11.52,41.33,16.35,59.21,10.78,17.88-5.57,20.35-19.42,5.52-30.94Z"/>
                <path class="cls-31" d="m203.6,646.58c-14.73-11.45-41.08-16.25-58.84-10.71-17.77,5.53-20.22,19.3-5.49,30.75,14.73,11.45,41.08,16.25,58.85,10.71,17.76-5.53,20.22-19.3,5.49-30.75Z"/>
                <path class="cls-19" d="m203.4,646.64c-14.64-11.38-40.83-16.15-58.48-10.65-17.65,5.5-20.1,19.18-5.46,30.56,14.64,11.38,40.83,16.15,58.48,10.65,17.65-5.5,20.1-19.18,5.45-30.56Z"/>
                <path class="cls-3" d="m203.2,646.7c-14.55-11.31-40.57-16.05-58.12-10.58-17.54,5.47-19.97,19.06-5.42,30.37,14.55,11.31,40.57,16.05,58.12,10.58,17.54-5.47,19.97-19.06,5.42-30.37Z"/>
                <path class="cls-3" d="m203,646.76c-14.46-11.24-40.32-15.95-57.75-10.52-17.43,5.43-19.85,18.94-5.39,30.18,14.46,11.24,40.32,15.95,57.75,10.52,17.43-5.43,19.85-18.94,5.39-30.18Z"/>
                <path class="cls-61" d="m202.8,646.82c-14.37-11.17-40.06-15.85-57.39-10.45-17.32,5.4-19.72,18.82-5.35,29.99,14.37,11.17,40.06,15.84,57.39,10.45,17.32-5.4,19.72-18.82,5.35-29.99Z"/>
                <path class="cls-61" d="m202.6,646.89c-14.28-11.1-39.81-15.75-57.02-10.38-17.21,5.36-19.6,18.7-5.32,29.8,14.28,11.1,39.81,15.74,57.02,10.38,17.21-5.36,19.6-18.7,5.32-29.8Z"/>
              </g>
              <g>
                <path class="cls-27" d="m204.4,656.35c-1.36-3.66-3.97-7.37-7.98-10.88-14.41-12.62-40.8-17.84-58.93-11.67-5.04,1.72-8.87,4.15-11.53,7.02l-2.45-.49-1.7,8.58h.04c-.96,6.04,1.89,12.78,8.9,18.91,14.41,12.62,40.8,17.84,58.93,11.67,8.81-3,14.02-8.14,15.43-14.08h.04s1.7-8.58,1.7-8.58l-2.45-.49Z"/>
                <path class="cls-36" d="m139.08,625.73c-18.13,6.17-21.15,21.41-6.74,34.02,14.41,12.62,40.8,17.84,58.93,11.67,18.13-6.17,21.15-21.41,6.74-34.02-14.41-12.62-40.8-17.84-58.93-11.67Z"/>
              </g>
              <path class="cls-33" d="m175.54,661.36v-.03c3.95.5,8.14.21,11.69-1,7.4-2.52,9.25-8.07,4.13-12.39-4.03-3.41-11.18-5.03-17.65-4.34,3.92-2.84,4.21-7.01.18-10.41-5.12-4.32-15.26-5.79-22.66-3.27-4.65,1.58-7.1,4.36-7.02,7.28l-3.09,17.52,31.38,6.05c.81.19,1.63.35,2.47.48l.56.11Z"/>
            </g>
          </g>
          <path class="cls-23" d="m834.58,486.89c-.7.39,2.67-3.27-1.16-4.07-1.57-.33-3.52,1.12-3.52,1.12,0,0-.82-1.56-2.66-.53-1.04.58-4.05,3.42-5.43,4.38l1.2-10.89,15.92-.72-16.64-14.97-3.42-18.68-12.09,7.15-18.04-10.82,6.75,14.27c-2.21.27-5.28.85-7.04,1.76-.87.45-1.56,1.08-1.87.77,0,0,4.02-1.88,3.72-2.38-.62-1.03-8.2-.07-7.86,2.56.16,1.23-.76,3.04-1.38,3.48-4.73,3.38-80.29,9.26-86.63,18.28-.06.08-.09.16-.14.24-1.69,0-3.4.04-5.14.13-11.81.66-30.65,2.36-43.87,5.67-2.38.6-2.71,1.83-1.28,2.89h0c.13.1.29.2.45.29,0,0,.02,0,.02.01.15.09.32.17.5.25.03.01.05.03.08.04.16.07.34.15.53.21.04.02.08.04.13.05.09.03.19.06.29.1.18.22.4.45.72.67,1.76,1.23,6.72,3.24,12.61,5.45-16.37,11.8-34.67,50.65-34.67,50.65.86,1.86,4.82,3.09,10.15,3.8-.02.03-.03.06-.05.09-.02.03-.03.06-.05.09-.14.25-.28.5-.42.76-.03.04-.05.09-.07.13-2.74,4.9-5.93,10.44-6.46,12.74-22.11,7.41-39.75,23.67-44.58,26.13.21.2.45.38.71.56-3,2.01-7.36,4.93-9.21,6.09-2.74.74-6.33,2.43-6.98,3.43-1.25.74-2.04,1.38-1.84,1.69.35.54,1.35.93,2.41,1.27,8.84,2.83,34.46-1.46,38.87-2.23,4.01-.7,17.25-3.61,12.61-5.46-.85-.34-2.38-.57-4.38-.71-3.79-.6-10.38-.94-16.76-.59-1.17.06-2.81.19-4.7.35,1.27-.59,2.6-1.18,3.89-1.74,3.16-.17,5.53-.52,5.53-.52,0,0,13.32-6.45,26.85-13.16-.04.03-.07.05-.07.05,0,0,1.67-.83,4.19-2.09,8.89-4.43,17.29-8.69,21.43-11,.67-.37,1.24-.69,1.69-.95.24-.13.46-.27.67-.41.14-.09.25-.17.33-.23,1.83-1.42,6.74-5.67,12-10.93,7.44,5,18.21,9.87,23.12,12.43-8.13,5.86-16.74,20.74-25.66,28.2,1.04.21,2.09.39,3.13.54-1.42,1.8-3.25,4.06-4.47,5.28-2.55.81-5.5,2.25-6.08,3.14-1.22.73-2,1.36-1.81,1.66.34.53,1.32.91,2.37,1.25,8.69,2.78,18.31,8.19,40.1,1.38,3.84-1.2,11.58-6.6,11.86-8.37.78-4.97-4.06-6.19-10.79-6.15-2.62-.08-8.57,4.15-11.37,4.3-1.48.08-3.73.26-6.26.49,1.15-.99,2.27-1.98,3.16-2.8,1.58-.16,2.52-.3,2.52-.3,0,0,30.2-23.32,35.42-31.31.31-.47.49-.89.57-1.27.13-.27.2-.53.18-.79-.35-5.09-5.18-15.13-13.52-22.59-.22-.2-.44-.39-.67-.58.02,0,.04,0,.07,0-.25-.16-.48-.33-.67-.51t0,0c-5.68-5.4,25.21-26.52,33.03-33.39,12.24,2.07,32.05,5.16,47.73,5.98,1.75.09,3.17-.09,4.29-.45.1,0,.2.02.3.03,10.3.88,24.99-14.02,30.58-13.35.44.05.98.21,2.02-.48,2.09-1.38,5.93-4.72,7.76-6.6.79-.81-1.4-1.01-2.75-.25Zm-16.31,4.07c-1.84,1.88-14.41,4.76-22.92,8.33-4.86-.85-45.53-7.66-58.84-10.39,0,0,0,0,0,0-2.45-1.34-4.76-2.35-1.33-3.93,3.5,1.29,6.64,1.94,7.68,1.9,1.44-.06,3.73-1.09,5.29-1.42,1.55-.33,4.39-.96,5.1-1.38.7-.42.64-1.16,1.36-1.4.72-.24,1.56-.42,2.52-.67.79-.21,1.96-1.17,2.75-1.89,5.59.37,10.2-3.22,4.64-4.76-1.11-.31-1.3.69-6.65-1.15-.37-.13-.75-.25-1.14-.38,15.42-4.2,28.45-7.77,30.47-8.06,1.08-.16,4.36-.71,7-1.72l-4.01,6.22,17.76,4.83,9.6,13.21c-.13.43-.12.84.12,1.13.53.67,1.15.97.6,1.54Z"/>
        </g>
      </g>
    </g>
  </g>
</svg>