<?xml version="1.0" encoding="UTF-8"?>
<svg xmlns="http://www.w3.org/2000/svg" xmlns:xlink="http://www.w3.org/1999/xlink" viewBox="0 0 837 534.32">
  <defs>
    <style>
      .cls-1 {
        fill: url(#_Безымянный_градиент_64-2);
      }

      .cls-1, .cls-2, .cls-3, .cls-4, .cls-5, .cls-6, .cls-7, .cls-8, .cls-9, .cls-10, .cls-11, .cls-12, .cls-13, .cls-14, .cls-15, .cls-16, .cls-17, .cls-18, .cls-19, .cls-20, .cls-21, .cls-22, .cls-23, .cls-24, .cls-25, .cls-26, .cls-27, .cls-28, .cls-29, .cls-30, .cls-31, .cls-32, .cls-33, .cls-34, .cls-35, .cls-36, .cls-37, .cls-38, .cls-39, .cls-40, .cls-41, .cls-42, .cls-43, .cls-44, .cls-45, .cls-46, .cls-47, .cls-48, .cls-49, .cls-50, .cls-51, .cls-52, .cls-53, .cls-54, .cls-55, .cls-56, .cls-57, .cls-58, .cls-59, .cls-60, .cls-61, .cls-62, .cls-63, .cls-64, .cls-65, .cls-66, .cls-67, .cls-68, .cls-69, .cls-70, .cls-71, .cls-72, .cls-73, .cls-74, .cls-75, .cls-76, .cls-77 {
        stroke-width: 0px;
      }

      .cls-2 {
        fill: url(#_Безымянный_градиент_72);
      }

      .cls-3 {
        fill: #aebc24;
        opacity: .5;
      }

      .cls-3, .cls-13, .cls-78, .cls-75, .cls-77 {
        mix-blend-mode: multiply;
      }

      .cls-4 {
        fill: #e5e8ea;
      }

      .cls-5 {
        fill: url(#_Безымянный_градиент_72-4);
      }

      .cls-6 {
        fill: url(#_Безымянный_градиент_66-3);
      }

      .cls-7 {
        fill: url(#_Безымянный_градиент_67-6);
      }

      .cls-8 {
        fill: url(#_Безымянный_градиент_67-8);
      }

      .cls-9 {
        fill: url(#_Безымянный_градиент_67);
      }

      .cls-10 {
        fill: url(#_Безымянный_градиент_68-2);
      }

      .cls-11 {
        fill: url(#_Безымянный_градиент_68-3);
      }

      .cls-12 {
        fill: #504455;
      }

      .cls-13, .cls-54 {
        fill: #687037;
      }

      .cls-14 {
        fill: url(#_Безымянный_градиент_67-7);
      }

      .cls-15 {
        fill: url(#_Безымянный_градиент_66);
      }

      .cls-16 {
        fill: #6f6d85;
      }

      .cls-17 {
        fill: url(#_Безымянный_градиент_69-2);
      }

      .cls-18 {
        fill: url(#_Безымянный_градиент_65-4);
      }

      .cls-19 {
        fill: url(#_Безымянный_градиент_7-2);
      }

      .cls-79 {
        isolation: isolate;
      }

      .cls-20 {
        fill: #e5e7eb;
      }

      .cls-21 {
        fill: url(#_Безымянный_градиент_7-5);
      }

      .cls-22 {
        fill: url(#_Безымянный_градиент_7-4);
      }

      .cls-23 {
        fill: url(#_Безымянный_градиент_66-4);
      }

      .cls-24 {
        fill: #858889;
      }

      .cls-25 {
        fill: url(#_Безымянный_градиент_65-2);
      }

      .cls-26 {
        fill: url(#_Безымянный_градиент_64);
      }

      .cls-27 {
        fill: url(#_Безымянный_градиент_67-4);
      }

      .cls-28 {
        fill: #6d7477;
      }

      .cls-29 {
        fill: url(#_Безымянный_градиент_71-3);
      }

      .cls-30 {
        fill: url(#_Безымянный_градиент_34-3);
      }

      .cls-31 {
        fill: url(#_Безымянный_градиент_30-2);
      }

      .cls-32 {
        fill: #e99905;
      }

      .cls-33 {
        fill: #cfd3d3;
      }

      .cls-34 {
        fill: #182c3e;
      }

      .cls-35 {
        fill: url(#_Безымянный_градиент_7-3);
      }

      .cls-36 {
        fill: url(#_Безымянный_градиент_30);
      }

      .cls-37 {
        fill: #dfd7e0;
      }

      .cls-38 {
        fill: url(#_Безымянный_градиент_66-2);
      }

      .cls-39 {
        fill: #23313a;
      }

      .cls-40 {
        fill: url(#_Безымянный_градиент_34-4);
      }

      .cls-41 {
        fill: url(#_Безымянный_градиент_63);
      }

      .cls-41, .cls-80 {
        mix-blend-mode: screen;
      }

      .cls-42 {
        fill: #fff;
      }

      .cls-43 {
        fill: #131c34;
      }

      .cls-44 {
        fill: url(#_Безымянный_градиент_72-2);
      }

      .cls-45 {
        fill: url(#_Безымянный_градиент_10);
      }

      .cls-46 {
        fill: url(#_Безымянный_градиент_69);
      }

      .cls-47 {
        fill: url(#_Безымянный_градиент_70);
      }

      .cls-48 {
        fill: url(#_Безымянный_градиент_6);
      }

      .cls-49 {
        fill: url(#_Безымянный_градиент_30-3);
      }

      .cls-50 {
        fill: url(#_Безымянный_градиент_34-5);
      }

      .cls-51 {
        fill: #343d51;
      }

      .cls-52 {
        fill: #313f49;
      }

      .cls-53 {
        fill: #223c43;
      }

      .cls-55 {
        fill: url(#_Безымянный_градиент_65);
      }

      .cls-56 {
        fill: url(#_Безымянный_градиент_67-3);
      }

      .cls-57 {
        fill: url(#_Безымянный_градиент_65-3);
      }

      .cls-58 {
        fill: url(#_Безымянный_градиент_68);
      }

      .cls-59 {
        fill: url(#_Безымянный_градиент_34);
      }

      .cls-60 {
        fill: #f9f9f9;
      }

      .cls-61 {
        fill: #c4b5a5;
      }

      .cls-62 {
        fill: url(#_Безымянный_градиент_66-5);
      }

      .cls-63 {
        fill: url(#_Безымянный_градиент_66-6);
      }

      .cls-64 {
        fill: url(#_Безымянный_градиент_71);
      }

      .cls-65 {
        fill: url(#_Безымянный_градиент_67-2);
      }

      .cls-66 {
        fill: url(#_Безымянный_градиент_67-5);
      }

      .cls-67, .cls-75 {
        fill: #af8b61;
      }

      .cls-68 {
        fill: url(#_Безымянный_градиент_71-2);
      }

      .cls-69 {
        fill: #dee3eb;
      }

      .cls-70 {
        fill: url(#_Безымянный_градиент_35);
      }

      .cls-71 {
        fill: url(#_Безымянный_градиент_72-3);
      }

      .cls-72 {
        fill: #fdfeff;
      }

      .cls-73 {
        fill: url(#_Безымянный_градиент_34-2);
      }

      .cls-74 {
        fill: url(#_Безымянный_градиент_7);
      }

      .cls-76 {
        fill: #ecff0f;
        opacity: .7;
      }

      .cls-77 {
        fill: #868783;
      }
    </style>
    <linearGradient id="_Безымянный_градиент_66" data-name="Безымянный градиент 66" x1="113.92" y1="312.61" x2="673.99" y2="312.61" gradientUnits="userSpaceOnUse">
      <stop offset="0" stop-color="#182c3e"/>
      <stop offset=".99" stop-color="#313f49"/>
    </linearGradient>
    <linearGradient id="_Безымянный_градиент_66-2" data-name="Безымянный градиент 66" x1="113.95" y1="286.17" x2="674.02" y2="286.17" xlink:href="#_Безымянный_градиент_66"/>
    <linearGradient id="_Безымянный_градиент_71" data-name="Безымянный градиент 71" x1="455.31" y1="399.23" x2="664.38" y2="399.23" gradientUnits="userSpaceOnUse">
      <stop offset="0" stop-color="#fff"/>
      <stop offset=".99" stop-color="#9d959e"/>
    </linearGradient>
    <linearGradient id="_Безымянный_градиент_72" data-name="Безымянный градиент 72" x1="163.21" y1="259.39" x2="723.28" y2="259.39" gradientUnits="userSpaceOnUse">
      <stop offset="0" stop-color="#b5c436"/>
      <stop offset="1" stop-color="#b1bb27"/>
    </linearGradient>
    <linearGradient id="_Безымянный_градиент_72-2" data-name="Безымянный градиент 72" x1="163.24" y1="232.94" x2="723.31" y2="232.94" xlink:href="#_Безымянный_градиент_72"/>
    <linearGradient id="_Безымянный_градиент_71-2" data-name="Безымянный градиент 71" x1="504.6" y1="346.01" x2="713.66" y2="346.01" xlink:href="#_Безымянный_градиент_71"/>
    <linearGradient id="_Безымянный_градиент_67" data-name="Безымянный градиент 67" x1="163.22" y1="311.76" x2="502.04" y2="311.76" gradientUnits="userSpaceOnUse">
      <stop offset="0" stop-color="#b1bb27"/>
      <stop offset="1" stop-color="#a76c0b"/>
    </linearGradient>
    <linearGradient id="_Безымянный_градиент_65" data-name="Безымянный градиент 65" x1="157.28" y1="188.18" x2="717.35" y2="188.18" gradientUnits="userSpaceOnUse">
      <stop offset="0" stop-color="#3a516e"/>
      <stop offset=".11" stop-color="#384d67"/>
      <stop offset="1" stop-color="#292e33"/>
    </linearGradient>
    <linearGradient id="_Безымянный_градиент_65-2" data-name="Безымянный градиент 65" x1="157.32" y1="161.73" x2="717.38" y2="161.73" xlink:href="#_Безымянный_градиент_65"/>
    <linearGradient id="_Безымянный_градиент_71-3" data-name="Безымянный градиент 71" x1="498.67" y1="274.8" x2="707.74" y2="274.8" xlink:href="#_Безымянный_градиент_71"/>
    <linearGradient id="_Безымянный_градиент_70" data-name="Безымянный градиент 70" x1="315" y1="265.35" x2="340" y2="212.35" gradientUnits="userSpaceOnUse">
      <stop offset="0" stop-color="#3a516e"/>
      <stop offset="1" stop-color="#192f46"/>
    </linearGradient>
    <linearGradient id="_Безымянный_градиент_34" data-name="Безымянный градиент 34" x1="-1741.36" y1="320.19" x2="-1741.19" y2="333.27" gradientTransform="translate(-1403.3) rotate(-180) scale(1 -1)" gradientUnits="userSpaceOnUse">
      <stop offset="0" stop-color="#fff"/>
      <stop offset=".99" stop-color="#fdfeff"/>
    </linearGradient>
    <linearGradient id="_Безымянный_градиент_34-2" data-name="Безымянный градиент 34" x1="-1788.29" y1="355.91" x2="-1784.1" y2="349.92" xlink:href="#_Безымянный_градиент_34"/>
    <linearGradient id="_Безымянный_градиент_69" data-name="Безымянный градиент 69" x1="371.77" y1="225.77" x2="444.92" y2="225.77" gradientTransform="translate(-1.61)" gradientUnits="userSpaceOnUse">
      <stop offset="0" stop-color="#ffff01"/>
      <stop offset="1" stop-color="#fb654c"/>
    </linearGradient>
    <linearGradient id="_Безымянный_градиент_69-2" data-name="Безымянный градиент 69" x1="336.44" y1="205.37" x2="409.59" y2="205.37" xlink:href="#_Безымянный_градиент_69"/>
    <linearGradient id="_Безымянный_градиент_68" data-name="Безымянный градиент 68" x1="338.91" y1="204.88" x2="408.9" y2="204.88" gradientUnits="userSpaceOnUse">
      <stop offset="0" stop-color="#b1bb27"/>
      <stop offset="1" stop-color="#b5c436"/>
    </linearGradient>
    <linearGradient id="_Безымянный_градиент_68-2" data-name="Безымянный градиент 68" x1="-1276.58" y1="121.17" x2="-1213.5" y2="121.17" gradientTransform="translate(-715) rotate(-180) scale(1 -1)" xlink:href="#_Безымянный_градиент_68"/>
    <linearGradient id="_Безымянный_градиент_67-2" data-name="Безымянный градиент 67" x1="-1276.59" y1="131.06" x2="-1213.5" y2="131.06" gradientTransform="translate(-715) rotate(-180) scale(1 -1)" xlink:href="#_Безымянный_градиент_67"/>
    <linearGradient id="_Безымянный_градиент_68-3" data-name="Безымянный градиент 68" x1="-1277.35" y1="57.59" x2="-1212.73" y2="57.59" gradientTransform="translate(-715) rotate(-180) scale(1 -1)" xlink:href="#_Безымянный_градиент_68"/>
    <linearGradient id="_Безымянный_градиент_67-3" data-name="Безымянный градиент 67" x1="-1277.35" y1="67.48" x2="-1212.75" y2="67.48" gradientTransform="translate(-715) rotate(-180) scale(1 -1)" xlink:href="#_Безымянный_градиент_67"/>
    <linearGradient id="_Безымянный_градиент_66-3" data-name="Безымянный градиент 66" x1="175.52" y1="112.15" x2="268.81" y2="112.15" xlink:href="#_Безымянный_градиент_66"/>
    <linearGradient id="_Безымянный_градиент_66-4" data-name="Безымянный градиент 66" x1="268.75" y1="110.96" x2="360.64" y2="110.96" xlink:href="#_Безымянный_градиент_66"/>
    <linearGradient id="_Безымянный_градиент_67-4" data-name="Безымянный градиент 67" x1="216.93" y1="129.18" x2="268.85" y2="129.18" xlink:href="#_Безымянный_градиент_67"/>
    <linearGradient id="_Безымянный_градиент_67-5" data-name="Безымянный градиент 67" x1="259.67" y1="81.47" x2="276.66" y2="81.47" xlink:href="#_Безымянный_градиент_67"/>
    <linearGradient id="_Безымянный_градиент_67-6" data-name="Безымянный градиент 67" x1="217.49" y1="174.58" x2="225.83" y2="174.58" xlink:href="#_Безымянный_градиент_67"/>
    <linearGradient id="_Безымянный_градиент_72-3" data-name="Безымянный градиент 72" x1="-3204.24" y1="-261.27" x2="-3195.06" y2="-237.71" gradientTransform="translate(-2383.03 1311.7) rotate(164.03) scale(1 -1)" xlink:href="#_Безымянный_градиент_72"/>
    <linearGradient id="_Безымянный_градиент_66-5" data-name="Безымянный градиент 66" x1="606.88" y1="347.62" x2="618.09" y2="347.62" xlink:href="#_Безымянный_градиент_66"/>
    <linearGradient id="_Безымянный_градиент_66-6" data-name="Безымянный градиент 66" x1="535.3" y1="314.29" x2="585.01" y2="314.29" xlink:href="#_Безымянный_градиент_66"/>
    <linearGradient id="_Безымянный_градиент_67-7" data-name="Безымянный градиент 67" x1="-562.21" y1="279.34" x2="-512.73" y2="340.87" gradientTransform="translate(128.44 -195.53) rotate(-166.51) scale(1 -1)" xlink:href="#_Безымянный_градиент_67"/>
    <linearGradient id="_Безымянный_градиент_67-8" data-name="Безымянный градиент 67" x1="537.65" y1="243.18" x2="607.98" y2="243.18" xlink:href="#_Безымянный_градиент_67"/>
    <linearGradient id="_Безымянный_градиент_65-3" data-name="Безымянный градиент 65" x1="611.22" y1="221.45" x2="670.77" y2="221.45" xlink:href="#_Безымянный_градиент_65"/>
    <linearGradient id="_Безымянный_градиент_65-4" data-name="Безымянный градиент 65" x1="-618.67" y1="297.38" x2="-536.93" y2="297.38" gradientTransform="translate(128.44 -195.53) rotate(-166.51) scale(1 -1)" xlink:href="#_Безымянный_градиент_65"/>
    <linearGradient id="_Безымянный_градиент_72-4" data-name="Безымянный градиент 72" x1="597.76" y1="224.2" x2="547.61" y2="232.33" xlink:href="#_Безымянный_градиент_72"/>
    <linearGradient id="_Безымянный_градиент_64" data-name="Безымянный градиент 64" x1="32.05" y1="688.25" x2="32.05" y2="764.6" gradientTransform="translate(61.32 -361.58) scale(1.07 1.06) skewX(.01)" gradientUnits="userSpaceOnUse">
      <stop offset="0" stop-color="#49576d"/>
      <stop offset=".69" stop-color="#bec6cc"/>
      <stop offset="1" stop-color="#edf3f3"/>
    </linearGradient>
    <linearGradient id="_Безымянный_градиент_34-3" data-name="Безымянный градиент 34" x1="92.04" y1="684.81" x2="92.04" y2="758.17" gradientTransform="translate(3.94 -361.89) rotate(-.03) scale(1 1.06) skewX(-.07)" xlink:href="#_Безымянный_градиент_34"/>
    <linearGradient id="_Безымянный_градиент_64-2" data-name="Безымянный градиент 64" x1="13.03" y1="411.32" x2="178.25" y2="411.32" gradientTransform="translate(505.9 311.21) rotate(89.38)" xlink:href="#_Безымянный_градиент_64"/>
    <linearGradient id="_Безымянный_градиент_63" data-name="Безымянный градиент 63" x1="75.23" y1="410.52" x2="171.63" y2="420.15" gradientUnits="userSpaceOnUse">
      <stop offset="0" stop-color="#000"/>
      <stop offset=".1" stop-color="#0e0f0f"/>
      <stop offset=".3" stop-color="#353638"/>
      <stop offset=".58" stop-color="#737579"/>
      <stop offset=".91" stop-color="#c8ccd2"/>
      <stop offset="1" stop-color="#e0e4eb"/>
    </linearGradient>
    <linearGradient id="_Безымянный_градиент_34-4" data-name="Безымянный градиент 34" x1="183.2" y1="460.05" x2="178.31" y2="467.51" gradientTransform="matrix(1,0,0,1,0,0)" xlink:href="#_Безымянный_градиент_34"/>
    <linearGradient id="_Безымянный_градиент_35" data-name="Безымянный градиент 35" x1="232.96" y1="505.51" x2="243.43" y2="489.43" gradientUnits="userSpaceOnUse">
      <stop offset="0" stop-color="#49576d"/>
      <stop offset=".08" stop-color="#59667a"/>
      <stop offset=".4" stop-color="#98a2ad"/>
      <stop offset=".67" stop-color="#c6ced3"/>
      <stop offset=".88" stop-color="#e2e8ea"/>
      <stop offset="1" stop-color="#edf3f3"/>
    </linearGradient>
    <linearGradient id="_Безымянный_градиент_34-5" data-name="Безымянный градиент 34" x1="-3453.36" y1="11635.98" x2="-3451.31" y2="11632.82" gradientTransform="translate(1977.55 12954.22) rotate(150.26) scale(1.36 1)" xlink:href="#_Безымянный_градиент_34"/>
    <linearGradient id="_Безымянный_градиент_7" data-name="Безымянный градиент 7" x1="718.38" y1="404.21" x2="711.71" y2="404.83" gradientUnits="userSpaceOnUse">
      <stop offset="0" stop-color="#49576d"/>
      <stop offset=".65" stop-color="#b5bec5"/>
      <stop offset="1" stop-color="#edf3f3"/>
    </linearGradient>
    <linearGradient id="_Безымянный_градиент_7-2" data-name="Безымянный градиент 7" x1="741.56" y1="422.91" x2="725.3" y2="397.31" xlink:href="#_Безымянный_градиент_7"/>
    <linearGradient id="_Безымянный_градиент_30" data-name="Безымянный градиент 30" x1="730.32" y1="387.83" x2="739" y2="419.94" gradientUnits="userSpaceOnUse">
      <stop offset="0" stop-color="#fff"/>
      <stop offset="1" stop-color="#edf3f3"/>
    </linearGradient>
    <linearGradient id="_Безымянный_градиент_7-3" data-name="Безымянный градиент 7" x1="745.64" y1="420.32" x2="729.38" y2="394.72" xlink:href="#_Безымянный_градиент_7"/>
    <linearGradient id="_Безымянный_градиент_30-2" data-name="Безымянный градиент 30" x1="735.44" y1="386.45" x2="744.12" y2="418.55" xlink:href="#_Безымянный_градиент_30"/>
    <linearGradient id="_Безымянный_градиент_7-4" data-name="Безымянный градиент 7" x1="749.88" y1="417.63" x2="733.61" y2="392.03" xlink:href="#_Безымянный_градиент_7"/>
    <linearGradient id="_Безымянный_градиент_30-3" data-name="Безымянный градиент 30" x1="740.88" y1="384.98" x2="749.56" y2="417.08" xlink:href="#_Безымянный_градиент_30"/>
    <linearGradient id="_Безымянный_градиент_7-5" data-name="Безымянный градиент 7" x1="755.28" y1="414.2" x2="739.02" y2="388.6" xlink:href="#_Безымянный_градиент_7"/>
    <linearGradient id="_Безымянный_градиент_6" data-name="Безымянный градиент 6" x1="737.95" y1="403.87" x2="760.48" y2="403.87" gradientUnits="userSpaceOnUse">
      <stop offset="0" stop-color="#223c43"/>
      <stop offset=".99" stop-color="#343d51"/>
    </linearGradient>
    <linearGradient id="_Безымянный_градиент_10" data-name="Безымянный градиент 10" x1="-6853.13" y1="5197.28" x2="-6853.13" y2="5148.62" gradientTransform="translate(5946.37 7257.63) rotate(90)" gradientUnits="userSpaceOnUse">
      <stop offset="0" stop-color="#000"/>
      <stop offset="1" stop-color="#fff"/>
    </linearGradient>
  </defs>
  <g class="cls-79">
    <g id="Layer_2" data-name="Layer 2">
      <g id="Layer_21" data-name="Layer 21">
        <g>
          <g>
            <g>
              <g>
                <path class="cls-15" d="m331.22,146.9c5.3-3.09,13.92-3.11,19.24-.04l319.54,194.13c5.32,3.07,5.32,8.05,0,11.12l-217.26,128.54L113.92,282.07l217.3-135.18Z"/>
                <path class="cls-38" d="m331.25,126.77c5.31-3.09,13.92-3.11,19.24-.04l319.54,184.48c5.32,3.07,5.32,8.05,0,11.12l-217.26,125.58L113.95,249.32l217.3-122.55Z"/>
                <polygon class="cls-20" points="452.76 444.93 113.94 249.32 113.94 285.05 452.74 480.66 452.76 444.93"/>
                <polygon class="cls-64" points="455.31 446.43 455.47 472.86 664.38 349.36 664.38 325.6 455.31 446.43"/>
                <polygon class="cls-52" points="452.76 444.93 113.94 249.32 113.94 285.05 452.74 480.66 452.76 444.93"/>
              </g>
              <g>
                <path class="cls-2" d="m380.51,93.68c5.3-3.09,13.92-3.11,19.24-.04l319.54,194.13c5.32,3.07,5.32,8.05,0,11.12l-217.26,128.54L163.21,228.85l217.3-135.17Z"/>
                <path class="cls-44" d="m380.54,73.54c5.3-3.1,13.92-3.11,19.24-.04l319.54,184.48c5.32,3.07,5.32,8.05,0,11.12l-217.26,125.57L163.24,196.1l217.3-122.55Z"/>
                <polygon class="cls-20" points="502.04 391.71 163.22 196.1 163.23 231.83 502.02 427.43 502.04 391.71"/>
                <polygon class="cls-68" points="504.6 393.21 504.76 419.64 713.66 296.13 713.66 272.37 504.6 393.21"/>
                <polygon class="cls-9" points="502.04 391.71 163.22 196.1 163.23 231.83 502.02 427.43 502.04 391.71"/>
              </g>
              <g>
                <path class="cls-55" d="m374.58,22.46c5.31-3.09,13.92-3.11,19.24-.04l319.54,194.13c5.32,3.07,5.32,8.05,0,11.12l-217.26,128.54L157.28,157.64,374.58,22.46Z"/>
                <g>
                  <path class="cls-25" d="m713.39,197.9l-217.26,125.57L157.32,124.89,374.62,2.33c5.3-3.09,13.92-3.11,19.23-.04l210.91,121.77,45.43,26.23,63.2,36.49c5.32,3.07,5.32,8.05,0,11.12Z"/>
                  <polygon class="cls-42" points="251.91 100.56 359.27 40.01 437.35 84.07 329.61 146.34 251.91 100.56"/>
                </g>
                <polygon class="cls-20" points="496.11 320.5 157.3 124.89 157.31 160.62 496.1 356.22 496.11 320.5"/>
                <polygon class="cls-29" points="498.67 322 498.84 348.43 707.74 224.92 707.74 201.16 498.67 322"/>
                <polygon class="cls-47" points="496.11 320.5 157.3 124.89 157.31 160.62 496.1 356.22 496.11 320.5"/>
              </g>
            </g>
            <g class="cls-78">
              <path class="cls-13" d="m338.63,338.43s.04-.02.04-.02c0,0,0,0-.04.02Z"/>
              <path class="cls-54" d="m492.31,156.76c-12.72,8.48-33.45,4.59-42.88,11.18-11.11,7.77-15.45,40.25-35.2,28.17-1.81-1.58-25.05-8.08-24.89-10.28.88-4.51.24-6.84-3.99-9.06-3.08-1.57-5.46-2.17-8.01-1.92-.99.57-.59,1.68-2.15,2.04-1.08.28,4.14,6.23,4.07,6.36-3.34-4.09-10.56-4.44-2.65,1.69,4.01,5.88,14.27,19.25,30.94,26.74-.72.43-1.46.93-2.25,1.55-6.43,5.03,11.41,9.5,24.07,10.96-3.76,6.52-6.6,14.04-5.25,16.2,5.97,7.8-69.17,15.7-69.17,15.7-9.49-2.12,7.98,16.12,7.78,17.98.96,1.34,11.15,2.25,12.67,2.7-18.11.95-43.45,47.69-32.88,54.84,7.08-.46-2.93,2.7-3.57,3.56,0,0,.02-.01.03-.02-.84.45-20.23,5.77-20.41,9.56,11.95,4.75,40.51-9.96,51.78-17.2,1.99,7.71-4.18,19.65-5.32,24.01-8.52,32.7,20.78,5.37,20.78,5.37l37.97-42.43-1.8-37.71s35.21-10.14,59.24-25.14c11.93-7.44,26.31-18.68,31.11-31.96,37.18-9.8-2.34-28.1,3.61-44.95,4.22-11.93-13.77-24.54-23.64-17.96Z"/>
            </g>
            <g>
              <path class="cls-4" d="m397.33,149.63c-6.23-1.92-12.19-1.82-12.92-4.2-3.53-11.49,8.17-39.07,15.49-45.52,6.12-5.39,24.67.45,28.38,5.62,3.71,5.17-3.1,52.47-17.03,50-6.02-1.07-6.64-3.65-13.92-5.89Z"/>
              <g>
                <path class="cls-67" d="m353.24,297.96s6.13,6.11,4.94,9.44c-1.19,3.33-15.77,23.36-22.77,25.27-14.58,3.99-10.29-8.77-7.74-11.28,2.25-2.21,11-8.11,11.35-14.26.47-8.29,14.23-9.17,14.23-9.17Z"/>
                <path class="cls-59" d="m359.21,302.3s-10.36,10.71-14.68,17.96c-4.32,7.25-8.63,9.98-11.64,9.63-4.81-.55-7.91-3.06-6.48-6.12,1.13-2.43,1.24-2.38,1.24-2.38,0,0-13.31,12.02-12.31,20.27.99,8.25,23.4-1.35,26.99-5.31,1.37-1.52,5.58-10.31,8.65-13.44,3.07-3.14,6.53-4.15,8.85-10.86,2.32-6.71-.62-9.76-.62-9.76Z"/>
              </g>
              <path class="cls-53" d="m365.57,308.78l-.76-62.3s60.01-19.94,65.71-26.79c10.84-13,4.33-34.88,1.71-39.87-9.17-17.42-99.72,27.5-102.16,48.87-2.44,21.37-3.95,57.25-4.97,81.38,7.6,14.82,40.48-1.3,40.48-1.3Z"/>
              <path class="cls-43" d="m386.09,216.9c9.21-9.21,44.95-42.95,49.42-34.46,2.63,4.99,5.86,24.25-4.98,37.26-5.7,6.84-65.71,26.79-65.71,26.79l.76,62.3s-4.67,2.29-10.9,4.35v-61.55c0-7.28,3.67-14.06,9.76-18.05,6.88-4.5,15.86-10.82,21.66-16.63Z"/>
              <path class="cls-12" d="m413.44,68.53c-.42-3.72,14.63-8.21,14.63-8.21,6.36,5.64,36.1,37.6,49.19,73.21-.62,6.92-25.68,15.22-37.07,13.07-3.93-.74-24.93-61.98-26.76-78.07Z"/>
              <g>
                <path class="cls-67" d="m383.55,315.28s5.39,3.99,5.52,9.42c.13,5.34-5.65,27.27-12.36,30.05-6.71,2.78-13.73-1.36-13.29-4.48.44-3.12,6.08-12.96,7.43-20.63,1.43-8.18,12.71-14.36,12.71-14.36Z"/>
                <path class="cls-73" d="m369.58,326.58s-3.43,13.42-5.39,20.09c-4.27,14.55-3.97,17.17-2.77,20.54,1.25,3.52,11.42-.11,18.48-6.41,8.09-7.22,7.48-16.8,12.26-25.34,1.55-2.77,1.36-4.87,1.06-11.3-.16-5.46-6.83-5.93-6.83-5.93,0,0,3.89,5.38,2.15,10.09-.88,2.37-.47,3.36-1.82,6.33-2.69,5.91-2.93,11.6-6.97,15.97-3.79,4.1-15.61,2.18-15.39-.15.4-4.32,3.85-11.72,5.17-15.8,1.58-4.88.06-8.09.06-8.09Z"/>
              </g>
              <path class="cls-53" d="m405.71,326.87l-5.23-62.08s6.31-2.43,23.43-8.44c17.84-6.26,39.49-20.39,44.69-27.62,9.87-13.75,4.84-32.49,2.29-37.52-10.46-20.6-105.44,36.85-106.34,58.34-.9,21.49.18,57.39.89,81.53,8.64,14.23,40.28-4.2,40.28-4.2Z"/>
              <g>
                <g>
                  <path class="cls-32" d="m405.91,201.23l.83-.48,8,4.62-.82.47,29.38,16.02v.96l-43.35,25.03-28.56-16.49h0c-2.89-.2-5.59-1.5-8-4.62h0s-28.56-16.49-28.56-16.49v-.96l43.35-24.07,27.73,16.01Z"/>
                  <polygon class="cls-46" points="443.31 221.86 399.96 246.89 370.16 229.68 413.51 204.65 443.31 221.86"/>
                  <polygon class="cls-17" points="407.98 201.46 364.63 226.49 334.83 209.29 378.19 184.26 407.98 201.46"/>
                </g>
                <g>
                  <g>
                    <path class="cls-58" d="m404.61,196.11c2.33,1.18,4.29,4.45,4.29,7.15,0,0-40.19,23.25-40.19,23.25l-29.8-20.07,40.19-23.21,25.51,12.88Z"/>
                    <path class="cls-42" d="m413.19,201.07l25.51,16.58,1.49,3.72s-1.56-.9-3.97-2.29l-37.71,21.77-28.62-17.01,40.19-23.2c.79-.46,1.9-.35,3.11.43Z"/>
                  </g>
                  <polygon class="cls-69" points="440.19 221.37 400 244.58 398.51 240.85 438.7 217.65 440.19 221.37"/>
                  <path class="cls-20" d="m364.42,219.32c2.33,1.18,4.29,4.45,4.29,7.15,0,.05-31.29-18.01-31.29-18.01l1.49-2,25.51,12.87Z"/>
                  <path class="cls-16" d="m369.89,223.84c.79-.45,1.9-.35,3.1.43l25.51,16.58,1.49,3.72s-31.29-18.06-31.29-18.11c0-1.3.45-2.2,1.19-2.62Z"/>
                </g>
              </g>
              <g>
                <path class="cls-67" d="m411.59,136.1c-3.27.54-7.59,4.87-9.92,8.8-2.33,3.93-10.71,31.66-14.89,33.69-4.19,2.03-8.5,3.74-10.83,5.73-1.87,1.6-4.76,5.66-6.04,7.76-.96,1.57-3.12,6.69-3.12,6.69l.33,1.37-.67,2.45,1.19.7,1.71-1.06s1.31,1.18,2.06,1c.75-.18,11.27-10.89,11.27-10.89,0,0-4.83,6.16-5.9,8.52-.24.52-.53,2.09,2.23.54,2.76-1.55,7.1-7.83,7.1-7.83,0,0,3.85-1.67,6.1-4.78,2.24-3.11,3.55-5.48,3.55-5.48,0,0,30.49-25.07,30.2-38.95-.35-16.56-10.29-8.93-14.37-8.25Z"/>
                <path class="cls-75" d="m375.92,194.16c-.6,2.4-5.69,8.11-5.69,8.11l.74.92-1.7-.91,1.43-2.3s3.17-3.6,4.13-5.3c.96-1.7,1.17-.82,1.1-.52Z"/>
                <path class="cls-75" d="m374.76,189.9c.65,0-4.1,5.84-5.25,7.87-.77,1.36-2.55,5.12-2.55,5.12l-.5-.29s1.85-3.84,2.63-5.22c1.14-2.03,5.27-7.48,5.66-7.47Z"/>
              </g>
              <path class="cls-43" d="m391.86,333.26v-70.36c0-7.03,3.91-13.47,10.16-16.7,13.44-6.95,35.98-18.76,40.45-22.1,7.46-5.56,11.29-14.74,6.16-23.5-2.14-3.66-6.12-6.58-10.5-7.9,15.98-6.49,29.21-8.47,32.75-1.5,2.55,5.03,7.58,23.77-2.29,37.52-5.19,7.23-26.84,21.36-44.69,27.62-17.12,6.01-23.43,8.44-23.43,8.44l5.23,62.08s-6.2,3.6-13.85,6.39Z"/>
              <path class="cls-60" d="m474.83,201.67c0,18.74-74.07-12.75-74.91-22.61-1.28-14.93,1.61-17.61-3.92-30.74-3.73-8.85,1.53-49.74,6.99-52.26,5.46-2.52,33.36.66,36.89,2.46,3.53,1.8,18.52,16.29,18.88,17.64.37,1.35,16.07,63.87,16.07,85.51Z"/>
              <path class="cls-12" d="m400.53,115.07c1.31-2.56,2.12-5.3,2.64-8.11.24-1.41.41-2.85.43-4.32.02-1.47-.08-2.98-.47-4.54-.1-.39-.22-.79-.37-1.18-.15-.39-.37-.83-.48-1.07-.27-.58-.55-1.15-.78-1.74-.49-1.17-.87-2.36-1.16-3.59-.59-2.46-.61-5.07-.31-7.95-1.83,2.22-2.83,5.25-2.73,8.3.03,1.52.31,3.04.76,4.47.24.71.49,1.42.81,2.1.17.39.25.58.35.83.09.25.18.52.26.8.6,2.27.7,4.99.79,7.67.09,2.71.09,5.47.27,8.33Z"/>
              <path class="cls-72" d="m434.82,156s23.62-41,23.94-39.84c.37,1.35,16.07,63.87,16.07,85.51,0,6.09-7.48,8.89-29,2.01-10-3.19-9.96-38.89-13.79-39.67-16.54-3.39,2.78-8.01,2.78-8.01Z"/>
              <path class="cls-67" d="m412.76,103.57c-5.9,5.2,11.35-38.38,12.18-28.58.83,9.82-.09,15.37,3.47,19.14,1.55,1.64,10.47,5.4,10.47,5.4,0,0,1.36.59-.88,3.72-2.24,3.13-21.25,35.92-27.02,33.3-5.18-2.35,8.62-39.03,1.76-32.98Z"/>
              <path class="cls-67" d="m421.88,75.08s1.1,14.56.94,18.46c-.16,3.91-12.09,12.79-17.34,12.83-3.37-1.45-9.17-9.73-10.56-14.47-1.39-4.73-.4-6.32-1.36-7.23-2.93-2.8-.78-13.45-.33-14.42s24.62-9.36,28.66,4.83Z"/>
              <path class="cls-67" d="m396.36,87.05c.78,1.86-.85,10.18-.46,11.18.39,1,3.74.44,4.98-.34l-4.52-10.84Z"/>
              <path class="cls-12" d="m419.34,85.81s-9.86-.13-13.72-2.71c-6.58-4.44-11.89-11.27-11.89-11.27-1.85.3-1.76,7.53-1.76,7.53,0,0-1.02-3.13-.58-6.87.43-3.74,2.01-12.52,11.75-17.27,9.74-4.75,19.98-.75,26.18,6.33,4.22,5.2,3.45,11.76,2.53,13.92-.92,2.16-2.88,6.04-3.18,7.61-.3,1.58.83,3.87.83,3.87,0,0-2.99-.15-3.32-1.52-.3-1.27-.79-7.92-2.14-8.82-2.67-1.78-4.77.94-5.2,3.17-.44,2.23,0,4.23.51,6.03Z"/>
              <path class="cls-12" d="m425.41,82.13s.22,10.49,2.88,18.7c2.66,8.2,15.86-4.37,25.29,1.06,9.43,5.43-28.17-19.76-28.17-19.76Z"/>
              <path class="cls-67" d="m453.84,175.67c-1.43-4.66-2.8-13.71-2.8-19.7,0-12.3,22.48-13.05,24.27-6.65,2.32,8.26,1.88,18.91.94,28.84-.95,9.96-19.34,7.55-22.41-2.49Z"/>
              <path class="cls-4" d="m449.1,162.32c-9.98-6.71-16.6-35.86-14.97-45.48,1.36-8.04,2.48-22.73,23.95-13.14,5.81,2.59,25.5,37.43,18.23,49.57-6.83,11.42-25.14,10.43-27.21,9.05Z"/>
              <path class="cls-12" d="m403.88,61.72c-.93,2.67-1.47,5.47-1.86,8.29-.33,2.83-.47,5.7-.23,8.6.24,2.89.82,5.82,2.01,8.62,1.18,2.78,3.07,5.44,5.66,7.31.65.46,1.33.87,2.03,1.23.62.33,1.21.61,1.8.95,1.19.63,2.33,1.32,3.42,2.05,2.19,1.47,4.18,3.18,5.64,5.23,1.45,2.05,2.29,4.5,2.24,7.13,0,2.64-.78,5.33-1.77,7.96,1.73-2.23,3.08-4.84,3.64-7.79.24-1.47.27-3.02,0-4.54-.27-1.52-.81-3.01-1.57-4.34-1.52-2.7-3.74-4.84-6.09-6.6-1.18-.89-2.42-1.67-3.68-2.39-.62-.37-1.29-.7-1.9-1.03-.54-.28-1.05-.61-1.54-.95-1.97-1.4-3.5-3.41-4.61-5.71-1.12-2.3-1.84-4.88-2.33-7.52-.48-2.65-.77-5.38-.87-8.14-.14-2.76-.1-5.55.01-8.37Z"/>
              <path class="cls-12" d="m399.72,72.4c.92,2.73,2.32,5.21,3.97,7.54.84,1.16,1.75,2.28,2.79,3.32,1.04,1.04,2.18,2.02,3.58,2.83.35.2.71.39,1.1.56.39.16.85.32,1.1.41.6.21,1.21.41,1.79.65,1.18.47,2.3,1.02,3.38,1.67,2.17,1.29,4.06,3.1,5.91,5.33-.31-2.86-1.78-5.69-4.04-7.75-1.11-1.04-2.39-1.89-3.74-2.57-.68-.33-1.36-.64-2.07-.89-.4-.15-.59-.22-.84-.33-.24-.11-.5-.23-.75-.37-2.05-1.16-4.07-2.98-6.05-4.78-2-1.82-3.98-3.75-6.15-5.61Z"/>
              <g>
                <path class="cls-67" d="m463.7,168.64c-3.31-.22-8.5,3.01-11.66,6.31-3.16,3.29-17.63,28.39-22.17,29.42-4.54,1.03-9.13,1.71-11.85,3.12-2.18,1.13-5.92,4.43-7.65,6.18-1.29,1.31-4.56,5.8-4.56,5.8v1.41s-1.21,2.23-1.21,2.23l1.01.95,1.91-.65s1.01,1.45,1.78,1.44c.77,0,13.45-8.04,13.45-8.04,0,0-6.11,4.9-7.69,6.96-.35.46-.99,1.92,2.05,1.03,3.04-.88,8.69-6.01,8.69-6.01,0,0,4.13-.75,7.03-3.27,2.89-2.52,4.7-4.53,4.7-4.53,0,0,35.4-17.47,38.27-31.06,3.43-16.2-7.98-11.03-12.12-11.3Z"/>
                <path class="cls-75" d="m415.75,217.06c-1.13,2.2-7.39,6.61-7.39,6.61l.51,1.06-1.45-1.27,1.91-1.91s3.9-2.79,5.22-4.23c1.32-1.44,1.33-.53,1.19-.26Z"/>
                <path class="cls-75" d="m415.6,212.64c.63.15-5.32,4.76-6.9,6.47-1.06,1.15-3.64,4.41-3.64,4.41l-.42-.4s2.67-3.31,3.75-4.49c1.57-1.71,6.83-6.08,7.22-5.99Z"/>
              </g>
            </g>
          </g>
          <path class="cls-13" d="m572.76,117.19c5.04-.15,10.52-1.09,15.62-2.21l-36.84-21.27c-.37,1.7.54,3.57,2.05,5.26-2.04,3.21-3.3,6.89-2.07,10.01.61,1.53-1.21,2.64-4.47,2.74-8,.24-17.15,2.47-24.07,4.25-3.08-.19-6.11-.19-8.84.15-2.73.31-5.11,1.05-6.62,1.91-.02,0-.02.02-.03.02-.02,0-.02.02-.03.02-.02.02-.03.02-.05.03-.29.15-1.15.66-3.11,1.78-4.01,2.29-2.98,5.76-.31,8.58,6.89,7.4,26.41,14.18,42.1,14.69,2.42.06,4.78.03,7.26-.31,1.44-.19,2.91-.51,3.94-.86.02,0,.44-.14.44-.15.62-.21,1.13-.46,1.35-.58.36-.18.16-.07,3.74-2.12-.07.04-.16.09-.24.13.44-.23.89-.52,1.1-.71h0c2.35-1.79,2.15-4.09.82-6.21,2.94-3.65,5.33-8.49,3.78-12.42-.61-1.53,1.21-2.64,4.47-2.73Z"/>
          <g>
            <path class="cls-10" d="m498.64,122.58c1.43,8.01,14.95,14.29,31.41,14.29s30.13-6.35,31.43-14.43c.12-.5.15-1.86,0-2.47t0-.01c-.69-4.67-5.45-8.26-10.25-10.41-7.5-3.3-16.32-4.42-24.42-4-.29,0-2.29.15-2.74.2-8.18.75-18.67,3.71-23.32,9.59-1.88,2.23-2.59,5.12-2.13,7.24Z"/>
            <path class="cls-65" d="m561.56,125.85c.03-.42.02-.18.02-4.68,0,.5-.07,1.13-.1,1.27-1.3,8.07-14.9,14.43-31.43,14.43s-29.98-6.28-31.41-14.29c-.19-.86-.13-3.78-.13,2.68,0,5.06,4.84,9.11,10.05,11.49,13.57,6.3,35.02,5.4,46.37-1.85,1.73-1.13,3.31-2.37,4.6-4.07.76-.97,1.38-2.15,1.67-3.12,0-.02.14-.41.12-.42.18-.59.23-1.18.25-1.44Z"/>
            <path class="cls-37" d="m504.19,116.11c-4.09,8.33,8.88,14.41,17.09,15.39,2.72.48,5.25.62,7.49.7,8.1.15,14.15-1.19,20.32-3.67,3.58-1.44,6.38-4.06,7.36-7.3.53-1.72.34-2.95-.09-4.26-1.54-6.6-6.33-18.08-13.99-23.93-2.25-1.72-2.33-4.1-.21-5.87,7.06-5.92,11.19-17.8,13.84-23.19,4.09-8.33-8.88-14.41-17.09-15.39-2.72-.48-5.25-.62-7.49-.7-8.1-.15-14.15,1.19-20.32,3.67-3.58,1.44-6.37,4.06-7.36,7.3-.52,1.72-.34,2.95.09,4.26,1.54,6.6,6.33,18.08,13.99,23.93,2.25,1.72,2.33,4.1.21,5.87-7.06,5.92-11.19,17.8-13.84,23.19Z"/>
            <path class="cls-11" d="m497.87,59c1.47,8.01,15.32,14.29,32.17,14.29s30.86-6.35,32.2-14.42c.12-.5.15-1.86,0-2.47t0-.01c-.71-4.67-5.59-8.26-10.5-10.41-7.68-3.3-16.71-4.42-25.01-4-.3,0-2.35.15-2.81.2-8.38.75-19.13,3.71-23.89,9.59-1.93,2.23-2.66,5.12-2.18,7.24Z"/>
            <path class="cls-56" d="m562.32,62.27c.03-.42.02-.18.02-4.68,0,.5-.07,1.13-.11,1.28-1.33,8.07-15.26,14.42-32.2,14.42s-30.83-6.83-32.29-14.84v3.23c0,5.06,4.95,9.11,10.28,11.49,13.89,6.3,35.87,5.4,47.49-1.85,1.77-1.13,3.39-2.37,4.71-4.07.78-.97,1.41-2.15,1.71-3.12,0-.02.14-.41.12-.42.18-.59.23-1.18.25-1.44Z"/>
          </g>
          <g>
            <g>
              <path class="cls-52" d="m338.09,140.33c.36,6.63-1.85,13-5.99,17.28-12.27,12.68-32.38,29.47-54.38,31.49-20.82,3.95-43.42-7.49-60.19-19.25-5.21-3.65-8.54-10.22-8.93-17.39l-3.1-57.43,129.78-7.01,2.83,52.32Z"/>
              <polygon class="cls-6" points="268.75 135.99 268.81 140.55 175.58 88.32 175.52 83.76 268.75 135.99"/>
              <polygon class="cls-52" points="360.58 81.36 268.75 135.99 175.52 83.76 267.36 29.15 360.58 81.36"/>
              <polygon class="cls-23" points="360.58 81.36 360.64 85.93 268.81 140.55 268.75 135.99 360.58 81.36"/>
            </g>
            <g>
              <polygon class="cls-27" points="268.85 83.75 221.01 113.7 222.9 176.25 219.51 177.81 216.93 110.85 266.92 80.56 268.85 83.75"/>
              <path class="cls-66" d="m268.11,76.68c4.69-.06,8.52,2.04,8.56,4.69.04,2.65-3.74,4.85-8.43,4.91-4.69.06-8.52-2.04-8.56-4.69-.03-2.65,3.74-4.85,8.43-4.91Z"/>
              <path class="cls-7" d="m218.8,169.63c-.04-.92,1.05-1.7,2.42-1.76,1.37-.05,2.52.64,2.55,1.56l2.07,8.93c.06,1.52-1.76,2.83-4.07,2.92-2.3.09-4.22-1.07-4.28-2.59,0-.21.03-.42.09-.62l1.22-8.44Z"/>
            </g>
          </g>
          <g>
            <path class="cls-77" d="m619.64,317.41l1.53-2.98c.09-.19.06-.41-.08-.61l-.5-.78c.14.2.18.42.08.6.19-.37-.14-.86-.75-1.11l-9.17-3.73c-11.43-11.11-23.12-22.65-31.2-30.95-.36-.37-.73-.73-1.09-1.09.19-.21.37-.41.54-.62,3.54-4.3,8.41-11.31,2.21-19.96-1.23-3.32-4.04-7.23-9.02-11.52-10.82-9.32-19.08-10.38-22.09-6.74-3.35,4.07-11.21,12.22-11.21,12.22,0,0,.26.51.77,1.38-4.68-1.68-9.42-2.99-14.19-3.85,0,0-.01.02-.02.02-6.06-1.43-8.51,5.12-10.46,12.81-1.01,3.98-1.74,7.06-2.13,9.87-.21.34-.42.68-.62,1.01-.05.08-.11.17-.16.25-.47.75-.95,1.47-1.41,2.15-.05.08-.1.15-.16.23-.47.67-.93,1.31-1.38,1.9-.05.07-.1.13-.15.2-.45.58-.9,1.11-1.33,1.58-.05.06-.1.11-.16.17-.43.46-.85.86-1.26,1.2-.05.04-.1.08-.15.12-.41.32-.8.58-1.18.76-.05.02-.09.04-.14.06-.19.08-.37.15-.55.2.36.99.88,2.07,1.52,3.2-.02.01-.04.03-.05.05,0,0-.02.02-.03.03-.15.14-.31.29-.48.45-.01.01-.03.02-.04.04-.54.53-1.14,1.21-1.74,2.04,0,0,0,.01-.01.02-.19.27-.39.56-.58.87,0,.01-.02.02-.02.04-.58.94-1.13,2.04-1.57,3.3,0,.03-.02.06-.03.09-.14.4-.26.81-.38,1.24,0,.03-.02.07-.03.1-.24.93-.43,1.93-.54,3.02h0c-.52,5.17,14.63,54.66,13.35,64.63,0,0,.02.01.05.04.01.01.02.02.04.03.03.02.06.05.1.08.04.03.09.07.15.12.06.04.11.09.18.15.05.04.11.09.17.14.05.04.11.09.17.13.07.06.15.12.23.18.09.07.19.15.29.23.13.1.26.2.41.31.07.05.13.1.2.15.12.1.25.19.38.29.03.02.06.05.09.07.28.21.58.44.9.68.06.04.11.09.17.13.17.13.35.26.53.4.03.02.07.05.1.08.38.28.79.58,1.21.88.02.02.04.03.07.05.22.16.44.32.67.48.04.03.08.06.12.09.7.5,1.44,1.01,2.22,1.55.05.03.1.07.15.1.78.53,1.59,1.07,2.43,1.62.06.04.12.08.18.12.84.54,1.7,1.09,2.59,1.62.07.04.13.08.2.12.29.17.57.35.86.52.05.03.11.06.16.1.03.01.05.03.08.04l27.38,66.91c2.65,12.27,14.79,12.14,34.9,26.85.22,1.08,1.23,2.46,3.61,4.77,2.92,2.82,4.23,6.23,5.46,7.76,1.1.48,1.51.25,1.94-.38-.45-1.3-2.38-4.22-3.18-6.16,1,.81,2,1.62,2.99,2.45.14.12.26.24.37.36-.02.09-.77,3.34,3.64,6.19l8.24,7.86s1.82.91,2.11-.42l-2.85-3.06c4.31,2.69,9.08,5.77,11.96,7.08,3.34,1.53,13.02,1.46,19.02-1.36,2.22-1.04-5.68-1.77-7.78-2.93-1.56-.87-3.72-2.1-5.03-2.86-.23-.15-.47-.3-.73-.46-1.27-.75-.76-7.03-2.58-8.11,1.07.05,2.03.05,2.82-.02,7.14-.6,12.36-4.1,4.97-4.1-3.51,0-11.75-4.5-13.23-5.06-.1-.04-.17-.06-.21-.07-5-2.9-14.41-2.12-15.29-6.48-.36-1.78,2.37-33.84,2.31-33.69,0-2.64-1.32-5.4-3.5-8.09-.99-1.21-4.96-4.3-5.96-5.48.61-.19,1.22-.4,1.82-.64,0,0-17.87-51.06-36.38-86.44.28-.17.54-.36.79-.57-.02-.34-.05-.68-.09-1.02.76-.37,1.39-.91,1.85-1.54.55.34.98.6,1.18.73,7.32,4.67,16.29,7.69,15.34,6.43l1.19.61c1.09.61,2.38.28,1.63-.95l-.51-.71s1.55.96,2.09.57c1.12-.81-.9-2.71-.9-2.71,1.2.73,3,.8,2.63-.7-.04-.14-.19-.34-.42-.56l20.5,8.35c.09.04.19.07.28.09.01,0,.02.01.03.01.02,0,.05,0,.07,0,.04,0,.09.01.13.02.02,0,.03,0,.05,0,.03,0,.06,0,.1,0,.01,0,.02,0,.04,0h0s.08,0,.12-.01c.01,0,.03,0,.05,0,0,0,.02,0,.03,0,0,0,.02,0,.03,0,.03,0,.07-.01.09-.02.01,0,.03,0,.04,0,.01,0,.02,0,.03,0,.01,0,.02,0,.03-.02.03-.01.06-.03.08-.04,0,0,.01,0,.02-.01.01,0,.02,0,.02-.01.01-.01.03-.02.04-.02.02-.02.04-.04.06-.06,0,0,.01,0,.02-.01,0,0,0,0,0,0,.03-.04.06-.07.08-.12l.13-.25c4.16,4.58,8.56,9.25,12.92,13.43,5.39,5.17,10.57,8.92,15.37,12.13l-20.97-39.82Zm-55.47-7.16c-.4-.37-.83-.73-1.27-1.07l-.3-.24c.05-.18.12-.35.19-.52l2.12,2.54c-.19-.19-.38-.38-.57-.56.07.04.11.06.11.06,0,0-.11-.08-.28-.21Zm-3.36,65.23h0c.96.27,1.91.63,2.86,1.04,2.08,4.16,17.8,43.09,19.68,44.4-1.85,2.41-2.09,5.49-1.43,9.06.09.85.23,1.95.44,3.15-2.76-3.59-5.35-7.02-7.63-10.14-1.67-2.28-15.25-45.23-15.53-47.89.54.1,1.07.22,1.61.37Zm5.68-62.69c.05.05.11.09.16.14-.03-.01-.06-.03-.09-.05-.02-.03-.05-.06-.07-.09Zm44.05,18.67c-.09-.02-.19-.05-.28-.09.14.06.28.09.42.11-.02,0-.03,0-.04,0-.03,0-.06,0-.1-.01Zm.4.05s-.02,0-.03,0c-.05,0-.1,0-.14,0-.01,0-.02,0-.03,0,.14.02.27.02.39,0,0,0,0,0,0,0-.06,0-.12.01-.18.01Zm.39-.06s-.02,0-.03,0c-.05.01-.1.03-.16.04h0c.12-.02.23-.06.32-.11-.04.02-.08.05-.13.06Zm.28-.17s-.01,0-.01.02c-.03.03-.07.05-.1.08,0,0,0,0,0,0,.09-.06.17-.13.21-.22-.02.05-.06.08-.09.12Z"/>
            <path class="cls-71" d="m603.88,182.35c5.49-14.61,16.13-5.62,24.3,6.69,40.2,60.55-11.62,47.4-14.03,39.23-6.54-22.16-14.65-34.26-10.27-45.92Z"/>
            <g>
              <path class="cls-61" d="m640.88,371.64c1.24-4.77,1.23-9.75.31-14.6-8.06-42.39-20.97-74.26-41.39-100.52l-24.2,47.88c2.5,4.63,34.62,48.25,40.99,60.1-8.98,13.09-6.29,37.15-8.86,63.33-.34,3.43-1.52,21.31,1.73,23.04,3.48,1.84,4.12,3,10.27,8.88,6.16,5.89,15.89,2.07,13.33-1.96-2.49-3.94-11.94-14.91-10.38-25.34.48-3.21,18.32-61.08,18.19-60.81Z"/>
              <path class="cls-39" d="m611.57,377.66s-2.76,11.99-2.96,20.09c-.21,8.42.04,20.72-.88,30.09-.34,3.43-1.52,21.31,1.73,23.04,3.07,1.63,10.02,3.4,14.43,7.7,0,0-6.12-28.26-6.12-37.85,0-27.4-6.21-43.08-6.21-43.08Z"/>
              <path class="cls-34" d="m633.07,457.79c-4.08,3.01-7.88,3.9-16.1-4.88-6.61-7.05-9.57-19.86-9.57-19.86,0,0-1.95,4.05-2.96,6.89-.78,2.21-.65,4.82,1,10.1,1.59,5.08,1.3,11.25,1.8,14.01.87.87,1.39.46,2.12-.69.17-2.51-.47-8.34-.25-11.8,3.62,1.78,7.98,9.21,10.94,13.35,2.95,4.13,10.37,6.02,14.29,5.45,7.43-1.09,14.29-7.4,6.91-7.4-3.51,0-9.63-8.13-10.84-9.14-1.23-1.03,2.66,3.96,2.66,3.96Z"/>
            </g>
            <path class="cls-61" d="m634.97,475.47c-3.09-4.56-9.73-13.77-11.12-19.2-5.97-23.18-13.06-61.73-16.86-88.02-6.3-43.61-18.09-67.63-20.65-73.63,2.95-3.21,15.55,0,16.18-41.49-15.89,11.99-37.85,3.73-54.4-2.56-1.03,3.58-3.06,6.27-5.16,8.99-6.01,7.8-12.6,15.81,2.23,45.67l33.86,69.05c-3.7,26.15,17.87,47.13,31.87,82.39.72,1.8.23,4.02.23,4.02,2.61,9.77,17.51,29.57,23.03,25.74,3.05-2.12,3.88-6.42.8-10.97Z"/>
            <path class="cls-34" d="m616.38,482.7s1.39,1.65,2.31-.75l-2.94-11.49-4.02-2.29,4.64,14.53Z"/>
            <path class="cls-34" d="m634.65,475.08s1.79,3.67-1.2,5.2c-2.73,1.39-7.87,2.2-14.44-5.42-4.92-5.7-7.87-17.55-7.87-17.55,0,0-3.07,7.65,2.23,13.19,3.65,4.94,9.23,15.23,12.54,18.71,2.62,2.75,12.34,2.63,19.66-2.45,2.71-1.88-4.84-3.19-6.39-5.29-1.77-2.4-4.52-6.38-4.52-6.38Z"/>
            <path class="cls-34" d="m606.5,259.13c29.14,36.21,35.51,90.28,35.51,90.28-15.73,9.59-29.51-2.93-42.19,11.51-12.67,14.45-40.79,8.03-40.79,8.03,0-16.41,4.73-34.4-14.22-58.61-18.95-24.21-3.71-52.14-3.71-52.14,57.16,7.31,65.4.92,65.4.92Z"/>
            <path class="cls-62" d="m606.97,339.83c-.01.31-.1,14.45-.09,15.59,3.63-1.73,7.36-2.08,11.2-2.09,0,0,0-.01-.01-.02-.74-.97-8.03-10.08-11.1-13.48Z"/>
            <path class="cls-63" d="m568.96,307.52c-8.95-2.45-15.08-13.2-15.51-22.77-.48-10.73,8.88-19.95,19.19-20.97.09-.83.24-1.66.44-2.48-8.43-.48-18.93-1.43-31.98-3.1,0,0-15.25,27.93,3.71,52.14,18.95,24.2,14.22,42.2,14.22,58.61,0,0,13.48,3.07,25.98.17-.66-3.76-7.89-24.88-16.05-61.6Z"/>
            <path class="cls-3" d="m556.5,284.58c37.73,20.42,55.36-18.8,50-25.45,0,0-8.24,6.39-65.4-.92,0,0-6.05,11.1-5.78,25.36,0,0,7.24-6.52,21.18,1.02Z"/>
            <path class="cls-14" d="m556.4,187.55c11.45-7.14,22.99-10.95,34.31-12.4,4.78-.61,14.35.88,19.17,1.01,7.44.21,16.69,12.67,12.45,21.87-2.63,15.19,3.22,23.21,1.2,32.54-1.66,7.51-7.79,11.17-16.67,9.75-4.06,10.32,3.59,12.6,4.95,23.19-2.73,6.49-8.48,11.05-17.38,13.79-16.76,5.15-50.25-5.35-56.78-19.63,6.84-8.63,15.89-61.21,18.75-70.12Z"/>
            <path class="cls-8" d="m607.98,245.2s-37.31-4.46-56.18-37.48c-4.04,18.87-9.58,44.19-14.15,49.95,6.53,14.28,40.02,24.79,56.78,19.63,3.43-1.05,6.39-2.38,8.89-3.98-11.85,3.16-32.5,4.81-43.57-10.19-7-9.47,48.23-17.93,48.23-17.93Z"/>
            <path class="cls-28" d="m596.8,183c-1.34-8,22.39-35.75,13.23-40.26,19,2.6,13.18,23.62,9.07,36.14-2.37,7.2-6.77,16.59-10.16,18.74,0,0-6.01-12.6-12.14-14.62Z"/>
            <g>
              <path class="cls-42" d="m619.99,209.47l49.11-14.95c.7-.21,1.14.22.98.96l-7.39,35.34c-.15.74-.85,1.52-1.55,1.73l-49.11,14.95c-.7.21-1.14-.22-.98-.96l7.39-35.34c.16-.75.85-1.52,1.55-1.73Z"/>
              <path class="cls-57" d="m611.38,247.49s.1.04.16.05c.01,0,.02,0,.03,0,.06,0,.12,0,.19,0,.04,0,.09-.01.14-.03.05,0,.08,0,.12-.02l49.11-14.95c.11-.03.22-.08.32-.14.04-.02.07-.04.11-.07.05-.03.1-.06.14-.09.05-.04.11-.08.16-.13.01-.01.02-.02.04-.03.07-.06.13-.13.19-.2,0-.01.02-.02.03-.04.06-.07.11-.14.17-.21,0-.01.02-.02.03-.03.05-.07.09-.15.14-.23,0-.02.02-.03.03-.05.03-.07.07-.14.1-.22,0-.02,0-.02.01-.04.03-.09.06-.18.08-.27l7.39-35.34c.08-.38.01-.67-.17-.84l.66.69c.18.17.25.47.18.85l-7.39,35.33c-.02.09-.04.17-.07.26,0,0,0,0,0,.01,0,.01-.01.02-.02.03-.02.05-.04.1-.06.15-.02.02-.03.05-.04.08,0,.02-.01.03-.02.04,0,.01-.02.03-.02.04-.03.04-.06.09-.09.14-.01.02-.02.04-.03.06,0,0-.02.02-.03.03-.01.02-.02.03-.04.05-.03.05-.06.09-.1.13-.01.01-.02.02-.03.04-.01.01-.02.02-.03.03-.02.02-.03.04-.05.05-.04.05-.09.09-.13.13h0s-.03.04-.04.05c-.04.03-.08.06-.11.09-.02,0-.03.02-.05.03-.04.03-.09.06-.14.09-.02.01-.05.03-.07.05-.01,0-.02,0-.04.01-.1.06-.21.11-.32.14l-49.11,14.94s-.02,0-.02,0c-.03,0-.07,0-.1.02-.04,0-.1.02-.14.03,0,0,0,0,0,0-.06,0-.11,0-.15,0-.01,0-.03,0-.03,0-.01,0-.02,0-.03,0-.02,0-.04,0-.05,0-.04,0-.07-.02-.1-.03,0,0-.01,0-.02,0,0,0,0,0-.02-.01-.01,0-.03-.02-.05-.02-.03-.02-.05-.04-.08-.06h-.01s-.66-.71-.66-.71c.04.04.09.07.14.1,0,0,.01.01.02.01Z"/>
              <path class="cls-18" d="m580.17,225.02l49.29-15.15c.7-.21,1.78-.04,2.41.38l29.98,20.33c.63.43.57.95-.13,1.17l-49.29,15.15c-.71.21-1.79.04-2.41-.38l-29.98-20.32c-.63-.43-.57-.95.13-1.17Z"/>
              <path class="cls-42" d="m579.72,224.67s.02-.02.02-.04h0s0-.01,0-.01c.01-.02.07-.09.08-.1,0,0,.2-.14.22-.15.01,0,.15-.07.22-.08l49.29-15.15c.08-.03.17-.05.26-.06.03,0,.06,0,.09-.01.04,0,.09-.01.14-.02.02,0,.05,0,.07,0,.02,0,.03,0,.05,0,.03,0,.17,0,.23,0,.02,0,.03,0,.05,0,.01,0,.02,0,.04,0,.01,0,.03,0,.05,0,.05,0,.21.02.25.03,0,0,.01,0,.01,0h0s.18.03.21.04c.04.01.11.03.11.03h0s.08.02.11.03c.04,0,.15.05.17.06,0,0,.02,0,.03,0,.01,0,.02,0,.04.01.05.02.09.03.14.06.03.01.11.05.13.07,0,0,.17.09.23.13l29.97,20.32c.31.21.46.45.43.66l-.09.74c.02-.21-.12-.45-.44-.66l-29.98-20.33c-.07-.04-.15-.09-.24-.14-.02,0-.03-.01-.04-.02-.08-.04-.16-.08-.25-.1-.02-.01-.02-.01-.03-.02-.09-.03-.19-.06-.29-.09h0c-.1-.03-.21-.05-.32-.07h0c-.1-.02-.21-.03-.32-.04,0,0-.01,0-.02,0-.09,0-.19,0-.28,0-.02,0-.04,0-.06,0-.07,0-.14.01-.21.02-.03,0-.06,0-.09.01-.09.01-.18.04-.26.06l-49.29,15.15c-.08.02-.23.1-.25.11-.06.03-.1.07-.15.1h-.01c-.04.05-.08.1-.1.14,0,0,0,0,0,0-.02.05-.04.1-.04.15l.08-.74s0,0,0,0c0-.02,0-.04,0-.05,0-.02.01-.04.02-.06Z"/>
            </g>
            <path class="cls-61" d="m601.67,172.26l-3.8,10.98c.15,5.2-1.17,20.77-1.17,20.77,0,0-17.75-17.34-16.46-24.97,4.06-3.65,5-6.34,7.13-11.39l14.3,4.61Z"/>
            <path class="cls-61" d="m603.56,145.07c13.03,1.16,16.6,10.19,13.11,20.81-3.32,11.32-7.91,18.22-12.37,17.51-7.37-1.17-11.44-5.96-11.93-11.32,0,0-5.89-1.98-5.99-3.75-.8-14.26,5.26-24.32,17.18-23.26Z"/>
            <path class="cls-24" d="m607.21,137.59c10.82,3.02,13.9,10.9,12.74,18.59-6.79,3.62-13.07,4.3-19.67,1.94-.87-.31-1.08,34.77.69,37.94,0,0-11.97-2.31-16.11-5.09-8.5-5.71-13.39-12.72-13.39-12.72,0,0,7.48-20.03,10.58-29.48,2.78-8.46,12-14.87,25.16-11.19Z"/>
            <g>
              <path class="cls-61" d="m617.09,241.15c2.43-2.13,6.1-2.03,10.67-5.24,6.7-4.7,7.34,1.47-.74,4.7,0,0,11.13-1.43,11.67.28.61,1.92-1.37,3.57-2.79,3.62,0,0,2.49.93,1.37,3.25-.54,1.13-2.38,1.17-2.38,1.17l.66.58c.99,1.14-.38,2.9-1.66,3.03l-1.39.23c1.22.99-9.04,5.11-17.72,5.11-1.48,0-12.89.45-12.89.45l4.57-11.24s3.72-.02,4.76-.38c2.16-.76,4.29-4.18,5.87-5.56Z"/>
              <path class="cls-5" d="m559.3,186.6c10.41-1.69,13.64,11.49,11.71,26.23-1,7.62.74,25.39.74,25.39l34.36,6.54c4.93.81,8.37,5.32,7.85,10.29,0,.06-.01.12-.02.19-.52,4.83-4.14,11.61-9,11.55-18.25-.24-38.96-4.65-48.08-8.5-3.61-1.52-7.99-2.9-9.6-9.54-2.1-8.66-1.72-16.32-.54-31.5,1.19-15.36,3.29-29.13,12.58-30.64Z"/>
            </g>
          </g>
          <path class="cls-33" d="m303.79,512.45l-80.7-48.99c-5.66-3.35-12.49-3.87-18.52-1.53-.02-.01-.04-.03-.05-.04l-6.13-3.58c11.23-6.85,18.4-15.77,19.83-26.17,4.08-29.8-40.48-60.52-99.53-68.61-59.05-8.09-110.24,9.5-114.32,39.3-4.08,29.8,40.48,60.52,99.53,68.61,31.45,4.31,60.67,1.33,81.73-6.9l9.44,5.51c.43.25.88.46,1.34.64-.84,4.33.89,9.08,5.21,11.64l80.7,48.99c6.53,3.87,14.62,3.96,21.23.25,7.43-4.16,7.56-14.81.23-19.15Z"/>
          <path class="cls-26" d="m0,416.12v10.78c0,9.29,3.87,18.2,10.79,24.41,18.16,16.28,49.01,28.4,84.12,28.78,35.52.39,66.91-11.29,85.33-27.48,7.04-6.2,10.98-15.2,10.98-24.58v-11.9H0Z"/>
          <path class="cls-30" d="m94.9,471.59c52.74.57,95.77-25.06,96.12-57.26.35-32.2-42.12-58.76-94.85-59.34C43.44,354.42.4,380.06.05,412.25c-.35,32.2,42.12,58.76,94.85,59.34Z"/>
          <ellipse class="cls-1" cx="95.64" cy="411.32" rx="47.77" ry="82.61" transform="translate(-316.69 502.48) rotate(-89.38)"/>
          <path class="cls-52" d="m95.12,459.09c44.44.48,80.69-19.96,80.97-45.65.28-25.7-35.52-46.92-79.95-47.4-44.44-.48-80.69,19.96-80.97,45.65-.28,25.7,35.52,46.92,79.95,47.4Z"/>
          <path class="cls-51" d="m96.62,446.27c-.43.01-.91,0-1.36,0-17.11-.19-33.15-3.85-45.19-10.32-12.09-6.5-18.69-15.05-18.59-24.09.1-8.91,6.72-17.24,18.66-23.45,11.87-6.17,27.67-9.57,44.49-9.57.45,0,.9,0,1.35,0,17.11.19,33.15,3.85,45.19,10.32,12.09,6.5,18.69,15.05,18.59,24.09-.1,8.91-6.72,17.24-18.66,23.45-11.87,6.17-27.67,9.57-44.49,9.57Zm-1.98-66.91c-16.74,0-32.46,3.38-44.25,9.51-11.76,6.11-18.29,14.28-18.38,22.99-.1,8.83,6.41,17.22,18.32,23.62,11.96,6.43,27.92,10.07,44.95,10.26.45,0,.9,0,1.35,0h0c16.74,0,32.45-3.38,44.25-9.51,11.76-6.12,18.29-14.28,18.38-22.99.1-8.83-6.41-17.22-18.32-23.62-11.96-6.43-27.92-10.07-44.95-10.26-.45,0-.9,0-1.35,0Z"/>
          <path class="cls-51" d="m96.71,455.2h0c-.51,0-1.03,0-1.54,0-20.52-.22-39.77-4.85-54.2-13.04-14.48-8.21-22.38-19.02-22.26-30.44.12-11.27,8.08-21.81,22.41-29.67,14.62-8.03,34.18-12.36,54.98-12.13,42.42.46,76.71,19.96,76.46,43.47-.12,11.27-8.08,21.81-22.41,29.67-14.26,7.83-33.24,12.14-53.43,12.14Zm-2.16-84.77c-20.11,0-39,4.29-53.19,12.07-14.16,7.77-22.02,18.15-22.14,29.22-.12,11.22,7.69,21.87,22,29.98,14.35,8.14,33.51,12.75,53.95,12.97.51,0,1.02,0,1.53,0h0c20.11,0,39-4.29,53.18-12.07,14.16-7.77,22.02-18.15,22.14-29.22.25-23.22-33.82-42.49-75.94-42.95-.51,0-1.03,0-1.53,0Z"/>
          <path class="cls-51" d="m96.42,423.87c-.31-.01-.61,0-.92,0-16.8-.18-30.42-5.4-30.35-11.64.07-6.27,13.61-11.16,30.6-10.97,16.8.18,30.42,5.4,30.35,11.64-.07,6.16-13.11,10.98-29.68,10.98Zm-1.59-22.1c-16.02,0-29.1,4.69-29.16,10.47-.06,5.95,13.32,10.93,29.84,11.11,16.44.19,30.01-4.58,30.07-10.46.06-5.95-13.32-10.93-29.84-11.11-.3,0-.61,0-.91,0Z"/>
          <path class="cls-41" d="m95.17,412.31h80.91c-.76-25.19-36.16-45.8-79.94-46.28-44.44-.48-80.69,19.96-80.97,45.65-.28,25.7,35.52,46.92,79.95,47.4h.04v-46.78Z"/>
          <path class="cls-40" d="m168.36,462.02l16.64,9.71c2.89,1.69,6.46,1.72,9.37.08h0c3.21-1.8,3.25-6.4.07-8.26l-16.64-9.71c-2.89-1.69-6.46-1.72-9.37-.08h0c-3.21,1.8-3.25,6.4-.07,8.26Z"/>
          <path class="cls-70" d="m191.55,484.02l73.35,43.45c6.53,3.87,14.62,3.96,21.23.25h0c7.43-4.16,7.55-14.81.23-19.15l-73.35-43.45c-6.53-3.87-14.62-3.96-21.23-.25h0c-7.43,4.16-7.56,14.81-.23,19.15Z"/>
          <path class="cls-50" d="m288.03,521.15c-.8-1.4-3.23-1.51-5.44-.25-2.2,1.26-3.34,3.41-2.55,4.81.8,1.4,3.23,1.51,5.44.25s3.34-3.41,2.55-4.81Z"/>
          <g>
            <path class="cls-33" d="m823.27,417.44c-6.4-2.5-14.19-3.93-22.4-4.36-8.29-.43-15.76-1.88-22.28-3.94-.18-.34-.41-.66-.7-.96-.31-.31-.7-.6-1.15-.87-1.05-.77-2.7-1.49-5.15-2.11.01,0,.02,0,.04,0-.46-.15-2.2-.56-4.42-.89-.64-.23-1.39-.44-2.2-.65.01,0,.02,0,.04,0-.83-.27-5.88-1.43-10.3-1.45-2.08-.43-4.95-.9-7.51-.94-4.45-.07-8.77.46-12.7,1.32-5.85-1.22-13.47-.49-18.48,1.97-4.99,2.46-5.76,5.85-2.33,8.26-2.62,3.05-2.93,6.29,1.33,8.97.45,1.49,1.78,2.9,4.29,4.11.07.04.16.07.23.11.26.12.5.24.78.36,0,0,0,0,0,0,.08.03.15.06.23.09.69.76,1.68,1.48,3.02,2.14.08.04.16.07.24.11.25.12.5.24.77.36,0,0,0,0,0,0,.71.29,1.51.54,2.36.76.25.12.51.24.8.35.97.38,2.09.66,3.34.84.61.09,1.25.15,1.91.2,5.67,2.72,9.93,5.96,12.08,9.67,2.17,3.74,6.89,7.14,14.17,9.66,17.72,6.13,46.21,4.8,62.53-3.23.53-.26,1.08-.5,1.6-.76,18.17-8.95,18.11-21.98-.14-29.09Z"/>
            <path class="cls-74" d="m729.16,403.87c0-5.74-1.51-10.46-3.44-11.03-1.12-.37-2.32-.56-3.57-.56-6.41,0-11.6,5.19-11.6,11.6s5.19,11.59,11.6,11.59c1.24,0,2.44-.2,3.57-.56,1.93-.57,3.44-5.29,3.44-11.03Z"/>
            <g>
              <path class="cls-19" d="m733.34,382.08c-.85.06-5.47.98-8.11,2.93-4.37,3.22-6.67,8.14-7.71,12.89-2.19,10,1.55,27.5,16.69,27.9-9.48-10.66-8.68-34.73-.86-43.71Z"/>
              <path class="cls-36" d="m747.02,418.62c1.96-4.08,5.11-19.33-.3-29.67-1.71-3.28-5.08-8.57-14.34-6.7-4.39.89-8.73,5.83-11.33,10.93-2.43,4.77-2.01,12.48-1.56,15.4.49,3.17,1.34,6.07,2.65,8.49,1.6,2.97,3.71,6,7.16,7.63,6.31,2.99,15.06-.57,17.71-6.08Z"/>
            </g>
            <g>
              <path class="cls-35" d="m738.8,379.43c-.85.07-5.47,1.1-8.11,3.28-4.37,3.61-6.67,9.13-7.71,14.46-2.19,11.21,1.55,30.84,16.69,31.29-9.48-11.95-8.68-38.96-.86-49.03Z"/>
              <path class="cls-31" d="m752.48,420.41c1.96-4.57,5.11-21.68-.3-33.28-1.71-3.68-5.08-9.61-14.34-7.51-4.39,1-8.73,6.54-11.33,12.25-2.43,5.36-2.01,14-1.56,17.27.49,3.56,1.34,6.8,2.65,9.52,1.6,3.33,3.71,6.73,7.16,8.56,6.31,3.35,15.06-.63,17.71-6.82Z"/>
            </g>
            <g>
              <path class="cls-22" d="m744.63,378.19c-.85.07-5.47,1.15-8.11,3.45-4.37,3.8-6.67,9.6-7.71,15.2-2.19,11.79,1.55,32.42,16.69,32.89-9.48-12.56-8.68-40.95-.86-51.53Z"/>
              <path class="cls-49" d="m758.31,421.26c1.95-4.81,5.11-22.79-.3-34.98-1.71-3.87-5.08-10.1-14.33-7.89-4.39,1.05-8.73,6.87-11.33,12.88-2.43,5.63-2.01,14.71-1.56,18.16.49,3.74,1.34,7.15,2.65,10.01,1.6,3.5,3.71,7.07,7.16,9,6.31,3.52,15.07-.67,17.71-7.17Z"/>
            </g>
            <path class="cls-21" d="m755.13,426.91c4.79-4.19,8.08-12.93,8.08-23.04s-3.17-18.53-7.81-22.81c-1.06-.97-2.2-1.72-3.38-2.21-1.06-.44-2.16-.67-3.29-.67-.39,0-.77.03-1.15.09-1.17.15-2.3.57-3.38,1.2-5.78,3.37-9.96,13.02-9.96,24.41s3.99,20.6,9.57,24.17c1.02.65,2.09,1.11,3.2,1.34.57.12,1.13.18,1.71.18,1.04,0,2.05-.19,3.03-.57,1.19-.44,2.33-1.15,3.38-2.08Z"/>
            <path class="cls-48" d="m760.48,403.87c0-12.68-5.94-21.51-11.26-21.51s-11.27,8.83-11.27,21.51,5.94,21.51,11.27,21.51,11.26-8.84,11.26-21.51Z"/>
            <path class="cls-76" d="m825.89,405.7c0-.57.04-1.13.04-1.69,0-19.59-15.88-35.47-35.47-35.47-6.87,0-13.29,1.96-18.72,5.34-6.54,4.07-14.13,5.85-21.83,6.02-3.5.08-6.98,2.41-9.65,7-5.45,9.38-5.45,24.65,0,34.1,2.67,4.63,6.16,7,9.67,7.11,7.84.24,15.5,2.2,22.21,6.27,5.85,3.54,12.81,5.44,20.23,5.05,18.08-.95,33.53-16.14,33.53-33.73Z"/>
            <g class="cls-80">
              <path class="cls-45" d="m797.31,404.49c0-8.63-7.02-15.65-15.65-15.65h-31.08c-2.59,0-4.68,2.1-4.68,4.68s2.1,4.68,4.68,4.68h31.08c3.46,0,6.28,2.82,6.28,6.28s-2.82,6.28-6.28,6.28h-31.08c-2.59,0-4.68,2.1-4.68,4.69s2.1,4.68,4.68,4.68h31.08c8.63,0,15.65-7.02,15.65-15.65Z"/>
            </g>
            <g>
              <path class="cls-42" d="m756.23,393.66c0-1.39-1.09-2.52-2.43-2.52s-2.43,1.13-2.43,2.52,1.09,2.52,2.43,2.52,2.43-1.13,2.43-2.52Z"/>
              <ellipse class="cls-42" cx="762.07" cy="393.66" rx="2.43" ry="2.52"/>
              <ellipse class="cls-42" cx="770.34" cy="393.66" rx="2.43" ry="2.52"/>
              <path class="cls-42" d="m781.03,393.66c0-1.39-1.09-2.52-2.42-2.52s-2.43,1.13-2.43,2.52,1.09,2.52,2.43,2.52,2.42-1.13,2.42-2.52Z"/>
              <path class="cls-42" d="m789.3,394.81c0-1.39-1.09-2.52-2.43-2.52s-2.43,1.13-2.43,2.52,1.09,2.52,2.43,2.52,2.43-1.13,2.43-2.52Z"/>
              <path class="cls-42" d="m794.15,400.83c0-1.39-1.08-2.52-2.43-2.52s-2.43,1.13-2.43,2.52,1.09,2.52,2.43,2.52,2.43-1.13,2.43-2.52Z"/>
              <path class="cls-42" d="m756.23,415.36c0-1.39-1.09-2.52-2.43-2.52s-2.43,1.13-2.43,2.52,1.09,2.52,2.43,2.52,2.43-1.13,2.43-2.52Z"/>
              <path class="cls-42" d="m764.5,415.36c0-1.39-1.09-2.52-2.43-2.52s-2.43,1.13-2.43,2.52,1.09,2.52,2.43,2.52,2.43-1.13,2.43-2.52Z"/>
              <path class="cls-42" d="m772.76,415.36c0-1.39-1.09-2.52-2.43-2.52s-2.43,1.13-2.43,2.52,1.09,2.52,2.43,2.52,2.43-1.13,2.43-2.52Z"/>
              <path class="cls-42" d="m781.03,415.36c0-1.39-1.09-2.52-2.42-2.52s-2.43,1.13-2.43,2.52,1.09,2.52,2.43,2.52,2.42-1.13,2.42-2.52Z"/>
              <path class="cls-42" d="m789.3,414.21c0-1.39-1.09-2.52-2.43-2.52s-2.43,1.13-2.43,2.52,1.09,2.52,2.43,2.52,2.43-1.13,2.43-2.52Z"/>
              <path class="cls-42" d="m794.15,408.19c0-1.39-1.08-2.52-2.43-2.52s-2.43,1.13-2.43,2.52,1.09,2.52,2.43,2.52,2.43-1.13,2.43-2.52Z"/>
            </g>
          </g>
        </g>
      </g>
    </g>
  </g>
</svg>