<?xml version="1.0" encoding="UTF-8"?>
<svg xmlns="http://www.w3.org/2000/svg" xmlns:xlink="http://www.w3.org/1999/xlink" viewBox="0 0 831.18 758.16">
  <defs>
    <style>
      .cls-1 {
        fill: url(#_Безымянный_градиент_72);
      }

      .cls-1, .cls-2, .cls-3, .cls-4, .cls-5, .cls-6, .cls-7, .cls-8, .cls-9, .cls-10, .cls-11, .cls-12, .cls-13, .cls-14, .cls-15, .cls-16, .cls-17, .cls-18, .cls-19, .cls-20, .cls-21, .cls-22, .cls-23, .cls-24, .cls-25, .cls-26, .cls-27, .cls-28, .cls-29, .cls-30, .cls-31, .cls-32, .cls-33, .cls-34, .cls-35, .cls-36, .cls-37, .cls-38, .cls-39, .cls-40, .cls-41, .cls-42, .cls-43, .cls-44, .cls-45, .cls-46, .cls-47, .cls-48, .cls-49, .cls-50, .cls-51, .cls-52, .cls-53, .cls-54, .cls-55, .cls-56, .cls-57, .cls-58, .cls-59, .cls-60, .cls-61, .cls-62, .cls-63, .cls-64, .cls-65, .cls-66 {
        stroke-width: 0px;
      }

      .cls-2 {
        fill: url(#_Безымянный_градиент_72-17);
      }

      .cls-3 {
        fill: url(#_Безымянный_градиент_72-16);
      }

      .cls-67, .cls-35 {
        fill: #fff;
      }

      .cls-4 {
        fill: url(#_Безымянный_градиент_72-6);
      }

      .cls-5 {
        fill: url(#_Безымянный_градиент_72-4);
      }

      .cls-6 {
        fill: url(#_Безымянный_градиент_72-12);
      }

      .cls-7 {
        fill: url(#_Безымянный_градиент_66-3);
      }

      .cls-8 {
        fill: url(#_Безымянный_градиент_67-6);
      }

      .cls-9 {
        fill: url(#_Безымянный_градиент_67-8);
      }

      .cls-10 {
        fill: url(#_Безымянный_градиент_72-11);
      }

      .cls-11 {
        fill: url(#_Безымянный_градиент_67);
      }

      .cls-12 {
        fill: url(#_Безымянный_градиент_35);
      }

      .cls-12, .cls-13, .cls-14, .cls-23, .cls-29, .cls-68, .cls-66 {
        mix-blend-mode: multiply;
      }

      .cls-13 {
        fill: url(#_Безымянный_градиент_92);
        opacity: .8;
      }

      .cls-14 {
        fill: #687037;
      }

      .cls-15 {
        fill: url(#_Безымянный_градиент_67-7);
      }

      .cls-16 {
        fill: url(#_Безымянный_градиент_66);
      }

      .cls-69 {
        clip-path: url(#clippath-2);
      }

      .cls-17 {
        fill: #eaeeef;
      }

      .cls-70 {
        isolation: isolate;
      }

      .cls-18 {
        fill: url(#_Безымянный_градиент_91);
      }

      .cls-18, .cls-65 {
        mix-blend-mode: screen;
      }

      .cls-19 {
        fill: url(#_Безымянный_градиент_72-5);
      }

      .cls-20 {
        fill: #322649;
      }

      .cls-21 {
        fill: url(#_Безымянный_градиент_66-7);
      }

      .cls-22 {
        fill: url(#_Безымянный_градиент_66-4);
      }

      .cls-23 {
        fill: #cfd3d3;
      }

      .cls-24 {
        fill: url(#_Безымянный_градиент_95-3);
      }

      .cls-25 {
        fill: url(#_Безымянный_градиент_67-4);
      }

      .cls-26 {
        fill: url(#_Безымянный_градиент_71-3);
      }

      .cls-27 {
        fill: none;
      }

      .cls-28 {
        fill: url(#_Безымянный_градиент_34-3);
      }

      .cls-29 {
        fill: url(#_Безымянный_градиент_35-2);
      }

      .cls-71 {
        clip-path: url(#clippath-1);
      }

      .cls-30 {
        fill: url(#_Безымянный_градиент_95-2);
      }

      .cls-31 {
        fill: url(#_Безымянный_градиент_72-9);
      }

      .cls-32 {
        fill: #182c3e;
      }

      .cls-33 {
        fill: url(#_Безымянный_градиент_66-2);
      }

      .cls-34 {
        fill: url(#_Безымянный_градиент_34-4);
      }

      .cls-36 {
        fill: #131c34;
      }

      .cls-37 {
        fill: url(#_Безымянный_градиент_72-15);
      }

      .cls-38 {
        fill: url(#_Безымянный_градиент_66-8);
      }

      .cls-39 {
        fill: url(#_Безымянный_градиент_72-2);
      }

      .cls-40 {
        fill: url(#_Безымянный_градиент_72-8);
      }

      .cls-41 {
        fill: url(#_Безымянный_градиент_70);
      }

      .cls-42 {
        fill: url(#_Безымянный_градиент_96-2);
      }

      .cls-43 {
        fill: url(#_Безымянный_градиент_72-14);
      }

      .cls-68 {
        opacity: .5;
      }

      .cls-72 {
        clip-path: url(#clippath);
      }

      .cls-44 {
        fill: #313f49;
      }

      .cls-45 {
        fill: url(#_Безымянный_градиент_96);
      }

      .cls-46 {
        fill: url(#_Безымянный_градиент_72-10);
      }

      .cls-47 {
        fill: #223c43;
      }

      .cls-48 {
        fill: url(#_Безымянный_градиент_72-13);
      }

      .cls-49 {
        fill: #1b3443;
      }

      .cls-50 {
        fill: url(#_Безымянный_градиент_67-3);
      }

      .cls-51 {
        fill: url(#_Безымянный_градиент_34);
      }

      .cls-52 {
        fill: #c4b5a5;
      }

      .cls-53 {
        fill: #e8e8e8;
      }

      .cls-54 {
        fill: url(#_Безымянный_градиент_66-5);
      }

      .cls-55 {
        fill: url(#_Безымянный_градиент_66-6);
      }

      .cls-56 {
        fill: url(#_Безымянный_градиент_71);
      }

      .cls-57 {
        fill: url(#_Безымянный_градиент_95);
      }

      .cls-58 {
        fill: url(#_Безымянный_градиент_67-2);
      }

      .cls-59 {
        fill: url(#_Безымянный_градиент_67-5);
      }

      .cls-60, .cls-66 {
        fill: #af8b61;
      }

      .cls-61 {
        fill: url(#_Безымянный_градиент_71-2);
      }

      .cls-62 {
        fill: url(#_Безымянный_градиент_72-3);
      }

      .cls-63 {
        fill: url(#_Безымянный_градиент_34-2);
      }

      .cls-64 {
        fill: url(#_Безымянный_градиент_72-7);
      }

      .cls-65 {
        fill: url(#_Безымянный_градиент_91-2);
      }
    </style>
    <linearGradient id="_Безымянный_градиент_71" data-name="Безымянный градиент 71" x1="384.6" y1="492.07" x2="502.23" y2="454.8" gradientUnits="userSpaceOnUse">
      <stop offset="0" stop-color="#fff"/>
      <stop offset=".99" stop-color="#9d959e"/>
    </linearGradient>
    <linearGradient id="_Безымянный_градиент_71-2" data-name="Безымянный градиент 71" x1="412.74" y1="486.96" x2="657.36" y2="486.96" xlink:href="#_Безымянный_градиент_71"/>
    <linearGradient id="_Безымянный_градиент_95" data-name="Безымянный градиент 95" x1="522.85" y1="502.76" x2="648.18" y2="502.76" gradientUnits="userSpaceOnUse">
      <stop offset="0" stop-color="#51616e"/>
      <stop offset=".17" stop-color="#6e7b86"/>
      <stop offset=".56" stop-color="#aeb5bc"/>
      <stop offset=".85" stop-color="#d5d9de"/>
      <stop offset="1" stop-color="#e5e7eb"/>
    </linearGradient>
    <linearGradient id="_Безымянный_градиент_70" data-name="Безымянный градиент 70" x1="456.27" y1="538.48" x2="494.58" y2="538.48" gradientTransform="translate(716.77 -138.09) rotate(61.07)" gradientUnits="userSpaceOnUse">
      <stop offset="0" stop-color="#3a516e"/>
      <stop offset="1" stop-color="#192f46"/>
    </linearGradient>
    <linearGradient id="_Безымянный_градиент_96" data-name="Безымянный градиент 96" x1="316.36" y1="346.03" x2="634.32" y2="346.03" gradientUnits="userSpaceOnUse">
      <stop offset="0" stop-color="#49576d"/>
      <stop offset="1" stop-color="#6d6a6d"/>
    </linearGradient>
    <linearGradient id="_Безымянный_градиент_96-2" data-name="Безымянный градиент 96" x1="321.93" y1="218.62" x2="623.74" y2="218.62" xlink:href="#_Безымянный_градиент_96"/>
    <linearGradient id="_Безымянный_градиент_95-2" data-name="Безымянный градиент 95" x1="298.14" y1="349.21" x2="627.5" y2="349.21" xlink:href="#_Безымянный_градиент_95"/>
    <linearGradient id="_Безымянный_градиент_95-3" data-name="Безымянный градиент 95" x1="297.92" y1="430.24" x2="627.65" y2="430.24" xlink:href="#_Безымянный_градиент_95"/>
    <linearGradient id="_Безымянный_градиент_71-3" data-name="Безымянный градиент 71" x1="352.42" y1="171.76" x2="634.97" y2="406.76" xlink:href="#_Безымянный_градиент_71"/>
    <clipPath id="clippath">
      <polygon class="cls-35" points="576.73 331.65 563.96 516.28 328.29 387.71 340.81 202.96 576.73 331.65"/>
    </clipPath>
    <linearGradient id="_Безымянный_градиент_35" data-name="Безымянный градиент 35" x1="14911.92" y1="9.75" x2="14954.59" y2="-88.31" gradientTransform="translate(15915.19 167.91) rotate(179.21) scale(1.04 -.96) skewX(4.35)" gradientUnits="userSpaceOnUse">
      <stop offset="0" stop-color="#49576d"/>
      <stop offset=".08" stop-color="#59667a"/>
      <stop offset=".4" stop-color="#98a2ad"/>
      <stop offset=".67" stop-color="#c6ced3"/>
      <stop offset=".88" stop-color="#e2e8ea"/>
      <stop offset="1" stop-color="#edf3f3"/>
    </linearGradient>
    <clipPath id="clippath-1">
      <polygon class="cls-27" points="464.7 98.55 454.45 246.67 324.16 175.3 334.21 27.08 464.7 98.55"/>
    </clipPath>
    <linearGradient id="_Безымянный_градиент_35-2" data-name="Безымянный градиент 35" x1="14939.47" y1="-117.62" x2="15044.2" y2="-278.54" xlink:href="#_Безымянный_градиент_35"/>
    <linearGradient id="_Безымянный_градиент_34" data-name="Безымянный градиент 34" x1="14984.37" y1="-198.74" x2="14956.54" y2="-159.48" gradientTransform="translate(15915.19 167.91) rotate(179.21) scale(1.04 -.96) skewX(4.35)" gradientUnits="userSpaceOnUse">
      <stop offset="0" stop-color="#fff"/>
      <stop offset=".99" stop-color="#fdfeff"/>
    </linearGradient>
    <linearGradient id="_Безымянный_градиент_67" data-name="Безымянный градиент 67" x1="18631.69" y1="-199.33" x2="18657.68" y2="-199.33" gradientTransform="translate(19700.45 115.5) rotate(179.21) scale(1.04 -.96) skewX(4.35)" gradientUnits="userSpaceOnUse">
      <stop offset="0" stop-color="#b1bb27"/>
      <stop offset="1" stop-color="#a76c0b"/>
    </linearGradient>
    <clipPath id="clippath-2">
      <polygon class="cls-27" points="600.52 172.42 590.27 320.54 459.98 249.17 470.03 100.95 600.52 172.42"/>
    </clipPath>
    <linearGradient id="_Безымянный_градиент_34-2" data-name="Безымянный градиент 34" x1="16142.12" y1="2223.17" x2="16129.06" y2="2220.43" gradientTransform="translate(16719.22 1771.55) rotate(-167.68) scale(1 -1)" xlink:href="#_Безымянный_градиент_34"/>
    <linearGradient id="_Безымянный_градиент_34-3" data-name="Безымянный градиент 34" x1="14703.68" y1="533.96" x2="14688.54" y2="520.39" gradientTransform="translate(15213.77) rotate(-180) scale(1 -1)" xlink:href="#_Безымянный_градиент_34"/>
    <linearGradient id="_Безымянный_градиент_34-4" data-name="Безымянный градиент 34" x1="14710.23" y1="280.6" x2="14703.47" y2="206.74" gradientTransform="translate(15213.77) rotate(-180) scale(1 -1)" xlink:href="#_Безымянный_градиент_34"/>
    <linearGradient id="_Безымянный_градиент_72" data-name="Безымянный градиент 72" x1="15537.18" y1="413.84" x2="15570.03" y2="420.22" gradientTransform="translate(15800.19) rotate(-180) scale(1 -1)" gradientUnits="userSpaceOnUse">
      <stop offset="0" stop-color="#b5c436"/>
      <stop offset="1" stop-color="#b1bb27"/>
    </linearGradient>
    <linearGradient id="_Безымянный_градиент_72-2" data-name="Безымянный градиент 72" x1="223.46" y1="413.79" x2="293.26" y2="413.79" gradientTransform="matrix(1,0,0,1,0,0)" xlink:href="#_Безымянный_градиент_72"/>
    <linearGradient id="_Безымянный_градиент_92" data-name="Безымянный градиент 92" x1="3197.04" y1="471.92" x2="3226.56" y2="471.92" gradientTransform="translate(-2934.16)" gradientUnits="userSpaceOnUse">
      <stop offset="0" stop-color="#445b71"/>
      <stop offset=".99" stop-color="#1d313a"/>
    </linearGradient>
    <linearGradient id="_Безымянный_градиент_91" data-name="Безымянный градиент 91" x1="3177.81" y1="314.33" x2="3195.22" y2="299.17" gradientTransform="translate(-2934.16)" gradientUnits="userSpaceOnUse">
      <stop offset="0" stop-color="#0f1117"/>
      <stop offset=".82" stop-color="#1e333a"/>
      <stop offset="1" stop-color="#223c43"/>
    </linearGradient>
    <linearGradient id="_Безымянный_градиент_91-2" data-name="Безымянный градиент 91" x1="3180.45" y1="297.11" x2="3183.54" y2="292.59" xlink:href="#_Безымянный_градиент_91"/>
    <linearGradient id="_Безымянный_градиент_67-2" data-name="Безымянный градиент 67" x1="151.08" y1="188.72" x2="257.89" y2="188.72" gradientTransform="matrix(1,0,0,1,0,0)" xlink:href="#_Безымянный_градиент_67"/>
    <linearGradient id="_Безымянный_градиент_67-3" data-name="Безымянный градиент 67" x1="209.34" y1="254.45" x2="217.06" y2="254.45" gradientTransform="matrix(1,0,0,1,0,0)" xlink:href="#_Безымянный_градиент_67"/>
    <linearGradient id="_Безымянный_градиент_67-4" data-name="Безымянный градиент 67" x1="244.72" y1="229.04" x2="253.65" y2="229.04" gradientTransform="matrix(1,0,0,1,0,0)" xlink:href="#_Безымянный_градиент_67"/>
    <linearGradient id="_Безымянный_градиент_72-3" data-name="Безымянный градиент 72" x1="145.12" y1="192.4" x2="251.94" y2="192.4" gradientTransform="matrix(1,0,0,1,0,0)" xlink:href="#_Безымянный_градиент_72"/>
    <linearGradient id="_Безымянный_градиент_72-4" data-name="Безымянный градиент 72" x1="698.37" y1="638.78" x2="707.78" y2="623.14" gradientTransform="matrix(1,0,0,1,0,0)" xlink:href="#_Безымянный_градиент_72"/>
    <linearGradient id="_Безымянный_градиент_67-5" data-name="Безымянный градиент 67" x1="713.39" y1="624.72" x2="750.87" y2="624.72" gradientTransform="matrix(1,0,0,1,0,0)" xlink:href="#_Безымянный_градиент_67"/>
    <linearGradient id="_Безымянный_градиент_72-5" data-name="Безымянный градиент 72" x1="675.73" y1="607.35" x2="747.42" y2="607.35" gradientTransform="matrix(1,0,0,1,0,0)" xlink:href="#_Безымянный_градиент_72"/>
    <linearGradient id="_Безымянный_градиент_72-6" data-name="Безымянный градиент 72" x1="630.84" y1="677.88" x2="640.25" y2="662.24" gradientTransform="matrix(1,0,0,1,0,0)" xlink:href="#_Безымянный_градиент_72"/>
    <linearGradient id="_Безымянный_градиент_67-6" data-name="Безымянный градиент 67" x1="645.86" y1="663.82" x2="683.34" y2="663.82" gradientTransform="matrix(1,0,0,1,0,0)" xlink:href="#_Безымянный_градиент_67"/>
    <linearGradient id="_Безымянный_градиент_72-7" data-name="Безымянный градиент 72" x1="608.2" y1="646.45" x2="679.88" y2="646.45" gradientTransform="matrix(1,0,0,1,0,0)" xlink:href="#_Безымянный_градиент_72"/>
    <linearGradient id="_Безымянный_градиент_72-8" data-name="Безымянный градиент 72" x1="563.3" y1="716.97" x2="572.71" y2="701.33" gradientTransform="matrix(1,0,0,1,0,0)" xlink:href="#_Безымянный_градиент_72"/>
    <linearGradient id="_Безымянный_градиент_67-7" data-name="Безымянный градиент 67" x1="578.32" y1="702.91" x2="615.8" y2="702.91" gradientTransform="matrix(1,0,0,1,0,0)" xlink:href="#_Безымянный_градиент_67"/>
    <linearGradient id="_Безымянный_градиент_72-9" data-name="Безымянный градиент 72" x1="540.66" y1="685.54" x2="612.35" y2="685.54" gradientTransform="matrix(1,0,0,1,0,0)" xlink:href="#_Безымянный_градиент_72"/>
    <linearGradient id="_Безымянный_градиент_66" data-name="Безымянный градиент 66" x1="7.19" y1="524.85" x2="19.31" y2="524.85" gradientUnits="userSpaceOnUse">
      <stop offset="0" stop-color="#182c3e"/>
      <stop offset=".99" stop-color="#313f49"/>
    </linearGradient>
    <linearGradient id="_Безымянный_градиент_66-2" data-name="Безымянный градиент 66" x1="90.33" y1="523.22" x2="102.45" y2="523.22" xlink:href="#_Безымянный_градиент_66"/>
    <linearGradient id="_Безымянный_градиент_66-3" data-name="Безымянный градиент 66" x1=".1" y1="535.89" x2="113.52" y2="535.89" xlink:href="#_Безымянный_градиент_66"/>
    <linearGradient id="_Безымянный_градиент_66-4" data-name="Безымянный градиент 66" x1="49.65" y1="573.46" x2="66.95" y2="573.46" xlink:href="#_Безымянный_градиент_66"/>
    <linearGradient id="_Безымянный_градиент_66-5" data-name="Безымянный градиент 66" x1="105.67" y1="546.42" x2="113.52" y2="546.42" xlink:href="#_Безымянный_градиент_66"/>
    <linearGradient id="_Безымянный_градиент_66-6" data-name="Безымянный градиент 66" x1="92.13" y1="563.37" x2="104.76" y2="563.37" xlink:href="#_Безымянный_градиент_66"/>
    <linearGradient id="_Безымянный_градиент_66-7" data-name="Безымянный градиент 66" x1="10.64" y1="565.31" x2="24.08" y2="565.31" xlink:href="#_Безымянный_градиент_66"/>
    <linearGradient id="_Безымянный_градиент_66-8" data-name="Безымянный градиент 66" x1="0" y1="548.82" x2="7.94" y2="548.82" xlink:href="#_Безымянный_градиент_66"/>
    <linearGradient id="_Безымянный_градиент_72-10" data-name="Безымянный градиент 72" x1="65.66" y1="467.45" x2="75.08" y2="467.45" gradientTransform="matrix(1,0,0,1,0,0)" xlink:href="#_Безымянный_градиент_72"/>
    <linearGradient id="_Безымянный_градиент_72-11" data-name="Безымянный градиент 72" x1="130.26" y1="466.19" x2="139.68" y2="466.19" gradientTransform="matrix(1,0,0,1,0,0)" xlink:href="#_Безымянный_градиент_72"/>
    <linearGradient id="_Безымянный_градиент_67-8" data-name="Безымянный градиент 67" x1="60.15" y1="486.76" x2="148.28" y2="486.76" gradientTransform="matrix(1,0,0,1,0,0)" xlink:href="#_Безымянный_градиент_67"/>
    <linearGradient id="_Безымянный_градиент_72-12" data-name="Безымянный градиент 72" x1="60.15" y1="476.04" x2="148.28" y2="476.04" gradientTransform="matrix(1,0,0,1,0,0)" xlink:href="#_Безымянный_градиент_72"/>
    <linearGradient id="_Безымянный_градиент_72-13" data-name="Безымянный градиент 72" x1="98.66" y1="505.23" x2="112.1" y2="505.23" gradientTransform="matrix(1,0,0,1,0,0)" xlink:href="#_Безымянный_градиент_72"/>
    <linearGradient id="_Безымянный_градиент_72-14" data-name="Безымянный градиент 72" x1="142.19" y1="484.22" x2="148.28" y2="484.22" gradientTransform="matrix(1,0,0,1,0,0)" xlink:href="#_Безымянный_градиент_72"/>
    <linearGradient id="_Безымянный_градиент_72-15" data-name="Безымянный градиент 72" x1="131.66" y1="497.39" x2="141.48" y2="497.39" gradientTransform="matrix(1,0,0,1,0,0)" xlink:href="#_Безымянный_градиент_72"/>
    <linearGradient id="_Безымянный_градиент_72-16" data-name="Безымянный градиент 72" x1="68.34" y1="498.9" x2="78.79" y2="498.9" gradientTransform="matrix(1,0,0,1,0,0)" xlink:href="#_Безымянный_градиент_72"/>
    <linearGradient id="_Безымянный_градиент_72-17" data-name="Безымянный градиент 72" x1="60.08" y1="486.08" x2="66.25" y2="486.08" gradientTransform="matrix(1,0,0,1,0,0)" xlink:href="#_Безымянный_градиент_72"/>
  </defs>
  <g class="cls-70">
    <g id="Layer_2" data-name="Layer 2">
      <g id="Layer_1-2" data-name="Layer 1">
        <g>
          <g>
            <g>
              <path class="cls-56" d="m618.27,479.83c-9.32-15.28-12.42-33.46-8.85-50.82.86-4.17-1.09-8.42-4.77-10.56l-181.91-101.51c-6,19.21-3.48,40.07,6.91,57.3l38.09,58.23c2.99,4.95,1.36,11.38-3.62,14.32l-62.97,37.14c-6.85,4.04-6.81,13.97.08,17.95l159.64,88.2c8.35,4.82,18.65,4.81,26.99-.03l63.38-36.79c5.95-3.45,7.89-11.12,4.31-16.99l-37.29-56.42Z"/>
              <path class="cls-61" d="m618.27,479.83c-10.18-16.69-12.94-36.83-7.69-55.59l-14.38,48.77s-162.47-93.08-162.28-92.76l33.83,52.22c2.99,4.95,1.36,11.38-3.62,14.32l-51.39,30.31,141.15,77.96c9.06,9.06,7.41,18.97-.99,28.12l-.11,2.23,8.09,4.67c8.35,4.82,18.65,4.81,26.99-.03l63.38-36.79c5.95-3.45,7.89-11.12,4.31-16.99l-37.29-56.42Z"/>
              <path class="cls-57" d="m611.98,487.15c-10.18-16.69-15.77-14.15-15.77-14.15,0,0-15.38-9.39-33.91-20.7l-39.44,23.27,119.03,77.63c5.95-3.45,8.15-10.97,4.57-16.83l-34.47-49.22Z"/>
              <rect class="cls-41" x="474.77" y="516.95" width="1.31" height="43.05" transform="translate(-225.83 694.14) rotate(-61.07)"/>
            </g>
            <path class="cls-45" d="m625.03,294.88l-284.49-155.2c-2.42-1.32-5.1-1.2-7.27-.09v-.02s-11.35,5.82-11.35,5.82l-5.55,234.49c-.21,3.03,1.37,5.91,4.04,7.37l283.06,166.08,11.07-5.69c2.15-1.22,3.74-3.44,3.93-6.23l15.8-229.66c.48-6.95-3.13-13.54-9.25-16.88Z"/>
            <path class="cls-42" d="m333.27,139.59v-.02s-11.35,5.82-11.35,5.82l287.83,153.13,13.98-4.35-283.2-154.5c-2.42-1.32-5.1-1.2-7.27-.09Z"/>
            <path class="cls-30" d="m619.66,300.17l-283.69-154.77c-9.63-5.25-21.46,1.23-22.22,12.18l-15.57,226.43c-.4,5.86,2.64,11.43,7.81,14.24l283.69,154.76c9.63,5.25,21.46-1.23,22.22-12.18l15.57-226.43c.4-5.86-2.64-11.43-7.8-14.24Z"/>
            <path class="cls-24" d="m609.3,539.3c-1.41,11.71-13.42,13.14-17.43,10.95l-293.24-159.66c-.25-.14-.48-.28-.7-.45.33,2.48,1.82,4.71,4.08,5.94l289.95,157.88c5.1,2.78,18.07-.67,19.94-12.31l15.73-228.99c.16-2.34-.75-5.45-2.38-7.05.01.05-15.96,233.7-15.96,233.7Z"/>
            <path class="cls-35" d="m619.72,317.33l-295.08-160.97c-1.85-1.01-4.12.23-4.28,2.33l-16.19,220.51c-.08,1.13.5,2.21,1.5,2.76l295.07,160.97c1.85,1.01,4.12-.23,4.28-2.33l16.2-220.51c.08-1.13-.5-2.21-1.5-2.76Z"/>
          </g>
          <g>
            <path class="cls-26" d="m331.33,14.1l-23.96,353.27c-.36,5.25,2.38,10.23,7,12.75l258.13,140.82c7.56,4.13,16.86-.97,17.45-9.56l23.67-342.31c1.02-14.96-6.59-28.67-19.98-36.02L354.59,1.81c-9.58-5.26-22.53,1.58-23.26,12.29Z"/>
            <path class="cls-32" d="m331.33,14.1h0l282.3,154.97h0c1.02-14.96-6.59-28.67-19.98-36.02L354.59,1.81c-9.58-5.26-22.53,1.58-23.26,12.29Z"/>
            <g>
              <polygon class="cls-67" points="576.73 331.65 563.96 516.28 328.29 387.71 340.81 202.96 576.73 331.65"/>
              <g class="cls-72">
                <g>
                  <path class="cls-12" d="m402.08,369.06c4.32-2.4,8.75-4.5,13.24-6.31-2.92-6.23-.99-15.59-1.04-19.18,0,0,.13.21.35.53-.43-.79-.83-1.56-1.14-2.29-3.6-8.39-4.93-10.65-6.25-19.12-.13-.81-.19-1.6-.27-2.4-10.85,2.01-19.22,1.14-19.22,1.14,0,0,12.57-14.98,12.85-19.81.69-11.89,16.03-38.44,57.92-26.71,24.77,6.93,18.5,36.61,16.46,46.61-.6,2.99-1.09,5.7-2.66,13.07,4.43,10.27,6.78,19.32,7.06,20.87,23.58,3.73,45.36,14.42,61.19,31.05,42.36,44.53,11.99,115.41,5.35,116.72-47.84,9.45-174.72-8.05-195.34-50.77,0,0,21.78-66.92,51.49-83.4Z"/>
                  <g>
                    <path class="cls-32" d="m507.36,393.62c-32.87-34.56-91.45-43.56-138.49-17.45-29.71,16.49-51.49,83.4-51.49,83.4,20.61,42.72,147.5,60.22,195.34,50.77,6.64-1.31,37.01-72.19-5.35-116.72Z"/>
                    <polygon class="cls-49" points="426.37 377.23 407.71 391.69 405.11 372.96 426.37 377.23"/>
                    <path class="cls-60" d="m402.98,354.61s5.28,11.58,2.13,18.35c-1.15,2.48,7.46,7.28,21.26,4.26,13.8-3.01,20.03-13.28,19.82-14.56-.2-1.27-2.56-10.52-7.09-21.01-4.53-10.49-14.3-36.05-14.3-36.05l-21.82,49Z"/>
                    <path class="cls-60" d="m425.68,349.66c-.9,4.9-21.22,18.69-28.72,18.28-3.52-.2-13.48-11.6-16.68-19.03-3.6-8.39-4.93-10.65-6.25-19.12-1.56-9.94.68-19.42,2.72-22.93,2.04-3.52,13.48-14.61,24.03-14.94,10.55-.33,23.68,5.04,24.46,9.5.78,4.46-2.26,20.24-2.26,20.24,0,0,.31,2,.74,4.94,1,7.07,2.62,19.6,1.97,23.05Z"/>
                    <path class="cls-47" d="m417.74,332.74c2.63,9.27-4.09,17.32-15.33,22.17-4.8,2.05-2.19,3.78-12.19,3.37-4.49-.17-9.15-7.6-9.15-7.6.08,5.61-4.73,25.36,11.79,25.13,17.26-.24,36.41-15.73,34.57-24.37-2.33-10.87-8.31-29.14-8.22-29.16.69-1.67,3.35-7.28,7.65-5.67,3.67,1.36,3.65,7.46,2.89,11.57,3.76,4.81,7.17,11,9.23,14.17,1.69-7.9,2.17-10.63,2.79-13.72,2.04-9.99,8.3-39.68-16.46-46.61-41.89-11.73-57.22,14.81-57.92,26.71-.28,4.83-12.85,19.81-12.85,19.81,0,0,15.03,1.56,30.93-4.33,9.82-3.64,20.22-3.59,23.26-2.99,2.54.5,7.17,4.94,9.02,11.53Z"/>
                  </g>
                </g>
              </g>
            </g>
            <polygon class="cls-35" points="464.7 98.55 454.45 246.67 324.16 175.3 334.21 27.08 464.7 98.55"/>
            <g class="cls-71">
              <g>
                <path class="cls-29" d="m268,227.52c.54-.96-.77-.39-.64-2.05.13-1.65.74-4.81,1.68-6.13.39-.54,2.39-2.82,2.39-2.82,0,0-.61-1.25-.28-2.02,1.1-2.55,6.47-6.47,8.41-7.34,1.94-.87,9.9-2.05,13.53-4.52.59-.4,1.2-.81,1.84-1.24-.18-2.31-.14-4.31-.08-5.66,3.61-2.33,5.73-3.75,8.89-4.44,0,.21-.02.45-.02.69,1.88-1.12,3.92-2.34,6.01-3.6h0c8.95-5.41,18.71-11.53,20.14-13.45,4-5.36,27.84-50.99,32.51-53.47,3.96-2.1,7.3-3.95,10.44-5.02.03-1.45.53-2.86,1.75-4.16,3.99-4.27,4.62-6.15,2.05-10.33-2.57-4.18-1.57-11.53,2.15-16.73,1.25-1.75,3.71-4.5,6.61-7.16.04-.07.08-.14.13-.21,1.7-2.38,13.32-13.15,27.02-5.14,3.4,1.71,5.42,4.08,6.55,6.64,2.87,4.24,4.12,10.35,3.13,20.41-1.08,10.94,5.49,5.7,6.13,18.49.29,5.73,2.24,7.9,4.38,10.02,3.04,2.49,5.6,5,6.49,6.9.05.11.1.23.15.34,6.73,6.32,7.51,21.99,7.47,23.16-.24,7.78-2.87,27.35-4.81,41.59-.23,1.7-.56,3.98-.99,6.65-.06.73-.13,1.44-.19,2.15,0,.1-.02.21-.03.31-.15,1.67-.3,3.29-.45,4.83,0,.08-.02.16-.02.25-.15,1.54-.3,3.01-.44,4.4,0,.08-.02.15-.02.23-.14,1.38-.28,2.67-.41,3.86,0,.06-.01.12-.02.18-.13,1.19-.25,2.29-.37,3.27,0,.04,0,.08-.01.12-.11.99-.21,1.86-.3,2.6,0,.02,0,.04,0,.06-.22,1.89-.36,2.96-.36,2.96,0,0,0,0,0,0-.21.52-.46,1.01-.74,1.48-.09.15-.19.28-.28.42-.21.32-.44.63-.69.92-.12.14-.24.28-.36.41-.28.3-.57.58-.88.84-.11.1-.21.2-.33.29-.11.09-.23.18-.35.26-.27.98-.55,1.94-.84,2.89-.06.36-.11.73-.17,1.08.45-.06.86-.11,1.21-.17-.18,2.68-1.05,4.69-2.47,7.6-.03.15-.05.29-.08.43-.03.18-.06.35-.1.53-.06.31-.11.62-.17.92-.03.18-.07.36-.1.54-.05.28-.11.55-.16.82-.04.19-.07.38-.11.57-.05.25-.1.5-.15.74-.04.19-.08.38-.11.56-.05.23-.09.46-.14.67-.04.19-.08.37-.11.55-.04.21-.09.41-.13.61-.04.19-.08.36-.12.54-.04.18-.08.36-.12.53-.07.33-.15.64-.22.94-.03.13-.06.24-.09.36-.04.18-.09.36-.13.53-.03.12-.06.23-.09.35-.04.15-.08.3-.12.43-.03.11-.06.22-.09.32-.04.12-.07.25-.1.36-.03.1-.06.19-.08.28-.03.11-.07.21-.1.3-.03.08-.05.15-.08.22-.03.09-.06.17-.09.25-.02.06-.05.12-.07.17-.03.07-.06.13-.09.19-.02.04-.04.08-.06.11-.03.05-.06.09-.09.13-.01.02-.03.04-.04.06-.04.04-.08.06-.12.06,0,0,0,0,0,0h0c-.89.01-1.92-.3-3.02-.83-.22-.11-.44-.22-.67-.35-.45-.25-.91-.53-1.37-.83-.46-.31-.93-.64-1.4-.99-.23-.18-.47-.36-.7-.54-1.92-1.51-3.82-3.29-5.43-4.9-.09.2-.19.4-.28.58-1.76,3.58-1.5,10.84-2,12.69-.5,1.85-3.37,7.17-5.65,8.5-.69.4-2.01.02-2.01.02,0,0-1.86,2.1-2.32,2.52-1.11,1.02-4.08,1.99-5.66,2.33-1.58.34-1.26-.9-2.1-.3-.84.61-2.12.28-2.21-.04-.3-1.09,4.55-6.9,4.55-6.9,0,0,1.57-3.3,1.96-4.22.39-.93.46-2.92-.46-1.97-.92.95-3.81,4.91-5.65,5.52-1.84.61-2.84.28-2.94-.35-.1-.63,2.24-3.32,2.92-4.04.68-.72,2.17-3.64,2.48-5.02.25-1.15,2.71-3.97,5.16-6.63-1.11.74-2.3,1.51-3.54,2.28-.9.56-1.83,1.12-2.79,1.67-2.44,1.41-5.02,2.8-7.7,4.02-.03.01-.05.02-.08.04-5.85,2.68-12.06,4.64-17.75,4.65-.01,0-.02,0-.03,0-.63,0-1.25-.03-1.87-.07-.19-.01-.37-.03-.55-.05-.48-.04-.95-.1-1.42-.17-.16-.02-.32-.04-.48-.07-.61-.1-1.21-.21-1.8-.35-.12-.03-.23-.06-.35-.09-.49-.12-.98-.25-1.46-.39-.18-.05-.35-.11-.53-.16-.48-.15-.95-.31-1.41-.47-.11-.04-.22-.08-.33-.12-.56-.21-1.12-.43-1.67-.67-.14-.06-.29-.13-.43-.19-.42-.18-.84-.38-1.25-.58-.15-.08-.31-.15-.46-.23-.52-.26-1.03-.52-1.54-.8,0,0-.01,0-.02-.01-.51-.28-1.01-.57-1.51-.87-.14-.08-.28-.17-.42-.25-.38-.23-.75-.46-1.11-.7-.12-.08-.24-.15-.35-.23-.46-.3-.91-.61-1.35-.92-.08-.06-.15-.11-.23-.17-.37-.26-.72-.52-1.07-.78-.12-.09-.24-.18-.35-.27-.34-.26-.68-.52-1-.78-.07-.05-.13-.1-.2-.16-.39-.31-.76-.61-1.11-.92-.08-.07-.16-.14-.24-.21-.28-.24-.55-.47-.81-.7-.09-.08-.17-.15-.26-.23-2.9-2.59-4.59-4.59-4.59-4.59,0,0,3.05-17.55,5.6-34-1.95-1.33-4.15-3.49-4.7-6.72,0,0,5.78-27.92,8.1-40.34.39-2.09.92-4.18,1.53-6.25-3.53,2.61,12.09,9.23,10.02,12.84-.43.75-.86,1.49-1.29,2.22-.86,1.45-1.73,2.85-2.59,4.17-3.02,4.63-6,8.35-8.73,10.44-.66.5-1.52,1.11-2.55,1.78-6.51,4.29-19.66,11.62-29.79,16.88-1.07.55-2.1,1.08-3.09,1.58-.4.2-.78.39-1.16.59.41.36.81.72,1.26,1.06-3.12.95-1.7,1.51-8.89,4.44-2.85-2.13-4.83-4.81-6.21-7.64-1.82.93-3.06,1.68-3.48,2.18-2.87,3.44-6.48,7.68-7.94,8.26-1.46.58-4.42,2.66-5.1,3.48-.68.82-3.25,3.69-3.96,3.72-.7.03-1.21-.91-.83-2.87.38-1.96,4.26-5.64,5.16-6.75.9-1.11-1.26-.65-2.22-.07-.95.58-4.31,2.8-4.31,2.8,0,0-5.6,6-6.84,5.92-.37-.02-.92-1.24-.38-2.2Z"/>
                <g>
                  <path class="cls-47" d="m388.1,67.66c3.42,4.27,4.99,10.55,3.91,21.49-1.08,10.94,5.49,5.7,6.13,18.49.64,12.79,9.55,7.83,10.45,24.21.9,16.38-8.13,20.72-9.23,31.97-1.1,11.25,6.46,11.15,3.68,19.93,0,0-31.57-2.68-49.52-20.23,0,0,5.34-6.94,6.04-12.26.7-5.32-2.78-8.55.38-15.46,3.16-6.91,5.97-8.67,3.27-13.47-2.7-4.8-6.37-10.06-2.38-14.33,3.99-4.27,4.62-6.15,2.05-10.33-2.57-4.18-1.57-11.53,2.15-16.73,3.71-5.2,18.2-19.36,23.08-13.28Z"/>
                  <path class="cls-60" d="m279.3,232.17c.63-.85,3.48-3.09,4.91-3.74,1.43-.66,4.81-5.08,7.49-8.66,2.68-3.59,44.16-21.56,50.33-25.26,1.81-1.09,22.05-51.39,28.25-58.77,6.77-8.05,2.88-12.12,1.55-14.7-5.92-11.51-17.03-.66-20.63,6.58-3.6,7.24-18.97,52.68-25.73,56.15-9.64,4.94-26.42,16.4-35.75,23.5-3.5,2.66-11.39,4.26-13.27,5.23-1.89.97-7.04,5.18-8.01,7.78-.29.78.39,2,.39,2,0,0-1.88,2.38-2.24,2.94-.87,1.36-1.31,4.55-1.36,6.21-.04,1.66,1.23,1.02.75,2.01-.48.99.13,2.17.5,2.18,1.24.01,6.51-6.27,6.51-6.27,0,0,3.23-2.4,4.15-3.03.92-.63,3.06-1.2,2.22-.05-.84,1.15-4.52,5.04-4.79,7.02-.28,1.98.28,2.89.98,2.82.7-.07,3.12-3.07,3.76-3.93Z"/>
                  <g>
                    <path class="cls-32" d="m301.36,222.88c7.05-3.15,36.32-21.05,43.06-26.8,11.95-10.21,27.37-54.71,29.43-63.38,2.65-11.12-.27-19.94-.43-20.2-.55-.85-4.01-3.47-5.36-3.53-9.54-.47-12.84,5.69-18.46,14.8-2.78,4.5-20.93,48.33-24.64,53.89-2.29,3.44-28.55,20.62-33.63,24.02-.05,4.32.42,15.7,10.03,21.21Z"/>
                    <path class="cls-44" d="m291.33,201.67c2.13-1.43,7.98-5.27,14.23-9.52-1.79,7.16,5.12,15.4,13.63,10.63,7.23-4.05,15.04-6.86,22.16-11.16,10.07-6.09,26.22-46.94,33.53-65.85-.13,2.16-.44,4.48-1.02,6.92-2.07,8.67-17.48,53.17-29.43,63.38-6.74,5.76-36.01,23.65-43.06,26.8-9.61-5.5-10.08-16.89-10.03-21.21Z"/>
                    <path class="cls-44" d="m310.3,219.8c-9.77-6.53-10.52-19.56-10.56-24.42-3.11.86-5.16,2.39-8.64,4.91.03,4.86.78,17.89,10.56,24.42,7.02-3.3,5.58-3.79,8.64-4.91Z"/>
                  </g>
                  <path class="cls-47" d="m404.55,73.99c3.42,4.27,4.99,10.55,3.91,21.49-1.08,10.94,5.49,5.7,6.13,18.49.64,12.79,9.55,7.83,10.45,24.21.9,16.38-8.13,20.72-9.23,31.97-1.1,11.25,6.46,11.15,3.68,19.93,0,0-31.57-2.68-49.52-20.23,0,0,5.34-6.94,6.04-12.26.7-5.32-2.78-8.55.38-15.46,3.16-6.91,5.97-8.67,3.27-13.47-2.7-4.8-6.37-10.06-2.38-14.33,3.99-4.27,4.62-6.15,2.05-10.33-2.57-4.18-1.57-11.53,2.15-16.73,3.71-5.2,18.2-19.36,23.08-13.28Z"/>
                  <path class="cls-51" d="m415.5,256.97c-5.71.08-16.9-13.07-16.9-13.07,0,0-23.54,19.95-41.75,19.99-16.56.04-30.21-16.16-30.21-16.16,0,0,8.99-51.75,9-60.79.01-9.04.38-20.04,2.92-26.81,2.54-6.77,5.19-9.79,7.44-18.07,2.25-8.28,7.26-23.53,8.23-24.64,6.44-7.44,19.3-6.99,21.46-6.82,1.31.1,18.78.53,24.34,2.67,7.79,2.99,22.05,16.28,23.77,21.72,9.04,28.58-5.84,121.96-8.3,121.99Z"/>
                  <path class="cls-17" d="m388.38,228.22c10.54-16.14,5.58-34.41,1.97-51.23,3.9-3.32,7.8-6.64,11.69-9.97,8.08-6.9,16.02-13.93,23.86-21.06,3.95,36.2-8.2,110.98-10.4,111.01-5.71.08-16.9-13.07-16.9-13.07,0,0-23.54,19.95-41.75,19.99-11.38.02-21.38-7.62-26.53-12.4,21.43,5.14,45.24-3.64,58.06-23.27Z"/>
                  <path class="cls-11" d="m364.86,211.05c17.11,1.52,9.23-26.96,1.59-35.66-2.16-2.46-11.52-5.08-14.4-.4-8.67,14.13,4.38,35.31,12.81,36.06Z"/>
                  <path class="cls-32" d="m375.7,110.59s-8.61-1.6-15.23,1.15c-6.62,2.75-9.37,11.34-12.53,20.82-3.17,9.48-9.97,21.67-12.29,34.09-2.32,12.42-8.1,40.34-8.1,40.34,1.03,6.09,7.97,8.43,7.97,8.43,0,0,7.76-34.56,9.03-44.8,1.16-9.36,17.44-45.83,19.06-47.55,1.62-1.71,8.85-11.37,12.08-12.49Z"/>
                  <path class="cls-44" d="m380.38,108.82s-8.61-.2-13.32,1.23c-4.15,1.26-6.89,4.86-7.53,6.26-.64,1.4.09,7,.09,7l-4.5,2.59c1.81,2.8.6,14.29.6,14.29,0,0,7.05-15.38,10.44-20,2.12-2.88,14.23-11.37,14.23-11.37Z"/>
                  <path class="cls-32" d="m404.75,114.61s-21.73,17.29-27.58,29.24c-5.85,11.94-1.28,31.39-14.61,79.4,1.23,7.16,54.85,22.97,62.09,4.6,0,0,9.98-77.57.82-96.97-2.5-5.29-17.93-15.42-20.72-16.27Z"/>
                  <path class="cls-44" d="m401.78,158.49c2.12-4.7,8.32,7.39,13.18,4.99,5.1-2.52,9.69-6,14.24-9.43,1.08,30-4.55,73.8-4.55,73.8-5.69,14.44-40.04,7.75-55.07.76,27.86-6.26,27.14-58.92,32.21-70.12Z"/>
                  <path class="cls-60" d="m376.4,117.75c-3.35-2.04-.94-4.95,1.56-7.17,1.33-1.18,1.5-7.99,1.5-7.99l14.37-7.22s-2.34,9.86.46,14.44c.68.67,1.57,1.45,2.73,2.05,2.44,1.25-16.58,8.37-20.62,5.9Z"/>
                  <path class="cls-60" d="m374.5,74.71c-1.58.77-2.4,1.81-4.06,5.5-1.66,3.69-1.5,7.38-1.42,8.01.08.63.45,2.11-.55,4.73-1,2.62,1.8,14.7,4.78,15.86,2.97,1.16,15.45-3.7,17.08-5.61,1.63-1.91,5.88-9.54,6.57-14.6.68-5.05,2.5-10.99-5.24-13.71-7.74-2.72-13.22-2.11-17.15-.19Z"/>
                  <path class="cls-47" d="m371.76,73.57c1.7-2.38,13.32-13.15,27.02-5.14,10.15,5.09,8.2,16.15,6.09,20.13-2.11,3.98-7.55,7.41-8.2,8.63-.65,1.22-2.24,2.92-2.37,4.06-.04.36-.28-2.44-.08-2.69.38-.44,1.92-8.4,1.38-7.94-1.21,1.04-2.27,2.2-3.29,3.39-.25-1.61.48-9.79-2.24-11.92-2.72-2.13-7.83.89-12.83-2.1-2.24-1.34-3.79-2.3-3.79-2.3-2.51-.11-3.71,4.02-3.71,4.02,0,0,.32-5.75,2.02-8.13Z"/>
                  <path class="cls-60" d="m381.07,262.87c.68-.72,2.17-3.64,2.48-5.02.31-1.38,3.78-5.18,6.62-8.21,2.84-3.03,9.67-44.39,11.82-50.51.63-1.8.72-38.09,2.55-46.34,1.99-9,7.77-8.78,10.69-9.38,13.02-2.69,11.48,15.22,11.29,18.21-.19,2.99-.29,25.85-4.34,39.39-2.81,9.38-14.84,38.56-19.54,48.11-1.76,3.58-1.5,10.84-2,12.69-.5,1.84-3.37,7.17-5.65,8.5-.69.4-2.01.02-2.01.02,0,0-1.86,2.1-2.32,2.52-1.11,1.02-4.08,1.99-5.66,2.33-1.58.34-1.26-.9-2.1-.3-.84.61-2.12.28-2.21-.04-.3-1.09,4.55-6.9,4.55-6.9,0,0,1.57-3.3,1.96-4.22.39-.93.46-2.92-.46-1.97-.92.95-3.81,4.91-5.65,5.52-1.84.61-2.84.28-2.94-.35-.1-.63,2.24-3.32,2.92-4.04Z"/>
                  <path class="cls-44" d="m375.34,148.46s2.15-2.56,6.57-6.69c4.42-4.13,9.98-5.43,9.98-5.43l.47-5.38s5.73-.38,10.87-3.34c5.14-2.95,4.38-11.29,2.82-13.8-1.79-2.87-12.15-4.63-12.15-4.63,0,0,2.04,3.93,1.16,5.58-.88,1.66-16.06,19.24-19.72,33.68Z"/>
                  <path class="cls-60" d="m395.13,91.12c.71-1.2,2.8-3.8,4.3-1.61,1.5,2.19-.59,5.37-2.53,7.03-1.93,1.66-3.16,2.52-3.72,1.74-.57-.77,1.5-6.4,1.95-7.16Z"/>
                  <g>
                    <path class="cls-32" d="m391.17,238.99c1.7-7.18,3.69-17.13,5.21-24.73,1.99-9.97,6.15-66.58,7.45-72.48,2.33-10.55,13.62-12.31,13.96-12.38,1.09-.22,5.78.2,6.86,1,7.63,5.65,8.48,22.76,8.44,23.98-.24,7.78-2.87,27.35-4.81,41.59-1.25,9.14-5.37,35.13-11.66,49.31-4.4.78-17.76,1.84-25.45-6.29Z"/>
                    <path class="cls-44" d="m392.39,230.04c8.77,8.11,23.87,7.04,28.85,6.25-.2,3.08-1.32,5.27-3.15,8.98-4.97.79-20.07,1.87-28.85-6.25,1.86-7.19,2.67-5.9,3.15-8.98Z"/>
                  </g>
                </g>
              </g>
            </g>
            <polygon class="cls-35" points="600.52 172.42 590.27 320.54 459.98 249.17 470.03 100.95 600.52 172.42"/>
            <g class="cls-69">
              <g>
                <g>
                  <path class="cls-60" d="m466.89,254.01c-3.56,1.2-15.74,48.98-20.05,52.02-4.31,3.03-8.83,5.72-11.07,8.37-1.8,2.13-4.29,7.2-5.34,9.78-.79,1.93-2.27,8.04-2.27,8.04l.62,1.47-.31,2.87,1.46.56,1.72-1.5s1.68,1.08,2.49.74c.81-.34,10.63-14.22,10.63-14.22,0,0-4.29,7.77-5.06,10.6-.17.63-.21,2.43,2.6.2,2.8-2.24,6.52-10.04,6.52-10.04,0,0,4-2.57,5.95-6.46,1.95-3.89,2.97-6.77,2.97-6.77,0,0,25.75-34.08,22.91-49.55-3.39-18.46-9.31-7.61-13.76-6.11Z"/>
                  <path class="cls-32" d="m461.67,253.46c-1.77,4.49-16.06,50.68-16.06,50.68l15.99,6.66c3.09-3.57,22.96-42.93,20.96-52.88-3.7-18.4-19-9.27-20.89-4.46Z"/>
                  <path class="cls-66" d="m437.52,325.42c-.24,2.8-4.9,10.11-4.9,10.11l1,.89-2.07-.71,1.18-2.83s2.89-4.6,3.65-6.68c.76-2.08,1.17-1.13,1.13-.79Z"/>
                  <path class="cls-66" d="m435.45,320.86c.72-.12-3.52,7.28-4.45,9.75-.62,1.66-1.92,6.19-1.92,6.19l-.61-.23s1.37-4.62,2-6.32c.91-2.47,4.53-9.32,4.98-9.39Z"/>
                </g>
                <path class="cls-32" d="m461.81,255.08c-1-5.43,8.96-49.64,10.19-56.12,2.61-13.69,22.22,11.9,23.41,19.33,1.53,9.6-10.17,43.37-10.17,43.37,0,0-21.28,5.12-23.43-6.59Z"/>
                <path class="cls-47" d="m498.72,483.24c-1.09.46-7.6,4.5-8.85,4.59-1.25.09-19.45,5.91-21.94,6.52-4.33,1.05-4.58,2.94-5.04,5.05-.46,2.11-.95,3.36-.32,5.01.63,1.65,4.87,4.09,11.02,4.91,6.14.82,12.88-.02,15.62-1.29,2.74-1.27,8.87-2.5,10.89-2.2,9.39,1.41,13.91.62,15.43-2.43,1.52-3.04,3.72-11.6,3.72-11.6l-20.53-8.56Z"/>
                <path class="cls-63" d="m463.09,498.36c.01.49.27.99.47,1.51.63,1.65,4.87,4.09,11.02,4.91,6.14.82,12.88-.02,15.62-1.29,2.74-1.27,8.87-2.5,10.89-2.2,9.39,1.41,13.91.62,15.43-2.43.79-1.57,1.75-4.6,2.5-7.17l.23.1s-.19,8.15-1.71,11.19c-1.52,3.04-7.75,4.61-17.14,3.2-2.03-.3-8.46.57-11.2,1.84-2.74,1.27-9.48,2.1-15.62,1.29-6.14-.82-10.07-3-10.99-4.51-1.02-1.67.32-6.09.49-6.44Z"/>
                <path class="cls-32" d="m523.31,279.68l-3.1,218.31s-21.24,3.27-34.57-11.08c0,0-14.55-182.76-13.18-201.75,2.1-.26,50.85-5.48,50.85-5.48Z"/>
                <path class="cls-44" d="m504.18,281.73c-13.91,1.49-30.52,3.28-31.72,3.43-.34,4.8.33,20.06,1.52,40.19,9.25,5.23,24.52-13.91,34.55-10.59l-4.35-33.03Z"/>
                <path class="cls-47" d="m542.98,500.1c1.49,2.83,5.18,6.32,3.68,13.12-.93,4.18-7.61,7.08-10.28,9.6-4.94,4.64-5.92,14.59-22.58,15.01-15.62.39-15.5-5.95-15.42-5.92,0,0-.01-3.58,3.58-6.61,2.24-1.89,13-9.41,15.05-12.08,2.05-2.67,4.49-8.57,4.49-8.57l.69-11.29h21.06l-.28,6.75Z"/>
                <path class="cls-28" d="m498.37,531.9s.01-1.89,1.38-4.08c.47,1.56,2.9,5.2,14.51,4.91,15.78-.39,16.07-7,20.75-11.39,2.53-2.38,9.5-7.95,10.38-11.91.44-1.99.41-3.68.11-5.15,1.16,2.22,2.02,5.04,1.15,8.94-.93,4.18-7.61,7.08-10.28,9.6-4.94,4.64-5.92,14.59-22.58,15.01-15.62.39-15.5-5.95-15.42-5.92Z"/>
                <path class="cls-32" d="m553.79,286.66c2.74,6.85-2.48,217.85-2.48,217.85,0,0-25.42,4.63-35.97-3.29-.66-23.86-7.62-204.23-13.56-211.48,2.07-.26,37.73,5.66,52-3.09Z"/>
                <path class="cls-44" d="m527.34,351.2c12.52,4.5,26.97,0,26.97,0,.43-34.67.44-62.15-.52-64.55-14.27,8.75-49.93,2.82-52,3.09,5.94,7.24,12.9,187.62,13.56,211.48,3.07,2.3,7.39,3.54,11.98,4.14v-154.16Z"/>
                <path class="cls-34" d="m473.46,285.04s20.36,25.54,59.41,18.68c0,0,2.76-110.44-3.23-119.59-6-9.15-23.03-8.67-32.81-8.04-9.78.63-16.02,17.75-16.96,20.9-.95,3.16-6.4,88.05-6.4,88.05Z"/>
                <path class="cls-47" d="m502.17,196.68l-2.41-3.12,5.08-4.36,1.14-.08,3.55,6.31-3.22,1.77s-1.38,50.9-3.23,66.45c-.92,7.76-7.37,26.85-7.37,26.85,0,0-4.29-13.87-3.64-31.5.69-18.9,10.1-62.33,10.1-62.33Z"/>
                <path class="cls-35" d="m527.94,181.22c.91,6.63-7.42,15.55-15.22,20.17-.4.24-7.21-11.83-7.21-11.83,0,0-10.92,8.31-11,8.11-3.75-9.05-4.67-5.49-5.44-11.12-.85-6.17,7.17-12.37,17.91-13.84,10.74-1.47,20.13,2.34,20.97,8.52Z"/>
                <path class="cls-32" d="m504.63,170.6s-8.6-.9-15.69,4.61c-5.09,3.96-17.43,15.47-17.43,28.25,0,30.92-2.63,100.13-3.06,106-.52,7.04,11.93,11.81,13.76,8.41,1.82-3.4,7.48-108.69,11.84-132.84,2-11.09,10.58-14.43,10.58-14.43Z"/>
                <g>
                  <path class="cls-60" d="m523.06,175.65s-3.16-7.77-1.87-14.18c1.75-8.66-16.87,9.54-16.87,9.54,0,0-4.01,8.44-4.17,10.93-.78,11.92,25.16,5.18,22.92-6.29Z"/>
                  <path class="cls-60" d="m503.99,136.48c10.17-1.28,19.62.5,20.02,11.55-.29,11.61-4.17,21.05-13.22,27.37-4.4,3.72-10.3,5.03-14.39,4.37-4.86-.79-8.22-15.01-8.22-26.42s3.96-15.38,15.81-16.87Z"/>
                  <path class="cls-47" d="m487.73,150.36c0,1.93,2.63-1.4,4.04-2.22,0,0,13.24,12.52,21.69,10,1.96-.59,2.93,4.7,2.93,4.7l5.08,4.6c-.99-4.44,4.54-11.89,4.63-17.07.14-8.1-3.87-13.66-11.21-17.04-14.89-6.87-27.16,6.62-27.16,17.04Z"/>
                  <path class="cls-60" d="m517.03,165.9c1.38-1.18,2.68-2.52,3.45-4.17.77-1.65.93-3.66.07-5.25-.86-1.6-2.88-2.6-4.59-1.98-1.18.43-2.02,1.53-2.45,2.71-.43,1.18-.51,2.46-.58,3.71-.07,1.14-.14,2.28-.2,3.42-.05.79-.06,1.67.47,2.25.49.54,1.32.64,2.01.44.69-.2,1.28-.66,1.83-1.13Z"/>
                  <path class="cls-47" d="m515.76,133.03c6.43,2.97,9.74,11.51,13.16,11.78-1,1.51-5.72,12.04-15.54,14.51-8.51,2.14-21.53-10.04-21.53-10.04-1.4.82-4.04,4.15-4.04,2.22,0-10.42,13.06-25.34,27.95-18.47Z"/>
                </g>
                <path class="cls-32" d="m522.87,189.47c0,20.01-13.21,149.11-13.21,149.11,6.32,7.92,54.4,8.34,53.48-6.76-.29-4.73-3.05-123.68-5.56-131.51-3.35-10.45-24.9-21.57-35.33-27,0,0,.61,7.76.61,16.16Z"/>
                <path class="cls-44" d="m553.13,296.09s-5.68,1.65-11.57,2.76c-5.89,1.11-12.96,2.22-12.96,2.22,0,0-.18,6.94,3.18,7.42,3.37.47,21.11-2.31,22.37-4.28,1.25-1.97-1.01-8.11-1.01-8.11Z"/>
                <g>
                  <path class="cls-60" d="m492.88,271.35c-3.38-1.86-7.65-.8-13.82-3.36-9.05-3.76-8.2,3.62,2.08,5.3,0,0-13.37,1.21-13.56,3.34-.22,2.4,2.52,3.82,4.2,3.51,0,0-2.66,1.73-.75,4.16.93,1.18,3.08.75,3.08.75l-.62.85c-.86,1.59,1.19,3.29,2.72,3.11l1.68-.09c-1.17,1.47,11.88,3.63,22.03,1.38,1.73-.38,15.17-2.81,15.17-2.81l-8.25-11.95s-4.35.94-5.66.78c-2.73-.33-6.09-3.77-8.29-4.98Z"/>
                  <path class="cls-32" d="m546.3,192.66c-12.6.72-12.96,16.96-6.89,33.67,3.14,8.65,5.7,29.86,5.7,29.86l-43.4,18.6,2.59,18.13s53.74-10.28,63.4-17.13c3.82-2.71,8.58-5.45,8.75-13.64.22-10.66-2.21-19.51-7.52-36.95-5.36-17.64-11.37-33.19-22.63-32.55Z"/>
                </g>
              </g>
            </g>
          </g>
          <g>
            <path class="cls-23" d="m264.16,658.83s2.67,1.96,7.12,5.6c-2.76.64-5.54,1.58-9.01,4.36-5.13,4.11,3.44,9.96-4.47,13.57-.41-.02-8.27-.27-7.33,2.54-.46.57-12.58,5.17-14.28,5.89l1.16.77,1.34.46s12.4-3.21,15.05-3.96c2.28,1.35,10.29,1.14,15.39,3.49.08.04,12.89,7.5,13.32,8.79-.46.57-11.49,9.17-13.2,9.89l1.16.76,1.34.46s11.31-7.21,13.96-7.96c2.28,1.35,8.54-.25,9.96-.1,3.07.32,6.32-3.16,5.59-3.52-1.05-1.17,7.93-2,9.34-2.38,3.26-.88-2.03-2.33,6.54-3.84,1.14-.2,2.27-.41,3.41-.62,14.7,4.6,19.08,2.8,19.08,2.8l51.89-28.74s-.06,0-.09,0c5.96-3.39,6.55-5.83,9.27-7.26,1.11-.34,2.18-.69,3.21-1.04,6.05-1.25,15.45-.8,15.41-4.41,0-.34-.06-.69-.12-1.03.2.03.4.07.6.11.39.08,7.45,2.67,14.76,4.04,4.81.9,5.51.46,8.21,1.71,3.4,1.57,4.74.78,2.04-.46-5.06-2.33-7.89-2.96-7.89-2.96l13.57,1.25c2.74.48,1.56-.65-.67-1.24l-13.3-2.21,17.18,2.58c2,.24,1.11-.95-1.13-1.36l-11.95-2.27c4,.72,9.13,1.55,8.71,1.04-.78-.93-10.29-2.73-16.11-3.78,0,0,6.99.03,5.57-.75-1.74-.95-11.14-.52-12.6-.57-2.88-.1-6.19.17-8.16.18-.52-.63-1.34-1.21-2.31-1.78-1.04-1.16-2.22-2.29-3.49-3.34-.06-.05-.14-.11-.21-.16-.09-.94.35-1.81,1.8-2.49.12.03.24.05.35.08.55.09,1.05.14,1.49.13.22,0,.41-.01.6-.04.18-.02.34-.05.49-.1.52.12,1.04.24,1.56.35.38.08.77.16,1.15.25,6.43,3.22,12.42,3.41,17.14,2.47.12.03.24.07.36.09.51.09.92.08,1.19,0,.15-.05.24-.12.28-.21.04-.07.05-.15.01-.24-.01-.02-.03-.03-.05-.05.07-.02.14-.04.22-.06,1.39-.11,2.64-.3,3.72-.57.02,0,.05.02.07.03.26.12.54.23.84.32.01,0,.02,0,.03,0,.31.1.64.18.97.24,0,0,0,0,0,0,0,0,0,0,0,0,0,0,0,0,.01,0,.57.1,1.06.12,1.44.07.64-.08.96-.36.78-.76-.14-.29-.51-.59-1-.86-.08-.05-.16-.09-.26-.14.37-.21.7-.44,1-.68.08-.06.15-.12.21-.18.28-.25.53-.5.72-.78.04.01.09.02.13.03.04,0,.06.02.1.03.83.14,1.4.02,1.47-.26.02-.06.04-.13,0-.21-.04-.09-.14-.19-.25-.28-.02-.01-.03-.03-.05-.04-.23-.18-.55-.35-.92-.5.06-.31.07-.64.05-.97.09-.16.16-.33.22-.5,1.84.2,2.98-.22,2.59-1.07-.08-.17-.22-.34-.39-.5.56.2,1.17.34,1.72.36,1.13.04,1.53-.39.9-.97-.15-.14-.35-.28-.58-.4.98.03,1.57-.19,1.7-.55.04-.12.03-.25-.03-.39-.06-.16-.18-.33-.37-.52-.27-.25-.63-.48-1.06-.7-.43-.22-.92-.41-1.42-.57-.04-.25-.14-.51-.23-.77-.15-.45-.35-.91-.65-1.4.08,0,.16.02.24.02,2.44.1,3.31-.85,1.95-2.11-1.29-1.2-4.12-2.24-6.49-2.43-.6-.46-1.26-.93-1.94-1.39-.41-.27-.82-.55-1.25-.82.39-.17.46-.48.06-.85-.63-.57-1.97-1.06-3.06-1.13-.04,0-.09,0-.13-.01-.09,0-.14.01-.22.02-.31-.16-.62-.33-.95-.49-1.7-.88-3.52-1.73-5.44-2.54.21-.2.22-.48-.01-.8-.06-.1-.15-.2-.27-.3-.79-.74-2.42-1.38-3.92-1.61-.06-.01-.12-.02-.18-.03-.22-.03-.44-.05-.65-.06-.07,0-.13,0-.2,0-.65,0-1.12.11-1.37.31-2.32-.78-4.72-1.49-7.17-2.1-.03-.04-.03-.07-.07-.1-.63-.58-2.05-1.09-3.18-1.14-.57-.02-.95.08-1.11.26-2.06-.41-4.12-.75-6.18-1-.33-.04-.66-.08-.99-.12-.18-.02-.37-.05-.55-.07-.18-.12-.38-.23-.61-.34-.37-.17-.78-.31-1.21-.41-.35-.08-.7-.15-1.03-.16,0,0,0,0,0,0,0,0,0,0,0,0-.02,0-.02,0-.04,0-.39,0-.68.04-.87.13-.18.09-.28.22-.26.38-1.18-.74-3.04-1.33-4.57-1.39-.39-.02-.73,0-1,.05-.84.15-1.15.56-.83,1.11-.88-.01-1.74,0-2.58.01-.48,0-.96.02-1.42.04-.29-.1-.59-.19-.88-.28-.99-.28-2.01-.47-2.94-.51-2.04-.08-2.96.57-2.42,1.52.03.06.05.11.09.17-.49.15-.94.31-1.35.49-.25.11-.51.21-.73.34-.03.18-.07.34-.11.49-.04.14-.08.28-.13.42-.05-.01-.1-.02-.15-.03-.1-.02-.21-.05-.31-.06-1.57-.19-2.41.24-1.88.96.15.21.41.42.73.62.23.14.48.28.76.41-.04.09-.08.18-.12.28-.19.46-.29.92-.21,1.51.04.31.12.65.27,1.05-.05,0-.1-.02-.15-.03-.11-.02-.21-.04-.31-.06-.05,0-.1-.02-.15-.03-.31-.04-.58-.04-.81-.02-.29.02-.47.1-.61.2-.38-.13-.78-.22-1.15-.23-.39-.01-.65.05-.75.17-1.75-.35-3.51-.62-5.26-.8-.48-.33-1.28-.59-1.94-.62-.21,0-.36.01-.49.05-.26.03-.42.1-.47.22-.8-.46-1.97-.83-2.95-.87-.33-.01-.58.02-.79.08-.57.09-.79.36-.61.72-.9,0-1.76,0-2.57.04-.84-.3-1.77-.5-2.6-.53-.6-.02-1.06.05-1.35.19-.5.19-.62.55-.3.99-.25.08-.49.15-.71.24-.25.1-.49.2-.69.32-.04.22-.1.41-.15.59-.09-.02-.18-.04-.26-.05-.54-.07-.95-.02-1.18.1-.25.12-.33.31-.14.56.17.24.55.49,1,.69-.25.54-.37,1.03-.04,1.91-.13-.03-.27-.06-.41-.08-.82-.1-1.27.13-1,.51.02.03.06.06.09.09-.86.13-1.73.28-2.62.46-5.76,1.12-15.67,4.51-18.72,6.06-.19.09-.35.18-.48.26.1.05,3.75,3.49,11.69,7.09-.67,1.11-1.18,2.27-1.46,3.42-9.08.74-21.19-1.47-35.24-.27-14.22,1.21-23.88,8.2-36.22,14.71-.23.12-.46.24-.68.35-.72.38-1.44.75-2.18,1.12-.52.26-1.06.52-1.59.77-.5.24-.99.48-1.49.72-1.07.5-2.16.99-3.29,1.46Zm16.47,26.17c-4.31,3.45-7.05,1.47-7.26.38-.43-2.23,3.9-2.94,15.93-5.85.48.29,12.78,3.6,13.29,3.89-3.15.67-18.02-1.58-21.96,1.58Z"/>
            <g>
              <path class="cls-52" d="m213.95,524.32c-10.69-21.36-1.17-46.85,8.82-53.99,5.28,6.52,40.16,13.67,40.35,14.47,3.8,16.17.25,65.42-8.23,104.33-2.91,13.36-9.9,65.89-5.52,72.48,3.49,5.25,8.18,8.59,10.47,9.5,9.77,3.87-.54,10.85-5.86,7.15-9.13-6.34-23.48-3.43-22.21-9.23.33-1.49.29-1.1.53-4.12,1.58-20.11-7.53-38.14-10.47-55.73-3.54-21.19,1.23-21.71.88-36.7-.75-32.52-4.86-40.37-8.76-48.17Z"/>
              <path class="cls-20" d="m232.47,658.92s4.61-1.32,9.9,1.86c3.46,2.08,6.26,9.36,15.15,9.36l-2.92-2.54s11.61,1.88,14.3,3.22c4.44,2.22-1.3,13.05-6.24,13.05-6.18,0-2.35-2.44-13.54-5.31-7.31-1.88-10.01.89-15.42-3.07-7.95-5.81-1.24-16.58-1.24-16.58Z"/>
              <path class="cls-20" d="m231.59,673.21s3.97,14.63,3.97,18.63l1.72.56,1.41-.38s-1.81-13.16-.4-16.45c1.41-3.29-6.7-2.35-6.7-2.35Z"/>
            </g>
            <path class="cls-52" d="m221.92,399.84c-.31-24.31,6.38-25.72,9.08-26.75,3.37-1.28,6.48-2.36,10.73,1.2,6.85,5.72,6.52,33.7,12.77,58.91,2.42,9.78,1.49,21.16-5.77,22.41-16.88,2.9-26.64-43.11-26.81-55.77Z"/>
            <path class="cls-52" d="m290.73,390.81c-7.25,5.11-9.15,35.41-21.06,49.12-4.22,4.86-26.43,16.88-22.13-9.51,2.5-15.33,23.8-33.92,35.25-47.75,1.06-1.29,2.83-6.82,4.96-10.37.87-1.45,5.5-12.59,7.71-12.23,1.81.29-2.1,7.75-2.1,7.75,4.58-3.81,12.21-9.85,13.84-8.52,1.33,1.07-7.87,8.44-9.56,9.63l12.96-10.23c1.77-1.47,3.82.35,2.4,1.94l-12.87,12.48,10.24-9.17c2.01-1.02,4.13.34,1.99,2.17l-9.14,11.68s2.39-1.59,8.23-1.59c3.12,0,3.4,3.28-.53,3.28-3.12,0-2.93,1.78-6.77,4.86-5.82,4.69-13.1,6.25-13.43,6.47Z"/>
            <path class="cls-53" d="m212.28,426.52c-.53-5.73.56-26.06,2.38-35.41,4.49-22.99,14.64-27.75,17.68-27.56,3.79.24,7.23.57,9.76,5.83,3.74,7.8,4.12,32.74.2,57.17-15.8,8.88-29.84,0-30.02-.03Z"/>
            <path class="cls-53" d="m232.18,408.26v-43.09c0-.56-.04-1.09-.08-1.62.09,0,.17,0,.25,0,3.79.24,7.23.57,9.76,5.83,3.74,7.8,4.12,32.74.2,57.17-15.8,8.88-29.84,0-30.02-.03-.06-.64-.09-1.49-.11-2.46,9.28,1.64,20.01-3.63,20.01-15.8Z"/>
            <path class="cls-52" d="m246.84,377.26c9.37,6.33,24.8,10.55,36.13,9.74.02-.16,0-.29-.07-.4-4.59-6.92-16.14-10.49-10.3-27.91-6.24-1.7-16.82-11.44-16.82-11.44,0,0-3.41,18.73-13.81,21.6-.14.04-.47.17-.85.33,2.45,2.38,4.4,5.09,5.72,8.08Z"/>
            <path class="cls-52" d="m249.04,330.93c.19-10.96,13.56-16.73,23.65-16.73,12.45,0,14.58,13.35,15.38,20.43,1.36,12.03.3,34.73-18.7,27.44-14.8-5.67-20.61-14.79-20.33-31.14Z"/>
            <path class="cls-1" d="m226.86,404.59c-6.58-20.36-2.56-33.89,3.26-40.55,2.39-2.74,11.67-6.04,17.87-.45,1.99,7.76,19.01,8.82,25.6,12.24,6.31,3.28,13.07,8.8,18.09,17.67,5.31,9.39-2.63,19.7-3.2,30.36-.47,8.75,4.79,15.73,4.79,41.46-10.58,8.41-64.34-16.74-64.34-16.74,0,0,4.78-8.78,4.46-16.57-.4-9.83-3.5-18.09-6.52-27.42Z"/>
            <path class="cls-39" d="m226.86,404.59c-6.58-20.36-2.56-33.89,3.26-40.55,1.5-1.72,5.72-3.66,10.18-3.48-3.35,2.68-5.62,6.8-5.62,12.39v56.17c0,15.31,58.59,26.1,58.59,36.19-10.58,8.41-64.34-16.74-64.34-16.74,0,0,4.78-8.78,4.46-16.57-.4-9.83-3.5-18.09-6.52-27.42Z"/>
            <g>
              <path class="cls-52" d="m242.87,538.64c-10.69-21.36-1.17-46.85,8.82-53.99,5.28,6.52,40.16,13.67,40.35,14.47,3.8,16.16,4.16,70.03-4.33,108.94-2.91,13.36-9.9,65.89-5.52,72.48,3.49,5.25,8.18,8.59,10.48,9.5,9.77,3.87-.54,10.85-5.86,7.15-9.13-6.34-23.48-3.43-22.21-9.23.33-1.49.29-1.1.53-4.11,1.58-20.11-7.53-38.14-10.47-55.73-3.54-21.19,1.23-21.71.88-36.7-.75-32.52-8.77-44.98-12.67-52.78Z"/>
              <path class="cls-20" d="m265.3,677.85s4.61-1.32,9.9,1.86c3.46,2.08,8.4,9.2,15.39,9.25l-1.6-1.09s10.25.64,12.74,1.88c4.44,2.22-1.3,13.05-6.24,13.05-6.18,0-2.35-2.44-13.54-5.31-7.31-1.88-10.01.89-15.42-3.07-7.95-5.81-1.24-16.58-1.24-16.58Z"/>
              <path class="cls-20" d="m264.42,692.14s3.97,14.63,3.97,18.63l1.72.56,1.41-.38s-1.81-13.16-.4-16.45c1.41-3.29-6.7-2.35-6.7-2.35Z"/>
            </g>
            <path class="cls-32" d="m292.87,453.08l8.78,122.92s-.14,16.92-37.04,17.47c-21.06.32-32.17-12.08-36-14.13-10.79-5.78-17-8.41-17-8.41,0-35.72-7.58-71.19.19-93.59,6.72-19.37,17.39-27,20.74-40.18,0,0,11.27,15.41,37.9,20.3,7.3,1.34,19.17,1.23,22.43-4.37Z"/>
            <path class="cls-44" d="m292.87,453.08c-3.25,5.61-15.12,5.71-22.43,4.37-26.63-4.88-37.9-20.3-37.9-20.3-1.14,4.47-3.13,8.32-5.52,12.19,3.72,7.95,20.02,19.77,25.02,22.3,1.72.87,15.47,5.45,20.89,6.04,18.64,2.02,16.79,24.91,16.79,28.23v83.16c11.85-5.18,11.92-13.09,11.92-13.09l-8.78-122.92Z"/>
            <path class="cls-13" d="m275.94,510.94c2.06-8.37-12.56-32.15-12.9-49.79,0,0-.81-17.93,1.18-30.44,3.81-24.01,4.75-34.19,7.59-34.75,3.54-.69,6.78-1.23,10.37,3,5.78,6.8-2.11,34.73.71,60.55,2.54,14.06,7.09,38.02,7.51,55.45.06,2.28,2.13,9.09,1.99,11.37-.29,4.66-3.84,17.76-5.49,17.84-1.66.08,1.17-8.79,1.65-10.73l-4.2,13.14c-.36,2.2-2.58,2.38-2.55.3l3.42-15.43-3.61,11.33c-.82,2.03-3.24,2.38-2.84-.32l1.69-12.36s-.94,3.79-3.95,8.14c-1.54,2.23-2.97.8-2.96-.32.02-2.23,1.59-8.88,2.14-11.64.09-.45-.72-4.4-.82-4.96-1.29-7.14.97-10.01,1.07-10.38Z"/>
            <path class="cls-52" d="m280.33,502.1c2.06-8.37-13.58-30.26-13.92-47.9,0,0-6.69-27.86-4.71-40.37,3.81-24.01,10.64-24.27,13.48-24.82,3.54-.69,6.78-1.23,10.37,3,5.78,6.8-2.11,34.73.7,60.55,2.54,14.06,7.09,38.02,7.51,55.45.06,2.28,2.13,9.09,1.99,11.37-.29,4.66-3.84,17.76-5.49,17.84-1.66.08,1.17-8.79,1.65-10.73l-4.2,13.14c-.36,2.2-2.58,2.38-2.55.3l3.42-15.43-3.61,11.33c-.82,2.03-3.24,2.38-2.84-.32l1.7-12.37s-.94,3.79-3.95,8.14c-1.54,2.23-2.97.8-2.96-.32.02-2.23,1.59-8.89,2.14-11.64.09-.45-.72-4.4-.82-4.96-1.29-7.14,1.99-11.9,2.08-12.27Z"/>
            <path class="cls-52" d="m276.52,335.72s-7.6-5.21-8.81,2.2c-1.2,7.41,6.02,9.96,6.02,9.96l2.78-12.16Z"/>
            <path class="cls-47" d="m291.69,337.44c-.52-.62-1.25-.95-2-.99-.15-2.02-.49-4.01-1.08-5.92.07-.04.15-.06.21-.12.8-.68.89-1.87.22-2.67-.45-.53-1.12-.71-1.75-.61-.57-1.21-1.2-2.39-1.95-3.49,1.48-1.5,1.61-3.89.22-5.52-.26-.3-.56-.54-.88-.75.57-.14,1.09-.47,1.42-1.01.68-1.11.34-2.56-.77-3.24-.27-.16-.56-.26-.85-.31.97-1.65.45-3.78-1.18-4.79-.95-.59-2.07-.65-3.04-.3-.93-1.46-2.04-2.82-3.3-4.11.05-.07.11-.13.16-.21,1.48-2.4.73-5.54-1.67-7.02-2.27-1.4-5.2-.78-6.76,1.32-1.5-.71-3.07-1.28-4.67-1.74,0-.8-.35-1.59-1.08-2.04-1.11-.68-2.56-.34-3.24.77-.05.09-.06.19-.1.28-2.46-.36-4.97-.41-7.48-.2-.19-.91-.74-1.75-1.59-2.28-1.66-1.02-3.83-.5-4.85,1.15-.46.75-.6,1.61-.46,2.42-2.3.69-4.55,1.61-6.7,2.82-.06-.05-.1-.12-.18-.16-1.11-.68-2.56-.34-3.24.77-.34.56-.42,1.2-.28,1.79-2.1,1.56-4.05,3.43-5.82,5.56-1.02-.35-2.17-.01-2.76.95-.49.79-.43,1.74.03,2.48-1.63-.48-3.43.15-4.36,1.66-.94,1.53-.67,3.45.52,4.68-.8,1.47-1.54,2.95-2.15,4.45-1.26.31-2.41,1.09-3.14,2.28-1.31,2.13-.86,4.83.93,6.45-.13,1.39-.18,2.78-.06,4.17.4.86.74,1.64,1.04,2.38-.12.1-.27.16-.38.28-1.12,1.24-1.03,3.15.21,4.27.62.56,1.4.81,2.17.78.84,2.27,1.69,4.18,3.67,6.68-.18.11-.36.21-.51.38-.87.96-.8,2.45.16,3.33.69.62,1.64.74,2.44.42-.77,1.51-.48,3.4.83,4.59,1.52,1.38,3.84,1.3,5.29-.13,1.9,1.8,3.96,3.67,5.98,5.32-.46.92-.32,2.06.48,2.79.91.82,2.27.78,3.15-.04,1.37.93,2.63,1.64,3.69,2.01,2.19.08,4.4-.36,6.59-1.17,1.18.47,2.26.76,3.45,1,.07.62.36,1.21.88,1.63,1.04.84,2.57.68,3.41-.36.08-.1.11-.22.18-.34.62.15,1.29.33,2.02.54,1.12-.07,2.22-.29,3.31-.56,1.5,1.22,3.71,1.25,5.23-.05.86-.73,1.34-1.73,1.43-2.77,1.11-.67,2.2-1.44,3.27-2.25,1.13.79,2.68.77,3.78-.16,1.09-.92,1.36-2.43.79-3.67.64.28,1.41.2,1.97-.28.69-.59.82-1.54.41-2.31,1.48-1.67,2.72-3.44,3.7-5.3.49.04.99-.1,1.39-.44.8-.68.89-1.87.22-2.67-.04-.05-.1-.07-.15-.12.69-1.86,1.15-3.76,1.41-5.67.66,0,1.32-.2,1.87-.66,1.19-1.01,1.33-2.8.32-3.99Z"/>
            <path class="cls-18" d="m262.35,311.29c-.19-.23-.46-.35-.74-.36-.05-.74-.18-1.47-.4-2.17.02-.02.05-.02.08-.04.29-.25.33-.69.08-.98-.02-.02-.05-.03-.07-.05-.16.15-.34.27-.55.36.64,1.2.07,3.09-1.72,3.09-2.32,0-2.52-3.17-.72-3.91-.63-1.2-.06-3.08,1.72-3.08-.08-.08-.16-.16-.25-.22.21-.05.4-.17.52-.37.25-.41.12-.94-.28-1.19-.1-.06-.2-.1-.31-.12.36-.61.17-1.39-.43-1.76-.35-.21-.76-.24-1.12-.11-.34-.54-.75-1.04-1.21-1.51.02-.03.04-.05.06-.08.54-.88.27-2.04-.61-2.58-.83-.51-1.91-.29-2.48.49-.55-.26-1.13-.47-1.71-.64,0-.29-.13-.58-.4-.75-.41-.25-.94-.12-1.19.28-.02.03-.02.07-.04.1-.54-.08-1.09-.11-1.65-.11-2.38,1.69-5.25,2.88-8.6,3.4-.35.33-.68.69-1,1.07-.37-.13-.8,0-1.02.35-.18.29-.16.64.01.91-.6-.18-1.26.05-1.6.61-.35.56-.25,1.27.19,1.72-.29.54-.57,1.08-.79,1.63-.46.11-.88.4-1.15.84-.48.78-.32,1.78.34,2.37-.05.51-.07,1.02-.02,1.53.15.32.27.6.38.88-.05.04-.1.06-.14.1-.41.45-.38,1.16.08,1.57.23.21.51.3.8.29.02.06.05.12.07.17.3-.61.87-1.09,1.75-1.09,2.63,0,2.55,4.07-.07,4.07-.3,0-.55-.07-.78-.16-.06.29.01.61.25.82.25.23.6.27.9.16-.28.56-.18,1.25.31,1.69.27.25.61.36.95.36.23-.1.5-.16.76-.24.08-.05.17-.09.24-.16.02.02.05.04.07.06.71-.2,1.47-.34,2.32-.34,3.72,0,6.06,2.06,7.09,4.7.25,0,.5-.11.67-.32.03-.04.04-.08.07-.12.23.06.47.12.74.2.41-.03.82-.11,1.21-.21.55.45,1.36.46,1.92-.02.31-.27.49-.64.52-1.02.41-.25.81-.53,1.2-.83.41.29.99.28,1.39-.06.4-.34.5-.89.29-1.35.24.1.52.08.72-.1.25-.21.3-.57.15-.85.54-.61,1-1.27,1.36-1.95.18.02.36-.04.51-.16.29-.25.33-.69.08-.98-.02-.02-.04-.03-.06-.04.25-.68.42-1.38.52-2.08.24,0,.49-.07.69-.24.44-.37.49-1.03.12-1.47Zm-13.23-7.17c-2.62,0-2.55-4.07.07-4.07s2.55,4.07-.07,4.07Zm7.6,15.52c-2.62,0-2.55-4.07.07-4.07s2.55,4.07-.07,4.07Z"/>
            <path class="cls-65" d="m244.51,296.32c.24-.11.47-.16.71-.24-.13-.82,0-1.69.45-2.42,1.03-1.66,3.19-2.19,4.85-1.16.37.21.66.5.9.82-.9.71-1.5,1.79-1.61,3.03-1.45.16-2.87.45-4.27.82-.24-.4-.58-.71-1.03-.84Z"/>
            <path class="cls-36" d="m258.6,296.77c0-.71-.16-1.37-.45-1.95.5.03.97.11,1.45.16.03-.08.05-.18.11-.29.66-1.11,2.11-1.45,3.24-.76.71.45,1.08,1.24,1.08,2.06,1.58.45,3.16,1.03,4.66,1.74,1.55-2.11,4.48-2.71,6.75-1.32,2.4,1.48,3.13,4.61,1.66,7.01-.03.08-.11.13-.16.21,1.27,1.29,2.37,2.66,3.32,4.11.98-.34,2.08-.29,3.03.29,1.63,1.03,2.16,3.14,1.19,4.8.29.05.58.16.84.32,1.11.68,1.45,2.11.76,3.21-.29-.45-.74-.79-1.26-.97-.66-.21-1.34-.13-1.92.18-1.03-1.45-2.19-2.77-3.48-3.9.03-.08.08-.11.11-.18.29-.87-.18-1.79-1.05-2.08-.55-.18-1.16-.03-1.58.34-.95-.63-1.95-1.21-3.03-1.69.42-1.79-.55-3.61-2.32-4.22-.34-.1-.66-.13-1-.16.37-.34.61-.82.61-1.37,0-1.13-.92-2.06-2.03-2.06-.29,0-.55.05-.79.16-.03-1.69-1.37-3-3.03-3.03-.98,0-1.84.47-2.4,1.16-1.34-.66-2.79-1.16-4.29-1.55v-.21Z"/>
            <path class="cls-36" d="m291.36,341.44c-.53.45-1.19.66-1.84.66-.26,1.9-.74,3.79-1.42,5.67.05.05.11.05.16.11.66.82.58,2-.21,2.69-.42.32-.92.47-1.4.42-1,1.87-2.24,3.64-3.72,5.3.42.79.29,1.74-.39,2.32-.58.47-1.34.55-1.98.29.58,1.21.29,2.74-.79,3.66-1.11.92-2.66.95-3.77.16-1.08.82-2.16,1.58-3.27,2.24-.1,1.05-.58,2.06-1.42,2.79-1.53,1.29-3.74,1.26-5.24.05-1.08.26-2.19.47-3.32.55-.71-.21-1.4-.39-2-.53-.08.11-.11.21-.18.32-.84,1.05-2.37,1.21-3.4.37-.53-.42-.82-1.03-.9-1.63-1.19-.24-2.27-.53-3.45-1-2.19.82-4.4,1.26-6.59,1.19-1.05-.37-2.32-1.08-3.69-2.03-.87.82-2.24.87-3.14.05-.82-.74-.95-1.87-.5-2.79-2-1.66-4.08-3.5-5.98-5.32-1.42,1.45-3.77,1.53-5.27.13-1.32-1.19-1.61-3.08-.84-4.59-.82.32-1.77.18-2.45-.42-.95-.87-1.03-2.37-.16-3.35.16-.16.34-.26.5-.37-1.98-2.5-2.82-4.4-3.66-6.67-.76.03-1.55-.24-2.16-.79-1.24-1.11-1.34-3.03-.21-4.27.1-.1.24-.18.37-.29-.32-.74-.63-1.5-1.05-2.37-.11-1.4-.05-2.79.08-4.16-1.79-1.63-2.24-4.32-.92-6.46.71-1.19,1.87-1.98,3.14-2.29.61-1.48,1.34-2.98,2.13-4.43-1.19-1.24-1.45-3.16-.5-4.69.92-1.53,2.74-2.13,4.35-1.66-.45-.74-.5-1.69-.03-2.48.61-.97,1.74-1.32,2.77-.95.66-.79,1.32-1.53,2.06-2.24.11.42.32.82.61,1.16-1.4,1.55-2.63,3.24-3.69,5.11-.08,0-.13-.03-.21-.03-1.13-.03-2.03.9-2.06,2.03,0,.55.24,1.08.61,1.45-.84,2.11-1.45,4.37-1.79,6.77-.92.18-1.61.97-1.61,1.95,0,.79.47,1.48,1.13,1.82-1.42.37-2.48,1.66-2.48,3.21s1.05,2.85,2.5,3.21c.08,1.48.21,2.9.42,4.27-.79.82-1.29,1.9-1.29,3.14,0,2.16,1.55,3.95,3.61,4.35.53,1.08,1.11,2.13,1.84,3.14.69.45,1.29.87,1.85,1.29-.05.13-.13.24-.16.37-.26,1.42.66,2.79,2.08,3.06.71.16,1.42-.03,1.98-.4,1.63,1.32,3.14,2.32,5.74,3.29-.08.16-.16.32-.21.5-.21,1.11.53,2.19,1.63,2.4.79.16,1.55-.19,2-.79.11,1.45,1.19,2.74,2.69,3.03,1.77.32,3.45-.79,3.87-2.5,2.21.47,4.58.92,6.83,1.24.08.9.71,1.66,1.63,1.84,1.05.21,2.03-.45,2.32-1.45,1.42.05,2.69.03,3.64-.19,1.66-.92,3.11-2.27,4.35-3.85,1.11-.18,2.03-.47,3.03-.82.32.42.79.71,1.37.79,1.16.16,2.21-.66,2.37-1.82.03-.11-.03-.21-.03-.32.55-.16,1.11-.34,1.74-.53.82-.55,1.53-1.21,2.21-1.9,1.66.21,3.29-.76,3.85-2.42.32-.92.21-1.87-.21-2.69.53-1,1-2.06,1.42-3.16,1.19.08,2.32-.63,2.71-1.82.4-1.19-.08-2.42-1.08-3.08.61-.08,1.13-.47,1.34-1.08.24-.76-.11-1.53-.74-1.9.34-1.92.45-3.79.34-5.61.24-.13.47-.32.63-.55.45.03.87.24,1.19.61.68.79.58,1.98-.21,2.66-.08.05-.16.08-.21.11.58,1.92.92,3.9,1.08,5.93.74.03,1.48.37,2,.97,1,1.19.87,2.98-.34,4.01Z"/>
            <path class="cls-36" d="m265.55,323.23c-.27.23-.62.34-.96.34-.14.99-.38,1.97-.74,2.94.03.03.05.03.08.06.34.42.3,1.04-.11,1.4-.22.16-.48.25-.73.22-.52.97-1.16,1.89-1.93,2.75.22.41.15.9-.21,1.21-.3.25-.7.29-1.03.15.3.63.15,1.42-.41,1.9-.58.48-1.38.49-1.96.08-.56.42-1.12.82-1.7,1.17-.05.55-.3,1.07-.74,1.45-.79.67-1.95.66-2.73.03-.56.14-1.14.25-1.73.29-.37-.11-.73-.21-1.04-.27-.04.05-.05.11-.1.16-.44.55-1.23.63-1.77.19-.27-.22-.42-.53-.47-.85-.62-.12-1.18-.27-1.79-.52-1.14.42-2.29.66-3.43.62-.55-.19-1.21-.56-1.92-1.06-.45.42-1.16.45-1.63.03-.42-.38-.49-.97-.26-1.45-1.04-.86-2.12-1.82-3.11-2.77-.74.75-1.96.79-2.74.07-.68-.62-.84-1.6-.44-2.38-.42.16-.92.1-1.27-.22-.49-.45-.53-1.23-.08-1.74.08-.08.18-.14.26-.19-1.03-1.3-1.47-2.29-1.9-3.47-.4.01-.81-.12-1.12-.41-.64-.58-.7-1.58-.11-2.22.05-.06.12-.1.19-.15-.16-.38-.33-.78-.55-1.23-.05-.73-.03-1.45.04-2.16-.93-.85-1.17-2.25-.48-3.36.37-.62.97-1.03,1.63-1.19.32-.77.7-1.55,1.11-2.3-.62-.64-.75-1.64-.26-2.44.48-.79,1.42-1.11,2.26-.86-.23-.38-.26-.88-.01-1.29.32-.51.9-.69,1.44-.49.34-.41.69-.79,1.07-1.16.05.22.16.43.32.6-.73.81-1.37,1.68-1.92,2.66-.04,0-.07-.01-.11-.01-.59-.01-1.05.47-1.07,1.05,0,.29.12.56.31.75-.44,1.1-.75,2.27-.93,3.52-.48.1-.84.51-.84,1.01,0,.41.25.77.59.95-.74.19-1.29.86-1.29,1.67s.55,1.48,1.3,1.67c.04.77.11,1.51.22,2.22-.41.42-.67.99-.67,1.63,0,1.12.81,2.05,1.88,2.26.27.56.58,1.11.96,1.63.36.23.67.45.96.67-.03.07-.07.12-.08.19-.14.74.34,1.45,1.08,1.59.37.08.74-.01,1.03-.21.85.68,1.63,1.21,2.99,1.71-.04.08-.08.17-.11.26-.11.58.27,1.14.85,1.25.41.08.81-.1,1.04-.41.06.75.62,1.42,1.4,1.58.92.16,1.79-.41,2.01-1.3,1.15.25,2.38.48,3.55.64.04.47.37.86.85.96.55.11,1.05-.23,1.21-.75.74.03,1.4.01,1.89-.1.86-.48,1.62-1.18,2.26-2,.58-.1,1.06-.25,1.58-.43.16.22.41.37.71.41.6.08,1.15-.34,1.23-.94.01-.05-.01-.11-.01-.17.29-.08.58-.18.9-.27.42-.29.79-.63,1.15-.99.86.11,1.71-.4,2-1.26.16-.48.11-.97-.11-1.4.27-.52.52-1.07.74-1.64.62.04,1.21-.33,1.41-.95.21-.62-.04-1.26-.56-1.6.32-.04.59-.25.7-.56.12-.4-.05-.79-.38-.99.18-1,.23-1.97.18-2.92.12-.07.25-.16.33-.29.23.01.45.12.62.32.36.41.3,1.03-.11,1.38-.04.03-.08.04-.11.05.3,1,.48,2.03.56,3.08.38.01.77.19,1.04.51.52.62.45,1.55-.18,2.08Z"/>
            <path class="cls-47" d="m261.19,377.16c-.36-.42-.85-.64-1.36-.67-.1-1.37-.33-2.72-.73-4.02.05-.03.1-.04.14-.08.54-.46.61-1.27.15-1.81-.3-.36-.76-.49-1.19-.41-.39-.82-.82-1.62-1.33-2.37,1.01-1.02,1.1-2.65.15-3.76-.18-.21-.38-.37-.6-.51.39-.09.74-.32.96-.69.46-.75.23-1.74-.52-2.2-.18-.11-.38-.18-.58-.21.66-1.12.31-2.57-.8-3.25-.65-.4-1.41-.44-2.07-.2-.63-.99-1.39-1.92-2.24-2.8.03-.05.08-.09.11-.14,1-1.63.5-3.77-1.14-4.77-1.55-.95-3.53-.53-4.59.9-1.02-.49-2.09-.87-3.17-1.19,0-.54-.24-1.08-.73-1.39-.75-.46-1.74-.23-2.2.52-.04.06-.04.13-.07.19-1.67-.24-3.38-.28-5.09-.14-.13-.62-.5-1.19-1.08-1.55-1.13-.69-2.6-.34-3.3.78-.32.51-.41,1.1-.31,1.65-1.56.47-3.09,1.1-4.56,1.91-.04-.03-.07-.08-.12-.11-.75-.46-1.74-.23-2.2.52-.23.38-.29.82-.19,1.22-1.43,1.06-2.75,2.33-3.96,3.78-.69-.24-1.48,0-1.88.64-.33.54-.29,1.19.02,1.69-1.1-.32-2.33.1-2.97,1.13-.64,1.04-.46,2.34.35,3.19-.54,1-1.05,2.01-1.46,3.02-.86.21-1.64.74-2.14,1.55-.89,1.45-.59,3.29.63,4.39-.09.94-.12,1.89-.04,2.84.27.59.5,1.12.71,1.62-.08.07-.18.11-.26.19-.76.84-.7,2.14.14,2.9.42.38.95.55,1.48.53.57,1.55,1.15,2.84,2.5,4.55-.12.08-.25.14-.35.25-.59.66-.54,1.67.11,2.26.47.42,1.11.5,1.66.29-.52,1.03-.33,2.31.57,3.12,1.04.94,2.61.89,3.6-.09,1.29,1.23,2.69,2.49,4.07,3.61-.32.63-.22,1.4.33,1.9.62.56,1.54.53,2.14-.02.93.63,1.79,1.11,2.51,1.37,1.49.06,2.99-.24,4.48-.8.8.32,1.54.51,2.35.68.04.42.25.82.6,1.11.71.58,1.75.47,2.32-.24.06-.07.08-.15.12-.23.42.1.87.22,1.37.37.76-.05,1.51-.2,2.25-.38,1.02.83,2.52.85,3.56-.04.58-.5.91-1.18.97-1.88.76-.46,1.49-.98,2.22-1.53.77.54,1.82.52,2.57-.11.74-.63.93-1.66.53-2.49.43.19.96.14,1.34-.19.47-.4.56-1.05.28-1.57,1-1.14,1.85-2.34,2.52-3.6.33.03.67-.07.94-.3.54-.46.61-1.27.15-1.81-.03-.04-.07-.05-.1-.08.47-1.26.78-2.55.96-3.85.45,0,.9-.14,1.27-.45.81-.69.91-1.9.22-2.71Z"/>
            <path class="cls-36" d="m260.46,379.95c-.35.3-.8.44-1.24.44-.18,1.28-.5,2.55-.96,3.81.04.04.07.04.11.07.44.55.39,1.35-.14,1.81-.28.21-.62.32-.94.28-.67,1.26-1.51,2.45-2.5,3.57.28.53.2,1.17-.27,1.56-.39.32-.9.37-1.33.2.39.82.2,1.85-.53,2.47-.75.62-1.79.64-2.54.11-.73.55-1.46,1.06-2.2,1.51-.07.71-.39,1.38-.96,1.88-1.03.87-2.52.85-3.53.04-.73.18-1.47.32-2.24.37-.48-.14-.94-.27-1.35-.35-.05.07-.07.14-.12.21-.57.71-1.6.82-2.29.25-.35-.28-.55-.69-.6-1.1-.8-.16-1.53-.35-2.32-.67-1.47.55-2.96.85-4.43.8-.71-.25-1.56-.73-2.48-1.37-.59.55-1.51.59-2.11.04-.55-.5-.64-1.26-.34-1.88-1.35-1.12-2.75-2.36-4.03-3.58-.96.98-2.54,1.03-3.55.09-.89-.8-1.08-2.08-.57-3.09-.55.21-1.19.12-1.65-.28-.64-.59-.69-1.6-.11-2.25.11-.11.23-.18.34-.25-1.33-1.69-1.9-2.96-2.47-4.49-.51.02-1.05-.16-1.46-.53-.83-.75-.9-2.04-.14-2.87.07-.07.16-.12.25-.2-.21-.5-.43-1.01-.71-1.6-.07-.94-.04-1.88.05-2.8-1.21-1.1-1.51-2.91-.62-4.35.48-.8,1.26-1.33,2.11-1.54.41-.99.9-2,1.44-2.98-.8-.83-.98-2.13-.34-3.16.62-1.03,1.84-1.44,2.93-1.12-.3-.5-.34-1.14-.02-1.67.41-.66,1.17-.89,1.86-.64.44-.53.89-1.03,1.38-1.51.07.28.21.55.41.78-.94,1.05-1.77,2.18-2.48,3.44-.05,0-.09-.02-.14-.02-.76-.02-1.37.6-1.38,1.37,0,.37.16.73.41.98-.57,1.42-.98,2.95-1.21,4.56-.62.12-1.08.66-1.08,1.31,0,.53.32.99.76,1.22-.96.25-1.67,1.12-1.67,2.16s.71,1.91,1.69,2.16c.05.99.14,1.95.28,2.87-.53.55-.87,1.28-.87,2.11,0,1.45,1.05,2.66,2.43,2.93.35.73.75,1.44,1.24,2.11.46.3.87.59,1.24.87-.04.09-.09.16-.11.25-.18.96.44,1.88,1.4,2.06.48.11.96-.02,1.33-.27,1.1.89,2.11,1.56,3.87,2.22-.05.11-.11.21-.14.34-.14.75.35,1.47,1.1,1.61.53.11,1.05-.12,1.35-.53.07.98.8,1.84,1.81,2.04,1.19.21,2.32-.53,2.61-1.69,1.49.32,3.09.62,4.6.83.05.6.48,1.12,1.1,1.24.71.14,1.37-.3,1.56-.98.96.04,1.81.02,2.45-.12,1.12-.62,2.09-1.53,2.93-2.59.75-.12,1.37-.32,2.04-.55.21.28.53.48.92.53.78.11,1.49-.44,1.6-1.22.02-.07-.02-.14-.02-.21.37-.11.74-.23,1.17-.35.55-.37,1.03-.82,1.49-1.28,1.12.14,2.22-.51,2.59-1.63.21-.62.14-1.26-.14-1.81.35-.67.67-1.38.96-2.13.8.05,1.56-.43,1.83-1.22.27-.8-.05-1.63-.73-2.08.41-.05.76-.32.9-.73.16-.51-.07-1.03-.5-1.28.23-1.29.3-2.55.23-3.78.16-.09.32-.21.43-.37.3.02.58.16.8.41.46.53.39,1.33-.14,1.79-.05.04-.11.05-.14.07.39,1.3.62,2.63.73,3.99.5.02.99.25,1.35.66.67.8.59,2-.23,2.7Z"/>
            <path class="cls-53" d="m256.46,442.44c-.53-5.73.18-26.7,2.69-37.42,5.34-22.8,14.33-25.75,17.37-25.55,3.79.24,7.23.57,9.76,5.83,3.74,7.8,4.12,32.74.2,57.17-15.8,8.88-29.84,0-30.02-.03Z"/>
          </g>
          <g>
            <path class="cls-58" d="m250.48,166.83l-85.3-49.36c-6.25-3.65-14.1.86-14.1,8.09v44.99c0,8.58,7.08,12.36,7.08,12.36l41.23,23.86,17.66,54.5,5.44-40.99,21.3,12.56c6.25,3.65,14.1-.86,14.1-8.09v-44.99c0-5.32-2.82-10.24-7.42-12.92Z"/>
            <polygon class="cls-50" points="217.06 261.26 211.1 265.65 209.34 244.6 215.44 243.25 217.06 261.26"/>
            <polygon class="cls-25" points="247.44 236.42 253.65 232.58 249.82 221.66 244.72 226.41 247.44 236.42"/>
            <path class="cls-62" d="m244.52,170.51l-85.3-49.36c-6.25-3.65-14.1.86-14.1,8.09v44.99c0,8.58,7.08,12.36,7.08,12.36l41.23,23.86,17.66,54.49,5.44-40.99,21.3,12.56c6.25,3.65,14.1-.86,14.1-8.09v-44.99c0-5.32-2.82-10.24-7.42-12.92Z"/>
            <g>
              <polygon class="cls-32" points="211.55 195.8 158.45 164.37 158.34 167.15 211.44 198.58 211.55 195.8"/>
              <polygon class="cls-32" points="214.76 197.73 214.65 200.5 236.35 213.49 236.47 210.71 214.76 197.73"/>
              <polygon class="cls-32" points="183.47 185.72 166.25 175.49 166.14 178.27 183.36 188.5 183.47 185.72"/>
              <polygon class="cls-32" points="207.44 185.94 175.32 167.07 175.21 169.85 207.33 188.72 207.44 185.94"/>
              <polygon class="cls-32" points="223.28 209.21 223.17 211.99 236.1 219.76 236.21 216.98 223.28 209.21"/>
              <polygon class="cls-32" points="221.15 207.93 184.82 186.53 184.71 189.31 221.03 210.71 221.15 207.93"/>
              <polygon class="cls-32" points="159.21 157.75 159.1 160.53 172.03 168.3 172.14 165.52 159.21 157.75"/>
              <polygon class="cls-32" points="237.39 188.72 158.45 142.16 158.34 144.94 237.28 191.5 237.39 188.72"/>
              <polygon class="cls-32" points="183.47 163.51 166.25 153.28 166.14 156.06 183.36 166.29 183.47 163.51"/>
              <polygon class="cls-32" points="207.44 163.73 175.32 144.86 175.21 147.64 207.33 166.51 207.44 163.73"/>
              <polygon class="cls-32" points="221.15 185.72 184.82 164.32 184.71 167.1 221.03 188.5 221.15 185.72"/>
              <polygon class="cls-32" points="159.21 135.54 159.1 138.32 172.03 146.09 172.14 143.31 159.21 135.54"/>
            </g>
          </g>
          <g>
            <g>
              <path class="cls-47" d="m828.68,679.97c-.42,0-.84-.11-1.23-.33l-67.54-38.41c-1.2-.68-1.62-2.21-.94-3.41.68-1.2,2.21-1.62,3.41-.94l67.54,38.41c1.2.68,1.62,2.21.94,3.41-.46.81-1.31,1.26-2.17,1.26Z"/>
              <path class="cls-47" d="m779.75,673.39c-.43,0-.86-.11-1.26-.34l-37.55-21.93c-1.19-.7-1.59-2.23-.9-3.42.7-1.19,2.23-1.59,3.42-.9l37.55,21.93c1.19.7,1.59,2.23.9,3.42-.46.8-1.3,1.24-2.16,1.24Z"/>
              <g>
                <g class="cls-68">
                  <path class="cls-14" d="m713.26,642.96l18.3-2.22c.61-.08,1.2-.25,1.75-.53l26.81-13.68c3.76-1.92,3.81-7.27.09-9.26l-28.47-15.23-18.48,40.92Z"/>
                </g>
                <path class="cls-5" d="m750.87,622.94c-.3.37-.71.7-1.19.95l-34.82,18.17c-1.22.63-2.68.61-3.88-.08l-38.2-21.78c-.48-.27-.87-.62-1.17-1.01l1.89-6.4,2.39-8.08,11.81.68,46.89,2.71,12.73.74,1.93,7.62,1.63,6.47Z"/>
                <path class="cls-59" d="m749.24,616.47l-1.93-7.62-12.73-.74-20.31-1.17-.88,35.56c.5-.05,1-.2,1.47-.44l34.82-18.17c.48-.25.89-.58,1.19-.95l-1.63-6.47Z"/>
                <path class="cls-19" d="m677.53,608.86l33.76,19.25c1.06.6,2.34.62,3.42.06l30.78-16.06c2.51-1.31,2.57-4.87.12-6.27l-33.76-19.25c-1.05-.6-2.34-.62-3.42-.06l-30.78,16.06c-2.5,1.31-2.57,4.87-.12,6.27Z"/>
                <path class="cls-35" d="m713.08,634.12c-.76,0-1.52-.2-2.21-.59l-36.03-20.54c-1.28-.73-2.09-1.98-2.23-3.43-.14-1.45.42-2.87,1.5-3.81.27-.24.68-.21.92.06.24.27.21.69-.06.92-.76.66-1.15,1.67-1.05,2.69.1,1.03.68,1.91,1.58,2.42l36.03,20.54c.93.53,2.07.56,3.02.06l32.85-17.14c.9-.47,1.5-1.3,1.66-2.29.16-.99-.16-2-.84-2.7-.25-.26-.25-.67.01-.93.26-.25.67-.25.93.01.97.99,1.42,2.42,1.2,3.82-.22,1.4-1.08,2.58-2.34,3.24l-32.85,17.14c-.65.34-1.36.51-2.07.51Z"/>
                <path class="cls-35" d="m698.09,614.7c-1.39,0-2.72-.54-3.72-1.53-1.14-1.13-1.7-2.68-1.55-4.28l1.02-10.52c.21-2.2,2.17-3.81,4.37-3.6,2.2.21,3.81,2.17,3.6,4.37l-.7,7.22,34.09-3.66c2.19-.23,4.17,1.35,4.4,3.55.24,2.2-1.35,4.17-3.55,4.4l-37.38,4.01c-.19.02-.38.03-.57.03Z"/>
              </g>
            </g>
            <g>
              <path class="cls-47" d="m761.15,719.07c-.42,0-.84-.1-1.23-.33l-67.54-38.41c-1.2-.68-1.62-2.21-.94-3.41.68-1.2,2.21-1.62,3.41-.94l67.54,38.41c1.2.68,1.62,2.21.94,3.41-.46.81-1.31,1.26-2.17,1.26Z"/>
              <path class="cls-47" d="m712.22,712.49c-.43,0-.86-.11-1.26-.34l-37.55-21.93c-1.19-.7-1.59-2.23-.9-3.42.7-1.19,2.23-1.59,3.42-.9l37.55,21.93c1.19.7,1.59,2.23.9,3.42-.46.8-1.3,1.24-2.16,1.24Z"/>
              <g>
                <g class="cls-68">
                  <path class="cls-14" d="m645.72,682.06l18.31-2.22c.61-.07,1.2-.25,1.75-.53l26.81-13.68c3.76-1.92,3.81-7.27.09-9.26l-28.47-15.23-18.48,40.92Z"/>
                </g>
                <path class="cls-4" d="m683.34,662.04c-.3.37-.71.7-1.19.95l-34.82,18.17c-1.22.63-2.68.61-3.88-.08l-38.2-21.78c-.48-.27-.87-.62-1.17-1.01l1.89-6.4,2.39-8.08,11.81.68,46.89,2.71,12.73.74,1.93,7.62,1.63,6.47Z"/>
                <path class="cls-8" d="m681.71,655.56l-1.93-7.62-12.73-.74-20.31-1.17-.88,35.56c.5-.05,1-.2,1.47-.44l34.82-18.17c.48-.25.89-.58,1.19-.95l-1.63-6.47Z"/>
                <path class="cls-64" d="m610,647.96l33.76,19.25c1.06.6,2.34.62,3.42.06l30.78-16.06c2.51-1.31,2.57-4.87.12-6.27l-33.76-19.25c-1.05-.6-2.34-.62-3.42-.06l-30.78,16.06c-2.5,1.31-2.57,4.87-.12,6.27Z"/>
                <path class="cls-35" d="m645.54,673.21c-.76,0-1.52-.2-2.21-.59l-36.03-20.54c-1.28-.73-2.09-1.97-2.23-3.43-.14-1.45.42-2.87,1.5-3.81.27-.24.68-.21.92.06.24.27.21.69-.06.92-.76.66-1.15,1.67-1.05,2.69.1,1.02.68,1.91,1.58,2.42l36.03,20.54c.94.53,2.07.55,3.02.06l32.85-17.14c.9-.47,1.5-1.3,1.66-2.29.16-.99-.16-2-.84-2.7-.25-.26-.25-.67.01-.93.26-.25.67-.25.93.01.97,1,1.42,2.42,1.2,3.82-.22,1.4-1.08,2.58-2.34,3.24l-32.85,17.14c-.65.34-1.36.51-2.07.51Z"/>
                <path class="cls-35" d="m630.56,653.79c-1.39,0-2.72-.54-3.72-1.53-1.14-1.12-1.7-2.68-1.55-4.28l1.02-10.52c.21-2.2,2.17-3.81,4.37-3.6,2.2.21,3.81,2.17,3.6,4.37l-.7,7.22,34.09-3.66c2.19-.23,4.17,1.35,4.4,3.55.24,2.2-1.35,4.17-3.55,4.4l-37.38,4.01c-.19.02-.38.03-.57.03Z"/>
              </g>
            </g>
            <g>
              <path class="cls-47" d="m693.61,758.16c-.42,0-.84-.1-1.23-.33l-67.54-38.41c-1.2-.68-1.62-2.21-.94-3.41.68-1.2,2.21-1.62,3.41-.94l67.54,38.41c1.2.68,1.62,2.21.94,3.41-.46.81-1.31,1.26-2.17,1.26Z"/>
              <path class="cls-47" d="m644.68,751.59c-.43,0-.86-.11-1.26-.34l-37.55-21.93c-1.19-.7-1.59-2.23-.9-3.42.7-1.19,2.23-1.59,3.42-.9l37.55,21.93c1.19.7,1.59,2.23.9,3.42-.46.8-1.3,1.24-2.16,1.24Z"/>
              <g>
                <g class="cls-68">
                  <path class="cls-14" d="m578.19,721.16l18.31-2.22c.61-.08,1.2-.25,1.75-.53l26.81-13.68c3.76-1.92,3.81-7.27.09-9.26l-28.47-15.23-18.48,40.92Z"/>
                </g>
                <path class="cls-40" d="m615.8,701.13c-.3.37-.71.7-1.19.95l-34.82,18.18c-1.22.63-2.68.61-3.88-.08l-38.2-21.78c-.48-.27-.87-.61-1.17-1.01l1.89-6.4,2.39-8.08,11.81.68,46.89,2.71,12.73.73,1.93,7.62,1.63,6.47Z"/>
                <path class="cls-15" d="m614.17,694.66l-1.93-7.62-12.73-.73-20.31-1.17-.88,35.56c.5-.05,1-.2,1.47-.44l34.82-18.18c.48-.25.89-.58,1.19-.95l-1.63-6.47Z"/>
                <path class="cls-31" d="m542.47,687.05l33.76,19.25c1.06.6,2.34.63,3.42.06l30.78-16.06c2.51-1.31,2.57-4.87.12-6.27l-33.76-19.25c-1.05-.6-2.34-.63-3.42-.06l-30.78,16.06c-2.5,1.31-2.57,4.87-.12,6.27Z"/>
                <path class="cls-35" d="m578.01,712.31c-.76,0-1.52-.2-2.21-.59l-36.03-20.54c-1.28-.73-2.09-1.98-2.23-3.43-.14-1.45.42-2.87,1.49-3.81.27-.24.69-.21.92.06.24.27.21.69-.06.92-.76.66-1.15,1.67-1.05,2.69.1,1.03.68,1.91,1.58,2.42l36.03,20.54c.94.53,2.07.55,3.02.06l32.85-17.14c.89-.47,1.5-1.3,1.66-2.29.16-.99-.16-2-.84-2.7-.25-.26-.25-.67.01-.93.26-.25.67-.25.93.01.97,1,1.42,2.42,1.2,3.82-.22,1.4-1.08,2.58-2.34,3.24l-32.85,17.14c-.65.34-1.36.51-2.07.51Z"/>
                <path class="cls-35" d="m563.02,692.89c-1.38,0-2.72-.54-3.72-1.53-1.14-1.12-1.71-2.69-1.55-4.28l1.02-10.52c.21-2.2,2.17-3.81,4.37-3.6,2.2.21,3.81,2.17,3.6,4.37l-.7,7.22,34.09-3.66c2.19-.24,4.17,1.35,4.4,3.55.24,2.2-1.35,4.17-3.55,4.4l-37.38,4.01c-.19.02-.38.03-.58.03Zm-.28-7.99s0,0,0,0h0Z"/>
              </g>
            </g>
          </g>
          <g>
            <path class="cls-23" d="m127.79,553.67s-.05.02-.06.04l-1.55.85c-.06.03-.12.06-.18.09l-32.9,18.06-27.12-15.73-32.73-7.29-1.9-12.8,18.21-10.71,22.39-13.17c17.77-4.9,40.05-3.32,54.92,4.76,18.18,9.88,18.49,25.81.92,35.89Z"/>
            <g>
              <polygon class="cls-16" points="7.19 518.76 7.19 529.03 9.7 530.94 19.31 524.85 17.36 519.24 7.19 518.76 7.19 518.76"/>
              <polygon class="cls-33" points="102.45 517.13 102.45 527.4 99.93 529.3 90.33 523.22 92.28 517.61 102.45 517.13 102.45 517.13"/>
              <path class="cls-44" d="m96.75,534.4l5.75-3.48-13.45-6.53-5.42,3.25c-8.41-3.35-20.02-3.65-20.03-3.65l-.17-4.96h-17.31l.17,4.96c-6.94.81-13.62,2.64-19.52,5.03l-6.96-3.63-12.62,7.17,7.33,3.59c-4.12,3.24-6.93,3.19-7.62,5.76l-6.8,4.48v9.33h7.84c1.46,3.68,3.35,6.43,7.79,9.52l-5.09,3.71,13.45,6.53,5.34-3.27c2.96,1.28,12.43,3.86,20.05,3.88l.19,4.26h17.3l-.16-4.69c6.93-.83,13.6-2.44,19.49-4.82l5.85,3.01,12.61-7.16-6.6-2.65c4.03-3.31,6.55-6.97,7.54-10.69l7.84-.03v-9.2l-7.04-5.26c-1.65-5.59-7.62-3.62-9.73-4.47Zm-22.21,22.94c-.35.16-.73.31-1.1.44-9.45,3.64-23.73,3.64-33.19.03-.4-.14-.78-.3-1.17-.47-9.78-4.22-9.78-11.08,0-15.3,9.8-4.24,25.68-4.24,35.46,0,9.8,4.22,9.8,11.08,0,15.3Z"/>
              <path class="cls-7" d="m96.75,520.6l5.75-3.48-13.45-6.53-5.42,3.25c-8.41-3.35-20.02-3.65-20.03-3.65l-.17-4.96h-17.31l.17,4.96c-6.94.81-13.62,2.64-19.52,5.03l-6.96-3.63-12.62,7.17,7.33,3.59c-4.12,3.24-6.4,7.61-7.08,10.18l-7.33.06v9.33h7.84c1.46,3.68,3.35,6.43,7.79,9.53l-5.09,3.71,13.45,6.53,5.34-3.27c2.96,1.28,12.43,3.86,20.05,3.88l.19,4.26h17.3l-.16-4.69c6.93-.83,13.6-2.44,19.49-4.82l5.85,3.01,12.61-7.16-6.6-2.65c4.03-3.31,6.55-6.97,7.54-10.69l7.84-.03v-9.2l-8.4.03c-1.65-5.59-6.26-8.91-8.37-9.75Zm-22.21,22.94c-.35.16-.73.31-1.1.44-9.45,3.64-23.73,3.64-33.19.03-.4-.14-.78-.3-1.17-.47-9.78-4.22-9.78-11.08,0-15.3,9.8-4.24,25.68-4.24,35.46,0,9.8,4.22,9.8,11.08,0,15.3Z"/>
              <polygon class="cls-22" points="49.65 566.55 49.65 580.36 66.95 580.36 66.95 566.55 49.65 566.55 49.65 566.55"/>
              <polygon class="cls-54" points="113.52 539.52 113.52 553.32 105.67 553.32 105.67 539.55 113.52 539.52 113.52 539.52"/>
              <path class="cls-55" d="m92.13,560.05v13.81s13.26-6.89,12.61-7.16c-.66-.26,0-13.81,0-13.81l-12.61,7.16h0Z"/>
              <polygon class="cls-21" points="24.08 561.68 24.08 575.48 10.64 568.95 10.64 555.15 24.08 561.68 24.08 561.68"/>
              <path class="cls-38" d="m.1,541.91s-.22,13.81,0,13.81h7.84v-13.81H.1Z"/>
            </g>
          </g>
          <g>
            <path class="cls-23" d="m160.56,490.49s-.04.02-.05.03l-1.28.7s-.1.05-.15.08l-27.07,14.86-22.32-12.95-26.93-6-1.56-10.53,14.98-8.81,18.42-10.84c14.63-4.04,32.96-2.73,45.19,3.92,14.96,8.13,15.21,21.23.76,29.53Z"/>
            <g>
              <polygon class="cls-46" points="65.66 462.72 65.66 470.71 67.61 472.19 75.08 467.45 73.56 463.1 65.66 462.72 65.66 462.72"/>
              <polygon class="cls-10" points="139.68 461.46 139.68 469.44 137.73 470.92 130.26 466.19 131.78 461.83 139.68 461.46 139.68 461.46"/>
              <path class="cls-9" d="m135.25,474.88l4.47-2.7-10.45-5.07-4.21,2.53c-6.54-2.6-15.56-2.84-15.57-2.84l-.13-3.86h-13.45l.13,3.86c-5.4.63-10.58,2.05-15.17,3.91l-5.41-2.82-9.81,5.57,5.69,2.79c-3.2,2.52-5.39,2.48-5.92,4.47l-5.28,3.48v7.25h6.09c1.13,2.86,2.61,5,6.05,7.4l-3.96,2.88,10.45,5.07,4.15-2.54c2.3,1,9.66,3,15.58,3.01l.14,3.31h13.44l-.12-3.65c5.38-.64,10.57-1.9,15.15-3.75l4.54,2.34,9.8-5.56-5.13-2.06c3.13-2.57,5.09-5.42,5.86-8.31l6.09-.02v-7.15l-5.47-4.09c-1.29-4.34-5.92-2.82-7.56-3.47Zm-17.26,17.83c-.28.12-.56.24-.85.34-7.35,2.83-18.44,2.83-25.79.02-.31-.11-.61-.23-.91-.37-7.6-3.28-7.6-8.61,0-11.89,7.61-3.29,19.96-3.29,27.56,0,7.61,3.28,7.61,8.61,0,11.89Z"/>
              <path class="cls-6" d="m135.25,464.15l4.47-2.7-10.45-5.08-4.21,2.53c-6.54-2.6-15.56-2.84-15.57-2.84l-.13-3.86h-13.45l.13,3.86c-5.4.63-10.58,2.05-15.17,3.91l-5.41-2.82-9.81,5.57,5.69,2.79c-3.2,2.52-4.97,5.92-5.51,7.91l-5.7.04v7.25h6.09c1.13,2.86,2.61,5,6.05,7.4l-3.96,2.88,10.45,5.08,4.15-2.54c2.3,1,9.66,3,15.58,3.01l.14,3.31h13.44l-.12-3.65c5.38-.64,10.57-1.89,15.15-3.74l4.54,2.34,9.8-5.56-5.13-2.06c3.13-2.57,5.09-5.42,5.86-8.31l6.09-.02v-7.15l-6.53.02c-1.29-4.34-4.86-6.92-6.5-7.58Zm-17.26,17.83c-.28.12-.56.24-.85.34-7.35,2.83-18.44,2.83-25.79.02-.31-.11-.61-.23-.91-.37-7.6-3.28-7.6-8.61,0-11.89,7.61-3.29,19.96-3.29,27.56,0,7.61,3.28,7.61,8.61,0,11.89Z"/>
              <polygon class="cls-48" points="98.66 499.86 98.66 510.59 112.1 510.59 112.1 499.86 98.66 499.86 98.66 499.86"/>
              <polygon class="cls-43" points="148.28 478.85 148.28 489.58 142.19 489.58 142.19 478.88 148.28 478.85 148.28 478.85"/>
              <path class="cls-37" d="m131.66,494.81v10.73s10.31-5.36,9.8-5.56c-.51-.21,0-10.73,0-10.73l-9.8,5.56h0Z"/>
              <polygon class="cls-3" points="78.79 496.07 78.79 506.8 68.34 501.73 68.34 491 78.79 496.07 78.79 496.07"/>
              <path class="cls-2" d="m60.15,480.72s-.17,10.73,0,10.73h6.09v-10.73h-6.09Z"/>
            </g>
          </g>
        </g>
      </g>
    </g>
  </g>
</svg>