<?xml version="1.0" encoding="utf-8"?>
<!-- Generator: Adobe Illustrator 28.0.0, SVG Export Plug-In . SVG Version: 6.00 Build 0)  -->
<svg version="1.1" id="layer" xmlns="http://www.w3.org/2000/svg" xmlns:xlink="http://www.w3.org/1999/xlink" x="0px" y="0px"
	 viewBox="0 0 613 245" style="enable-background:new 0 0 613 245;" xml:space="preserve">
<style type="text/css">
	.st0{fill:#0094A1;}
	
		.st1{clip-path:url(#SVGID_00000111898823276943313190000005332036030323498419_);fill:url(#SVGID_00000136406226991528667170000008650841481685943227_);}
	.st2{fill:#FFFFFF;}
</style>
<g>
	<path class="st0" d="M583.2,14.7c0-0.2,0-0.5-0.2-0.7c-0.1-0.2-0.3-0.4-0.5-0.5s-0.5-0.2-0.8-0.2s-0.7-0.1-1-0.1h-1v3.4h0.7
		c0.5,0,0.9,0,1.3-0.1c0.4-0.1,0.7-0.2,0.9-0.4s0.4-0.4,0.5-0.6C583.1,15.3,583.2,15,583.2,14.7 M588.3,23.2h-3.8l-3.6-4.4h-1.2v4.4
		h-3V11.1h4.6c0.8,0,1.5,0,2.1,0.1c0.5,0.1,1,0.2,1.5,0.5s0.9,0.7,1.2,1.1c0.3,0.4,0.4,1,0.4,1.6c0,0.9-0.2,1.6-0.8,2.2
		c-0.5,0.6-1.1,1-1.9,1.3L588.3,23.2z M591,17.4c0-2.6-0.9-4.8-2.8-6.7c-1.9-1.9-4.1-2.8-6.7-2.8c-2.6,0-4.8,0.9-6.7,2.8
		c-1.9,1.9-2.8,4.1-2.8,6.7c0,2.6,0.9,4.8,2.8,6.7c1.8,1.9,4.1,2.8,6.7,2.8c2.6,0,4.8-0.9,6.7-2.8C590.1,22.3,591,20,591,17.4
		 M593.6,17.4c0,3.3-1.2,6.2-3.6,8.6c-2.4,2.4-5.2,3.6-8.5,3.6c-3.4,0-6.2-1.2-8.6-3.6c-2.4-2.4-3.5-5.2-3.5-8.6
		c0-3.3,1.2-6.2,3.5-8.5c2.4-2.4,5.2-3.6,8.6-3.6c3.3,0,6.2,1.2,8.5,3.6C592.5,11.2,593.6,14.1,593.6,17.4"/>
</g>
<g>
	<g>
		<defs>
			<path id="SVGID_1_" d="M88.8,17.7c-29.8,0-55.2,15.4-68.5,37.2C8.6,75.1,6,108.1,6,130s2.6,54.9,14.3,75.2
				C33.6,227,59,242.4,88.8,242.4h434.5c29.8,0,55.2-15.4,68.5-37.2c11.7-20.3,14.3-53.3,14.3-75.2c0-21.9-2.6-54.9-14.3-75.2
				c-13.3-21.8-38.7-37.2-68.5-37.2L88.8,17.7L88.8,17.7z"/>
		</defs>
		<clipPath id="SVGID_00000159434554138771332830000001803522255406294173_">
			<use xlink:href="#SVGID_1_"  style="overflow:visible;"/>
		</clipPath>
		
			<linearGradient id="SVGID_00000090267647653892046610000016454746591532219552_" gradientUnits="userSpaceOnUse" x1="-963.4161" y1="-217.7667" x2="-957.5965" y2="-217.7667" gradientTransform="matrix(0 -38.6108 38.6108 0 8714.1484 -36955.8672)">
			<stop  offset="0" style="stop-color:#0094A2"/>
			<stop  offset="0.5" style="stop-color:#006C76"/>
			<stop  offset="1" style="stop-color:#0094A2"/>
		</linearGradient>
		
			<rect x="6" y="17.7" style="clip-path:url(#SVGID_00000159434554138771332830000001803522255406294173_);fill:url(#SVGID_00000090267647653892046610000016454746591532219552_);" width="600" height="224.7"/>
	</g>
</g>
<g>
	<path class="st2" d="M377.9,117.6h36.6v-1.1c0-16.7-6.7-18-18.8-18C381,98.5,378.3,103.3,377.9,117.6 M121.1,99.6
		c12,0,18.4,1.2,18.4,17.6v0.8h-35.9C104.1,104,107,99.6,121.1,99.6 M70.4,130.6c0,39.4,9.9,53.5,51.3,53.5
		c15.4,0,28.2-1.2,37.1-6.2c8.7-5,13.8-13.6,14-28.9h-32.7c-0.3,11.2-8,12.4-18.4,12.4c-15.1,0-18-6.1-18-24.9v-0.8h69.1v-5.1
		c0-43-11.6-53.7-51.1-53.7C79.5,76.9,70.4,90.1,70.4,130.6 M194.9,111c0,21,7.3,30.8,51.3,30.8c4,0,10.3-0.2,14,1.4
		c3.4,1.5,5,4.5,5,10c0,9.1-3.3,10.1-19,10.1c-8.7,0-17.6-0.2-18-12h-33.3c0.3,23.2,11.3,30.8,31.6,32.4c6.2,0.5,12.8,0.4,19.7,0.4
		c28,0,51.3-4.7,51.3-35.1c0-29-15.1-31-51.3-31.8c-18-0.4-19-4.2-19-10.1c0-7.1,0.8-9.3,19-9.3c6.7,0,13.4,0.6,14.9,8.9h31.3v-4.3
		c0-25.2-26.4-25.5-46.2-25.5C216.4,76.9,194.9,77.6,194.9,111 M467.8,76.9h81.9v23.9h-24.3V183h-33.3v-82.2h-24.3L467.8,76.9
		L467.8,76.9z M345.3,129.9c0-40.4,8.9-53.4,51-53.4c39.3,0,50.8,10.6,50.8,53.4v4.7H378v1.1c0,18.8,3,25.3,18.4,25.3
		c10.4,0,18.3-1.1,18.8-12.4h32c-0.3,15-5.3,23.4-13.8,28.3c-8.8,4.9-21.5,6.1-36.9,6.1C355,183.1,345.3,169.1,345.3,129.9
		 M46.1,202.7c-16.7-17.9-20.3-46-20.3-72.7s3.6-54.8,20.3-72.7C56.7,46,76.9,37.5,94.3,37.4h224.1v185.2H94.3
		C76.9,222.6,56.6,214.1,46.1,202.7"/>
</g>
</svg>
