<?xml version="1.0" encoding="utf-8"?>
<!-- Generator: Adobe Illustrator 27.4.0, SVG Export Plug-In . SVG Version: 6.00 Build 0)  -->
<svg version="1.1" id="SvgjsSvg1017" xmlns:svgjs="http://svgjs.com/svgjs"
	 xmlns="http://www.w3.org/2000/svg" xmlns:xlink="http://www.w3.org/1999/xlink" x="0px" y="0px" viewBox="0 0 171 41"
	 style="enable-background:new 0 0 171 41;" xml:space="preserve">
<style type="text/css">
	.st0{fill:#FFFFFF;}
	.st1{fill:#A9B62B;}
</style>
<path id="SvgjsPath1019" class="st0" d="M26.4,20.4c0-3.9,3.2-7,7.1-7c3.9,0,7.1,3.2,7.1,7v7h-7.1C29.6,27.4,26.4,24.3,26.4,20.4z
	 M21,20.4c0,6.8,5.6,12.4,12.5,12.4h7.1v7.9H46V20.4C46,13.6,40.4,8,33.5,8C26.6,8,21,13.6,21,20.4z"/>
<path id="SvgjsPath1020" class="st0" d="M90.6,27.6c-3.9,0-7.2-3.2-7.2-7.1c0-3.9,3.2-7.1,7.2-7.1c4,0,7.2,3.2,7.2,7.1v7.1H90.6z
	 M78,20.5c0,6.9,5.7,12.5,12.6,12.5h12.6V20.5c0-6.9-5.7-12.5-12.6-12.5S78,13.6,78,20.5z"/>
<path id="SvgjsPath1021" class="st0" d="M126,20.5c0,6.9,5.7,12.5,12.6,12.5c7,0,12.6-5.6,12.6-12.5S145.6,8,138.6,8
	C131.7,8,126,13.6,126,20.5z M145.9,20.5c0,4-3.3,7.2-7.3,7.2c-4,0-7.3-3.2-7.3-7.2c0-4,3.3-7.2,7.3-7.2
	C142.7,13.3,145.9,16.6,145.9,20.5z"/>
<path id="SvgjsPath1022" class="st0" d="M117,33.1h5.5V8H117V33.1z"/>
<path id="SvgjsPath1023" class="st0" d="M69.8,8l0,12.5c0,0,0,0,0,0c0,3.9-3.2,7.1-7.2,7.1c-3.9,0-7.2-3.2-7.2-7.1v0l0-12.5H50v12.5
	c0,3.7,1.6,7,4.1,9.3c0.1,0.1,0.3,0.3,0.5,0.4c2.2,1.8,5,2.9,8,2.9c3.1,0,5.9-1.1,8-2.9c0.1-0.1,0.3-0.3,0.5-0.4
	c2.5-2.3,4.1-5.6,4.1-9.3V8H69.8"/>
<path id="SvgjsPath1024" class="st0" d="M107,33h5.5V0H107V33z"/>
<path id="SvgjsPath1025" class="st0" d="M3.9,25.1c1.8,1.8,3.5,2.9,6,2.9c1.4,0,3.9-0.7,3.9-2.7c0-1.2-0.8-1.8-2.3-2.1l-4.3-0.8
	c-3.8-0.7-5.9-3-5.9-6.5c0-5.7,4-8,8.4-8c3.4,0,6.8,1.6,9.1,4.5l-3.9,3.2c-1.4-1.9-3.4-3-5.5-3c-1.2,0-2.9,0.9-2.9,2.4
	c0,1.2,0.9,1.9,2.9,2.2l2,0.4c4.1,0.8,7.5,2.2,7.5,6.7c0,7.1-5.6,8.4-9.4,8.4c-3.5,0-6.5-1.3-9.3-4.8L3.9,25.1"/>
<path id="SvgjsPath1026" class="st1" d="M158,20.3h6.3V14H158V20.3z"/>
<path id="SvgjsPath1027" class="st1" d="M158,8.3h6.3V2H158V8.3z"/>
<path id="SvgjsPath1028" class="st1" d="M164,14.3h6.3V8H164V14.3z"/>
</svg>
