<?xml version="1.0" encoding="UTF-8"?>
<svg xmlns="http://www.w3.org/2000/svg" xmlns:xlink="http://www.w3.org/1999/xlink" width="359.5pt" height="75.27pt" viewBox="0 0 359.5 75.27" version="1.1">
<defs>
<clipPath id="clip1">
  <path d="M 349 17 L 359.5 17 L 359.5 28 L 349 28 Z M 349 17 "/>
</clipPath>
<clipPath id="clip2">
  <path d="M 57 3 L 115 3 L 115 75.269531 L 57 75.269531 Z M 57 3 "/>
</clipPath>
</defs>
<g id="surface1">
<g clip-path="url(#clip1)" clip-rule="nonzero">
<path style=" stroke:none;fill-rule:nonzero;fill:rgb(94.139099%,36.083984%,15.696716%);fill-opacity:1;" d="M 353.511719 22.203125 L 354.070313 22.203125 C 354.722656 22.203125 355.25 21.984375 355.25 21.457031 C 355.25 20.992188 354.910156 20.683594 354.164063 20.683594 C 353.855469 20.683594 353.636719 20.714844 353.511719 20.746094 Z M 353.480469 25.085938 L 352.304688 25.085938 L 352.304688 20 C 352.769531 19.910156 353.421875 19.84375 354.257813 19.84375 C 355.21875 19.84375 355.652344 20 356.023438 20.21875 C 356.304688 20.433594 356.519531 20.839844 356.519531 21.335938 C 356.519531 21.890625 356.085938 22.328125 355.46875 22.511719 L 355.46875 22.574219 C 355.964844 22.761719 356.242188 23.132813 356.398438 23.816406 C 356.550781 24.589844 356.644531 24.898438 356.769531 25.085938 L 355.496094 25.085938 C 355.34375 24.898438 355.25 24.433594 355.09375 23.847656 C 355.003906 23.289063 354.691406 23.039063 354.039063 23.039063 L 353.480469 23.039063 Z M 350.351563 22.417969 C 350.351563 24.683594 352.023438 26.480469 354.320313 26.480469 C 356.550781 26.480469 358.195313 24.683594 358.195313 22.449219 C 358.195313 20.1875 356.550781 18.355469 354.289063 18.355469 C 352.023438 18.355469 350.351563 20.1875 350.351563 22.417969 M 359.496094 22.417969 C 359.496094 25.304688 357.234375 27.566406 354.289063 27.566406 C 351.375 27.566406 349.046875 25.304688 349.046875 22.417969 C 349.046875 19.597656 351.375 17.335938 354.289063 17.335938 C 357.234375 17.335938 359.496094 19.597656 359.496094 22.417969 "/>
</g>
<path style=" stroke:none;fill-rule:nonzero;fill:rgb(94.139099%,36.083984%,15.696716%);fill-opacity:1;" d="M 40.515625 64.472656 C 40.527344 64.875 40.820313 64.742188 41.039063 64.738281 C 46.308594 65.164063 51.539063 65.019531 56.683594 63.632813 C 64.355469 62.113281 71.171875 58.835938 76.710938 53.28125 C 84.53125 45.441406 85.914063 35.082031 80.253906 26.476563 C 74.722656 18.066406 66.464844 13.777344 56.863281 11.707031 C 51.636719 10.371094 46.351563 9.839844 40.976563 10.621094 C 35.492188 10.773438 30.300781 12.195313 25.328125 14.410156 C 23.550781 15.199219 22.003906 15.242188 20.261719 14.320313 C 17.667969 12.945313 14.972656 11.765625 11.953125 10.328125 C 12.890625 13.261719 13.664063 15.820313 14.527344 18.347656 C 15.027344 19.816406 14.769531 21.054688 13.75 22.1875 C 13.132813 22.875 12.53125 23.578125 11.953125 24.296875 C 5.542969 32.277344 5.238281 42.011719 11.347656 50.222656 C 16.902344 57.679688 24.75 61.527344 33.570313 63.632813 C 35.847656 64.175781 38.144531 64.851563 40.550781 64.488281 Z M 57.828125 70.796875 C 52.738281 71.550781 47.644531 72.265625 42.476563 71.941406 C 30.140625 71.164063 18.992188 67.449219 9.714844 58.929688 C -1.800781 48.351563 -3.261719 32.359375 6.304688 20.105469 C 7.117188 19.066406 7.171875 18.25 6.769531 17.085938 C 5.402344 13.101563 4.167969 9.074219 2.820313 5.082031 C 2.28125 3.480469 2.40625 2.058594 3.671875 0.914063 C 5.007813 -0.296875 6.480469 -0.203125 8.070313 0.578125 C 12.558594 2.796875 17.089844 4.917969 21.589844 7.117188 C 22.398438 7.515625 23.097656 7.671875 23.992188 7.316406 C 34.90625 2.972656 46.136719 2.339844 57.597656 4.515625 C 63.230469 5.753906 68.507813 7.933594 73.59375 10.617188 C 75.585938 12.117188 77.65625 13.527344 79.5625 15.128906 C 92.367188 25.871094 94.296875 42.507813 84.257813 55.265625 C 81.351563 58.960938 77.699219 61.816406 73.875 64.476563 C 68.8125 67.3125 63.429688 69.339844 57.828125 70.796875 "/>
<path style=" stroke:none;fill-rule:nonzero;fill:rgb(94.139099%,36.083984%,15.696716%);fill-opacity:1;" d="M 185.652344 21.945313 C 188.46875 19.046875 191.878906 18.027344 195.613281 17.957031 C 200.070313 17.875 203.921875 19.339844 206.738281 22.90625 C 207.660156 24.070313 208.078125 24.15625 209.164063 23.007813 C 214.230469 17.679688 222.5625 16.371094 228.964844 19.789063 C 233.902344 22.421875 236.367188 26.730469 236.519531 32.164063 C 236.738281 39.878906 236.644531 47.605469 236.613281 55.324219 C 236.605469 58.054688 234.953125 59.632813 232.464844 59.535156 C 229.960938 59.441406 228.660156 58.015625 228.652344 55.230469 C 228.628906 48.105469 228.652344 40.980469 228.640625 33.851563 C 228.632813 26.828125 223.730469 23.070313 216.914063 24.839844 C 213.089844 25.828125 210.980469 28.863281 210.960938 33.554688 C 210.925781 40.878906 210.972656 48.203125 210.9375 55.527344 C 210.921875 58.441406 208.90625 59.988281 206.0625 59.402344 C 203.984375 58.972656 203.027344 57.6875 203.023438 55.207031 C 203.011719 48.214844 203.015625 41.222656 203.023438 34.226563 C 203.027344 32.636719 202.960938 31.0625 202.386719 29.554688 C 200.96875 25.816406 196.945313 23.796875 192.453125 24.566406 C 188.164063 25.304688 185.527344 28.160156 185.488281 32.382813 C 185.425781 39.773438 185.488281 47.164063 185.464844 54.554688 C 185.453125 57.746094 184.457031 59.109375 182.019531 59.457031 C 179.519531 59.8125 177.753906 58.503906 177.441406 56.003906 C 177.34375 55.222656 177.378906 54.421875 177.378906 53.632813 C 177.375 43.273438 177.359375 32.914063 177.386719 22.554688 C 177.394531 19.09375 179.351563 17.449219 182.527344 18.109375 C 184.078125 18.433594 184.738281 19.195313 185.652344 21.945313 "/>
<g clip-path="url(#clip2)" clip-rule="nonzero">
<path style=" stroke:none;fill-rule:nonzero;fill:rgb(10.594177%,52.539063%,76.171875%);fill-opacity:1;" d="M 57.828125 70.800781 C 63.429688 69.339844 68.8125 67.308594 73.875 64.476563 C 74.167969 64.589844 74.484375 64.839844 74.753906 64.792969 C 79.6875 63.996094 84.613281 63.101563 89.152344 60.890625 C 91.003906 59.984375 92.605469 60.105469 94.386719 61.050781 C 96.921875 62.398438 99.554688 63.5625 102.515625 64.980469 C 101.808594 62.761719 101.363281 60.835938 100.582031 59.0625 C 99.316406 56.195313 99.78125 54.035156 101.925781 51.597656 C 109.40625 43.09375 109.472656 32.335938 102.058594 23.742188 C 94.617188 15.113281 84.6875 11.507813 73.59375 10.617188 C 68.507813 7.933594 63.230469 5.753906 57.597656 4.515625 C 75.058594 1.46875 91.164063 4.164063 104.6875 16.378906 C 116.539063 27.085938 117.753906 42.640625 108.070313 55.324219 C 107.359375 56.253906 107.316406 57.011719 107.660156 58.027344 C 108.980469 61.960938 110.226563 65.917969 111.539063 69.855469 C 112.097656 71.53125 112.238281 73.128906 110.785156 74.40625 C 109.339844 75.675781 107.757813 75.375 106.171875 74.601563 C 101.90625 72.527344 97.605469 70.527344 93.375 68.382813 C 92.152344 67.765625 91.164063 67.699219 89.871094 68.199219 C 79.71875 72.117188 69.257813 72.917969 58.5625 71.078125 C 58.308594 71.03125 58.070313 70.894531 57.828125 70.800781 "/>
</g>
<path style=" stroke:none;fill-rule:nonzero;fill:rgb(94.139099%,36.083984%,15.696716%);fill-opacity:1;" d="M 251.167969 38.714844 C 251.1875 41.550781 251.605469 44.335938 252.921875 46.917969 C 254.964844 50.917969 258.175781 53.042969 262.742188 52.984375 C 267.214844 52.925781 270.46875 50.835938 272.28125 46.820313 C 274.800781 41.226563 274.761719 35.550781 271.960938 30.042969 C 270.132813 26.457031 267.046875 24.617188 263.03125 24.480469 C 258.960938 24.339844 255.734375 25.9375 253.542969 29.441406 C 251.773438 32.269531 251.203125 35.414063 251.167969 38.714844 M 252.023438 22.511719 C 256.484375 18.394531 261.378906 17.328125 266.699219 18.265625 C 272.621094 19.308594 276.953125 22.671875 279.515625 28.089844 C 283.355469 36.207031 283.027344 44.230469 278.101563 51.792969 C 273.054688 59.539063 263.714844 60.914063 256.535156 58.402344 C 254.851563 57.8125 253.4375 56.738281 252.222656 55.308594 C 250.929688 58.855469 249.746094 59.796875 247.265625 59.460938 C 245.394531 59.207031 244.28125 58.171875 243.960938 56.324219 C 243.859375 55.742188 243.828125 55.144531 243.828125 54.550781 C 243.820313 39.511719 243.820313 24.46875 243.828125 9.425781 C 243.828125 6.644531 244.65625 5.207031 246.503906 4.679688 C 249.5625 3.804688 251.839844 5.503906 251.898438 8.820313 C 251.96875 12.578125 251.914063 16.339844 251.921875 20.101563 C 251.921875 20.738281 251.972656 21.371094 252.023438 22.511719 "/>
<path style=" stroke:none;fill-rule:nonzero;fill:rgb(94.139099%,36.083984%,15.696716%);fill-opacity:1;" d="M 338.480469 38.671875 C 338.546875 37.171875 338.316406 35.535156 337.945313 33.929688 C 336.574219 28.003906 332.53125 24.488281 327.128906 24.464844 C 321.625 24.441406 317.742188 27.75 316.210938 33.765625 C 315.117188 38.054688 315.351563 42.28125 317.089844 46.34375 C 318.882813 50.539063 322.089844 52.867188 326.738281 52.980469 C 331.5625 53.097656 334.890625 50.816406 336.898438 46.511719 C 338.03125 44.082031 338.484375 41.5 338.480469 38.671875 M 338.339844 54.5 C 335.714844 57.101563 332.859375 58.917969 329.316406 59.332031 C 319.871094 60.441406 311.8125 55.472656 308.90625 46.421875 C 306.191406 37.96875 307.417969 30.125 313.539063 23.390625 C 318.964844 17.421875 330.605469 15.605469 337.429688 21.796875 C 337.664063 22.007813 337.929688 22.191406 338.367188 22.53125 C 338.609375 20.132813 339.273438 18.230469 341.933594 18.003906 C 344.242188 17.808594 346.003906 19.203125 346.011719 21.503906 C 346.050781 32.984375 346.046875 44.46875 346.011719 55.953125 C 346.003906 58.035156 344.605469 59.367188 342.539063 59.519531 C 340.632813 59.660156 339.078125 58.503906 338.65625 56.59375 C 338.519531 55.984375 338.464844 55.355469 338.339844 54.5 "/>
<path style=" stroke:none;fill-rule:nonzero;fill:rgb(94.139099%,36.083984%,15.696716%);fill-opacity:1;" d="M 136.035156 52.585938 C 142.15625 52.585938 148.15625 52.582031 154.15625 52.589844 C 154.941406 52.589844 155.726563 52.542969 156.5 52.832031 C 158.015625 53.398438 158.652344 54.503906 158.574219 56.050781 C 158.5 57.566406 157.613281 58.488281 156.203125 58.84375 C 155.511719 59.019531 154.761719 58.988281 154.039063 58.988281 C 145.792969 58.996094 137.546875 58.992188 129.300781 58.992188 C 127.777344 58.992188 126.148438 59.125 125.265625 57.53125 C 124.308594 55.796875 125.289063 54.324219 126.253906 52.984375 C 132.464844 44.378906 138.710938 35.796875 144.945313 27.207031 C 145.402344 26.578125 145.84375 25.933594 146.28125 25.3125 C 145.835938 24.675781 145.257813 24.941406 144.78125 24.9375 C 140.03125 24.914063 135.28125 24.933594 130.53125 24.914063 C 129.679688 24.910156 128.796875 24.898438 127.984375 24.679688 C 126.472656 24.269531 125.691406 23.179688 125.722656 21.601563 C 125.757813 20.019531 126.601563 18.980469 128.117188 18.613281 C 128.871094 18.429688 129.6875 18.460938 130.476563 18.460938 C 137.996094 18.449219 145.515625 18.453125 153.039063 18.453125 C 153.300781 18.453125 153.566406 18.453125 153.828125 18.453125 C 155.261719 18.453125 156.652344 18.605469 157.402344 20.054688 C 158.144531 21.492188 157.503906 22.777344 156.695313 23.921875 C 154.753906 26.667969 152.75 29.367188 150.757813 32.074219 C 146.140625 38.335938 141.511719 44.585938 136.902344 50.855469 C 136.570313 51.308594 136.058594 51.683594 136.035156 52.585938 "/>
<path style=" stroke:none;fill-rule:nonzero;fill:rgb(94.139099%,36.083984%,15.696716%);fill-opacity:1;" d="M 295.3125 23.566406 C 296.453125 22.398438 297.320313 21.324219 298.363281 20.476563 C 300.464844 18.773438 302.808594 17.621094 305.636719 18.082031 C 307.613281 18.40625 308.894531 19.648438 309.003906 21.421875 C 309.117188 23.230469 308.171875 24.453125 306.535156 25.066406 C 305.433594 25.480469 304.257813 25.699219 303.109375 25.996094 C 298.367188 27.234375 295.398438 30.554688 295.246094 35.421875 C 295.039063 42.078125 295.152344 48.742188 295.089844 55.40625 C 295.058594 58.511719 292.671875 60.222656 289.722656 59.308594 C 287.675781 58.675781 287.105469 57.089844 287.105469 55.148438 C 287.109375 47.496094 287.109375 39.84375 287.109375 32.191406 C 287.109375 29.023438 287.097656 25.855469 287.109375 22.6875 C 287.125 19.578125 288.351563 18.066406 290.921875 17.957031 C 293.597656 17.84375 294.910156 19.269531 295.105469 22.484375 C 295.121094 22.722656 295.195313 22.960938 295.3125 23.566406 "/>
<path style=" stroke:none;fill-rule:nonzero;fill:rgb(94.139099%,36.083984%,15.696716%);fill-opacity:1;" d="M 170.476563 38.742188 C 170.476563 44.222656 170.507813 49.699219 170.464844 55.175781 C 170.441406 58.101563 168.691406 59.753906 166.050781 59.507813 C 163.714844 59.292969 162.503906 57.941406 162.496094 55.367188 C 162.472656 46.523438 162.488281 37.683594 162.488281 28.839844 C 162.488281 26.597656 162.460938 24.351563 162.496094 22.109375 C 162.535156 19.445313 163.984375 17.945313 166.449219 17.941406 C 168.878906 17.9375 170.429688 19.460938 170.457031 22.113281 C 170.515625 27.65625 170.476563 33.199219 170.476563 38.742188 "/>
<path style=" stroke:none;fill-rule:nonzero;fill:rgb(94.139099%,36.083984%,15.696716%);fill-opacity:1;" d="M 165.613281 4.589844 C 168.230469 4.578125 170.136719 6.441406 170.144531 9.015625 C 170.148438 11.589844 168.238281 13.550781 165.691406 13.589844 C 163.230469 13.628906 161.171875 11.59375 161.136719 9.089844 C 161.101563 6.53125 163.023438 4.601563 165.613281 4.589844 "/>
<path style=" stroke:none;fill-rule:nonzero;fill:rgb(10.594177%,52.539063%,76.171875%);fill-opacity:1;" d="M 40.550781 64.488281 C 37.761719 62.410156 34.949219 60.378906 32.488281 57.878906 C 20.476563 45.679688 21.035156 27.617188 33.785156 16.132813 C 36.046875 14.097656 38.519531 12.375 40.976563 10.621094 C 46.351563 9.839844 51.636719 10.371094 56.867188 11.707031 C 51.574219 13.175781 46.53125 15.175781 42.019531 18.390625 C 26.980469 29.113281 27.15625 46.714844 42.382813 57.199219 C 46.773438 60.21875 51.65625 62.074219 56.683594 63.632813 C 51.542969 65.019531 46.308594 65.164063 41.039063 64.738281 C 40.863281 64.648438 40.691406 64.558594 40.515625 64.46875 "/>
<path style=" stroke:none;fill-rule:nonzero;fill:rgb(96.09375%,54.881287%,14.109802%);fill-opacity:1;" d="M 56.78125 53.71875 C 51.503906 53.523438 46.304688 51.371094 42.359375 46.574219 C 40.550781 44.371094 40.570313 42.230469 42.347656 40.835938 C 44.089844 39.476563 45.964844 39.90625 47.765625 42.078125 C 52.867188 48.25 62.371094 48.230469 67.507813 42.039063 C 69.257813 39.929688 71.257813 39.496094 72.960938 40.855469 C 74.671875 42.222656 74.640625 44.472656 72.878906 46.609375 C 69.136719 51.144531 63.597656 53.726563 56.78125 53.71875 "/>
<path style=" stroke:none;fill-rule:nonzero;fill:rgb(10.594177%,52.539063%,76.171875%);fill-opacity:1;" d="M 53.15625 29.0625 C 53.152344 31.949219 50.792969 34.332031 47.910156 34.367188 C 44.914063 34.402344 42.507813 32.015625 42.519531 29.019531 C 42.535156 26.023438 44.949219 23.675781 47.957031 23.730469 C 50.855469 23.785156 53.164063 26.148438 53.15625 29.0625 "/>
<path style=" stroke:none;fill-rule:nonzero;fill:rgb(10.594177%,52.539063%,76.171875%);fill-opacity:1;" d="M 72.691406 29 C 72.703125 32 70.46875 34.320313 67.519531 34.367188 C 64.53125 34.410156 62.070313 31.960938 62.101563 28.980469 C 62.132813 26.058594 64.503906 23.726563 67.4375 23.730469 C 70.414063 23.734375 72.679688 26.007813 72.691406 29 "/>
</g>
</svg>
